<?xml version="1.0" encoding="UTF-8" standalone="no"?>
<!DOCTYPE svg PUBLIC "-//W3C//DTD SVG 1.1//EN"
 "http://www.w3.org/Graphics/SVG/1.1/DTD/svg11.dtd">
<!-- Generated by graphviz version 7.1.0 (0)
 -->
<!-- Pages: 1 -->
<svg width="1105pt" height="128pt"
 viewBox="0.00 0.00 1105.00 128.00" xmlns="http://www.w3.org/2000/svg" xmlns:xlink="http://www.w3.org/1999/xlink">
<g id="graph0" class="graph" transform="scale(1 1) rotate(0) translate(4 124)">
<polygon fill="white" stroke="none" points="-4,4 -4,-124 1101,-124 1101,4 -4,4"/>
<!-- 4577615376 -->
<g id="node1" class="node">
<title>4577615376</title>
<polygon fill="none" stroke="black" points="617,-82.5 617,-118.5 792,-118.5 792,-82.5 617,-82.5"/>
<text text-anchor="middle" x="663.5" y="-96.8" font-family="Times,serif" font-size="14.00">f data &#45;2.0000</text>
<polyline fill="none" stroke="black" points="710,-82.5 710,-118.5"/>
<text text-anchor="middle" x="751" y="-96.8" font-family="Times,serif" font-size="14.00">grad 4.0000</text>
</g>
<!-- 4576400272* -->
<g id="node8" class="node">
<title>4576400272*</title>
<ellipse fill="none" stroke="black" cx="856" cy="-72.5" rx="27" ry="18"/>
<text text-anchor="middle" x="856" y="-68.8" font-family="Times,serif" font-size="14.00">*</text>
</g>
<!-- 4577615376&#45;&gt;4576400272* -->
<g id="edge6" class="edge">
<title>4577615376&#45;&gt;4576400272*</title>
<path fill="none" stroke="black" d="M791.6,-84.37C801.04,-82.61 810.23,-80.88 818.56,-79.33"/>
<polygon fill="black" stroke="black" points="819.01,-82.8 828.2,-77.52 817.72,-75.92 819.01,-82.8"/>
</g>
<!-- 4577617440 -->
<g id="node2" class="node">
<title>4577617440</title>
<polygon fill="none" stroke="black" points="616,-27.5 616,-63.5 793,-63.5 793,-27.5 616,-27.5"/>
<text text-anchor="middle" x="661.5" y="-41.8" font-family="Times,serif" font-size="14.00">d data 4.0000</text>
<polyline fill="none" stroke="black" points="707,-27.5 707,-63.5"/>
<text text-anchor="middle" x="750" y="-41.8" font-family="Times,serif" font-size="14.00">grad &#45;2.0000</text>
</g>
<!-- 4577617440&#45;&gt;4576400272* -->
<g id="edge7" class="edge">
<title>4577617440&#45;&gt;4576400272*</title>
<path fill="none" stroke="black" d="M792.9,-61.28C801.81,-62.89 810.47,-64.46 818.36,-65.88"/>
<polygon fill="black" stroke="black" points="817.72,-69.32 828.19,-67.66 818.97,-62.44 817.72,-69.32"/>
</g>
<!-- 4577617440+ -->
<g id="node3" class="node">
<title>4577617440+</title>
<ellipse fill="none" stroke="black" cx="553" cy="-45.5" rx="27" ry="18"/>
<text text-anchor="middle" x="553" y="-41.8" font-family="Times,serif" font-size="14.00">+</text>
</g>
<!-- 4577617440+&#45;&gt;4577617440 -->
<g id="edge1" class="edge">
<title>4577617440+&#45;&gt;4577617440</title>
<path fill="none" stroke="black" d="M580.38,-45.5C587.63,-45.5 595.95,-45.5 604.76,-45.5"/>
<polygon fill="black" stroke="black" points="604.63,-49 614.63,-45.5 604.63,-42 604.63,-49"/>
</g>
<!-- 4577608800 -->
<g id="node4" class="node">
<title>4577608800</title>
<polygon fill="none" stroke="black" points="308,-55.5 308,-91.5 489,-91.5 489,-55.5 308,-55.5"/>
<text text-anchor="middle" x="355.5" y="-69.8" font-family="Times,serif" font-size="14.00">e data &#45;6.0000</text>
<polyline fill="none" stroke="black" points="403,-55.5 403,-91.5"/>
<text text-anchor="middle" x="446" y="-69.8" font-family="Times,serif" font-size="14.00">grad &#45;2.0000</text>
</g>
<!-- 4577608800&#45;&gt;4577617440+ -->
<g id="edge8" class="edge">
<title>4577608800&#45;&gt;4577617440+</title>
<path fill="none" stroke="black" d="M488.65,-57.13C498.04,-55.41 507.17,-53.73 515.43,-52.21"/>
<polygon fill="black" stroke="black" points="515.78,-55.71 524.98,-50.46 514.52,-48.82 515.78,-55.71"/>
</g>
<!-- 4577608800* -->
<g id="node5" class="node">
<title>4577608800*</title>
<ellipse fill="none" stroke="black" cx="244" cy="-73.5" rx="27" ry="18"/>
<text text-anchor="middle" x="244" y="-69.8" font-family="Times,serif" font-size="14.00">*</text>
</g>
<!-- 4577608800*&#45;&gt;4577608800 -->
<g id="edge2" class="edge">
<title>4577608800*&#45;&gt;4577608800</title>
<path fill="none" stroke="black" d="M271.22,-73.5C278.72,-73.5 287.39,-73.5 296.59,-73.5"/>
<polygon fill="black" stroke="black" points="296.53,-77 306.53,-73.5 296.53,-70 296.53,-77"/>
</g>
<!-- 4577460960 -->
<g id="node6" class="node">
<title>4577460960</title>
<polygon fill="none" stroke="black" points="307,-0.5 307,-36.5 490,-36.5 490,-0.5 307,-0.5"/>
<text text-anchor="middle" x="355.5" y="-14.8" font-family="Times,serif" font-size="14.00">c data 10.0000</text>
<polyline fill="none" stroke="black" points="404,-0.5 404,-36.5"/>
<text text-anchor="middle" x="447" y="-14.8" font-family="Times,serif" font-size="14.00">grad &#45;2.0000</text>
</g>
<!-- 4577460960&#45;&gt;4577617440+ -->
<g id="edge4" class="edge">
<title>4577460960&#45;&gt;4577617440+</title>
<path fill="none" stroke="black" d="M489.97,-34.52C498.83,-36.09 507.42,-37.61 515.25,-38.99"/>
<polygon fill="black" stroke="black" points="514.53,-42.42 524.98,-40.72 515.75,-35.53 514.53,-42.42"/>
</g>
<!-- 4576400272 -->
<g id="node7" class="node">
<title>4576400272</title>
<polygon fill="none" stroke="black" points="919,-54.5 919,-90.5 1097,-90.5 1097,-54.5 919,-54.5"/>
<text text-anchor="middle" x="967" y="-68.8" font-family="Times,serif" font-size="14.00">L data &#45;8.0000</text>
<polyline fill="none" stroke="black" points="1015,-54.5 1015,-90.5"/>
<text text-anchor="middle" x="1056" y="-68.8" font-family="Times,serif" font-size="14.00">grad 1.0000</text>
</g>
<!-- 4576400272*&#45;&gt;4576400272 -->
<g id="edge3" class="edge">
<title>4576400272*&#45;&gt;4576400272</title>
<path fill="none" stroke="black" d="M883.47,-72.5C890.69,-72.5 898.95,-72.5 907.71,-72.5"/>
<polygon fill="black" stroke="black" points="907.52,-76 917.52,-72.5 907.52,-69 907.52,-76"/>
</g>
<!-- 4577473968 -->
<g id="node9" class="node">
<title>4577473968</title>
<polygon fill="none" stroke="black" points="4.5,-83.5 4.5,-119.5 176.5,-119.5 176.5,-83.5 4.5,-83.5"/>
<text text-anchor="middle" x="49.5" y="-97.8" font-family="Times,serif" font-size="14.00">a data 2.0000</text>
<polyline fill="none" stroke="black" points="94.5,-83.5 94.5,-119.5"/>
<text text-anchor="middle" x="135.5" y="-97.8" font-family="Times,serif" font-size="14.00">grad 6.0000</text>
</g>
<!-- 4577473968&#45;&gt;4577608800* -->
<g id="edge5" class="edge">
<title>4577473968&#45;&gt;4577608800*</title>
<path fill="none" stroke="black" d="M176.11,-85.86C186.78,-83.89 197.22,-81.96 206.56,-80.24"/>
<polygon fill="black" stroke="black" points="207.04,-83.71 216.24,-78.45 205.77,-76.82 207.04,-83.71"/>
</g>
<!-- 4577466336 -->
<g id="node10" class="node">
<title>4577466336</title>
<polygon fill="none" stroke="black" points="0,-28.5 0,-64.5 181,-64.5 181,-28.5 0,-28.5"/>
<text text-anchor="middle" x="47.5" y="-42.8" font-family="Times,serif" font-size="14.00">b data &#45;3.0000</text>
<polyline fill="none" stroke="black" points="95,-28.5 95,-64.5"/>
<text text-anchor="middle" x="138" y="-42.8" font-family="Times,serif" font-size="14.00">grad &#45;4.0000</text>
</g>
<!-- 4577466336&#45;&gt;4577608800* -->
<g id="edge9" class="edge">
<title>4577466336&#45;&gt;4577608800*</title>
<path fill="none" stroke="black" d="M180.94,-62.44C189.79,-64.02 198.38,-65.55 206.21,-66.94"/>
<polygon fill="black" stroke="black" points="205.49,-70.37 215.95,-68.68 206.72,-63.48 205.49,-70.37"/>
</g>
</g>
</svg>
