<?xml version="1.0" encoding="UTF-8" standalone="no"?>
<!DOCTYPE svg PUBLIC "-//W3C//DTD SVG 1.1//EN"
 "http://www.w3.org/Graphics/SVG/1.1/DTD/svg11.dtd">
<!-- Generated by graphviz version 7.1.0 (0)
 -->
<!-- Pages: 1 -->
<svg width="1101pt" height="154pt"
 viewBox="0.00 0.00 1101.00 154.00" xmlns="http://www.w3.org/2000/svg" xmlns:xlink="http://www.w3.org/1999/xlink">
<g id="graph0" class="graph" transform="scale(1 1) rotate(0) translate(4 150)">
<polygon fill="white" stroke="none" points="-4,4 -4,-150 1097,-150 1097,4 -4,4"/>
<!-- 4577612832 -->
<g id="node1" class="node">
<title>4577612832</title>
<polygon fill="none" stroke="black" points="304,-27.5 304,-63.5 485,-63.5 485,-27.5 304,-27.5"/>
<text text-anchor="middle" x="351.5" y="-41.8" font-family="Times,serif" font-size="14.00">e data &#45;6.0000</text>
<polyline fill="none" stroke="black" points="399,-27.5 399,-63.5"/>
<text text-anchor="middle" x="442" y="-41.8" font-family="Times,serif" font-size="14.00">grad &#45;2.0000</text>
</g>
<!-- 4577612880+ -->
<g id="node4" class="node">
<title>4577612880+</title>
<ellipse fill="none" stroke="black" cx="549" cy="-72.5" rx="27" ry="18"/>
<text text-anchor="middle" x="549" y="-68.8" font-family="Times,serif" font-size="14.00">+</text>
</g>
<!-- 4577612832&#45;&gt;4577612880+ -->
<g id="edge6" class="edge">
<title>4577612832&#45;&gt;4577612880+</title>
<path fill="none" stroke="black" d="M484.65,-61.28C493.94,-62.93 502.96,-64.53 511.14,-65.97"/>
<polygon fill="black" stroke="black" points="510.52,-69.42 520.98,-67.72 511.75,-62.53 510.52,-69.42"/>
</g>
<!-- 4577612832* -->
<g id="node2" class="node">
<title>4577612832*</title>
<ellipse fill="none" stroke="black" cx="240" cy="-45.5" rx="27" ry="18"/>
<text text-anchor="middle" x="240" y="-41.8" font-family="Times,serif" font-size="14.00">*</text>
</g>
<!-- 4577612832*&#45;&gt;4577612832 -->
<g id="edge1" class="edge">
<title>4577612832*&#45;&gt;4577612832</title>
<path fill="none" stroke="black" d="M267.22,-45.5C274.72,-45.5 283.39,-45.5 292.59,-45.5"/>
<polygon fill="black" stroke="black" points="292.53,-49 302.53,-45.5 292.53,-42 292.53,-49"/>
</g>
<!-- 4577612880 -->
<g id="node3" class="node">
<title>4577612880</title>
<polygon fill="none" stroke="black" points="612,-54.5 612,-90.5 789,-90.5 789,-54.5 612,-54.5"/>
<text text-anchor="middle" x="657.5" y="-68.8" font-family="Times,serif" font-size="14.00">d data 4.0000</text>
<polyline fill="none" stroke="black" points="703,-54.5 703,-90.5"/>
<text text-anchor="middle" x="746" y="-68.8" font-family="Times,serif" font-size="14.00">grad &#45;2.0000</text>
</g>
<!-- 4577617488* -->
<g id="node6" class="node">
<title>4577617488*</title>
<ellipse fill="none" stroke="black" cx="852" cy="-99.5" rx="27" ry="18"/>
<text text-anchor="middle" x="852" y="-95.8" font-family="Times,serif" font-size="14.00">*</text>
</g>
<!-- 4577612880&#45;&gt;4577617488* -->
<g id="edge9" class="edge">
<title>4577612880&#45;&gt;4577617488*</title>
<path fill="none" stroke="black" d="M788.9,-88.28C797.81,-89.89 806.47,-91.46 814.36,-92.88"/>
<polygon fill="black" stroke="black" points="813.72,-96.32 824.19,-94.66 814.97,-89.44 813.72,-96.32"/>
</g>
<!-- 4577612880+&#45;&gt;4577612880 -->
<g id="edge2" class="edge">
<title>4577612880+&#45;&gt;4577612880</title>
<path fill="none" stroke="black" d="M576.38,-72.5C583.63,-72.5 591.95,-72.5 600.76,-72.5"/>
<polygon fill="black" stroke="black" points="600.63,-76 610.63,-72.5 600.63,-69 600.63,-76"/>
</g>
<!-- 4577617488 -->
<g id="node5" class="node">
<title>4577617488</title>
<polygon fill="none" stroke="black" points="915,-81.5 915,-117.5 1093,-117.5 1093,-81.5 915,-81.5"/>
<text text-anchor="middle" x="963" y="-95.8" font-family="Times,serif" font-size="14.00">L data &#45;8.0000</text>
<polyline fill="none" stroke="black" points="1011,-81.5 1011,-117.5"/>
<text text-anchor="middle" x="1052" y="-95.8" font-family="Times,serif" font-size="14.00">grad 1.0000</text>
</g>
<!-- 4577617488*&#45;&gt;4577617488 -->
<g id="edge3" class="edge">
<title>4577617488*&#45;&gt;4577617488</title>
<path fill="none" stroke="black" d="M879.47,-99.5C886.69,-99.5 894.95,-99.5 903.71,-99.5"/>
<polygon fill="black" stroke="black" points="903.52,-103 913.52,-99.5 903.52,-96 903.52,-103"/>
</g>
<!-- 4577609328 -->
<g id="node7" class="node">
<title>4577609328</title>
<polygon fill="none" stroke="black" points="2.5,-55.5 2.5,-91.5 174.5,-91.5 174.5,-55.5 2.5,-55.5"/>
<text text-anchor="middle" x="47.5" y="-69.8" font-family="Times,serif" font-size="14.00">a data 2.0000</text>
<polyline fill="none" stroke="black" points="92.5,-55.5 92.5,-91.5"/>
<text text-anchor="middle" x="133.5" y="-69.8" font-family="Times,serif" font-size="14.00">grad 0.0000</text>
</g>
<!-- 4577609328&#45;&gt;4577612832* -->
<g id="edge5" class="edge">
<title>4577609328&#45;&gt;4577612832*</title>
<path fill="none" stroke="black" d="M174.3,-57.62C184.17,-55.77 193.81,-53.96 202.51,-52.33"/>
<polygon fill="black" stroke="black" points="203.04,-55.8 212.22,-50.52 201.75,-48.92 203.04,-55.8"/>
</g>
<!-- 4577615088 -->
<g id="node8" class="node">
<title>4577615088</title>
<polygon fill="none" stroke="black" points="613,-109.5 613,-145.5 788,-145.5 788,-109.5 613,-109.5"/>
<text text-anchor="middle" x="659.5" y="-123.8" font-family="Times,serif" font-size="14.00">f data &#45;2.0000</text>
<polyline fill="none" stroke="black" points="706,-109.5 706,-145.5"/>
<text text-anchor="middle" x="747" y="-123.8" font-family="Times,serif" font-size="14.00">grad 4.0000</text>
</g>
<!-- 4577615088&#45;&gt;4577617488* -->
<g id="edge8" class="edge">
<title>4577615088&#45;&gt;4577617488*</title>
<path fill="none" stroke="black" d="M787.6,-111.37C797.04,-109.61 806.23,-107.88 814.56,-106.33"/>
<polygon fill="black" stroke="black" points="815.01,-109.8 824.2,-104.52 813.72,-102.92 815.01,-109.8"/>
</g>
<!-- 4577613696 -->
<g id="node9" class="node">
<title>4577613696</title>
<polygon fill="none" stroke="black" points="0,-0.5 0,-36.5 177,-36.5 177,-0.5 0,-0.5"/>
<text text-anchor="middle" x="47.5" y="-14.8" font-family="Times,serif" font-size="14.00">b data &#45;3.0000</text>
<polyline fill="none" stroke="black" points="95,-0.5 95,-36.5"/>
<text text-anchor="middle" x="136" y="-14.8" font-family="Times,serif" font-size="14.00">grad 0.0000</text>
</g>
<!-- 4577613696&#45;&gt;4577612832* -->
<g id="edge7" class="edge">
<title>4577613696&#45;&gt;4577612832*</title>
<path fill="none" stroke="black" d="M176.9,-34.28C185.81,-35.89 194.47,-37.46 202.36,-38.88"/>
<polygon fill="black" stroke="black" points="201.72,-42.32 212.19,-40.66 202.97,-35.44 201.72,-42.32"/>
</g>
<!-- 4577611200 -->
<g id="node10" class="node">
<title>4577611200</title>
<polygon fill="none" stroke="black" points="303,-82.5 303,-118.5 486,-118.5 486,-82.5 303,-82.5"/>
<text text-anchor="middle" x="351.5" y="-96.8" font-family="Times,serif" font-size="14.00">c data 10.0000</text>
<polyline fill="none" stroke="black" points="400,-82.5 400,-118.5"/>
<text text-anchor="middle" x="443" y="-96.8" font-family="Times,serif" font-size="14.00">grad &#45;2.0000</text>
</g>
<!-- 4577611200&#45;&gt;4577612880+ -->
<g id="edge4" class="edge">
<title>4577611200&#45;&gt;4577612880+</title>
<path fill="none" stroke="black" d="M485.97,-83.89C494.83,-82.26 503.42,-80.68 511.25,-79.25"/>
<polygon fill="black" stroke="black" points="511.78,-82.71 520.99,-77.46 510.52,-75.82 511.78,-82.71"/>
</g>
</g>
</svg>
