<?xml version="1.0" encoding="UTF-8" standalone="no"?>
<!DOCTYPE svg PUBLIC "-//W3C//DTD SVG 1.1//EN"
 "http://www.w3.org/Graphics/SVG/1.1/DTD/svg11.dtd">
<!-- Generated by graphviz version 7.1.0 (0)
 -->
<!-- Pages: 1 -->
<svg width="1095pt" height="128pt"
 viewBox="0.00 0.00 1095.00 128.00" xmlns="http://www.w3.org/2000/svg" xmlns:xlink="http://www.w3.org/1999/xlink">
<g id="graph0" class="graph" transform="scale(1 1) rotate(0) translate(4 124)">
<polygon fill="white" stroke="none" points="-4,4 -4,-124 1091,-124 1091,4 -4,4"/>
<!-- 4656367120 -->
<g id="node1" class="node">
<title>4656367120</title>
<polygon fill="none" stroke="black" points="609,-27.5 609,-63.5 782,-63.5 782,-27.5 609,-27.5"/>
<text text-anchor="middle" x="654.5" y="-41.8" font-family="Times,serif" font-size="14.00">d data 4.0000</text>
<polyline fill="none" stroke="black" points="700,-27.5 700,-63.5"/>
<text text-anchor="middle" x="741" y="-41.8" font-family="Times,serif" font-size="14.00">grad 0.0000</text>
</g>
<!-- 4656371104* -->
<g id="node10" class="node">
<title>4656371104*</title>
<ellipse fill="none" stroke="black" cx="846" cy="-72.5" rx="27" ry="18"/>
<text text-anchor="middle" x="846" y="-68.8" font-family="Times,serif" font-size="14.00">*</text>
</g>
<!-- 4656367120&#45;&gt;4656371104* -->
<g id="edge4" class="edge">
<title>4656367120&#45;&gt;4656371104*</title>
<path fill="none" stroke="black" d="M781.59,-60.97C791.02,-62.69 800.21,-64.36 808.53,-65.87"/>
<polygon fill="black" stroke="black" points="807.7,-69.28 818.17,-67.62 808.96,-62.39 807.7,-69.28"/>
</g>
<!-- 4656367120+ -->
<g id="node2" class="node">
<title>4656367120+</title>
<ellipse fill="none" stroke="black" cx="545" cy="-45.5" rx="27" ry="18"/>
<text text-anchor="middle" x="545" y="-41.8" font-family="Times,serif" font-size="14.00">+</text>
</g>
<!-- 4656367120+&#45;&gt;4656367120 -->
<g id="edge1" class="edge">
<title>4656367120+&#45;&gt;4656367120</title>
<path fill="none" stroke="black" d="M572.21,-45.5C579.78,-45.5 588.53,-45.5 597.79,-45.5"/>
<polygon fill="black" stroke="black" points="597.79,-49 607.79,-45.5 597.79,-42 597.79,-49"/>
</g>
<!-- 4656367168 -->
<g id="node3" class="node">
<title>4656367168</title>
<polygon fill="none" stroke="black" points="608,-82.5 608,-118.5 783,-118.5 783,-82.5 608,-82.5"/>
<text text-anchor="middle" x="654.5" y="-96.8" font-family="Times,serif" font-size="14.00">f data &#45;2.0000</text>
<polyline fill="none" stroke="black" points="701,-82.5 701,-118.5"/>
<text text-anchor="middle" x="742" y="-96.8" font-family="Times,serif" font-size="14.00">grad 0.0000</text>
</g>
<!-- 4656367168&#45;&gt;4656371104* -->
<g id="edge9" class="edge">
<title>4656367168&#45;&gt;4656371104*</title>
<path fill="none" stroke="black" d="M782.88,-84.21C791.89,-82.51 800.64,-80.86 808.61,-79.36"/>
<polygon fill="black" stroke="black" points="808.98,-82.85 818.16,-77.56 807.68,-75.97 808.98,-82.85"/>
</g>
<!-- 4656369232 -->
<g id="node4" class="node">
<title>4656369232</title>
<polygon fill="none" stroke="black" points="304,-55.5 304,-91.5 481,-91.5 481,-55.5 304,-55.5"/>
<text text-anchor="middle" x="351.5" y="-69.8" font-family="Times,serif" font-size="14.00">e data &#45;6.0000</text>
<polyline fill="none" stroke="black" points="399,-55.5 399,-91.5"/>
<text text-anchor="middle" x="440" y="-69.8" font-family="Times,serif" font-size="14.00">grad 0.0000</text>
</g>
<!-- 4656369232&#45;&gt;4656367120+ -->
<g id="edge6" class="edge">
<title>4656369232&#45;&gt;4656367120+</title>
<path fill="none" stroke="black" d="M480.61,-57.29C490.07,-55.53 499.26,-53.82 507.59,-52.27"/>
<polygon fill="black" stroke="black" points="508.03,-55.75 517.22,-50.48 506.75,-48.87 508.03,-55.75"/>
</g>
<!-- 4656369232* -->
<g id="node5" class="node">
<title>4656369232*</title>
<ellipse fill="none" stroke="black" cx="240" cy="-73.5" rx="27" ry="18"/>
<text text-anchor="middle" x="240" y="-69.8" font-family="Times,serif" font-size="14.00">*</text>
</g>
<!-- 4656369232*&#45;&gt;4656369232 -->
<g id="edge2" class="edge">
<title>4656369232*&#45;&gt;4656369232</title>
<path fill="none" stroke="black" d="M267.22,-73.5C274.76,-73.5 283.47,-73.5 292.7,-73.5"/>
<polygon fill="black" stroke="black" points="292.67,-77 302.67,-73.5 292.67,-70 292.67,-77"/>
</g>
<!-- 4656105072 -->
<g id="node6" class="node">
<title>4656105072</title>
<polygon fill="none" stroke="black" points="0,-83.5 0,-119.5 177,-119.5 177,-83.5 0,-83.5"/>
<text text-anchor="middle" x="47.5" y="-97.8" font-family="Times,serif" font-size="14.00">b data &#45;3.0000</text>
<polyline fill="none" stroke="black" points="95,-83.5 95,-119.5"/>
<text text-anchor="middle" x="136" y="-97.8" font-family="Times,serif" font-size="14.00">grad 0.0000</text>
</g>
<!-- 4656105072&#45;&gt;4656369232* -->
<g id="edge8" class="edge">
<title>4656105072&#45;&gt;4656369232*</title>
<path fill="none" stroke="black" d="M176.9,-85.13C185.81,-83.46 194.47,-81.84 202.36,-80.36"/>
<polygon fill="black" stroke="black" points="203,-83.8 212.19,-78.52 201.71,-76.92 203,-83.8"/>
</g>
<!-- 4656119664 -->
<g id="node7" class="node">
<title>4656119664</title>
<polygon fill="none" stroke="black" points="2.5,-28.5 2.5,-64.5 174.5,-64.5 174.5,-28.5 2.5,-28.5"/>
<text text-anchor="middle" x="47.5" y="-42.8" font-family="Times,serif" font-size="14.00">a data 2.0000</text>
<polyline fill="none" stroke="black" points="92.5,-28.5 92.5,-64.5"/>
<text text-anchor="middle" x="133.5" y="-42.8" font-family="Times,serif" font-size="14.00">grad 0.0000</text>
</g>
<!-- 4656119664&#45;&gt;4656369232* -->
<g id="edge7" class="edge">
<title>4656119664&#45;&gt;4656369232*</title>
<path fill="none" stroke="black" d="M174.3,-61.81C184.08,-63.58 193.64,-65.31 202.27,-66.87"/>
<polygon fill="black" stroke="black" points="201.45,-70.27 211.91,-68.61 202.69,-63.39 201.45,-70.27"/>
</g>
<!-- 4656112512 -->
<g id="node8" class="node">
<title>4656112512</title>
<polygon fill="none" stroke="black" points="303,-0.5 303,-36.5 482,-36.5 482,-0.5 303,-0.5"/>
<text text-anchor="middle" x="351.5" y="-14.8" font-family="Times,serif" font-size="14.00">c data 10.0000</text>
<polyline fill="none" stroke="black" points="400,-0.5 400,-36.5"/>
<text text-anchor="middle" x="441" y="-14.8" font-family="Times,serif" font-size="14.00">grad 0.0000</text>
</g>
<!-- 4656112512&#45;&gt;4656367120+ -->
<g id="edge5" class="edge">
<title>4656112512&#45;&gt;4656367120+</title>
<path fill="none" stroke="black" d="M481.92,-34.36C490.75,-35.95 499.34,-37.49 507.17,-38.89"/>
<polygon fill="black" stroke="black" points="506.46,-42.32 516.92,-40.64 507.69,-35.43 506.46,-42.32"/>
</g>
<!-- 4656371104 -->
<g id="node9" class="node">
<title>4656371104</title>
<polygon fill="none" stroke="black" points="909,-54.5 909,-90.5 1087,-90.5 1087,-54.5 909,-54.5"/>
<text text-anchor="middle" x="957" y="-68.8" font-family="Times,serif" font-size="14.00">L data &#45;8.0000</text>
<polyline fill="none" stroke="black" points="1005,-54.5 1005,-90.5"/>
<text text-anchor="middle" x="1046" y="-68.8" font-family="Times,serif" font-size="14.00">grad 0.0000</text>
</g>
<!-- 4656371104*&#45;&gt;4656371104 -->
<g id="edge3" class="edge">
<title>4656371104*&#45;&gt;4656371104</title>
<path fill="none" stroke="black" d="M873.47,-72.5C880.69,-72.5 888.95,-72.5 897.71,-72.5"/>
<polygon fill="black" stroke="black" points="897.52,-76 907.52,-72.5 897.52,-69 897.52,-76"/>
</g>
</g>
</svg>
