<?xml version="1.0" encoding="UTF-8" standalone="no"?>
<!DOCTYPE svg PUBLIC "-//W3C//DTD SVG 1.1//EN"
 "http://www.w3.org/Graphics/SVG/1.1/DTD/svg11.dtd">
<!-- Generated by graphviz version 7.1.0 (0)
 -->
<!-- Pages: 1 -->
<svg width="1101pt" height="128pt"
 viewBox="0.00 0.00 1101.00 128.00" xmlns="http://www.w3.org/2000/svg" xmlns:xlink="http://www.w3.org/1999/xlink">
<g id="graph0" class="graph" transform="scale(1 1) rotate(0) translate(4 124)">
<polygon fill="white" stroke="none" points="-4,4 -4,-124 1097,-124 1097,4 -4,4"/>
<!-- 4656111792 -->
<g id="node1" class="node">
<title>4656111792</title>
<polygon fill="none" stroke="black" points="915,-27.5 915,-63.5 1093,-63.5 1093,-27.5 915,-27.5"/>
<text text-anchor="middle" x="963" y="-41.8" font-family="Times,serif" font-size="14.00">L data &#45;8.0000</text>
<polyline fill="none" stroke="black" points="1011,-27.5 1011,-63.5"/>
<text text-anchor="middle" x="1052" y="-41.8" font-family="Times,serif" font-size="14.00">grad 1.0000</text>
</g>
<!-- 4656111792* -->
<g id="node2" class="node">
<title>4656111792*</title>
<ellipse fill="none" stroke="black" cx="852" cy="-45.5" rx="27" ry="18"/>
<text text-anchor="middle" x="852" y="-41.8" font-family="Times,serif" font-size="14.00">*</text>
</g>
<!-- 4656111792*&#45;&gt;4656111792 -->
<g id="edge1" class="edge">
<title>4656111792*&#45;&gt;4656111792</title>
<path fill="none" stroke="black" d="M879.47,-45.5C886.69,-45.5 894.95,-45.5 903.71,-45.5"/>
<polygon fill="black" stroke="black" points="903.52,-49 913.52,-45.5 903.52,-42 903.52,-49"/>
</g>
<!-- 4656105168 -->
<g id="node3" class="node">
<title>4656105168</title>
<polygon fill="none" stroke="black" points="303,-83.5 303,-119.5 486,-119.5 486,-83.5 303,-83.5"/>
<text text-anchor="middle" x="351.5" y="-97.8" font-family="Times,serif" font-size="14.00">c data 10.0000</text>
<polyline fill="none" stroke="black" points="400,-83.5 400,-119.5"/>
<text text-anchor="middle" x="443" y="-97.8" font-family="Times,serif" font-size="14.00">grad &#45;2.0000</text>
</g>
<!-- 4656103776+ -->
<g id="node7" class="node">
<title>4656103776+</title>
<ellipse fill="none" stroke="black" cx="549" cy="-73.5" rx="27" ry="18"/>
<text text-anchor="middle" x="549" y="-69.8" font-family="Times,serif" font-size="14.00">+</text>
</g>
<!-- 4656105168&#45;&gt;4656103776+ -->
<g id="edge6" class="edge">
<title>4656105168&#45;&gt;4656103776+</title>
<path fill="none" stroke="black" d="M485.97,-84.89C494.83,-83.26 503.42,-81.68 511.25,-80.25"/>
<polygon fill="black" stroke="black" points="511.78,-83.71 520.99,-78.46 510.52,-76.82 511.78,-83.71"/>
</g>
<!-- 4656106224 -->
<g id="node4" class="node">
<title>4656106224</title>
<polygon fill="none" stroke="black" points="0,-56.5 0,-92.5 177,-92.5 177,-56.5 0,-56.5"/>
<text text-anchor="middle" x="47.5" y="-70.8" font-family="Times,serif" font-size="14.00">b data &#45;3.0000</text>
<polyline fill="none" stroke="black" points="95,-56.5 95,-92.5"/>
<text text-anchor="middle" x="136" y="-70.8" font-family="Times,serif" font-size="14.00">grad 0.0000</text>
</g>
<!-- 4656111072* -->
<g id="node9" class="node">
<title>4656111072*</title>
<ellipse fill="none" stroke="black" cx="240" cy="-46.5" rx="27" ry="18"/>
<text text-anchor="middle" x="240" y="-42.8" font-family="Times,serif" font-size="14.00">*</text>
</g>
<!-- 4656106224&#45;&gt;4656111072* -->
<g id="edge7" class="edge">
<title>4656106224&#45;&gt;4656111072*</title>
<path fill="none" stroke="black" d="M176.9,-58.13C185.81,-56.46 194.47,-54.84 202.36,-53.36"/>
<polygon fill="black" stroke="black" points="203,-56.8 212.19,-51.52 201.71,-49.92 203,-56.8"/>
</g>
<!-- 4656107808 -->
<g id="node5" class="node">
<title>4656107808</title>
<polygon fill="none" stroke="black" points="2.5,-1.5 2.5,-37.5 174.5,-37.5 174.5,-1.5 2.5,-1.5"/>
<text text-anchor="middle" x="47.5" y="-15.8" font-family="Times,serif" font-size="14.00">a data 2.0000</text>
<polyline fill="none" stroke="black" points="92.5,-1.5 92.5,-37.5"/>
<text text-anchor="middle" x="133.5" y="-15.8" font-family="Times,serif" font-size="14.00">grad 0.0000</text>
</g>
<!-- 4656107808&#45;&gt;4656111072* -->
<g id="edge5" class="edge">
<title>4656107808&#45;&gt;4656111072*</title>
<path fill="none" stroke="black" d="M174.3,-34.81C184.08,-36.58 193.64,-38.31 202.27,-39.87"/>
<polygon fill="black" stroke="black" points="201.45,-43.27 211.91,-41.61 202.69,-36.39 201.45,-43.27"/>
</g>
<!-- 4656103776 -->
<g id="node6" class="node">
<title>4656103776</title>
<polygon fill="none" stroke="black" points="612,-55.5 612,-91.5 789,-91.5 789,-55.5 612,-55.5"/>
<text text-anchor="middle" x="657.5" y="-69.8" font-family="Times,serif" font-size="14.00">d data 4.0000</text>
<polyline fill="none" stroke="black" points="703,-55.5 703,-91.5"/>
<text text-anchor="middle" x="746" y="-69.8" font-family="Times,serif" font-size="14.00">grad &#45;2.0000</text>
</g>
<!-- 4656103776&#45;&gt;4656111792* -->
<g id="edge9" class="edge">
<title>4656103776&#45;&gt;4656111792*</title>
<path fill="none" stroke="black" d="M788.9,-57.13C797.81,-55.46 806.47,-53.84 814.36,-52.36"/>
<polygon fill="black" stroke="black" points="815,-55.8 824.19,-50.52 813.71,-48.92 815,-55.8"/>
</g>
<!-- 4656103776+&#45;&gt;4656103776 -->
<g id="edge2" class="edge">
<title>4656103776+&#45;&gt;4656103776</title>
<path fill="none" stroke="black" d="M576.38,-73.5C583.63,-73.5 591.95,-73.5 600.76,-73.5"/>
<polygon fill="black" stroke="black" points="600.63,-77 610.63,-73.5 600.63,-70 600.63,-77"/>
</g>
<!-- 4656111072 -->
<g id="node8" class="node">
<title>4656111072</title>
<polygon fill="none" stroke="black" points="304,-28.5 304,-64.5 485,-64.5 485,-28.5 304,-28.5"/>
<text text-anchor="middle" x="351.5" y="-42.8" font-family="Times,serif" font-size="14.00">e data &#45;6.0000</text>
<polyline fill="none" stroke="black" points="399,-28.5 399,-64.5"/>
<text text-anchor="middle" x="442" y="-42.8" font-family="Times,serif" font-size="14.00">grad &#45;2.0000</text>
</g>
<!-- 4656111072&#45;&gt;4656103776+ -->
<g id="edge4" class="edge">
<title>4656111072&#45;&gt;4656103776+</title>
<path fill="none" stroke="black" d="M484.65,-62.28C493.94,-63.93 502.96,-65.53 511.14,-66.97"/>
<polygon fill="black" stroke="black" points="510.52,-70.42 520.98,-68.72 511.75,-63.53 510.52,-70.42"/>
</g>
<!-- 4656111072*&#45;&gt;4656111072 -->
<g id="edge3" class="edge">
<title>4656111072*&#45;&gt;4656111072</title>
<path fill="none" stroke="black" d="M267.22,-46.5C274.72,-46.5 283.39,-46.5 292.59,-46.5"/>
<polygon fill="black" stroke="black" points="292.53,-50 302.53,-46.5 292.53,-43 292.53,-50"/>
</g>
<!-- 4656103920 -->
<g id="node10" class="node">
<title>4656103920</title>
<polygon fill="none" stroke="black" points="613,-0.5 613,-36.5 788,-36.5 788,-0.5 613,-0.5"/>
<text text-anchor="middle" x="659.5" y="-14.8" font-family="Times,serif" font-size="14.00">f data &#45;2.0000</text>
<polyline fill="none" stroke="black" points="706,-0.5 706,-36.5"/>
<text text-anchor="middle" x="747" y="-14.8" font-family="Times,serif" font-size="14.00">grad 4.0000</text>
</g>
<!-- 4656103920&#45;&gt;4656111792* -->
<g id="edge8" class="edge">
<title>4656103920&#45;&gt;4656111792*</title>
<path fill="none" stroke="black" d="M787.6,-34.05C796.95,-35.74 806.06,-37.38 814.32,-38.88"/>
<polygon fill="black" stroke="black" points="813.43,-42.27 823.89,-40.6 814.67,-35.38 813.43,-42.27"/>
</g>
</g>
</svg>
