<?xml version="1.0" encoding="UTF-8" standalone="no"?>
<!DOCTYPE svg PUBLIC "-//W3C//DTD SVG 1.1//EN"
 "http://www.w3.org/Graphics/SVG/1.1/DTD/svg11.dtd">
<!-- Generated by graphviz version 7.1.0 (0)
 -->
<!-- Pages: 1 -->
<svg width="1105pt" height="128pt"
 viewBox="0.00 0.00 1105.00 128.00" xmlns="http://www.w3.org/2000/svg" xmlns:xlink="http://www.w3.org/1999/xlink">
<g id="graph0" class="graph" transform="scale(1 1) rotate(0) translate(4 124)">
<polygon fill="white" stroke="none" points="-4,4 -4,-124 1101,-124 1101,4 -4,4"/>
<!-- 4843272224 -->
<g id="node1" class="node">
<title>4843272224</title>
<polygon fill="none" stroke="black" points="307,-83.5 307,-119.5 490,-119.5 490,-83.5 307,-83.5"/>
<text text-anchor="middle" x="355.5" y="-97.8" font-family="Times,serif" font-size="14.00">c data 10.0000</text>
<polyline fill="none" stroke="black" points="404,-83.5 404,-119.5"/>
<text text-anchor="middle" x="447" y="-97.8" font-family="Times,serif" font-size="14.00">grad &#45;2.0000</text>
</g>
<!-- 4843267760+ -->
<g id="node5" class="node">
<title>4843267760+</title>
<ellipse fill="none" stroke="black" cx="553" cy="-73.5" rx="27" ry="18"/>
<text text-anchor="middle" x="553" y="-69.8" font-family="Times,serif" font-size="14.00">+</text>
</g>
<!-- 4843272224&#45;&gt;4843267760+ -->
<g id="edge4" class="edge">
<title>4843272224&#45;&gt;4843267760+</title>
<path fill="none" stroke="black" d="M489.97,-84.89C498.83,-83.26 507.42,-81.68 515.25,-80.25"/>
<polygon fill="black" stroke="black" points="515.78,-83.71 524.99,-78.46 514.52,-76.82 515.78,-83.71"/>
</g>
<!-- 4843267664 -->
<g id="node2" class="node">
<title>4843267664</title>
<polygon fill="none" stroke="black" points="617,-0.5 617,-36.5 792,-36.5 792,-0.5 617,-0.5"/>
<text text-anchor="middle" x="663.5" y="-14.8" font-family="Times,serif" font-size="14.00">f data &#45;2.0000</text>
<polyline fill="none" stroke="black" points="710,-0.5 710,-36.5"/>
<text text-anchor="middle" x="751" y="-14.8" font-family="Times,serif" font-size="14.00">grad 4.0000</text>
</g>
<!-- 4843272080* -->
<g id="node10" class="node">
<title>4843272080*</title>
<ellipse fill="none" stroke="black" cx="856" cy="-45.5" rx="27" ry="18"/>
<text text-anchor="middle" x="856" y="-41.8" font-family="Times,serif" font-size="14.00">*</text>
</g>
<!-- 4843267664&#45;&gt;4843272080* -->
<g id="edge9" class="edge">
<title>4843267664&#45;&gt;4843272080*</title>
<path fill="none" stroke="black" d="M791.6,-34.05C800.95,-35.74 810.06,-37.38 818.32,-38.88"/>
<polygon fill="black" stroke="black" points="817.43,-42.27 827.89,-40.6 818.67,-35.38 817.43,-42.27"/>
</g>
<!-- 4843261568 -->
<g id="node3" class="node">
<title>4843261568</title>
<polygon fill="none" stroke="black" points="4.5,-56.5 4.5,-92.5 176.5,-92.5 176.5,-56.5 4.5,-56.5"/>
<text text-anchor="middle" x="49.5" y="-70.8" font-family="Times,serif" font-size="14.00">a data 2.0000</text>
<polyline fill="none" stroke="black" points="94.5,-56.5 94.5,-92.5"/>
<text text-anchor="middle" x="135.5" y="-70.8" font-family="Times,serif" font-size="14.00">grad 6.0000</text>
</g>
<!-- 4843271984* -->
<g id="node8" class="node">
<title>4843271984*</title>
<ellipse fill="none" stroke="black" cx="244" cy="-46.5" rx="27" ry="18"/>
<text text-anchor="middle" x="244" y="-42.8" font-family="Times,serif" font-size="14.00">*</text>
</g>
<!-- 4843261568&#45;&gt;4843271984* -->
<g id="edge8" class="edge">
<title>4843261568&#45;&gt;4843271984*</title>
<path fill="none" stroke="black" d="M176.11,-58.86C186.78,-56.89 197.22,-54.96 206.56,-53.24"/>
<polygon fill="black" stroke="black" points="207.04,-56.71 216.24,-51.45 205.77,-49.82 207.04,-56.71"/>
</g>
<!-- 4843267760 -->
<g id="node4" class="node">
<title>4843267760</title>
<polygon fill="none" stroke="black" points="616,-55.5 616,-91.5 793,-91.5 793,-55.5 616,-55.5"/>
<text text-anchor="middle" x="661.5" y="-69.8" font-family="Times,serif" font-size="14.00">d data 4.0000</text>
<polyline fill="none" stroke="black" points="707,-55.5 707,-91.5"/>
<text text-anchor="middle" x="750" y="-69.8" font-family="Times,serif" font-size="14.00">grad &#45;2.0000</text>
</g>
<!-- 4843267760&#45;&gt;4843272080* -->
<g id="edge6" class="edge">
<title>4843267760&#45;&gt;4843272080*</title>
<path fill="none" stroke="black" d="M792.9,-57.13C801.81,-55.46 810.47,-53.84 818.36,-52.36"/>
<polygon fill="black" stroke="black" points="819,-55.8 828.19,-50.52 817.71,-48.92 819,-55.8"/>
</g>
<!-- 4843267760+&#45;&gt;4843267760 -->
<g id="edge1" class="edge">
<title>4843267760+&#45;&gt;4843267760</title>
<path fill="none" stroke="black" d="M580.38,-73.5C587.63,-73.5 595.95,-73.5 604.76,-73.5"/>
<polygon fill="black" stroke="black" points="604.63,-77 614.63,-73.5 604.63,-70 604.63,-77"/>
</g>
<!-- 4843271408 -->
<g id="node6" class="node">
<title>4843271408</title>
<polygon fill="none" stroke="black" points="0,-1.5 0,-37.5 181,-37.5 181,-1.5 0,-1.5"/>
<text text-anchor="middle" x="47.5" y="-15.8" font-family="Times,serif" font-size="14.00">b data &#45;3.0000</text>
<polyline fill="none" stroke="black" points="95,-1.5 95,-37.5"/>
<text text-anchor="middle" x="138" y="-15.8" font-family="Times,serif" font-size="14.00">grad &#45;4.0000</text>
</g>
<!-- 4843271408&#45;&gt;4843271984* -->
<g id="edge5" class="edge">
<title>4843271408&#45;&gt;4843271984*</title>
<path fill="none" stroke="black" d="M180.94,-35.44C189.79,-37.02 198.38,-38.55 206.21,-39.94"/>
<polygon fill="black" stroke="black" points="205.49,-43.37 215.95,-41.68 206.72,-36.48 205.49,-43.37"/>
</g>
<!-- 4843271984 -->
<g id="node7" class="node">
<title>4843271984</title>
<polygon fill="none" stroke="black" points="308,-28.5 308,-64.5 489,-64.5 489,-28.5 308,-28.5"/>
<text text-anchor="middle" x="355.5" y="-42.8" font-family="Times,serif" font-size="14.00">e data &#45;6.0000</text>
<polyline fill="none" stroke="black" points="403,-28.5 403,-64.5"/>
<text text-anchor="middle" x="446" y="-42.8" font-family="Times,serif" font-size="14.00">grad &#45;2.0000</text>
</g>
<!-- 4843271984&#45;&gt;4843267760+ -->
<g id="edge7" class="edge">
<title>4843271984&#45;&gt;4843267760+</title>
<path fill="none" stroke="black" d="M488.65,-62.28C497.94,-63.93 506.96,-65.53 515.14,-66.97"/>
<polygon fill="black" stroke="black" points="514.52,-70.42 524.98,-68.72 515.75,-63.53 514.52,-70.42"/>
</g>
<!-- 4843271984*&#45;&gt;4843271984 -->
<g id="edge2" class="edge">
<title>4843271984*&#45;&gt;4843271984</title>
<path fill="none" stroke="black" d="M271.22,-46.5C278.72,-46.5 287.39,-46.5 296.59,-46.5"/>
<polygon fill="black" stroke="black" points="296.53,-50 306.53,-46.5 296.53,-43 296.53,-50"/>
</g>
<!-- 4843272080 -->
<g id="node9" class="node">
<title>4843272080</title>
<polygon fill="none" stroke="black" points="919,-27.5 919,-63.5 1097,-63.5 1097,-27.5 919,-27.5"/>
<text text-anchor="middle" x="967" y="-41.8" font-family="Times,serif" font-size="14.00">L data &#45;8.0000</text>
<polyline fill="none" stroke="black" points="1015,-27.5 1015,-63.5"/>
<text text-anchor="middle" x="1056" y="-41.8" font-family="Times,serif" font-size="14.00">grad 1.0000</text>
</g>
<!-- 4843272080*&#45;&gt;4843272080 -->
<g id="edge3" class="edge">
<title>4843272080*&#45;&gt;4843272080</title>
<path fill="none" stroke="black" d="M883.47,-45.5C890.69,-45.5 898.95,-45.5 907.71,-45.5"/>
<polygon fill="black" stroke="black" points="907.52,-49 917.52,-45.5 907.52,-42 907.52,-49"/>
</g>
</g>
</svg>
