<?xml version="1.0" encoding="UTF-8" standalone="no"?>
<!DOCTYPE svg PUBLIC "-//W3C//DTD SVG 1.1//EN"
 "http://www.w3.org/Graphics/SVG/1.1/DTD/svg11.dtd">
<!-- Generated by graphviz version 7.1.0 (0)
 -->
<!-- Pages: 1 -->
<svg width="1105pt" height="154pt"
 viewBox="0.00 0.00 1105.00 154.00" xmlns="http://www.w3.org/2000/svg" xmlns:xlink="http://www.w3.org/1999/xlink">
<g id="graph0" class="graph" transform="scale(1 1) rotate(0) translate(4 150)">
<polygon fill="white" stroke="none" points="-4,4 -4,-150 1101,-150 1101,4 -4,4"/>
<!-- 4844705808 -->
<g id="node1" class="node">
<title>4844705808</title>
<polygon fill="none" stroke="black" points="308,-27.5 308,-63.5 489,-63.5 489,-27.5 308,-27.5"/>
<text text-anchor="middle" x="355.5" y="-41.8" font-family="Times,serif" font-size="14.00">e data &#45;6.0000</text>
<polyline fill="none" stroke="black" points="403,-27.5 403,-63.5"/>
<text text-anchor="middle" x="446" y="-41.8" font-family="Times,serif" font-size="14.00">grad &#45;2.0000</text>
</g>
<!-- 4844707632+ -->
<g id="node5" class="node">
<title>4844707632+</title>
<ellipse fill="none" stroke="black" cx="553" cy="-72.5" rx="27" ry="18"/>
<text text-anchor="middle" x="553" y="-68.8" font-family="Times,serif" font-size="14.00">+</text>
</g>
<!-- 4844705808&#45;&gt;4844707632+ -->
<g id="edge7" class="edge">
<title>4844705808&#45;&gt;4844707632+</title>
<path fill="none" stroke="black" d="M488.65,-61.28C497.94,-62.93 506.96,-64.53 515.14,-65.97"/>
<polygon fill="black" stroke="black" points="514.52,-69.42 524.98,-67.72 515.75,-62.53 514.52,-69.42"/>
</g>
<!-- 4844705808* -->
<g id="node2" class="node">
<title>4844705808*</title>
<ellipse fill="none" stroke="black" cx="244" cy="-45.5" rx="27" ry="18"/>
<text text-anchor="middle" x="244" y="-41.8" font-family="Times,serif" font-size="14.00">*</text>
</g>
<!-- 4844705808*&#45;&gt;4844705808 -->
<g id="edge1" class="edge">
<title>4844705808*&#45;&gt;4844705808</title>
<path fill="none" stroke="black" d="M271.22,-45.5C278.72,-45.5 287.39,-45.5 296.59,-45.5"/>
<polygon fill="black" stroke="black" points="296.53,-49 306.53,-45.5 296.53,-42 296.53,-49"/>
</g>
<!-- 4844708400 -->
<g id="node3" class="node">
<title>4844708400</title>
<polygon fill="none" stroke="black" points="0,-55.5 0,-91.5 181,-91.5 181,-55.5 0,-55.5"/>
<text text-anchor="middle" x="47.5" y="-69.8" font-family="Times,serif" font-size="14.00">b data &#45;3.0000</text>
<polyline fill="none" stroke="black" points="95,-55.5 95,-91.5"/>
<text text-anchor="middle" x="138" y="-69.8" font-family="Times,serif" font-size="14.00">grad &#45;4.0000</text>
</g>
<!-- 4844708400&#45;&gt;4844705808* -->
<g id="edge9" class="edge">
<title>4844708400&#45;&gt;4844705808*</title>
<path fill="none" stroke="black" d="M180.94,-56.97C189.79,-55.33 198.38,-53.75 206.21,-52.3"/>
<polygon fill="black" stroke="black" points="206.75,-55.76 215.95,-50.5 205.48,-48.87 206.75,-55.76"/>
</g>
<!-- 4844707632 -->
<g id="node4" class="node">
<title>4844707632</title>
<polygon fill="none" stroke="black" points="616,-54.5 616,-90.5 793,-90.5 793,-54.5 616,-54.5"/>
<text text-anchor="middle" x="661.5" y="-68.8" font-family="Times,serif" font-size="14.00">d data 4.0000</text>
<polyline fill="none" stroke="black" points="707,-54.5 707,-90.5"/>
<text text-anchor="middle" x="750" y="-68.8" font-family="Times,serif" font-size="14.00">grad &#45;2.0000</text>
</g>
<!-- 4844711760* -->
<g id="node7" class="node">
<title>4844711760*</title>
<ellipse fill="none" stroke="black" cx="856" cy="-99.5" rx="27" ry="18"/>
<text text-anchor="middle" x="856" y="-95.8" font-family="Times,serif" font-size="14.00">*</text>
</g>
<!-- 4844707632&#45;&gt;4844711760* -->
<g id="edge4" class="edge">
<title>4844707632&#45;&gt;4844711760*</title>
<path fill="none" stroke="black" d="M792.9,-88.28C801.81,-89.89 810.47,-91.46 818.36,-92.88"/>
<polygon fill="black" stroke="black" points="817.72,-96.32 828.19,-94.66 818.97,-89.44 817.72,-96.32"/>
</g>
<!-- 4844707632+&#45;&gt;4844707632 -->
<g id="edge2" class="edge">
<title>4844707632+&#45;&gt;4844707632</title>
<path fill="none" stroke="black" d="M580.38,-72.5C587.63,-72.5 595.95,-72.5 604.76,-72.5"/>
<polygon fill="black" stroke="black" points="604.63,-76 614.63,-72.5 604.63,-69 604.63,-76"/>
</g>
<!-- 4844711760 -->
<g id="node6" class="node">
<title>4844711760</title>
<polygon fill="none" stroke="black" points="919,-81.5 919,-117.5 1097,-117.5 1097,-81.5 919,-81.5"/>
<text text-anchor="middle" x="967" y="-95.8" font-family="Times,serif" font-size="14.00">L data &#45;8.0000</text>
<polyline fill="none" stroke="black" points="1015,-81.5 1015,-117.5"/>
<text text-anchor="middle" x="1056" y="-95.8" font-family="Times,serif" font-size="14.00">grad 1.0000</text>
</g>
<!-- 4844711760*&#45;&gt;4844711760 -->
<g id="edge3" class="edge">
<title>4844711760*&#45;&gt;4844711760</title>
<path fill="none" stroke="black" d="M883.47,-99.5C890.69,-99.5 898.95,-99.5 907.71,-99.5"/>
<polygon fill="black" stroke="black" points="907.52,-103 917.52,-99.5 907.52,-96 907.52,-103"/>
</g>
<!-- 4844704608 -->
<g id="node8" class="node">
<title>4844704608</title>
<polygon fill="none" stroke="black" points="4.5,-0.5 4.5,-36.5 176.5,-36.5 176.5,-0.5 4.5,-0.5"/>
<text text-anchor="middle" x="49.5" y="-14.8" font-family="Times,serif" font-size="14.00">a data 2.0000</text>
<polyline fill="none" stroke="black" points="94.5,-0.5 94.5,-36.5"/>
<text text-anchor="middle" x="135.5" y="-14.8" font-family="Times,serif" font-size="14.00">grad 6.0000</text>
</g>
<!-- 4844704608&#45;&gt;4844705808* -->
<g id="edge5" class="edge">
<title>4844704608&#45;&gt;4844705808*</title>
<path fill="none" stroke="black" d="M176.11,-33.58C186.69,-35.46 197.03,-37.31 206.31,-38.96"/>
<polygon fill="black" stroke="black" points="205.46,-42.37 215.92,-40.67 206.69,-35.47 205.46,-42.37"/>
</g>
<!-- 4844705136 -->
<g id="node9" class="node">
<title>4844705136</title>
<polygon fill="none" stroke="black" points="307,-82.5 307,-118.5 490,-118.5 490,-82.5 307,-82.5"/>
<text text-anchor="middle" x="355.5" y="-96.8" font-family="Times,serif" font-size="14.00">c data 10.0000</text>
<polyline fill="none" stroke="black" points="404,-82.5 404,-118.5"/>
<text text-anchor="middle" x="447" y="-96.8" font-family="Times,serif" font-size="14.00">grad &#45;2.0000</text>
</g>
<!-- 4844705136&#45;&gt;4844707632+ -->
<g id="edge8" class="edge">
<title>4844705136&#45;&gt;4844707632+</title>
<path fill="none" stroke="black" d="M489.97,-83.89C498.83,-82.26 507.42,-80.68 515.25,-79.25"/>
<polygon fill="black" stroke="black" points="515.78,-82.71 524.99,-77.46 514.52,-75.82 515.78,-82.71"/>
</g>
<!-- 4844707680 -->
<g id="node10" class="node">
<title>4844707680</title>
<polygon fill="none" stroke="black" points="617,-109.5 617,-145.5 792,-145.5 792,-109.5 617,-109.5"/>
<text text-anchor="middle" x="663.5" y="-123.8" font-family="Times,serif" font-size="14.00">f data &#45;2.0000</text>
<polyline fill="none" stroke="black" points="710,-109.5 710,-145.5"/>
<text text-anchor="middle" x="751" y="-123.8" font-family="Times,serif" font-size="14.00">grad 4.0000</text>
</g>
<!-- 4844707680&#45;&gt;4844711760* -->
<g id="edge6" class="edge">
<title>4844707680&#45;&gt;4844711760*</title>
<path fill="none" stroke="black" d="M791.6,-111.37C801.04,-109.61 810.23,-107.88 818.56,-106.33"/>
<polygon fill="black" stroke="black" points="819.01,-109.8 828.2,-104.52 817.72,-102.92 819.01,-109.8"/>
</g>
</g>
</svg>
