<?xml version="1.0" encoding="UTF-8" standalone="no"?>
<!DOCTYPE svg PUBLIC "-//W3C//DTD SVG 1.1//EN"
 "http://www.w3.org/Graphics/SVG/1.1/DTD/svg11.dtd">
<!-- Generated by graphviz version 7.1.0 (0)
 -->
<!-- Pages: 1 -->
<svg width="1105pt" height="156pt"
 viewBox="0.00 0.00 1105.00 156.00" xmlns="http://www.w3.org/2000/svg" xmlns:xlink="http://www.w3.org/1999/xlink">
<g id="graph0" class="graph" transform="scale(1 1) rotate(0) translate(4 152)">
<polygon fill="white" stroke="none" points="-4,4 -4,-152 1101,-152 1101,4 -4,4"/>
<!-- 4577847824 -->
<g id="node1" class="node">
<title>4577847824</title>
<polygon fill="none" stroke="black" points="0,-111.5 0,-147.5 181,-147.5 181,-111.5 0,-111.5"/>
<text text-anchor="middle" x="47.5" y="-125.8" font-family="Times,serif" font-size="14.00">b data &#45;3.0000</text>
<polyline fill="none" stroke="black" points="95,-111.5 95,-147.5"/>
<text text-anchor="middle" x="138" y="-125.8" font-family="Times,serif" font-size="14.00">grad &#45;4.0000</text>
</g>
<!-- 4577850656* -->
<g id="node6" class="node">
<title>4577850656*</title>
<ellipse fill="none" stroke="black" cx="244" cy="-101.5" rx="27" ry="18"/>
<text text-anchor="middle" x="244" y="-97.8" font-family="Times,serif" font-size="14.00">*</text>
</g>
<!-- 4577847824&#45;&gt;4577850656* -->
<g id="edge4" class="edge">
<title>4577847824&#45;&gt;4577850656*</title>
<path fill="none" stroke="black" d="M180.94,-112.97C189.79,-111.33 198.38,-109.75 206.21,-108.3"/>
<polygon fill="black" stroke="black" points="206.75,-111.76 215.95,-106.5 205.48,-104.87 206.75,-111.76"/>
</g>
<!-- 4577838224 -->
<g id="node2" class="node">
<title>4577838224</title>
<polygon fill="none" stroke="black" points="919,-27.5 919,-63.5 1097,-63.5 1097,-27.5 919,-27.5"/>
<text text-anchor="middle" x="967" y="-41.8" font-family="Times,serif" font-size="14.00">L data &#45;8.0000</text>
<polyline fill="none" stroke="black" points="1015,-27.5 1015,-63.5"/>
<text text-anchor="middle" x="1056" y="-41.8" font-family="Times,serif" font-size="14.00">grad 1.0000</text>
</g>
<!-- 4577838224* -->
<g id="node3" class="node">
<title>4577838224*</title>
<ellipse fill="none" stroke="black" cx="856" cy="-45.5" rx="27" ry="18"/>
<text text-anchor="middle" x="856" y="-41.8" font-family="Times,serif" font-size="14.00">*</text>
</g>
<!-- 4577838224*&#45;&gt;4577838224 -->
<g id="edge1" class="edge">
<title>4577838224*&#45;&gt;4577838224</title>
<path fill="none" stroke="black" d="M883.47,-45.5C890.69,-45.5 898.95,-45.5 907.71,-45.5"/>
<polygon fill="black" stroke="black" points="907.52,-49 917.52,-45.5 907.52,-42 907.52,-49"/>
</g>
<!-- 4577850560 -->
<g id="node4" class="node">
<title>4577850560</title>
<polygon fill="none" stroke="black" points="307,-28.5 307,-64.5 490,-64.5 490,-28.5 307,-28.5"/>
<text text-anchor="middle" x="355.5" y="-42.8" font-family="Times,serif" font-size="14.00">c data 10.0000</text>
<polyline fill="none" stroke="black" points="404,-28.5 404,-64.5"/>
<text text-anchor="middle" x="447" y="-42.8" font-family="Times,serif" font-size="14.00">grad &#45;2.0000</text>
</g>
<!-- 4577848160+ -->
<g id="node8" class="node">
<title>4577848160+</title>
<ellipse fill="none" stroke="black" cx="553" cy="-73.5" rx="27" ry="18"/>
<text text-anchor="middle" x="553" y="-69.8" font-family="Times,serif" font-size="14.00">+</text>
</g>
<!-- 4577850560&#45;&gt;4577848160+ -->
<g id="edge5" class="edge">
<title>4577850560&#45;&gt;4577848160+</title>
<path fill="none" stroke="black" d="M489.97,-62.52C498.83,-64.09 507.42,-65.61 515.25,-66.99"/>
<polygon fill="black" stroke="black" points="514.53,-70.42 524.98,-68.72 515.75,-63.53 514.53,-70.42"/>
</g>
<!-- 4577850656 -->
<g id="node5" class="node">
<title>4577850656</title>
<polygon fill="none" stroke="black" points="308,-83.5 308,-119.5 489,-119.5 489,-83.5 308,-83.5"/>
<text text-anchor="middle" x="355.5" y="-97.8" font-family="Times,serif" font-size="14.00">e data &#45;6.0000</text>
<polyline fill="none" stroke="black" points="403,-83.5 403,-119.5"/>
<text text-anchor="middle" x="446" y="-97.8" font-family="Times,serif" font-size="14.00">grad &#45;2.0000</text>
</g>
<!-- 4577850656&#45;&gt;4577848160+ -->
<g id="edge6" class="edge">
<title>4577850656&#45;&gt;4577848160+</title>
<path fill="none" stroke="black" d="M488.65,-85.13C498.04,-83.41 507.17,-81.73 515.43,-80.21"/>
<polygon fill="black" stroke="black" points="515.78,-83.71 524.98,-78.46 514.52,-76.82 515.78,-83.71"/>
</g>
<!-- 4577850656*&#45;&gt;4577850656 -->
<g id="edge2" class="edge">
<title>4577850656*&#45;&gt;4577850656</title>
<path fill="none" stroke="black" d="M271.22,-101.5C278.72,-101.5 287.39,-101.5 296.59,-101.5"/>
<polygon fill="black" stroke="black" points="296.53,-105 306.53,-101.5 296.53,-98 296.53,-105"/>
</g>
<!-- 4577848160 -->
<g id="node7" class="node">
<title>4577848160</title>
<polygon fill="none" stroke="black" points="616,-55.5 616,-91.5 793,-91.5 793,-55.5 616,-55.5"/>
<text text-anchor="middle" x="661.5" y="-69.8" font-family="Times,serif" font-size="14.00">d data 4.0000</text>
<polyline fill="none" stroke="black" points="707,-55.5 707,-91.5"/>
<text text-anchor="middle" x="750" y="-69.8" font-family="Times,serif" font-size="14.00">grad &#45;2.0000</text>
</g>
<!-- 4577848160&#45;&gt;4577838224* -->
<g id="edge8" class="edge">
<title>4577848160&#45;&gt;4577838224*</title>
<path fill="none" stroke="black" d="M792.9,-57.13C801.81,-55.46 810.47,-53.84 818.36,-52.36"/>
<polygon fill="black" stroke="black" points="819,-55.8 828.19,-50.52 817.71,-48.92 819,-55.8"/>
</g>
<!-- 4577848160+&#45;&gt;4577848160 -->
<g id="edge3" class="edge">
<title>4577848160+&#45;&gt;4577848160</title>
<path fill="none" stroke="black" d="M580.38,-73.5C587.63,-73.5 595.95,-73.5 604.76,-73.5"/>
<polygon fill="black" stroke="black" points="604.63,-77 614.63,-73.5 604.63,-70 604.63,-77"/>
</g>
<!-- 4577851760 -->
<g id="node9" class="node">
<title>4577851760</title>
<polygon fill="none" stroke="black" points="4.5,-56.5 4.5,-92.5 176.5,-92.5 176.5,-56.5 4.5,-56.5"/>
<text text-anchor="middle" x="49.5" y="-70.8" font-family="Times,serif" font-size="14.00">a data 2.0000</text>
<polyline fill="none" stroke="black" points="94.5,-56.5 94.5,-92.5"/>
<text text-anchor="middle" x="135.5" y="-70.8" font-family="Times,serif" font-size="14.00">grad 6.0000</text>
</g>
<!-- 4577851760&#45;&gt;4577850656* -->
<g id="edge9" class="edge">
<title>4577851760&#45;&gt;4577850656*</title>
<path fill="none" stroke="black" d="M176.11,-89.58C186.69,-91.46 197.03,-93.31 206.31,-94.96"/>
<polygon fill="black" stroke="black" points="205.46,-98.37 215.92,-96.67 206.69,-91.47 205.46,-98.37"/>
</g>
<!-- 4577848208 -->
<g id="node10" class="node">
<title>4577848208</title>
<polygon fill="none" stroke="black" points="617,-0.5 617,-36.5 792,-36.5 792,-0.5 617,-0.5"/>
<text text-anchor="middle" x="663.5" y="-14.8" font-family="Times,serif" font-size="14.00">f data &#45;2.0000</text>
<polyline fill="none" stroke="black" points="710,-0.5 710,-36.5"/>
<text text-anchor="middle" x="751" y="-14.8" font-family="Times,serif" font-size="14.00">grad 4.0000</text>
</g>
<!-- 4577848208&#45;&gt;4577838224* -->
<g id="edge7" class="edge">
<title>4577848208&#45;&gt;4577838224*</title>
<path fill="none" stroke="black" d="M791.6,-34.05C800.95,-35.74 810.06,-37.38 818.32,-38.88"/>
<polygon fill="black" stroke="black" points="817.43,-42.27 827.89,-40.6 818.67,-35.38 817.43,-42.27"/>
</g>
</g>
</svg>
