<?xml version="1.0" encoding="UTF-8" standalone="no"?>
<!DOCTYPE svg PUBLIC "-//W3C//DTD SVG 1.1//EN"
 "http://www.w3.org/Graphics/SVG/1.1/DTD/svg11.dtd">
<!-- Generated by graphviz version 7.1.0 (0)
 -->
<!-- Pages: 1 -->
<svg width="1101pt" height="128pt"
 viewBox="0.00 0.00 1101.00 128.00" xmlns="http://www.w3.org/2000/svg" xmlns:xlink="http://www.w3.org/1999/xlink">
<g id="graph0" class="graph" transform="scale(1 1) rotate(0) translate(4 124)">
<polygon fill="white" stroke="none" points="-4,4 -4,-124 1097,-124 1097,4 -4,4"/>
<!-- 4843272224 -->
<g id="node1" class="node">
<title>4843272224</title>
<polygon fill="none" stroke="black" points="303,-83.5 303,-119.5 486,-119.5 486,-83.5 303,-83.5"/>
<text text-anchor="middle" x="351.5" y="-97.8" font-family="Times,serif" font-size="14.00">c data 10.0000</text>
<polyline fill="none" stroke="black" points="400,-83.5 400,-119.5"/>
<text text-anchor="middle" x="443" y="-97.8" font-family="Times,serif" font-size="14.00">grad &#45;2.0000</text>
</g>
<!-- 4843267760+ -->
<g id="node5" class="node">
<title>4843267760+</title>
<ellipse fill="none" stroke="black" cx="549" cy="-73.5" rx="27" ry="18"/>
<text text-anchor="middle" x="549" y="-69.8" font-family="Times,serif" font-size="14.00">+</text>
</g>
<!-- 4843272224&#45;&gt;4843267760+ -->
<g id="edge4" class="edge">
<title>4843272224&#45;&gt;4843267760+</title>
<path fill="none" stroke="black" d="M485.97,-84.89C494.83,-83.26 503.42,-81.68 511.25,-80.25"/>
<polygon fill="black" stroke="black" points="511.78,-83.71 520.99,-78.46 510.52,-76.82 511.78,-83.71"/>
</g>
<!-- 4843267664 -->
<g id="node2" class="node">
<title>4843267664</title>
<polygon fill="none" stroke="black" points="613,-0.5 613,-36.5 788,-36.5 788,-0.5 613,-0.5"/>
<text text-anchor="middle" x="659.5" y="-14.8" font-family="Times,serif" font-size="14.00">f data &#45;2.0000</text>
<polyline fill="none" stroke="black" points="706,-0.5 706,-36.5"/>
<text text-anchor="middle" x="747" y="-14.8" font-family="Times,serif" font-size="14.00">grad 4.0000</text>
</g>
<!-- 4843272080* -->
<g id="node10" class="node">
<title>4843272080*</title>
<ellipse fill="none" stroke="black" cx="852" cy="-45.5" rx="27" ry="18"/>
<text text-anchor="middle" x="852" y="-41.8" font-family="Times,serif" font-size="14.00">*</text>
</g>
<!-- 4843267664&#45;&gt;4843272080* -->
<g id="edge9" class="edge">
<title>4843267664&#45;&gt;4843272080*</title>
<path fill="none" stroke="black" d="M787.6,-34.05C796.95,-35.74 806.06,-37.38 814.32,-38.88"/>
<polygon fill="black" stroke="black" points="813.43,-42.27 823.89,-40.6 814.67,-35.38 813.43,-42.27"/>
</g>
<!-- 4843261568 -->
<g id="node3" class="node">
<title>4843261568</title>
<polygon fill="none" stroke="black" points="2.5,-56.5 2.5,-92.5 174.5,-92.5 174.5,-56.5 2.5,-56.5"/>
<text text-anchor="middle" x="47.5" y="-70.8" font-family="Times,serif" font-size="14.00">a data 2.0000</text>
<polyline fill="none" stroke="black" points="92.5,-56.5 92.5,-92.5"/>
<text text-anchor="middle" x="133.5" y="-70.8" font-family="Times,serif" font-size="14.00">grad 0.0000</text>
</g>
<!-- 4843271984* -->
<g id="node8" class="node">
<title>4843271984*</title>
<ellipse fill="none" stroke="black" cx="240" cy="-46.5" rx="27" ry="18"/>
<text text-anchor="middle" x="240" y="-42.8" font-family="Times,serif" font-size="14.00">*</text>
</g>
<!-- 4843261568&#45;&gt;4843271984* -->
<g id="edge8" class="edge">
<title>4843261568&#45;&gt;4843271984*</title>
<path fill="none" stroke="black" d="M174.3,-58.62C184.17,-56.77 193.81,-54.96 202.51,-53.33"/>
<polygon fill="black" stroke="black" points="203.04,-56.8 212.22,-51.52 201.75,-49.92 203.04,-56.8"/>
</g>
<!-- 4843267760 -->
<g id="node4" class="node">
<title>4843267760</title>
<polygon fill="none" stroke="black" points="612,-55.5 612,-91.5 789,-91.5 789,-55.5 612,-55.5"/>
<text text-anchor="middle" x="657.5" y="-69.8" font-family="Times,serif" font-size="14.00">d data 4.0000</text>
<polyline fill="none" stroke="black" points="703,-55.5 703,-91.5"/>
<text text-anchor="middle" x="746" y="-69.8" font-family="Times,serif" font-size="14.00">grad &#45;2.0000</text>
</g>
<!-- 4843267760&#45;&gt;4843272080* -->
<g id="edge6" class="edge">
<title>4843267760&#45;&gt;4843272080*</title>
<path fill="none" stroke="black" d="M788.9,-57.13C797.81,-55.46 806.47,-53.84 814.36,-52.36"/>
<polygon fill="black" stroke="black" points="815,-55.8 824.19,-50.52 813.71,-48.92 815,-55.8"/>
</g>
<!-- 4843267760+&#45;&gt;4843267760 -->
<g id="edge1" class="edge">
<title>4843267760+&#45;&gt;4843267760</title>
<path fill="none" stroke="black" d="M576.38,-73.5C583.63,-73.5 591.95,-73.5 600.76,-73.5"/>
<polygon fill="black" stroke="black" points="600.63,-77 610.63,-73.5 600.63,-70 600.63,-77"/>
</g>
<!-- 4843271408 -->
<g id="node6" class="node">
<title>4843271408</title>
<polygon fill="none" stroke="black" points="0,-1.5 0,-37.5 177,-37.5 177,-1.5 0,-1.5"/>
<text text-anchor="middle" x="47.5" y="-15.8" font-family="Times,serif" font-size="14.00">b data &#45;3.0000</text>
<polyline fill="none" stroke="black" points="95,-1.5 95,-37.5"/>
<text text-anchor="middle" x="136" y="-15.8" font-family="Times,serif" font-size="14.00">grad 0.0000</text>
</g>
<!-- 4843271408&#45;&gt;4843271984* -->
<g id="edge5" class="edge">
<title>4843271408&#45;&gt;4843271984*</title>
<path fill="none" stroke="black" d="M176.9,-35.28C185.81,-36.89 194.47,-38.46 202.36,-39.88"/>
<polygon fill="black" stroke="black" points="201.72,-43.32 212.19,-41.66 202.97,-36.44 201.72,-43.32"/>
</g>
<!-- 4843271984 -->
<g id="node7" class="node">
<title>4843271984</title>
<polygon fill="none" stroke="black" points="304,-28.5 304,-64.5 485,-64.5 485,-28.5 304,-28.5"/>
<text text-anchor="middle" x="351.5" y="-42.8" font-family="Times,serif" font-size="14.00">e data &#45;6.0000</text>
<polyline fill="none" stroke="black" points="399,-28.5 399,-64.5"/>
<text text-anchor="middle" x="442" y="-42.8" font-family="Times,serif" font-size="14.00">grad &#45;2.0000</text>
</g>
<!-- 4843271984&#45;&gt;4843267760+ -->
<g id="edge7" class="edge">
<title>4843271984&#45;&gt;4843267760+</title>
<path fill="none" stroke="black" d="M484.65,-62.28C493.94,-63.93 502.96,-65.53 511.14,-66.97"/>
<polygon fill="black" stroke="black" points="510.52,-70.42 520.98,-68.72 511.75,-63.53 510.52,-70.42"/>
</g>
<!-- 4843271984*&#45;&gt;4843271984 -->
<g id="edge2" class="edge">
<title>4843271984*&#45;&gt;4843271984</title>
<path fill="none" stroke="black" d="M267.22,-46.5C274.72,-46.5 283.39,-46.5 292.59,-46.5"/>
<polygon fill="black" stroke="black" points="292.53,-50 302.53,-46.5 292.53,-43 292.53,-50"/>
</g>
<!-- 4843272080 -->
<g id="node9" class="node">
<title>4843272080</title>
<polygon fill="none" stroke="black" points="915,-27.5 915,-63.5 1093,-63.5 1093,-27.5 915,-27.5"/>
<text text-anchor="middle" x="963" y="-41.8" font-family="Times,serif" font-size="14.00">L data &#45;8.0000</text>
<polyline fill="none" stroke="black" points="1011,-27.5 1011,-63.5"/>
<text text-anchor="middle" x="1052" y="-41.8" font-family="Times,serif" font-size="14.00">grad 1.0000</text>
</g>
<!-- 4843272080*&#45;&gt;4843272080 -->
<g id="edge3" class="edge">
<title>4843272080*&#45;&gt;4843272080</title>
<path fill="none" stroke="black" d="M879.47,-45.5C886.69,-45.5 894.95,-45.5 903.71,-45.5"/>
<polygon fill="black" stroke="black" points="903.52,-49 913.52,-45.5 903.52,-42 903.52,-49"/>
</g>
</g>
</svg>
