<?xml version="1.0" encoding="UTF-8" standalone="no"?>
<!DOCTYPE svg PUBLIC "-//W3C//DTD SVG 1.1//EN"
 "http://www.w3.org/Graphics/SVG/1.1/DTD/svg11.dtd">
<!-- Generated by graphviz version 7.1.0 (0)
 -->
<!-- Pages: 1 -->
<svg width="1095pt" height="156pt"
 viewBox="0.00 0.00 1095.00 156.00" xmlns="http://www.w3.org/2000/svg" xmlns:xlink="http://www.w3.org/1999/xlink">
<g id="graph0" class="graph" transform="scale(1 1) rotate(0) translate(4 152)">
<polygon fill="white" stroke="none" points="-4,4 -4,-152 1091,-152 1091,4 -4,4"/>
<!-- 4577847824 -->
<g id="node1" class="node">
<title>4577847824</title>
<polygon fill="none" stroke="black" points="0,-111.5 0,-147.5 177,-147.5 177,-111.5 0,-111.5"/>
<text text-anchor="middle" x="47.5" y="-125.8" font-family="Times,serif" font-size="14.00">b data &#45;3.0000</text>
<polyline fill="none" stroke="black" points="95,-111.5 95,-147.5"/>
<text text-anchor="middle" x="136" y="-125.8" font-family="Times,serif" font-size="14.00">grad 0.0000</text>
</g>
<!-- 4577850656* -->
<g id="node6" class="node">
<title>4577850656*</title>
<ellipse fill="none" stroke="black" cx="240" cy="-101.5" rx="27" ry="18"/>
<text text-anchor="middle" x="240" y="-97.8" font-family="Times,serif" font-size="14.00">*</text>
</g>
<!-- 4577847824&#45;&gt;4577850656* -->
<g id="edge4" class="edge">
<title>4577847824&#45;&gt;4577850656*</title>
<path fill="none" stroke="black" d="M176.9,-113.13C185.81,-111.46 194.47,-109.84 202.36,-108.36"/>
<polygon fill="black" stroke="black" points="203,-111.8 212.19,-106.52 201.71,-104.92 203,-111.8"/>
</g>
<!-- 4577838224 -->
<g id="node2" class="node">
<title>4577838224</title>
<polygon fill="none" stroke="black" points="909,-27.5 909,-63.5 1087,-63.5 1087,-27.5 909,-27.5"/>
<text text-anchor="middle" x="957" y="-41.8" font-family="Times,serif" font-size="14.00">L data &#45;8.0000</text>
<polyline fill="none" stroke="black" points="1005,-27.5 1005,-63.5"/>
<text text-anchor="middle" x="1046" y="-41.8" font-family="Times,serif" font-size="14.00">grad 0.0000</text>
</g>
<!-- 4577838224* -->
<g id="node3" class="node">
<title>4577838224*</title>
<ellipse fill="none" stroke="black" cx="846" cy="-45.5" rx="27" ry="18"/>
<text text-anchor="middle" x="846" y="-41.8" font-family="Times,serif" font-size="14.00">*</text>
</g>
<!-- 4577838224*&#45;&gt;4577838224 -->
<g id="edge1" class="edge">
<title>4577838224*&#45;&gt;4577838224</title>
<path fill="none" stroke="black" d="M873.47,-45.5C880.69,-45.5 888.95,-45.5 897.71,-45.5"/>
<polygon fill="black" stroke="black" points="897.52,-49 907.52,-45.5 897.52,-42 897.52,-49"/>
</g>
<!-- 4577850560 -->
<g id="node4" class="node">
<title>4577850560</title>
<polygon fill="none" stroke="black" points="303,-28.5 303,-64.5 482,-64.5 482,-28.5 303,-28.5"/>
<text text-anchor="middle" x="351.5" y="-42.8" font-family="Times,serif" font-size="14.00">c data 10.0000</text>
<polyline fill="none" stroke="black" points="400,-28.5 400,-64.5"/>
<text text-anchor="middle" x="441" y="-42.8" font-family="Times,serif" font-size="14.00">grad 0.0000</text>
</g>
<!-- 4577848160+ -->
<g id="node8" class="node">
<title>4577848160+</title>
<ellipse fill="none" stroke="black" cx="545" cy="-73.5" rx="27" ry="18"/>
<text text-anchor="middle" x="545" y="-69.8" font-family="Times,serif" font-size="14.00">+</text>
</g>
<!-- 4577850560&#45;&gt;4577848160+ -->
<g id="edge5" class="edge">
<title>4577850560&#45;&gt;4577848160+</title>
<path fill="none" stroke="black" d="M481.92,-62.36C490.75,-63.95 499.34,-65.49 507.17,-66.89"/>
<polygon fill="black" stroke="black" points="506.46,-70.32 516.92,-68.64 507.69,-63.43 506.46,-70.32"/>
</g>
<!-- 4577850656 -->
<g id="node5" class="node">
<title>4577850656</title>
<polygon fill="none" stroke="black" points="304,-83.5 304,-119.5 481,-119.5 481,-83.5 304,-83.5"/>
<text text-anchor="middle" x="351.5" y="-97.8" font-family="Times,serif" font-size="14.00">e data &#45;6.0000</text>
<polyline fill="none" stroke="black" points="399,-83.5 399,-119.5"/>
<text text-anchor="middle" x="440" y="-97.8" font-family="Times,serif" font-size="14.00">grad 0.0000</text>
</g>
<!-- 4577850656&#45;&gt;4577848160+ -->
<g id="edge6" class="edge">
<title>4577850656&#45;&gt;4577848160+</title>
<path fill="none" stroke="black" d="M480.61,-85.29C490.07,-83.53 499.26,-81.82 507.59,-80.27"/>
<polygon fill="black" stroke="black" points="508.03,-83.75 517.22,-78.48 506.75,-76.87 508.03,-83.75"/>
</g>
<!-- 4577850656*&#45;&gt;4577850656 -->
<g id="edge2" class="edge">
<title>4577850656*&#45;&gt;4577850656</title>
<path fill="none" stroke="black" d="M267.22,-101.5C274.76,-101.5 283.47,-101.5 292.7,-101.5"/>
<polygon fill="black" stroke="black" points="292.67,-105 302.67,-101.5 292.67,-98 292.67,-105"/>
</g>
<!-- 4577848160 -->
<g id="node7" class="node">
<title>4577848160</title>
<polygon fill="none" stroke="black" points="609,-55.5 609,-91.5 782,-91.5 782,-55.5 609,-55.5"/>
<text text-anchor="middle" x="654.5" y="-69.8" font-family="Times,serif" font-size="14.00">d data 4.0000</text>
<polyline fill="none" stroke="black" points="700,-55.5 700,-91.5"/>
<text text-anchor="middle" x="741" y="-69.8" font-family="Times,serif" font-size="14.00">grad 0.0000</text>
</g>
<!-- 4577848160&#45;&gt;4577838224* -->
<g id="edge8" class="edge">
<title>4577848160&#45;&gt;4577838224*</title>
<path fill="none" stroke="black" d="M781.59,-57.46C791.02,-55.68 800.21,-53.95 808.53,-52.38"/>
<polygon fill="black" stroke="black" points="808.99,-55.85 818.17,-50.56 807.7,-48.97 808.99,-55.85"/>
</g>
<!-- 4577848160+&#45;&gt;4577848160 -->
<g id="edge3" class="edge">
<title>4577848160+&#45;&gt;4577848160</title>
<path fill="none" stroke="black" d="M572.21,-73.5C579.78,-73.5 588.53,-73.5 597.79,-73.5"/>
<polygon fill="black" stroke="black" points="597.79,-77 607.79,-73.5 597.79,-70 597.79,-77"/>
</g>
<!-- 4577851760 -->
<g id="node9" class="node">
<title>4577851760</title>
<polygon fill="none" stroke="black" points="2.5,-56.5 2.5,-92.5 174.5,-92.5 174.5,-56.5 2.5,-56.5"/>
<text text-anchor="middle" x="47.5" y="-70.8" font-family="Times,serif" font-size="14.00">a data 2.0000</text>
<polyline fill="none" stroke="black" points="92.5,-56.5 92.5,-92.5"/>
<text text-anchor="middle" x="133.5" y="-70.8" font-family="Times,serif" font-size="14.00">grad 0.0000</text>
</g>
<!-- 4577851760&#45;&gt;4577850656* -->
<g id="edge9" class="edge">
<title>4577851760&#45;&gt;4577850656*</title>
<path fill="none" stroke="black" d="M174.3,-89.81C184.08,-91.58 193.64,-93.31 202.27,-94.87"/>
<polygon fill="black" stroke="black" points="201.45,-98.27 211.91,-96.61 202.69,-91.39 201.45,-98.27"/>
</g>
<!-- 4577848208 -->
<g id="node10" class="node">
<title>4577848208</title>
<polygon fill="none" stroke="black" points="608,-0.5 608,-36.5 783,-36.5 783,-0.5 608,-0.5"/>
<text text-anchor="middle" x="654.5" y="-14.8" font-family="Times,serif" font-size="14.00">f data &#45;2.0000</text>
<polyline fill="none" stroke="black" points="701,-0.5 701,-36.5"/>
<text text-anchor="middle" x="742" y="-14.8" font-family="Times,serif" font-size="14.00">grad 0.0000</text>
</g>
<!-- 4577848208&#45;&gt;4577838224* -->
<g id="edge7" class="edge">
<title>4577848208&#45;&gt;4577838224*</title>
<path fill="none" stroke="black" d="M782.88,-34.21C791.78,-35.82 800.44,-37.4 808.33,-38.83"/>
<polygon fill="black" stroke="black" points="807.69,-42.27 818.16,-40.62 808.94,-35.39 807.69,-42.27"/>
</g>
</g>
</svg>
