<?xml version="1.0" encoding="UTF-8" standalone="no"?>
<!DOCTYPE svg PUBLIC "-//W3C//DTD SVG 1.1//EN"
 "http://www.w3.org/Graphics/SVG/1.1/DTD/svg11.dtd">
<!-- Generated by graphviz version 7.1.0 (0)
 -->
<!-- Pages: 1 -->
<svg width="1095pt" height="154pt"
 viewBox="0.00 0.00 1095.00 154.00" xmlns="http://www.w3.org/2000/svg" xmlns:xlink="http://www.w3.org/1999/xlink">
<g id="graph0" class="graph" transform="scale(1 1) rotate(0) translate(4 150)">
<polygon fill="white" stroke="none" points="-4,4 -4,-150 1091,-150 1091,4 -4,4"/>
<!-- 4844705808 -->
<g id="node1" class="node">
<title>4844705808</title>
<polygon fill="none" stroke="black" points="304,-27.5 304,-63.5 481,-63.5 481,-27.5 304,-27.5"/>
<text text-anchor="middle" x="351.5" y="-41.8" font-family="Times,serif" font-size="14.00">e data &#45;6.0000</text>
<polyline fill="none" stroke="black" points="399,-27.5 399,-63.5"/>
<text text-anchor="middle" x="440" y="-41.8" font-family="Times,serif" font-size="14.00">grad 0.0000</text>
</g>
<!-- 4844707632+ -->
<g id="node5" class="node">
<title>4844707632+</title>
<ellipse fill="none" stroke="black" cx="545" cy="-72.5" rx="27" ry="18"/>
<text text-anchor="middle" x="545" y="-68.8" font-family="Times,serif" font-size="14.00">+</text>
</g>
<!-- 4844705808&#45;&gt;4844707632+ -->
<g id="edge7" class="edge">
<title>4844705808&#45;&gt;4844707632+</title>
<path fill="none" stroke="black" d="M480.61,-61.13C489.98,-62.81 499.09,-64.44 507.36,-65.93"/>
<polygon fill="black" stroke="black" points="506.46,-69.32 516.92,-67.64 507.69,-62.43 506.46,-69.32"/>
</g>
<!-- 4844705808* -->
<g id="node2" class="node">
<title>4844705808*</title>
<ellipse fill="none" stroke="black" cx="240" cy="-45.5" rx="27" ry="18"/>
<text text-anchor="middle" x="240" y="-41.8" font-family="Times,serif" font-size="14.00">*</text>
</g>
<!-- 4844705808*&#45;&gt;4844705808 -->
<g id="edge1" class="edge">
<title>4844705808*&#45;&gt;4844705808</title>
<path fill="none" stroke="black" d="M267.22,-45.5C274.76,-45.5 283.47,-45.5 292.7,-45.5"/>
<polygon fill="black" stroke="black" points="292.67,-49 302.67,-45.5 292.67,-42 292.67,-49"/>
</g>
<!-- 4844708400 -->
<g id="node3" class="node">
<title>4844708400</title>
<polygon fill="none" stroke="black" points="0,-55.5 0,-91.5 177,-91.5 177,-55.5 0,-55.5"/>
<text text-anchor="middle" x="47.5" y="-69.8" font-family="Times,serif" font-size="14.00">b data &#45;3.0000</text>
<polyline fill="none" stroke="black" points="95,-55.5 95,-91.5"/>
<text text-anchor="middle" x="136" y="-69.8" font-family="Times,serif" font-size="14.00">grad 0.0000</text>
</g>
<!-- 4844708400&#45;&gt;4844705808* -->
<g id="edge9" class="edge">
<title>4844708400&#45;&gt;4844705808*</title>
<path fill="none" stroke="black" d="M176.9,-57.13C185.81,-55.46 194.47,-53.84 202.36,-52.36"/>
<polygon fill="black" stroke="black" points="203,-55.8 212.19,-50.52 201.71,-48.92 203,-55.8"/>
</g>
<!-- 4844707632 -->
<g id="node4" class="node">
<title>4844707632</title>
<polygon fill="none" stroke="black" points="609,-54.5 609,-90.5 782,-90.5 782,-54.5 609,-54.5"/>
<text text-anchor="middle" x="654.5" y="-68.8" font-family="Times,serif" font-size="14.00">d data 4.0000</text>
<polyline fill="none" stroke="black" points="700,-54.5 700,-90.5"/>
<text text-anchor="middle" x="741" y="-68.8" font-family="Times,serif" font-size="14.00">grad 0.0000</text>
</g>
<!-- 4844711760* -->
<g id="node7" class="node">
<title>4844711760*</title>
<ellipse fill="none" stroke="black" cx="846" cy="-99.5" rx="27" ry="18"/>
<text text-anchor="middle" x="846" y="-95.8" font-family="Times,serif" font-size="14.00">*</text>
</g>
<!-- 4844707632&#45;&gt;4844711760* -->
<g id="edge4" class="edge">
<title>4844707632&#45;&gt;4844711760*</title>
<path fill="none" stroke="black" d="M781.59,-87.97C791.02,-89.69 800.21,-91.36 808.53,-92.87"/>
<polygon fill="black" stroke="black" points="807.7,-96.28 818.17,-94.62 808.96,-89.39 807.7,-96.28"/>
</g>
<!-- 4844707632+&#45;&gt;4844707632 -->
<g id="edge2" class="edge">
<title>4844707632+&#45;&gt;4844707632</title>
<path fill="none" stroke="black" d="M572.21,-72.5C579.78,-72.5 588.53,-72.5 597.79,-72.5"/>
<polygon fill="black" stroke="black" points="597.79,-76 607.79,-72.5 597.79,-69 597.79,-76"/>
</g>
<!-- 4844711760 -->
<g id="node6" class="node">
<title>4844711760</title>
<polygon fill="none" stroke="black" points="909,-81.5 909,-117.5 1087,-117.5 1087,-81.5 909,-81.5"/>
<text text-anchor="middle" x="957" y="-95.8" font-family="Times,serif" font-size="14.00">L data &#45;8.0000</text>
<polyline fill="none" stroke="black" points="1005,-81.5 1005,-117.5"/>
<text text-anchor="middle" x="1046" y="-95.8" font-family="Times,serif" font-size="14.00">grad 0.0000</text>
</g>
<!-- 4844711760*&#45;&gt;4844711760 -->
<g id="edge3" class="edge">
<title>4844711760*&#45;&gt;4844711760</title>
<path fill="none" stroke="black" d="M873.47,-99.5C880.69,-99.5 888.95,-99.5 897.71,-99.5"/>
<polygon fill="black" stroke="black" points="897.52,-103 907.52,-99.5 897.52,-96 897.52,-103"/>
</g>
<!-- 4844704608 -->
<g id="node8" class="node">
<title>4844704608</title>
<polygon fill="none" stroke="black" points="2.5,-0.5 2.5,-36.5 174.5,-36.5 174.5,-0.5 2.5,-0.5"/>
<text text-anchor="middle" x="47.5" y="-14.8" font-family="Times,serif" font-size="14.00">a data 2.0000</text>
<polyline fill="none" stroke="black" points="92.5,-0.5 92.5,-36.5"/>
<text text-anchor="middle" x="133.5" y="-14.8" font-family="Times,serif" font-size="14.00">grad 0.0000</text>
</g>
<!-- 4844704608&#45;&gt;4844705808* -->
<g id="edge5" class="edge">
<title>4844704608&#45;&gt;4844705808*</title>
<path fill="none" stroke="black" d="M174.3,-33.81C184.08,-35.58 193.64,-37.31 202.27,-38.87"/>
<polygon fill="black" stroke="black" points="201.45,-42.27 211.91,-40.61 202.69,-35.39 201.45,-42.27"/>
</g>
<!-- 4844705136 -->
<g id="node9" class="node">
<title>4844705136</title>
<polygon fill="none" stroke="black" points="303,-82.5 303,-118.5 482,-118.5 482,-82.5 303,-82.5"/>
<text text-anchor="middle" x="351.5" y="-96.8" font-family="Times,serif" font-size="14.00">c data 10.0000</text>
<polyline fill="none" stroke="black" points="400,-82.5 400,-118.5"/>
<text text-anchor="middle" x="441" y="-96.8" font-family="Times,serif" font-size="14.00">grad 0.0000</text>
</g>
<!-- 4844705136&#45;&gt;4844707632+ -->
<g id="edge8" class="edge">
<title>4844705136&#45;&gt;4844707632+</title>
<path fill="none" stroke="black" d="M481.92,-84.05C490.84,-82.39 499.51,-80.78 507.4,-79.31"/>
<polygon fill="black" stroke="black" points="508.03,-82.75 517.22,-77.48 506.75,-75.87 508.03,-82.75"/>
</g>
<!-- 4844707680 -->
<g id="node10" class="node">
<title>4844707680</title>
<polygon fill="none" stroke="black" points="608,-109.5 608,-145.5 783,-145.5 783,-109.5 608,-109.5"/>
<text text-anchor="middle" x="654.5" y="-123.8" font-family="Times,serif" font-size="14.00">f data &#45;2.0000</text>
<polyline fill="none" stroke="black" points="701,-109.5 701,-145.5"/>
<text text-anchor="middle" x="742" y="-123.8" font-family="Times,serif" font-size="14.00">grad 0.0000</text>
</g>
<!-- 4844707680&#45;&gt;4844711760* -->
<g id="edge6" class="edge">
<title>4844707680&#45;&gt;4844711760*</title>
<path fill="none" stroke="black" d="M782.88,-111.21C791.89,-109.51 800.64,-107.86 808.61,-106.36"/>
<polygon fill="black" stroke="black" points="808.98,-109.85 818.16,-104.56 807.68,-102.97 808.98,-109.85"/>
</g>
</g>
</svg>
