<?xml version="1.0" encoding="UTF-8" standalone="no"?>
<!DOCTYPE svg PUBLIC "-//W3C//DTD SVG 1.1//EN"
 "http://www.w3.org/Graphics/SVG/1.1/DTD/svg11.dtd">
<!-- Generated by graphviz version 7.1.0 (0)
 -->
<!-- Pages: 1 -->
<svg width="1097pt" height="154pt"
 viewBox="0.00 0.00 1097.00 154.00" xmlns="http://www.w3.org/2000/svg" xmlns:xlink="http://www.w3.org/1999/xlink">
<g id="graph0" class="graph" transform="scale(1 1) rotate(0) translate(4 150)">
<polygon fill="white" stroke="none" points="-4,4 -4,-150 1093,-150 1093,4 -4,4"/>
<!-- 4843268144 -->
<g id="node1" class="node">
<title>4843268144</title>
<polygon fill="none" stroke="black" points="608,-54.5 608,-90.5 785,-90.5 785,-54.5 608,-54.5"/>
<text text-anchor="middle" x="653.5" y="-68.8" font-family="Times,serif" font-size="14.00">d data 4.0000</text>
<polyline fill="none" stroke="black" points="699,-54.5 699,-90.5"/>
<text text-anchor="middle" x="742" y="-68.8" font-family="Times,serif" font-size="14.00">grad &#45;2.0000</text>
</g>
<!-- 4844571856* -->
<g id="node5" class="node">
<title>4844571856*</title>
<ellipse fill="none" stroke="black" cx="848" cy="-99.5" rx="27" ry="18"/>
<text text-anchor="middle" x="848" y="-95.8" font-family="Times,serif" font-size="14.00">*</text>
</g>
<!-- 4843268144&#45;&gt;4844571856* -->
<g id="edge5" class="edge">
<title>4843268144&#45;&gt;4844571856*</title>
<path fill="none" stroke="black" d="M784.9,-88.28C793.81,-89.89 802.47,-91.46 810.36,-92.88"/>
<polygon fill="black" stroke="black" points="809.72,-96.32 820.19,-94.66 810.97,-89.44 809.72,-96.32"/>
</g>
<!-- 4843268144+ -->
<g id="node2" class="node">
<title>4843268144+</title>
<ellipse fill="none" stroke="black" cx="545" cy="-72.5" rx="27" ry="18"/>
<text text-anchor="middle" x="545" y="-68.8" font-family="Times,serif" font-size="14.00">+</text>
</g>
<!-- 4843268144+&#45;&gt;4843268144 -->
<g id="edge1" class="edge">
<title>4843268144+&#45;&gt;4843268144</title>
<path fill="none" stroke="black" d="M572.38,-72.5C579.63,-72.5 587.95,-72.5 596.76,-72.5"/>
<polygon fill="black" stroke="black" points="596.63,-76 606.63,-72.5 596.63,-69 596.63,-76"/>
</g>
<!-- 4843268672 -->
<g id="node3" class="node">
<title>4843268672</title>
<polygon fill="none" stroke="black" points="303,-82.5 303,-118.5 482,-118.5 482,-82.5 303,-82.5"/>
<text text-anchor="middle" x="351.5" y="-96.8" font-family="Times,serif" font-size="14.00">c data 10.0000</text>
<polyline fill="none" stroke="black" points="400,-82.5 400,-118.5"/>
<text text-anchor="middle" x="441" y="-96.8" font-family="Times,serif" font-size="14.00">grad 0.0000</text>
</g>
<!-- 4843268672&#45;&gt;4843268144+ -->
<g id="edge7" class="edge">
<title>4843268672&#45;&gt;4843268144+</title>
<path fill="none" stroke="black" d="M481.92,-84.05C490.84,-82.39 499.51,-80.78 507.4,-79.31"/>
<polygon fill="black" stroke="black" points="508.03,-82.75 517.22,-77.48 506.75,-75.87 508.03,-82.75"/>
</g>
<!-- 4844571856 -->
<g id="node4" class="node">
<title>4844571856</title>
<polygon fill="none" stroke="black" points="911,-81.5 911,-117.5 1089,-117.5 1089,-81.5 911,-81.5"/>
<text text-anchor="middle" x="959" y="-95.8" font-family="Times,serif" font-size="14.00">L data &#45;8.0000</text>
<polyline fill="none" stroke="black" points="1007,-81.5 1007,-117.5"/>
<text text-anchor="middle" x="1048" y="-95.8" font-family="Times,serif" font-size="14.00">grad 1.0000</text>
</g>
<!-- 4844571856*&#45;&gt;4844571856 -->
<g id="edge2" class="edge">
<title>4844571856*&#45;&gt;4844571856</title>
<path fill="none" stroke="black" d="M875.47,-99.5C882.69,-99.5 890.95,-99.5 899.71,-99.5"/>
<polygon fill="black" stroke="black" points="899.52,-103 909.52,-99.5 899.52,-96 899.52,-103"/>
</g>
<!-- 4843261184 -->
<g id="node6" class="node">
<title>4843261184</title>
<polygon fill="none" stroke="black" points="609,-109.5 609,-145.5 784,-145.5 784,-109.5 609,-109.5"/>
<text text-anchor="middle" x="655.5" y="-123.8" font-family="Times,serif" font-size="14.00">f data &#45;2.0000</text>
<polyline fill="none" stroke="black" points="702,-109.5 702,-145.5"/>
<text text-anchor="middle" x="743" y="-123.8" font-family="Times,serif" font-size="14.00">grad 4.0000</text>
</g>
<!-- 4843261184&#45;&gt;4844571856* -->
<g id="edge9" class="edge">
<title>4843261184&#45;&gt;4844571856*</title>
<path fill="none" stroke="black" d="M783.6,-111.37C793.04,-109.61 802.23,-107.88 810.56,-106.33"/>
<polygon fill="black" stroke="black" points="811.01,-109.8 820.2,-104.52 809.72,-102.92 811.01,-109.8"/>
</g>
<!-- 4843261760 -->
<g id="node7" class="node">
<title>4843261760</title>
<polygon fill="none" stroke="black" points="2.5,-55.5 2.5,-91.5 174.5,-91.5 174.5,-55.5 2.5,-55.5"/>
<text text-anchor="middle" x="47.5" y="-69.8" font-family="Times,serif" font-size="14.00">a data 2.0000</text>
<polyline fill="none" stroke="black" points="92.5,-55.5 92.5,-91.5"/>
<text text-anchor="middle" x="133.5" y="-69.8" font-family="Times,serif" font-size="14.00">grad 0.0000</text>
</g>
<!-- 4843261328* -->
<g id="node9" class="node">
<title>4843261328*</title>
<ellipse fill="none" stroke="black" cx="240" cy="-45.5" rx="27" ry="18"/>
<text text-anchor="middle" x="240" y="-41.8" font-family="Times,serif" font-size="14.00">*</text>
</g>
<!-- 4843261760&#45;&gt;4843261328* -->
<g id="edge6" class="edge">
<title>4843261760&#45;&gt;4843261328*</title>
<path fill="none" stroke="black" d="M174.3,-57.62C184.17,-55.77 193.81,-53.96 202.51,-52.33"/>
<polygon fill="black" stroke="black" points="203.04,-55.8 212.22,-50.52 201.75,-48.92 203.04,-55.8"/>
</g>
<!-- 4843261328 -->
<g id="node8" class="node">
<title>4843261328</title>
<polygon fill="none" stroke="black" points="304,-27.5 304,-63.5 481,-63.5 481,-27.5 304,-27.5"/>
<text text-anchor="middle" x="351.5" y="-41.8" font-family="Times,serif" font-size="14.00">e data &#45;6.0000</text>
<polyline fill="none" stroke="black" points="399,-27.5 399,-63.5"/>
<text text-anchor="middle" x="440" y="-41.8" font-family="Times,serif" font-size="14.00">grad 0.0000</text>
</g>
<!-- 4843261328&#45;&gt;4843268144+ -->
<g id="edge8" class="edge">
<title>4843261328&#45;&gt;4843268144+</title>
<path fill="none" stroke="black" d="M480.61,-61.13C489.98,-62.81 499.09,-64.44 507.36,-65.93"/>
<polygon fill="black" stroke="black" points="506.46,-69.32 516.92,-67.64 507.69,-62.43 506.46,-69.32"/>
</g>
<!-- 4843261328*&#45;&gt;4843261328 -->
<g id="edge3" class="edge">
<title>4843261328*&#45;&gt;4843261328</title>
<path fill="none" stroke="black" d="M267.22,-45.5C274.76,-45.5 283.47,-45.5 292.7,-45.5"/>
<polygon fill="black" stroke="black" points="292.67,-49 302.67,-45.5 292.67,-42 292.67,-49"/>
</g>
<!-- 4843272608 -->
<g id="node10" class="node">
<title>4843272608</title>
<polygon fill="none" stroke="black" points="0,-0.5 0,-36.5 177,-36.5 177,-0.5 0,-0.5"/>
<text text-anchor="middle" x="47.5" y="-14.8" font-family="Times,serif" font-size="14.00">b data &#45;3.0000</text>
<polyline fill="none" stroke="black" points="95,-0.5 95,-36.5"/>
<text text-anchor="middle" x="136" y="-14.8" font-family="Times,serif" font-size="14.00">grad 0.0000</text>
</g>
<!-- 4843272608&#45;&gt;4843261328* -->
<g id="edge4" class="edge">
<title>4843272608&#45;&gt;4843261328*</title>
<path fill="none" stroke="black" d="M176.9,-34.28C185.81,-35.89 194.47,-37.46 202.36,-38.88"/>
<polygon fill="black" stroke="black" points="201.72,-42.32 212.19,-40.66 202.97,-35.44 201.72,-42.32"/>
</g>
</g>
</svg>
