<svg xmlns="http://www.w3.org/2000/svg" width="1227.924" height="696.735" viewBox="0 0 613.962 348.368"><defs><style>@font-face {
        font-family: &quot;Virgil&quot;;
        src: url(&quot;/assets/woff2/Virgil.woff2&quot;);
      }
      @font-face {
        font-family: &quot;Cascadia&quot;;
        src: url(&quot;/assets/woff2/Cascadia.woff2&quot;);
      }</style></defs><g stroke-linecap="round"><path fill="#ced4da" stroke-width="0" d="M48.37 1.05c7.8-.36 16.66 2.5 23.24 6.66 6.59 4.17 12.92 10.97 16.27 18.31 3.34 7.33 5.36 17.98 3.8 25.72-1.56 7.74-7.32 15.18-13.14 20.71-5.83 5.54-13.83 10.68-21.8 12.49-7.98 1.81-18.29 1-26.05-1.63-7.75-2.63-15.43-8.17-20.49-14.14C5.15 63.2 1.24 54.99.38 47.5-.48 40 1.39 31.15 5.05 24.21c3.66-6.95 8.86-14.5 17.27-18.38C30.74 1.95 48.95 1.27 55.54.91c6.59-.35 6.44 2.06 6.3 2.78M36.95.11c7.97-2.41 18.87-1.27 26.73 1.56 7.85 2.82 15.83 9.07 20.39 15.38 4.57 6.3 6.72 14.54 6.98 22.44.26 7.9-1.71 18.35-5.42 24.98-3.7 6.62-9.6 11.51-16.78 14.79-7.18 3.27-18.08 5.02-26.28 4.88-8.2-.15-16.13-1.5-22.93-5.76-6.8-4.26-14.76-12.59-17.86-19.82-3.1-7.23-2.56-15.91-.72-23.58 1.85-7.68 5.87-16.55 11.79-22.46C18.77 6.6 32.42 1.19 36.58-.51c4.17-1.71 1.32 1.98 1.25 2.8" transform="translate(100.93 113.369)"/><path fill="none" stroke="#000" stroke-width="4" d="M38.1 1.35C45.5-.41 55.26.76 62.96 3.76c7.71 3 16.62 9.3 21.38 15.59 4.76 6.3 7.01 14.46 7.17 22.18.16 7.72-2.03 17.66-6.22 24.15-4.2 6.48-11.58 11.36-18.95 14.76-7.37 3.4-17.08 6.2-25.28 5.63-8.19-.58-17.32-4.11-23.88-9.09C10.62 72 4.22 63.8 1.7 56.19c-2.52-7.61-1.89-17.27.35-24.89 2.24-7.63 5.71-15.68 13.08-20.86S39.99 1.87 46.28.23c6.29-1.63 6.76-.32 6.57.4m14.64 4.84c7.12 3.04 13.52 9.93 17.64 16.58 4.11 6.66 7.49 15.52 7.03 23.33-.46 7.81-4.95 17.15-9.81 23.52-4.87 6.37-11.65 11.91-19.39 14.69-7.73 2.77-19.07 3.34-27.04 1.95-7.98-1.38-14.79-5.04-20.79-10.26C9.12 70.06 1.75 62.2-.1 54.24-1.95 46.27.93 34.87 4.04 27.47c3.1-7.4 7.98-13.12 14.49-17.64C25.04 5.3 35.08 1.38 43.12.31 51.15-.76 62.7 2.29 66.76 3.4c4.05 1.11.92 2.88.68 3.57" transform="translate(100.93 113.369)"/></g><g stroke-linecap="round"><path fill="#ced4da" stroke-width="0" d="M36.18.22C43.57-2.24 53.3-1.13 60.8 1.68c7.5 2.8 15.1 9.29 20.37 15.39 5.27 6.09 10.33 13.57 11.25 21.15.93 7.59-1.83 17.4-5.7 24.33-3.86 6.94-10.29 13.35-17.48 17.27-7.19 3.92-17.28 6.57-25.65 6.25-8.37-.31-17.94-3.58-24.57-8.14C12.39 73.36 6.67 66 3.81 58.68.94 51.37.32 41.54 1.82 34.04c1.51-7.49 4.49-14.75 11.01-20.31C19.35 8.16 35.28 2.7 40.96.65c5.68-2.05 5.88.22 5.98.79M29.28 4.07C36.13 1.09 46.64.91 54.8 2.23s17.53 4.55 23.45 9.75c5.92 5.21 10.14 13.63 12.05 21.5 1.92 7.86 2.49 18.37-.57 25.7-3.07 7.34-10.78 13.66-17.81 18.32-7.04 4.65-16.61 9.29-24.42 9.6-7.81.31-15.61-3.74-22.45-7.73-6.84-3.98-14.7-9.42-18.61-16.18s-5.35-16.7-4.85-24.37c.5-7.67 3.33-15.83 7.84-21.66 4.51-5.82 15.64-10.83 19.23-13.32 3.58-2.48 1.89-2.2 2.28-1.59" transform="translate(100.93 222.086)"/><path fill="none" stroke="#000" stroke-width="4" d="M57.8.29c7.84 1.29 16.27 7.87 21.92 13.6 5.64 5.73 10.53 13.25 11.95 20.79 1.42 7.54-.31 17.21-3.44 24.46C85.1 66.4 79.79 73.7 72.9 78.21c-6.89 4.51-17.77 7.65-26.03 8-8.26.35-16.72-1.84-23.54-5.91-6.82-4.08-13.55-11.65-17.36-18.53C2.15 54.9-.16 46.61.42 39.04 1 31.46 4.45 22.35 9.45 16.32c5-6.04 12.36-11.12 20.98-13.48 8.61-2.37 25.19-.88 30.71-.7 5.51.18 2.63.9 2.37 1.77M50.61-.51c8.08.05 17.46 5.15 23.95 9.84 6.49 4.69 12.14 11.07 15 18.31 2.85 7.24 3.94 17.66 2.13 25.14-1.8 7.48-6.93 14.21-12.96 19.74-6.02 5.52-15.16 11.91-23.17 13.4-8.02 1.48-17.34-1.75-24.91-4.49-7.58-2.74-15.24-6.08-20.54-11.97C4.8 63.57-.61 53.82-1.17 46.09c-.57-7.72 3.59-16.07 7.9-22.99 4.32-6.93 11.02-14.86 17.99-18.56C31.69.85 44.11 1.44 48.54.91c4.42-.53 2.74-.31 2.73.45" transform="translate(100.93 222.086)"/></g><path fill="none" stroke="#000" stroke-linecap="round" stroke-width="4" d="M-.4.59c11.67-8.47 59.5-42.57 71.58-51.28M1.58-.15c11.43-8.28 56.94-40.62 68.64-49.09" transform="translate(190.72 146.086)"/><path fill="none" stroke="#000" stroke-linecap="round" stroke-width="4" d="M.59-.02c11.18 9.4 55.69 46.78 66.62 56.04M-.56-1.08c11 9.11 55.23 46.37 66.74 55.45" transform="translate(193.056 146.469)"/><path fill="none" stroke="#000" stroke-linecap="round" stroke-width="4" d="M-.02-.16c11.86 25.94 59.07 130.07 70.78 156.41M-1.49-1.29C10.32 24.7 58.42 130.99 70.28 157.17" transform="translate(193.068 149.452)"/><path fill="none" stroke="#000" stroke-linecap="round" stroke-width="4" d="M-.16.9c11.11-26.97 55.9-135.65 67.41-162.72M-1.71.32C9.7-27.01 57.66-136.43 69.34-163.73" transform="translate(194.462 260.67)"/><path fill="none" stroke="#000" stroke-linecap="round" stroke-width="4" d="M.9-1.18c11.23-10.26 55.36-50.3 66.49-60.54M-.09.82c11.11-10.61 55.51-54.01 66.74-64.4" transform="translate(192.76 263.559)"/><path fill="none" stroke="#000" stroke-linecap="round" stroke-width="4" d="M-1.18.4c11.99 7.46 60.96 37.89 72.97 45.27M.41-.44C12.3 6.6 59.51 36.19 71.09 43.91" transform="translate(192.973 263.062)"/><g stroke-linecap="round"><path fill="none" stroke="#000" stroke-width="4" d="M.4.49c14.07-.04 70.95-1.67 84.94-1.9M-.85-.3c13.9.23 71.56.08 85.6.21" transform="translate(10.851 153.93)"/><path fill="none" stroke="#000" stroke-width="4" d="M57.35 11.24c9.16-5.55 20.6-7.77 27.91-13.26M57.53 9.59C66.52 6.92 75.65 3.01 83.99.47" transform="translate(10.851 153.93)"/><path fill="none" stroke="#000" stroke-width="4" d="M57.4-9.28c8.95 2.14 20.36 7.61 27.86 7.26m-27.68-8.91c9.1 4.5 18.21 7.77 26.41 11.4" transform="translate(10.851 153.93)"/></g><g stroke-linecap="round"><path fill="none" stroke="#000" stroke-width="4" d="M-.42-.3c14.05-.17 70.94.28 85.17-.03M1.56-1.5c13.85-.57 68.49-.61 82.29-.6" transform="translate(11.677 266.57)"/><path fill="none" stroke="#000" stroke-width="4" d="M55.17 8.34c11.15-3.06 17.72-6.08 29.9-9.59m-28.9 8.88C67.13 3.26 78.79.15 83.65-2.86" transform="translate(11.677 266.57)"/><path fill="none" stroke="#000" stroke-width="4" d="M55.16-12.18C66.42-8.25 73-4.28 85.07-1.25M56.16-12.9C67.02-9.07 78.69-3.98 83.65-2.86" transform="translate(11.677 266.57)"/></g><g stroke-linecap="round"><path fill="#ced4da" stroke-width="0" d="M51.81.6c7.37.92 15.68 6.08 21.14 11.31 5.45 5.23 10.01 13.12 11.61 20.07 1.6 6.95.51 14.97-2.01 21.61-2.51 6.63-7.13 13.76-13.08 18.19-5.95 4.42-14.94 7.72-22.62 8.33-7.68.62-16.51-1.08-23.47-4.62-6.96-3.53-14.49-10.33-18.29-16.58C1.29 52.66.13 44.92.56 38 1 31.08 3.34 23.15 7.68 17.4 12.02 11.65 18.6 6.16 26.62 3.51 34.65.85 50.3 1.38 55.82 1.46c5.52.07 4.03 1.64 3.94 2.48M25.47 5.4C31.59 2.29 39.38.34 46.8 1.2c7.42.86 17.2 4.9 23.21 9.34 6.01 4.44 10.44 10.93 12.85 17.3 2.4 6.38 3.22 13.93 1.58 20.96-1.65 7.04-5.53 16.26-11.45 21.25-5.93 4.98-16.41 7.64-24.09 8.66-7.68 1.02-14.99.02-21.98-2.53-7-2.55-15.51-6.99-20.01-12.8-4.5-5.8-6.71-14.48-7-22.05-.29-7.57 1.43-17.11 5.26-23.38C8.99 11.69 19.51 6.01 22.86 3.76c3.35-2.26 1.73-.05 2.41.67" transform="translate(415.304 118.218)"/><path fill="none" stroke="#000" stroke-width="4" d="M23.45 5.54C29.51 1.8 38.5-.04 46.2.35c7.71.39 17.27 3.26 23.48 7.52 6.21 4.27 11.19 11.16 13.76 18.09 2.58 6.93 3.53 16.48 1.68 23.5-1.84 7.01-6.97 13.59-12.73 18.58-5.75 5-14.41 9.85-21.8 11.41-7.38 1.55-15.34.58-22.49-2.06-7.16-2.64-15.85-7.82-20.45-13.77C3.04 57.66.77 48.86.49 41.66c-.29-7.2.59-14.53 5.47-21.25C10.84 13.7 24.55 4.55 29.77 1.36c5.22-3.18 7.23-.66 7.51-.05m12.7.88c7.39.35 18.27 2.95 24.19 7.86 5.91 4.92 9.55 14.36 11.29 21.61 1.74 7.25 1.96 15.46-.84 21.89S74.9 65.61 68.68 70.22c-6.22 4.62-13.81 10.33-21.39 11.01-7.58.67-17.28-3.4-24.07-6.97-6.8-3.57-12.85-8.24-16.68-14.44C2.7 53.61-.16 44.19.21 37.03c.38-7.15 3.81-14.19 8.57-20.15 4.76-5.96 12.97-12.74 20-15.6C35.81-1.58 47.49-.47 50.99-.27c3.5.21-1.31 2.13-1.2 2.8" transform="translate(415.304 118.218)"/></g><g stroke-linecap="round"><path fill="#ced4da" stroke-width="0" d="M37.94.41c7.33-1.38 17.42.64 24.54 3.71 7.11 3.07 14.27 8.44 18.15 14.73 3.88 6.28 5.55 15.58 5.15 22.96-.41 7.37-3.23 15.35-7.59 21.3-4.36 5.95-11.45 11.74-18.56 14.38-7.12 2.64-16.35 2.75-24.12 1.48-7.76-1.28-16.84-4.21-22.47-9.13-5.63-4.91-9.68-13.19-11.33-20.38C.05 42.27.62 33.52 3.11 26.73c2.5-6.79 6.76-13.51 13.56-18.02C23.48 4.19 38.37.76 43.96-.35c5.58-1.12 6.07 1.79 6.25 2.36m-3.6-2.97c7.77-.42 16.08 4.27 22.35 8.54 6.27 4.28 12.61 10.36 15.28 17.11 2.68 6.74 2.77 15.99.76 23.39-2.02 7.4-7.52 16.05-12.84 21-5.31 4.95-11.65 7.12-19.06 8.69-7.4 1.57-17.88 3.04-25.35.73-7.46-2.31-15-8.72-19.46-14.58-4.45-5.86-6.75-13.32-7.26-20.58-.51-7.27.94-16.47 4.18-23.02 3.24-6.56 8.61-13.07 15.23-16.3C27.07.79 40.9 1.28 44.97.94c4.08-.35-.17.63-.09.99" transform="translate(415.304 219.647)"/><path fill="none" stroke="#000" stroke-width="4" d="M54.36.72c7.19 1.15 14.97 7.09 19.99 12.47 5.01 5.37 8.88 12.68 10.11 19.78 1.23 7.1.08 16.22-2.73 22.82-2.81 6.61-7.79 12.88-14.12 16.81-6.34 3.93-16.17 6.31-23.89 6.78-7.72.46-15.95-.34-22.44-3.98-6.5-3.63-13.06-11.32-16.53-17.85C1.28 51.02-.22 43.28.48 36.24c.71-7.05 3.67-15.29 8.5-20.94C13.81 9.64 21.95 4.46 29.47 2.29c7.51-2.18 20.22-.21 24.62-.04 4.39.16 1.96.42 1.73 1.01m2.51.42C65 5.77 70.68 10.53 75.34 16.19c4.66 5.66 9.98 14.48 10.93 21.46.95 6.97-1.31 14.07-5.22 20.37-3.91 6.29-11.77 13.68-18.26 17.39-6.48 3.71-13 5.19-20.66 4.88-7.66-.32-18.82-2.53-25.31-6.76-6.5-4.22-10.86-11.82-13.65-18.58C.38 48.2-1.44 39.84.08 32.99c1.51-6.86 6.96-13.77 12.18-19.14C17.47 8.48 24.09 2.93 31.36.76 38.63-1.41 51.5.28 55.88.83c4.37.56 1.95 2.41 1.73 3.27" transform="translate(415.304 219.647)"/></g><path fill="none" stroke="#000" stroke-linecap="round" stroke-width="4" d="M-1.15.59C9.5 10.82 53.54 51.68 64.57 61.67M.44-.14c10.5 9.84 52.83 49.68 63.57 59.96" transform="translate(353.518 99.057)"/><path fill="none" stroke="#000" stroke-linecap="round" stroke-width="4" d="M.59.73c10.79 26.28 53.89 129.96 64.45 155.76M-.55.07C10.1 26.15 53.79 128.85 64.36 155" transform="translate(352.388 98.22)"/><path fill="none" stroke="#000" stroke-linecap="round" stroke-width="4" d="M.73.51C12.21-5.86 56.71-31.5 67.71-37.66M-.34-.26c11.52-6.28 56.66-29.81 67.73-36.18" transform="translate(353.072 198.165)"/><path fill="none" stroke="#000" stroke-linecap="round" stroke-width="4" d="M.51 1.19c10.37 9.59 51.7 47.71 62.28 57.07M-.68.77c10.71 9.14 55.16 45.89 65.86 55.49" transform="translate(353.518 199.504)"/><path fill="none" stroke="#000" stroke-linecap="round" stroke-width="4" d="M1.19-.61c10.56-22.82 52.54-113.13 62.87-135.84M.36 1.69c10.35-23.22 52.59-117.08 62.87-139.94" transform="translate(353.965 300.843)"/><path fill="none" stroke="#000" stroke-linecap="round" stroke-width="4" d="M-.61.22c10.44-8.27 53.17-40.5 63.72-48.65M1.28-.7c10.28-7.62 51.08-38.69 61.2-46.55" transform="translate(353.518 304.861)"/><g stroke-linecap="round"><path fill="none" stroke="#000" stroke-width="4" d="M-.3-.44c15.48.11 78.48.15 93.94-.03M1.74-1.71C17.06-1.3 78.15.92 93.1 1.08" transform="translate(510.003 159.248)"/><path fill="none" stroke="#000" stroke-width="4" d="M63.93 11.92C75.11 6.49 83.66 1.91 92.95 3M64.9 10.31C73.68 7.85 84.5 4.99 93.21.28" transform="translate(510.003 159.248)"/><path fill="none" stroke="#000" stroke-width="4" d="M64.45-8.6C75.25-6.58 83.61-3.71 92.95 3M65.42-10.2C73.9-5.8 84.55-1.78 93.21.28" transform="translate(510.003 159.248)"/></g><g stroke-linecap="round"><path fill="#ced4da" stroke-width="0" d="M54.36 2.15c7.24 1.39 16.01 5.96 21.33 11.21C81 18.62 85.11 26.5 86.26 33.69c1.15 7.19-.2 16.22-3.67 22.83-3.48 6.61-10.47 12.82-17.17 16.82-6.7 4.01-15.52 7.33-23.03 7.21-7.52-.11-15.66-3.71-22.07-7.88-6.41-4.18-13.24-10.9-16.39-17.16C.78 49.24.43 41.93 1.42 35.06c.99-6.86 3.55-15.32 8.46-20.73C14.79 8.91 22.4 4.27 30.89 2.55 39.38.83 54.84 3.3 60.83 4c5.98.71 6.05 2.12 5.97 2.76m-41.07-4.2C32.53-.75 43.48-.66 51.24.52c7.75 1.17 15.71 4.38 21.01 9.11 5.3 4.72 8.95 11.93 10.78 19.23 1.83 7.29 2.47 17.34.21 24.55-2.26 7.22-7.89 14.51-13.77 18.74-5.87 4.24-13.84 6.13-21.49 6.66-7.64.53-17.6-.46-24.38-3.48-6.79-3.03-12.57-8.43-16.35-14.68C3.47 54.39.69 44.86.91 37.81c.21-7.05 3.48-13.75 7.65-19.46C12.73 12.63 22.8 6.02 25.92 3.52c3.12-2.5.83-.87 1.39-.18" transform="translate(264.32 56.225)"/><path fill="none" stroke="#000" stroke-width="4" d="M30.49 1.32c6.84-2.63 16.88-1.48 24.21.6C62.03 4 69.35 8.43 74.47 13.79c5.13 5.35 9.81 13.09 10.97 20.27 1.16 7.19-.85 16.18-4.01 22.83-3.15 6.65-8.45 13.16-14.92 17.08-6.48 3.92-16.32 6.27-23.94 6.43-7.62.15-15.23-1.78-21.8-5.52-6.56-3.74-14.36-10.09-17.6-16.92C-.07 51.14.08 41.15 1.34 33.93c1.26-7.21 4.08-13.84 9.38-19.28C16.03 9.22 29.27 3.67 33.18 1.33c3.9-2.33.85-1.47.96-.68M47.78.39c7.42.15 15.39 4.43 21.42 9.2 6.03 4.78 12.48 12.77 14.76 19.46 2.28 6.69 1.1 14.18-1.09 20.68-2.18 6.49-6.74 13.16-12.02 18.3-5.28 5.13-12.04 11.02-19.63 12.49-7.6 1.47-18.64-.78-25.93-3.65-7.29-2.88-13.54-7.65-17.8-13.61C3.22 57.3-.17 48.47-.31 41.11-.45 33.75 2.6 25.13 6.67 19.1 10.74 13.08 17.3 7.86 24.12 4.96c6.81-2.89 19.7-2.61 23.44-3.24 3.75-.63-1.03-.98-.98-.55" transform="translate(264.32 56.225)"/></g><g stroke-linecap="round"><path fill="#ced4da" stroke-width="0" d="M46.43.45c7.34.21 15.61 4.1 21.59 8.5 5.97 4.4 11.5 11.38 14.25 17.9 2.75 6.51 3.82 14.34 2.24 21.19-1.58 6.85-6.41 14.63-11.74 19.93-5.34 5.3-12.64 10.27-20.27 11.87-7.64 1.6-18.06.23-25.55-2.26-7.49-2.48-15.08-6.76-19.41-12.66C3.22 59.01 1.27 49.5.99 42.15c-.27-7.36 1.16-15.07 4.88-21.37 3.72-6.3 9.47-13.19 17.44-16.42 7.97-3.24 24.32-3.13 30.36-2.98 6.04.14 6.02 3.37 5.89 3.86M32.17 2.01C39-.01 49.49.46 56.71 2.45c7.22 1.98 14.16 5.89 18.76 11.45 4.61 5.56 7.82 14.59 8.89 21.93 1.06 7.33.65 15.55-2.51 22.09-3.16 6.54-9.45 13.49-16.44 17.13-6.99 3.65-17.5 4.94-25.47 4.74-7.98-.21-16.26-1.98-22.38-5.97-6.11-4-11.37-11.29-14.31-18.01C.3 49.08-1.7 40.76-.1 33.45 1.51 26.15 7.34 17.28 12.88 12c5.53-5.28 16.99-8.77 20.25-10.24 3.26-1.48-.96.6-.71 1.37" transform="translate(264.32 157.296)"/><path fill="none" stroke="#000" stroke-width="4" d="M46.87.46c7.27.05 17.04 3.37 23.2 7.87 6.15 4.5 11.31 12.35 13.74 19.15 2.42 6.81 2.64 14.72.82 21.68-1.83 6.96-6.2 15.2-11.78 20.1-5.58 4.9-14.04 7.9-21.68 9.3-7.65 1.4-17.11 1.87-24.19-.89-7.08-2.76-13.93-9.8-18.27-15.66C4.38 56.15 1.56 49.48.96 42.53c-.6-6.96.29-16.04 4.14-22.25C8.95 14.06 16.65 8.55 24.05 5.21 31.45 1.87 45.13.75 49.52.23c4.39-.52.87 1.14.9 1.88m-23.16-.02c6.54-3 16.72-2.23 24.52-.96 7.8 1.27 16.89 3.83 22.29 8.6 5.41 4.76 8.82 12.55 10.13 19.97 1.3 7.41.02 17.7-2.29 24.52-2.32 6.81-5.73 12.1-11.6 16.37-5.86 4.26-15.81 8.44-23.59 9.2-7.78.76-16.21-1.42-23.08-4.65C16.78 71.91 9.5 66.56 5.52 60.4 1.53 54.24-.82 45.47-.26 38.17c.56-7.31 4.34-15.55 9.14-21.61 4.81-6.06 16.59-12.69 19.7-14.73 3.12-2.05-1.05 1.57-1.02 2.45" transform="translate(264.32 157.296)"/></g><g stroke-linecap="round"><path fill="#ced4da" stroke-width="0" d="M34.33.32c7.33-2.17 17.4-1.08 24.69 1.53 7.3 2.62 14.74 8.29 19.1 14.14 4.35 5.86 6.7 13.68 7.02 21 .32 7.33-1.58 16.71-5.12 22.93-3.53 6.22-9.36 11.22-16.09 14.39-6.72 3.16-16.6 4.84-24.26 4.58-7.67-.25-15.44-2.03-21.73-6.12-6.29-4.08-13.18-11.63-16.01-18.39C-.89 47.63-.71 39.37 1 32.25c1.71-7.13 4.59-15.08 11.2-20.61C18.81 6.12 34.71.81 40.66-.9c5.96-1.72 7.36 1.5 7.25 2.25m7.37.03c7.38 1.22 15.11 5.8 19.87 11.01 4.77 5.21 7.62 12.82 8.72 20.26 1.1 7.44.84 17.41-2.12 24.37-2.96 6.97-9.3 13.75-15.62 17.42-6.32 3.67-14.59 4.78-22.29 4.61-7.69-.17-17.44-1.98-23.86-5.61C13.55 69.8 8.42 63.81 5.3 57.23 2.18 50.65.28 40.95 1.25 33.95c.96-6.99 5.07-13.39 9.83-18.68C15.84 9.98 22.5 4.59 29.82 2.21c7.32-2.38 20.94-1.37 25.2-1.2 4.26.16.44 1.2.37 2.16" transform="translate(264.32 258.368)"/><path fill="none" stroke="#000" stroke-width="4" d="M62.87 4.93c6.68 2.79 12.89 9.3 16.73 15.52 3.83 6.21 6.71 14.54 6.29 21.8-.42 7.26-4.29 15.84-8.82 21.75-4.53 5.92-11.14 11.15-18.35 13.76-7.21 2.6-17.42 3.21-24.9 1.89-7.48-1.32-14.38-4.91-19.97-9.81-5.6-4.9-11.84-12.3-13.58-19.61-1.75-7.31.31-17.39 3.11-24.27 2.8-6.88 7.6-12.71 13.68-16.99C23.14 4.69 31.68.82 39.85.25c8.18-.56 21.28 3.64 26.28 5.35 4.99 1.7 4.01 4.29 3.7 4.89M55.96 2.75c7.18 1.9 16.14 8.38 20.82 13.86 4.68 5.48 6.73 12.34 7.26 19.03.54 6.69-.95 14.45-4.05 21.12-3.1 6.67-7.91 15.04-14.56 18.9-6.65 3.86-17.48 4.68-25.37 4.29-7.88-.39-15.72-2.48-21.93-6.65-6.21-4.17-12.5-11.54-15.31-18.37C.02 48.1-.22 39.24 1.3 32.31c1.52-6.93 5.45-14 10.65-18.95 5.19-4.94 13.21-8.87 20.51-10.72 7.29-1.85 19.13-.43 23.24-.38 4.11.06 1.4.05 1.43.72" transform="translate(264.32 258.368)"/></g><text x="18" fill="#1864ab" dominant-baseline="text-before-edge" font-family="Virgil, Segoe UI Emoji" font-size="16.103" style="white-space:pre" text-anchor="middle" transform="rotate(-34.235 281.992 -268.782)">0.35</text><text x="13.5" fill="#1864ab" dominant-baseline="text-before-edge" font-family="Virgil, Segoe UI Emoji" font-size="16.103" style="white-space:pre" text-anchor="middle" transform="rotate(-65.018 227.594 -95.27)">0.2</text><text x="13" fill="#1864ab" dominant-baseline="text-before-edge" font-family="Virgil, Segoe UI Emoji" font-size="16.103" style="white-space:pre" text-anchor="middle" transform="rotate(33.63 -147.347 485.24)">-0.1</text><text x="16" fill="#1864ab" dominant-baseline="text-before-edge" font-family="Virgil, Segoe UI Emoji" font-size="16.103" style="white-space:pre" text-anchor="middle" transform="rotate(33.63 -312.341 498.145)">0.18</text><text x="12" fill="#1864ab" dominant-baseline="text-before-edge" font-family="Virgil, Segoe UI Emoji" font-size="16.103" style="white-space:pre" text-anchor="middle" transform="rotate(59.724 -78.498 338.349)">0.7</text><text x="13" fill="#1864ab" dominant-baseline="text-before-edge" font-family="Virgil, Segoe UI Emoji" font-size="16.103" style="white-space:pre" text-anchor="middle" transform="rotate(-38.548 407.23 -212.37)">-0.4</text><text x="171.952" fill="#1864ab" dominant-baseline="text-before-edge" font-family="Virgil, Segoe UI Emoji" font-size="25.011" style="white-space:pre" text-anchor="middle" transform="translate(136.43 10)">Randomly Initialized Weights</text><text x="7" dominant-baseline="text-before-edge" font-family="Virgil, Segoe UI Emoji" font-size="24.795" style="white-space:pre" text-anchor="middle" transform="translate(29.719 114.18)">x</text><text x="2.26" dominant-baseline="text-before-edge" font-family="Virgil, Segoe UI Emoji" font-size="18.678" style="white-space:pre" text-anchor="middle" transform="translate(46.89 127.21)">1</text><text x="7" dominant-baseline="text-before-edge" font-family="Virgil, Segoe UI Emoji" font-size="24.795" style="white-space:pre" text-anchor="middle" transform="translate(27.317 223.893)">x</text><text x="6.5" dominant-baseline="text-before-edge" font-family="Virgil, Segoe UI Emoji" font-size="18.678" style="white-space:pre" text-anchor="middle" transform="translate(40.812 236.923)">2</text><text x="6" dominant-baseline="text-before-edge" font-family="Virgil, Segoe UI Emoji" font-size="24.795" style="white-space:pre" text-anchor="middle" transform="translate(535.792 117.998)">y</text><text x="2.26" dominant-baseline="text-before-edge" font-family="Virgil, Segoe UI Emoji" font-size="18.678" style="white-space:pre" text-anchor="middle" transform="translate(552.43 131.028)">1</text><text x="6" dominant-baseline="text-before-edge" font-family="Virgil, Segoe UI Emoji" font-size="24.795" style="white-space:pre" text-anchor="middle" transform="translate(534.267 222.335)">y</text><text x="6.5" dominant-baseline="text-before-edge" font-family="Virgil, Segoe UI Emoji" font-size="18.678" style="white-space:pre" text-anchor="middle" transform="translate(546.665 235.366)">2</text><text x="18" fill="#1864ab" dominant-baseline="text-before-edge" font-family="Virgil, Segoe UI Emoji" font-size="16.103" style="white-space:pre" text-anchor="middle" transform="rotate(-34.235 619.356 -468.201)">0.25</text><text x="10" fill="#1864ab" dominant-baseline="text-before-edge" font-family="Virgil, Segoe UI Emoji" font-size="16.103" style="white-space:pre" text-anchor="middle" transform="rotate(-65.018 380.703 -144.605)">0.1</text><text x="16.5" fill="#1864ab" dominant-baseline="text-before-edge" font-family="Virgil, Segoe UI Emoji" font-size="16.103" style="white-space:pre" text-anchor="middle" transform="rotate(33.63 20.958 689.912)">-0.2</text><text x="13.681" fill="#1864ab" dominant-baseline="text-before-edge" font-family="Virgil, Segoe UI Emoji" font-size="14.171" style="white-space:pre" text-anchor="middle" transform="rotate(-31.631 480.89 -591.519)">-0.7</text><text x="14" fill="#1864ab" dominant-baseline="text-before-edge" font-family="Virgil, Segoe UI Emoji" font-size="16.103" style="white-space:pre" text-anchor="middle" transform="rotate(59.724 32.811 463.157)">0.8</text><text x="14.5" fill="#1864ab" dominant-baseline="text-before-edge" font-family="Virgil, Segoe UI Emoji" font-size="16.103" style="white-space:pre" text-anchor="middle" transform="rotate(33.63 -133.658 710.045)">0.17</text><g stroke-linecap="round"><path fill="none" stroke="#000" stroke-width="4" d="M.22.61C15.39.66 76.91-.23 92.19-.3m-93.31.18c15.46.33 79.76 1.73 95.67 1.45" transform="translate(509.408 262.82)"/><path fill="none" stroke="#000" stroke-width="4" d="M67.32 10.34C77.96 5.83 90.05 3.78 94.15-.19M66.49 11.02c6.84-1.85 12.94-4.38 28.3-9.47" transform="translate(509.408 262.82)"/><path fill="none" stroke="#000" stroke-width="4" d="M67.43-10.18C77.92-6.49 89.97-.35 94.15-.19M66.59-9.51c6.86 3.1 12.94 5.5 28.2 11.06" transform="translate(509.408 262.82)"/></g><path fill="none" stroke="#1864ab" stroke-linecap="round" stroke-width="2" d="M.77.24c59.35.12 296.61.03 356.12.25M-.29-.68C58.83-.44 296.27.81 355.9 1.4" transform="translate(128.85 40.405)"/></svg>