<svg xmlns="http://www.w3.org/2000/svg" width="1050" height="1048.723" viewBox="0 0 525 524.362"><defs><style>@font-face {
        font-family: &quot;Virgil&quot;;
        src: url(&quot;/assets/woff2/Virgil.woff2&quot;);
      }
      @font-face {
        font-family: &quot;Cascadia&quot;;
        src: url(&quot;/assets/woff2/Cascadia.woff2&quot;);
      }</style></defs><g fill-rule="evenodd" stroke-linecap="round"><path fill="none" stroke="#7950f2" stroke-width=".5" d="M180.91-238.92s0 0 0 0m0 0s0 0 0 0m-18.07 30.47c10.7-14.23 18.99-29.2 30.61-41.05m-32.63 38.95c12.94-13.84 25.85-29.75 33.59-38.54m-37.73 50.87c15.62-17.8 32.33-37.4 49.44-55.03m-50.31 55.73c19.64-21 35.69-41.74 48.52-56.15M-14.73 4.42s0 0 0 0m0 0s0 0 0 0m164.69-186.17c20.93-27.84 45.96-55.18 58.56-71.51m-58.93 70.28c17.04-22.57 35.86-43.5 60.75-71.22M-8.76 3.23c1.54-1.23 1.98-1.26 4-3.4m-3.83 3.65c.97-1.24 1.38-1.69 3.66-4.23m-.01.65c.52-1.61 1.32-2.64 2.64-3.52M-5.28-.65c.53-.52 1.36-1.07 2.85-3.06m141.41-165.51c17.21-19.26 38.08-41.56 74.54-81.2m-74.36 82.77c21.34-23.11 43.22-47.8 74.12-84.05M-2.26 2.14C-1.57 1.65-.94.92-.73.5m-1.33 1.53c.44-.37.83-.95 1.3-1.41M.63-1.31c1.43-1.29 2.41-2.85 5.84-5.2M.45-.98c1.53-.98 2.14-2.48 5.22-6.32m128.14-147.93c16.53-20.69 36.92-40.65 82.84-94.17M135-155.62c26.97-30 52.31-60.08 80.96-92.23M6.73-1.6c-.2-.88 2.03-3.32 7.65-8.19M5.57-.75c1.55-1.91 4.95-4.87 9.29-10.05m113.09-132.61c20.59-20.25 40.51-44.75 90.29-103.05m-88.6 104.36c35.68-40.94 70.47-82.46 90.49-104.33M12.35-.72c3.6-4.04 6.43-9.51 10.97-16.44M12.02-.01c4.13-5.6 8.59-12.05 11.1-14.43m99.21-113.99c35.12-37.47 69.13-78.1 98.37-113.7M123.08-129.2c37.08-44.53 74.85-87.63 98.32-115.53M15.22-1.13c5.39-5.23 11.2-15.17 15.42-18.31M15.16-.17c7.65-8.88 14.6-14.41 18.24-20.2m85.29-97.38c37.71-42.2 77.84-87.59 107.45-123.3m-108.4 123.52c21.39-24.93 45.17-52.27 106.78-123.48M22.94-1.22c5.54-7.84 12.45-17.57 20.91-25.86M22.06-.21c6.21-6.2 11.2-14.36 20.3-24.05m68.79-80.69c27.03-28.25 52.74-60.06 116.53-132.04M111.91-104.27c43.31-47.37 84.66-96.04 114.84-132.83M25.22.76C36.6-9.61 43.41-22.59 54.31-28.89M25.77.33c6.28-7.81 12.99-15.17 27.87-31.89m48.64-58.15c31.02-33.11 62.59-66.28 125.92-145.62M103.7-89.11c47.24-56.14 94.26-111.57 124.78-143.76M32.1.43C46.78-19.19 62-36.05 73.59-45.25M31.12-.66c12.46-13.21 25.14-28.31 41.46-45.19m15.89-21.39c44.73-48.38 87.36-96.72 144.3-162.67M90.27-65.94c51.76-61.52 103.89-122.37 141.64-165.01M38.29-1.63c67.97-77.67 135.39-155.85 195.94-225.08M37.38-1.02c63.8-72.51 127-144.66 197.37-226.15M43.61-.01c59.56-69.39 117.32-138.51 191.72-222.61M42.97.35c64.78-74.28 129.77-149.56 193.61-223.29M48.92-.18c39.39-45.68 75.97-90.45 189.83-219.45M48.5-1.13c71.4-84.74 143.92-168.41 191.08-219.13M52.66-1.48c58.39-67.66 118.56-137.15 187.35-215.14M53.04.2c38.68-45.14 77.15-90.22 187.07-216.12M57.7-.96c42.83-48.47 86.98-97.89 184.65-212.9M59.35-1.3c58.08-68.15 118.27-137.54 183.2-210.85M62.96.76c72.95-79.05 142.38-160.15 182.73-210.44M64.13-.07c41.36-44.64 80.87-92.22 181.3-209.1M68.31-.49C128.2-66.62 187.71-136 246.1-204.09M69.44-.66c54.4-64.08 110.9-128.5 177.97-205.28M75.42.16c55.08-68.18 113.16-133.11 173.55-202.11M74.56-1.11c61.5-70.03 123.23-142.39 173.63-200.79M79.59-.95c60.1-72.02 123.85-144.11 172.09-195.12M79.04.24c37.46-42.39 75.11-86.03 171.29-197.95M83.26-.99c63.82-69.36 124.44-139.04 169.91-191.34M85.61-1.03c47.86-54.11 95.27-107.75 166.21-191.28M91-.82c63.27-71.73 124.89-144.13 163.45-187.29M90.31-.55c37.06-42.56 74.13-86.85 162.94-188.09M94.26-.53c45.84-50.79 87.98-98.84 161.05-184.29M95.18-.08c32.57-38.63 66.98-77.06 161.15-183.93M101.82.34c33.2-41.76 68.89-80.16 155.46-181.57M100.01-.1c41.87-45.7 82.4-94.24 157.41-179.83M105.39.22c38.64-38.75 73.74-81.3 154.16-175.97M105.93-.95c38.68-44.18 79.13-90.26 152.57-174M110.62-1.59c42.7-48.11 82.96-98.15 150.63-171.09M110.3-.16c53.04-59.55 103.53-117.6 149.68-170.93M115.41-.52C173.04-66.4 231.1-133.81 260.67-167.25M117.11-.33c37.93-44.82 77.14-90 144.76-167.37M121.38-.94C173.74-61.6 227.34-120.87 264.69-162.1M121.63.17c29.94-35.86 62.48-72.64 141.5-163.06M127.93-.72c39.04-44.38 78.42-90.94 135.69-158.82M127.1.11c53.82-65.09 108.35-126.76 137.42-159.9M133.45 1.02c31.6-40.96 64.81-79.7 132.32-155.23M132.53-.67C183.98-59.3 234.51-116.7 267.05-154.49M136.54-.97C169-37.9 198.14-70.44 268.8-149.65M137.84.99c39.79-48.53 81.81-96.79 130.01-150.29M144.77-1.22c34.73-41.95 68.85-81.54 123.51-146.16M143.04.44c46.44-55.58 94.13-110.38 127-146.21M149.57.67c40.28-46.92 79.91-92.91 119.79-141.44M147.06.65c29.76-34.04 58.25-67.18 124.53-141.79M154.76 1.42c47.58-56.4 92.27-111.53 118.9-139.72M153.01.33c40.47-47.25 81.05-93.92 120.82-138.23M159.2.49c27.53-33.98 54.04-65.59 114.96-134.96M159.13-.21c28.39-35.48 58.72-70.53 115.83-132.88M165.77-1.69c33.12-40.57 70.85-80.7 109.26-127.88M164.15-1.25c34.58-35.33 65.37-72.86 112.02-127.18M167.87-1.46c27.5-29.96 54.01-59.92 112.09-124.69M170.16.3c24.93-27.48 49.41-55.81 108.24-125.47M173.77-.93c37.25-40.79 73.13-86.49 107.58-120.84M173.34-.55c38.93-43.49 77.3-87.77 106.55-120.72M180.38-1.5c34.27-40.6 72.52-83.54 103.56-115.8M180.09-.72c28.23-32.98 54.89-64.71 102.09-117.23M183.04-1.32c37.34-40.36 72.21-80.67 98.94-112.28M185.22 1.09c22.46-25.91 45.06-51.06 98.45-113.98M191.88-.34c21.58-24.53 41.32-46.33 95.72-107.74M190.65.99c27.25-34.33 55.22-67.07 95.71-110.04M194.29 2c20.27-23.89 41.44-47.49 91.66-107.64M196.29-.2c22.1-26 45.5-52.56 91.03-103.88M199.93.95c19.71-25.64 40.19-46.82 90.25-103.19M201.41.89c23.18-27.34 46.72-56.28 86.73-101.07M207.24.77c29.7-35.59 60.52-72.47 84.08-98.62M205.51.12c31.22-33.88 60.78-67.94 85.57-97.58M212.44.92c29.86-35.82 58.91-71.88 82.16-94.36M211.72-.36c24.32-28.68 49.08-56.44 82.14-94.99m-77.85 93.7c18.6-19.48 37.29-41.7 81.25-86.88M217.65-.19c24.29-30.44 51.26-60.03 78.11-90.24m-72.7 92.92c15.78-18.61 30.09-39.55 75.82-90.41M222.12-.19c18.12-18.25 34.32-38.32 76.28-87.43M229.08 1.73c13.76-21.92 28.27-39.57 72.16-86.64M227.31-.22c26.23-28.18 50.59-56.43 72.6-83.51M233.76 1.96c16.2-22.51 36.79-48.22 68.91-82.05M232.91.93c25.66-32.63 53-62.43 68.8-81.57m-64.4 82.16c20.46-25.36 42.05-50.36 67.85-77.82M238.88.16c14.19-16.57 29.83-35.49 67.06-76.8m-63 78.14c19.91-24.3 42.56-49.18 63.13-75.94M242.25-.04c16.79-17.73 31.61-34.03 65.35-72.55M249.92-.05c15.78-20.31 30.24-39.68 60.01-69.11M248.56.25c20.68-23.97 42.72-49.03 60.14-70.26M252.01 2.16c14.62-18.97 30.9-35.48 60.16-66.79M252.74.29c23.48-25.13 44.73-51.71 59.61-67.53M258.53-1.11c14.51-17.21 28.8-31.75 56.98-61.95M258.4.53c14.33-14.42 25.83-30.72 57.14-64.8M264.78.62c15.55-21.68 35.22-42.11 54.34-62.03M264.81.51c16.08-18.71 32.99-37.49 51.88-60.41M268.45.57c9.51-13.11 21.19-24.62 50.46-57.02m-49.35 57.9c13.28-17.1 26.4-33.04 50.74-58.58M275.4 1.18c12.95-15.64 23.9-30.65 47.37-56.36M274.73.4c13.35-14.01 24.34-26.7 47.8-56.38M281.38.61c7.54-13.54 18.41-23.9 43.46-54.27M279.02.36c20.17-21.02 37.63-41.25 46.91-53.01m-41.5 52.4c13.28-14.46 25.15-25.43 44.26-51.7M286.52.91c13.81-16.79 26.3-33.47 42.4-51.81M291.36.48c15.27-20.43 32.92-36.81 40.34-47.13M289.57.07c11.89-11.26 20.9-23 42.99-48.98M294.78-.11c11.95-10.66 19.25-17.72 43.38-47.5M296.08.19c8.18-8.17 15.51-19.03 39.96-46.61M299.53.55c14.82-17.58 30.52-35.59 39.46-42.77M300.49-.18c8.24-8.05 17.25-16.87 38.3-43.16M307.75.77c7.59-11.06 17.72-23.45 33.1-40.93M307.07-.42c9.91-10.1 18.21-20.97 34.85-40.45M313.35.82c7.7-12.26 19.57-22 33.18-38.67M310.86.04c13.61-12.72 25.02-26.88 34.18-38.45m-26.03 39.6c7.34-12.26 16.64-22 29.06-36.94M316.99-.41c6.9-7.46 14.12-14.79 32.69-36.73M322.69.88c10.69-11.95 20.39-23.42 31.14-33.73M321.59.34c10.79-9.68 19.83-20.76 31.24-35.26M325.95.33c9.34-8.64 14.54-15.15 32.29-33.48M326.49.7c8.14-7.26 16.76-17.61 30.47-33.87M331.77-.02c9.07-6.85 17.71-15.44 30.43-29.66M333.39 1.53c10.46-12.13 20.66-24.01 27.5-32.74M338.3 2.73c4.82-10.59 11.85-14.18 27.19-31.72M338 .28c7.53-9.11 16.34-17.41 26.54-29.49M343.21.97c9.89-11.34 19.01-20.72 24.01-28.63M342.78 1.6c6.12-7.07 11.75-13.48 24.95-30.56M350.2 2.81c2.89-8.85 8.53-15.39 20.74-27.84M347.8 1.19c6.17-6.35 11.83-13.41 23.87-28.28M353.98 2.34c7.02-9.06 9.86-11.98 22.3-25.82M354.1-.27c7.81-7.81 15.34-17.24 20.92-23.36M358.81 1.88c7.59-8.51 15.2-17.79 21.32-23.04M358.62.69c5.23-6.21 9.85-11.42 20.8-23.87m-15.96 25.4c9.1-10.27 14.7-16.26 21.59-22.71M365.5.28c5.88-6.4 11.48-11.71 18.73-20.04M371.7.86c4.53-8.12 12.06-12.62 15.93-21.51m-18.61 21.9c8.01-8.78 14.41-14.97 18.31-20.95M376.7 3.07c4.49-8.11 7.08-13.52 14.93-21.44M374.29 1.56c5.47-4.58 8.85-11.4 16.33-18.28M378.76.3c5.48-3.08 9.69-9.4 16.95-16.43M381.38.5c3.55-4.64 6.44-7.91 12.72-17.14M387.13.76c2.36-3.66 7.66-12.04 11.36-15.72M385.54.81c5.51-4.19 9.32-9.76 13.78-15.22M392.19.42c1.91-4.25 8.07-7.54 11.41-12.16M391.8 1.25c2.3-3.86 4.1-5.56 11.1-13.17m-6.4 12.99c3.31-4.33 7.69-8.51 8.93-12.4M396.19.81c4.62-5.13 7.83-9.12 9.86-11.44M402.58.85c2.49-3.06 4.26-4.37 7.91-9.53m-8.24 10.03c1.98-2.75 3.81-6.39 7.89-10.28M406.31.8c1.51-2.49 4.73-3.44 8.11-7.54M407.27.73c2.12-2.72 4.72-4.98 6.22-7.63M412.22.96c1.39-1.34 2.61-2.93 4.71-6.84M412.68.77c.82-1.26 2.07-2.94 4.99-5.74m.08 5.49c.87-1.92 3.87-3.14 4.83-5.25m-5.26 6.21c1.44-1.59 2.54-3.25 4.7-5.65m.23 5.6c1.03-.62 2.17-1.93 3.29-3.86m-3.11 4c1.36-1.51 2.33-2.93 3.26-3.84M428 1.15c.72-.59 1.07-1.27 1.2-1.61m-1.18 1.59c.35-.32.49-.68 1.33-1.52" transform="translate(46.988 389)"/><path fill="none" stroke="#5f3dc4" d="M1.1-.68c-1.84-.04-26.83 9.31-13.25-.44C1.43-10.88 54.92-26.09 82.59-59.2c27.66-33.11 50.83-107.88 71.26-140.58 20.44-32.7 35.89-55.06 51.36-55.62 15.47-.56 28 27.28 41.47 52.28 13.47 25 24.87 71.27 39.35 97.71 14.49 26.44 25.73 44.42 47.53 60.96 21.81 16.53 74.66 30.91 83.32 38.27 8.65 7.35 39.01 5.14-31.41 5.85C315.05.39 59.66-1.43-5.64-1.9M.22 1.58c-1.95.24-27.13 8.87-13.56-1.12C.23-9.53 53.75-25.2 81.63-58.37c27.87-33.16 51.87-107.31 72.29-140.18 20.42-32.86 35.12-56.15 50.24-57.01 15.12-.86 26.76 26.45 40.47 51.83 13.72 25.38 26.65 73.88 41.82 100.45 15.17 26.56 27.22 43.02 49.21 58.95 21.99 15.93 74.84 29.39 82.73 36.62 7.9 7.23 35.77 5.61-35.36 6.77C311.9.23 56.7-.22-8.39-.73" transform="translate(46.988 389)"/></g><path fill="none" fill-opacity=".9" stroke="#343a40" stroke-linecap="round" stroke-opacity=".9" stroke-width="4" d="M-.34.07C110.18.14 220.65.6 479.47-2.37m-479.6 2c159.3.26 317.74.37 478.91-.83" transform="translate(11.027 391.803)"/><path fill="none" fill-opacity=".9" stroke="#343a40" stroke-linecap="round" stroke-opacity=".9" stroke-width="4" d="M.12-.47c-.6-108.61.38-215.78-2.76-276.3M-.66.57c.38-102.96 1.03-205.18.1-277.6" transform="translate(252.125 390.653)"/><path fill="none" fill-opacity=".3" stroke="#000" stroke-dasharray="1.5 7" stroke-linecap="round" stroke-opacity=".3" stroke-width="1.5" d="M-.47-1.18C-1.01 67.9.71 133.85 1.54 278.41" transform="translate(472.14 114.109)"/><path fill="none" fill-opacity=".3" stroke="#000" stroke-dasharray="1.5 7" stroke-linecap="round" stroke-opacity=".3" stroke-width="1.5" d="M-1.18-.44C.74 73.52-.64 145.48 2.11 276.8" transform="translate(416.988 114.006)"/><path fill="none" fill-opacity=".3" stroke="#000" stroke-dasharray="1.5 7" stroke-linecap="round" stroke-opacity=".3" stroke-width="1.5" d="M-.44.31C.69 83.96.48 171.68.49 276.89" transform="translate(361.481 114.034)"/><path fill="none" fill-opacity=".3" stroke="#000" stroke-dasharray="1.5 7" stroke-linecap="round" stroke-opacity=".3" stroke-width="1.5" d="M.31 1.02C-2.7 75.21-.01 148.89.59 276.03" transform="translate(306.238 114.215)"/><path fill="none" fill-opacity=".3" stroke="#000" stroke-dasharray="1.5 7" stroke-linecap="round" stroke-opacity=".3" stroke-width="1.5" d="M1.02-1.35C.12 63.1-.7 123.63-.28 278.5" transform="translate(195.52 114.052)"/><path fill="none" fill-opacity=".3" stroke="#000" stroke-dasharray="1.5 7" stroke-linecap="round" stroke-opacity=".3" stroke-width="1.5" d="M-1.35.49C1.77 74.77.53 149.33 2.19 276.2" transform="translate(140.413 114.153)"/><path fill="none" fill-opacity=".3" stroke="#000" stroke-dasharray="1.5 7" stroke-linecap="round" stroke-opacity=".3" stroke-width="1.5" d="M.49 1.06c.71 87.19.27 177.49-.6 275.93" transform="translate(84.936 114.007)"/><path fill="none" fill-opacity=".3" stroke="#000" stroke-dasharray="1.5 7" stroke-linecap="round" stroke-opacity=".3" stroke-width="1.5" d="M1.06-.56C-1.95 100.25.03 202.01.69 278.46" transform="translate(29.695 113.487)"/><path fill="none" fill-opacity=".3" stroke="#000" stroke-dasharray="1.5 7" stroke-linecap="round" stroke-opacity=".3" stroke-width="1.5" d="M-.32-.26C100.34-.54 201.54-1.15 476.91.93" transform="translate(10.93 334.611)"/><path fill="none" fill-opacity=".3" stroke="#000" stroke-dasharray="1.5 7" stroke-linecap="round" stroke-opacity=".3" stroke-width="1.5" d="M-.26-.75C159.57.11 317.65 1.39 478.88.84" transform="translate(10.954 279.992)"/><path fill="none" fill-opacity=".3" stroke="#000" stroke-dasharray="1.5 7" stroke-linecap="round" stroke-opacity=".3" stroke-width="1.5" d="M-.75.64C175.96.43 353.84.42 479.92.28" transform="translate(10.907 224.582)"/><path fill="none" fill-opacity=".3" stroke="#000" stroke-dasharray="1.5 7" stroke-linecap="round" stroke-opacity=".3" stroke-width="1.5" d="M.64-.65C126.24 2.42 252.66 2.62 479.36.36" transform="translate(10.95 169.114)"/><path fill="none" fill-opacity=".3" stroke="#000" stroke-dasharray="1.5 7" stroke-linecap="round" stroke-opacity=".3" stroke-width="1.5" d="M-.65-.2c130.67-1.56 260.26-1.07 480.09-.4" transform="translate(10.836 113.841)"/><path fill="none" fill-opacity=".9" stroke="#343a40" stroke-linecap="round" stroke-opacity=".9" stroke-width="2" d="M-.54 1.65C-1.02-.3-.02-4.02-2.91-9.26M.43-.43c-1.52-4.51-2.46-8.32-2.05-11.46" transform="translate(251.682 401.955)"/><path fill="none" fill-opacity=".9" stroke="#343a40" stroke-linecap="round" stroke-opacity=".9" stroke-width="2" d="M1.65-.58c.22-3.03-1.51-9.66-.69-9.81M-.43-.58c-.73-4.32-.98-7.41-1.25-11.23" transform="translate(307.012 401.955)"/><path fill="none" fill-opacity=".9" stroke="#343a40" stroke-linecap="round" stroke-opacity=".9" stroke-width="2" d="M-.58 2.17c1.04-3.83-1.58-5.11.4-12.88m-.4 9.77c-.86-2.27-.4-4.34-1.02-11.34" transform="translate(362.34 401.955)"/><path fill="none" fill-opacity=".9" stroke="#343a40" stroke-linecap="round" stroke-opacity=".9" stroke-width="2" d="M2.17.69C.39-4.83 1.35-5.27-.49-13.52M-.94-1.09c-.17-3.15-.25-7-1.13-10.97" transform="translate(417.67 401.955)"/><path fill="none" fill-opacity=".9" stroke="#343a40" stroke-linecap="round" stroke-opacity=".9" stroke-width="2" d="M.69.9C-2.06-2.02.2-7.74-3.3-10.61m2.21 9.84c.51-2.69.2-6.09-.76-9.79" transform="translate(473 401.955)"/><path fill="none" fill-opacity=".9" stroke="#343a40" stroke-linecap="round" stroke-opacity=".9" stroke-width="2" d="M.9-1.65c.75-.42-1.04-6.69-1.3-10.68M-.77-.36c.22-2.87-.48-5.99.42-11.32" transform="translate(196.353 401.955)"/><path fill="none" fill-opacity=".9" stroke="#343a40" stroke-linecap="round" stroke-opacity=".9" stroke-width="2" d="M-1.65 2.21C.51-3.75-3.11-8.17-2.11-12.62M-.36-.42c-.04-2.91-.57-3.7-1.1-11.68" transform="translate(141.023 401.955)"/><path fill="none" fill-opacity=".9" stroke="#343a40" stroke-linecap="round" stroke-opacity=".9" stroke-width="2" d="M2.21 1.08C.26-5.85-.06-8.44-2.41-13.36M-.42-.34c-.5-2.62.96-4.59-1.47-10.78" transform="translate(85.694 401.955)"/><path fill="none" fill-opacity=".9" stroke="#343a40" stroke-linecap="round" stroke-opacity=".9" stroke-width="2" d="M1.08.76c-3.39-3.77-2.62-9.67-4.22-14.41M-.34-.81c-.47-.96-.38-5.17-.56-11.63" transform="translate(30.365 401.955)"/><text x="11.5" dominant-baseline="text-before-edge" font-family="Virgil, Segoe UI Emoji" font-size="14.755" style="white-space:pre" text-anchor="middle" transform="translate(22.007 408.286)">-4σ</text><text x="8" dominant-baseline="text-before-edge" font-family="Virgil, Segoe UI Emoji" font-size="14.755" style="white-space:pre" text-anchor="middle" transform="translate(467.428 408.643)">4σ</text><text x="8.5" dominant-baseline="text-before-edge" font-family="Virgil, Segoe UI Emoji" font-size="14.755" style="white-space:pre" text-anchor="middle" transform="translate(412.313 408.643)">3σ</text><text x="8.5" dominant-baseline="text-before-edge" font-family="Virgil, Segoe UI Emoji" font-size="14.755" style="white-space:pre" text-anchor="middle" transform="translate(356.627 408.643)">2σ</text><text x="5.5" dominant-baseline="text-before-edge" font-family="Virgil, Segoe UI Emoji" font-size="14.755" style="white-space:pre" text-anchor="middle" transform="translate(304.654 407.697)">1σ</text><text x="5.072" dominant-baseline="text-before-edge" font-family="Virgil, Segoe UI Emoji" font-size="14.755" style="white-space:pre" text-anchor="middle" transform="translate(249.753 408.643)">0</text><text x="8.5" dominant-baseline="text-before-edge" font-family="Virgil, Segoe UI Emoji" font-size="14.755" style="white-space:pre" text-anchor="middle" transform="translate(190.996 408.643)">-1σ</text><text x="12" dominant-baseline="text-before-edge" font-family="Virgil, Segoe UI Emoji" font-size="14.755" style="white-space:pre" text-anchor="middle" transform="translate(132.166 408.643)">-2σ</text><text x="11.5" dominant-baseline="text-before-edge" font-family="Virgil, Segoe UI Emoji" font-size="14.755" style="white-space:pre" text-anchor="middle" transform="translate(77.337 408.286)">-3σ</text><text x="252.5" dominant-baseline="text-before-edge" font-family="Virgil, Segoe UI Emoji" font-size="24.691" style="white-space:pre" text-anchor="middle" transform="translate(10 10)">Xavier Initialization - Normal Distribution</text><text x="76" dominant-baseline="text-before-edge" font-family="Virgil, Segoe UI Emoji" font-size="22.94" style="white-space:pre" text-anchor="middle" transform="translate(148.713 59.748)">μ = 0 , σ =  </text><path fill="none" stroke="#000" stroke-linecap="round" stroke-width="2" d="M-.35-.84c35.78.27 178.82 1.99 214.66 2.06M1.66 1.33C37.87 1.32 181.34-.28 216.7-.4" transform="translate(145.196 97.23)"/><path fill="none" stroke="#5f3dc4" stroke-linecap="round" d="M-.84-.62C18.1-.67 94.47-.77 113.21-.68M.91 1.67c18.91.16 93.58-.27 111.85-.93" transform="translate(200.693 450.85)"/><path fill="none" stroke="#5f3dc4" stroke-linecap="round" d="M-.62.94c.03 1.66.24 6.88.4 8.19M1.26.39c-.12 1.89-2.29 8.4-2.54 9.93" transform="translate(312.745 445.616)"/><path fill="none" stroke="#5f3dc4" stroke-linecap="round" d="M.94-.22c.03 1.8-1.27 8.76-1.6 10.37m.64-11.52c.5 1.47 1.5 7.6 1.73 9.59" transform="translate(199.547 445.15)"/><path fill="none" stroke="#5f3dc4" stroke-linecap="round" d="M-.22-.66c36.84-.32 183.94-.44 220.59-.35M-1.79 1.61C34.97 1.32 182.86.07 219.61 0" transform="translate(140.227 477.731)"/><path fill="none" stroke="#5f3dc4" stroke-linecap="round" d="M-.66.37c-.32 1.61-.44 7.43-.35 9.07M1.2-.48c-.05 1.8.33 9.85-.03 11.28" transform="translate(139.92 471.703)"/><path fill="none" stroke="#5f3dc4" stroke-linecap="round" d="M.37-1.01C.35.71-.35 7.98-.34 9.66M-.9 1.07c-.19 1.97-.7 8.57-.57 10.07" transform="translate(360.727 473.1)"/><path fill="none" stroke="#5f3dc4" stroke-linecap="round" d="M-1.01-.34c56.13-.06 281.06.24 337.17.32M.66-1.56c56.02-.47 278.85-.3 334.49-.35" transform="translate(82.932 505.568)"/><path fill="none" stroke="#5f3dc4" stroke-linecap="round" d="M-.34-.12c.01 1.69.63 7.4.79 9.24M1.68-1.23C1.54.7-.02 8.58-.27 10.31" transform="translate(83.087 499.188)"/><path fill="none" stroke="#5f3dc4" stroke-linecap="round" d="M-.12.45c.06 1.79-.75 8.26-.54 9.96M-1.64-.36C-1.1 1.11 1.27 7.1 1.7 8.62" transform="translate(420.82 501.517)"/><text x="25.602" fill="#5f3dc4" dominant-baseline="text-before-edge" font-family="Virgil, Segoe UI Emoji" font-size="15.172" style="white-space:pre" text-anchor="middle" transform="translate(231.242 432.198)">68.2%</text><text x="23.5" fill="#5f3dc4" dominant-baseline="text-before-edge" font-family="Virgil, Segoe UI Emoji" font-size="15.172" style="white-space:pre" text-anchor="middle" transform="translate(232.413 459.683)">95.4%</text><text x="22.5" fill="#5f3dc4" dominant-baseline="text-before-edge" font-family="Virgil, Segoe UI Emoji" font-size="15.172" style="white-space:pre" text-anchor="middle" transform="translate(233.413 488.099)">99.7%</text><text x="9.5" fill="#5f3dc4" dominant-baseline="text-before-edge" font-family="Virgil, Segoe UI Emoji" font-size="16" style="white-space:pre" text-anchor="middle" transform="translate(318.152 441.256)">1σ </text><text x="13.5" fill="#5f3dc4" dominant-baseline="text-before-edge" font-family="Virgil, Segoe UI Emoji" font-size="16" style="white-space:pre" text-anchor="middle" transform="translate(366.792 466.877)">2σ </text><text x="13" fill="#5f3dc4" dominant-baseline="text-before-edge" font-family="Virgil, Segoe UI Emoji" font-size="16" style="white-space:pre" text-anchor="middle" transform="translate(425.522 494.362)">3σ </text><text x="6" dominant-baseline="text-before-edge" font-family="Virgil, Segoe UI Emoji" font-size="16" style="white-space:pre" text-anchor="middle" transform="translate(321.235 49.465)">2</text><text x="20.5" dominant-baseline="text-before-edge" font-family="Virgil, Segoe UI Emoji" font-size="16" style="white-space:pre" text-anchor="middle" transform="translate(301 70.111)">n + n</text><text x="1.5" dominant-baseline="text-before-edge" font-family="Virgil, Segoe UI Emoji" font-size="16" style="white-space:pre" text-anchor="middle" transform="translate(309.69 75.078)">i</text><text x="8.566" dominant-baseline="text-before-edge" font-family="Virgil, Segoe UI Emoji" font-size="15.228" style="white-space:pre" text-anchor="middle" transform="translate(343.31 74.596)">i+1</text><path fill="none" stroke="#000" stroke-linecap="round" stroke-width="2" d="M0 0c9.36-.1 46.81-.48 56.18-.58M0 0c9.36-.1 46.81-.48 56.18-.58" transform="translate(301.291 70.298)"/><path fill="none" stroke="#000" stroke-linecap="round" stroke-width="2" d="M0 0c1.62-1.15 3.25-2.29 4.44-3.14M0 0c1.03-.73 2.06-1.45 4.44-3.14m0 0c2.91 9.88 5.82 19.75 7.32 24.83M4.44-3.14c1.51 5.12 3.02 10.23 7.32 24.83m0 0c-.49-13.26-.98-26.52-1.57-42.33m1.57 42.33c-.46-12.36-.92-24.73-1.57-42.33m0 0h66.12m-66.12 0h66.12" transform="translate(282.859 69.5)"/></svg>