<svg xmlns="http://www.w3.org/2000/svg" width="1086.878" height="900.895" viewBox="0 0 543.439 450.448"><defs><style>@font-face {
        font-family: &quot;Virgil&quot;;
        src: url(&quot;/assets/woff2/Virgil.woff2&quot;);
      }
      @font-face {
        font-family: &quot;Cascadia&quot;;
        src: url(&quot;/assets/woff2/Cascadia.woff2&quot;);
      }</style></defs><path fill="none" fill-opacity=".9" stroke="#343a40" stroke-linecap="round" stroke-opacity=".9" stroke-width="4" d="M.62.2C99.6 1.43 197.05 1.37 478.04-1.54M.02.27c116.23-1.54 232.77-1.84 478.83-1.78" transform="translate(33.663 371.35)"/><path fill="none" fill-opacity=".9" stroke="#343a40" stroke-linecap="round" stroke-opacity=".9" stroke-width="4" d="M.35 1.15c.89-106.07.89-209.51-1.52-279.29M.48-.23c-1.97-61.63-2.09-123.72-1.59-276.62" transform="translate(274.76 370.2)"/><path fill="none" fill-opacity=".3" stroke="#000" stroke-dasharray="1.5 7" stroke-linecap="round" stroke-opacity=".3" stroke-width="1.5" d="M1.15-.21C.25 58.46.46 116.5.17 276.17" transform="translate(494.775 93.655)"/><path fill="none" fill-opacity=".3" stroke="#000" stroke-dasharray="1.5 7" stroke-linecap="round" stroke-opacity=".3" stroke-width="1.5" d="M-.21-1.5c1.36 103.09 1.59 206.84.08 279.21" transform="translate(439.623 93.552)"/><path fill="none" fill-opacity=".3" stroke="#000" stroke-dasharray="1.5 7" stroke-linecap="round" stroke-opacity=".3" stroke-width="1.5" d="M-1.5.27C.41 89.6 1.39 177.77 1.4 277.44" transform="translate(384.117 93.58)"/><path fill="none" fill-opacity=".3" stroke="#000" stroke-dasharray="1.5 7" stroke-linecap="round" stroke-opacity=".3" stroke-width="1.5" d="M.27-1.52c-.04 104.53-.96 209.65.86 279.83" transform="translate(328.874 93.762)"/><path fill="none" fill-opacity=".3" stroke="#000" stroke-dasharray="1.5 7" stroke-linecap="round" stroke-opacity=".3" stroke-width="1.5" d="M-1.52.12c-1.14 78.15.39 158.87 3.53 276.78" transform="translate(218.155 93.599)"/><path fill="none" fill-opacity=".3" stroke="#000" stroke-dasharray="1.5 7" stroke-linecap="round" stroke-opacity=".3" stroke-width="1.5" d="M.12-.88c-.71 57.39.77 114.15.48 276.8" transform="translate(163.048 93.7)"/><path fill="none" fill-opacity=".3" stroke="#000" stroke-dasharray="1.5 7" stroke-linecap="round" stroke-opacity=".3" stroke-width="1.5" d="M-.88-1.18c-.54 89.4.4 177 .49 278.69" transform="translate(107.571 93.553)"/><path fill="none" fill-opacity=".3" stroke="#000" stroke-dasharray="1.5 7" stroke-linecap="round" stroke-opacity=".3" stroke-width="1.5" d="M-1.18.35C.47 56.87.14 110.39 1.21 276.25" transform="translate(52.33 93.034)"/><path fill="none" fill-opacity=".3" stroke="#000" stroke-dasharray="1.5 7" stroke-linecap="round" stroke-opacity=".3" stroke-width="1.5" d="M.2.05C147.22 1.7 292.52 2.4 475.65 1.07" transform="translate(33.566 314.158)"/><path fill="none" fill-opacity=".3" stroke="#000" stroke-dasharray="1.5 7" stroke-linecap="round" stroke-opacity=".3" stroke-width="1.5" d="M.05.54C116.17-1.28 232.93-1.09 479.02.22" transform="translate(33.59 259.54)"/><path fill="none" fill-opacity=".3" stroke="#000" stroke-dasharray="1.5 7" stroke-linecap="round" stroke-opacity=".3" stroke-width="1.5" d="M.54-.25c105.68.23 212.9.07 478.76.74" transform="translate(33.543 204.13)"/><path fill="none" fill-opacity=".3" stroke="#000" stroke-dasharray="1.5 7" stroke-linecap="round" stroke-opacity=".3" stroke-width="1.5" d="M-.25-.81c155.01-1.1 309.51-.27 479.82.93" transform="translate(33.586 148.66)"/><path fill="none" fill-opacity=".3" stroke="#000" stroke-dasharray="1.5 7" stroke-linecap="round" stroke-opacity=".3" stroke-width="1.5" d="M-.81.09c146.56.45 293.76 1 480.01.07" transform="translate(33.471 93.388)"/><path fill="none" fill-opacity=".9" stroke="#343a40" stroke-linecap="round" stroke-opacity=".9" stroke-width="2" d="M.24-1.65C-.6-3.65.4-8.07-.9-10.56M.29-.21C.87-3.02-.06-6.94-.76-11.16" transform="translate(274.317 381.502)"/><path fill="none" fill-opacity=".9" stroke="#343a40" stroke-linecap="round" stroke-opacity=".9" stroke-width="2" d="M-1.65-.21C.41-1.86-.21-5.85-.34-12.23m.13 13.38C-.5-2.63-1.7-5.89-.95-11.71" transform="translate(329.647 381.502)"/><path fill="none" fill-opacity=".9" stroke="#343a40" stroke-linecap="round" stroke-opacity=".9" stroke-width="2" d="M-.21.53c1.17-2.66.02-4.39-1.8-12.49M1.15.02C.04-5.14-.5-8.31-1.49-11.03" transform="translate(384.976 381.502)"/><path fill="none" fill-opacity=".9" stroke="#343a40" stroke-linecap="round" stroke-opacity=".9" stroke-width="2" d="M.53 1.24C.03-3.21.3-7.88-1.75-9.73M.02.56C-1.19-3.2-.47-7.67-.81-10.57" transform="translate(440.306 381.502)"/><path fill="none" fill-opacity=".9" stroke="#343a40" stroke-linecap="round" stroke-opacity=".9" stroke-width="2" d="M1.24.26C.09-1.7-1.31-5.73.48-10.89M.56-.83C-.08-2.92-1.17-6.01-.36-11.7" transform="translate(495.635 381.502)"/><path fill="none" fill-opacity=".9" stroke="#343a40" stroke-linecap="round" stroke-opacity=".9" stroke-width="2" d="M.26.36C.49-4.08-1.27-4.92-.67-11.9M-.83.5c.63-5.31.26-8.76-.65-10.99" transform="translate(218.988 381.502)"/><path fill="none" fill-opacity=".9" stroke="#343a40" stroke-linecap="round" stroke-opacity=".9" stroke-width="2" d="M.36.91C-1.29-4.19.8-6.83-1.68-9.16M.5.31C-.73-3.04.03-7.17-.27-12.12" transform="translate(163.659 381.502)"/><path fill="none" fill-opacity=".9" stroke="#343a40" stroke-linecap="round" stroke-opacity=".9" stroke-width="2" d="M.91-.76c-1.87-1.56-1.24-7.78.14-10.66M.31-.24C.17-3.09-.94-7.01-1.91-10.63" transform="translate(108.33 381.502)"/><path fill="none" fill-opacity=".9" stroke="#343a40" stroke-linecap="round" stroke-opacity=".9" stroke-width="2" d="M-.76-.49c2.07-2.49-.48-4.34-.45-9.85M-.24.44c.75-3.28.55-6.32-.18-10.82" transform="translate(53 381.502)"/><text x="5.072" dominant-baseline="text-before-edge" font-family="Virgil, Segoe UI Emoji" font-size="14.755" style="white-space:pre" text-anchor="middle" transform="translate(272.388 388.19)">0</text><text x="246.357" dominant-baseline="text-before-edge" font-family="Virgil, Segoe UI Emoji" font-size="23.761" style="white-space:pre" text-anchor="middle" transform="translate(32.35 10)">Xavier Initialization - Uniform Distribution</text><text x="32" dominant-baseline="text-before-edge" font-family="Virgil, Segoe UI Emoji" font-size="22.94" style="white-space:pre" text-anchor="middle" transform="translate(238.92 40.366)">μ = 0</text><path fill="none" stroke="#000" stroke-linecap="round" stroke-width="2" d="M-.25.46c14.66-.31 73.93-1.59 88.73-2M1.82-.34c14.54-.15 71.78.33 86.2.22" transform="translate(225.747 77.237)"/><g stroke-linecap="round"><path fill="none" stroke="#4c6ef5" stroke-width=".5" d="M0 0s0 0 0 0m0 0s0 0 0 0m-1.04 6.93C.91 5.41 1.6 3.83 4.81.06M-.37 6.32C1.69 3.95 3.34 1.54 5.35.68M.09 12.87C2.72 9.91 5.76 4.08 11.02.36M-.01 11.78C4.4 7 7.74 2.45 10.3-.67M.41 19.01c3.07-6.59 8.89-14.54 16.48-18M.7 17.73C6.49 12.58 11.2 5.24 15.61.76m-15.99 22C5.85 17.34 11.21 10.09 21.17-.01m-21.53 25C5.18 18.41 10.42 14.33 20.76-.08M-1.6 30.07C7.63 20.18 15.24 13.6 27.18.65M.85 30.52C8.56 18.96 18.08 8.16 26.47.91M-2.07 37.92C11.87 24.36 22 8.49 31.22.7M-.92 36.31C8.26 26.74 17.57 17.06 30.92.23M1.88 40.79c5.89-8.8 16.32-19.88 35.64-42.41M-.14 41.61C8.73 31.87 19.04 20.63 36.42.64M-1.54 48.93c14.99-15.2 24.89-26.9 44.93-50.49M-.5 49.21C11.13 36.45 22.39 24.19 42.64-.85M.98 55.05C16.22 32.4 35.74 12.34 46.04 2.1M-.33 54.08C17.76 34.67 36.56 14.55 47.38 1.03M-1.33 60.41C13.65 47.26 28.02 29.93 51.8 1.09M.18 61.51c12.09-15.3 26.3-30.76 53.65-61.75M1.17 65.48C17.13 46.45 34.89 24.62 58.88-.34M-.44 67.74C12.32 51.18 25.83 36.45 57.3 1.13M.68 72.24C14.83 52.78 31.34 34.94 62.59.53M1.08 72.28C23.14 46.06 46.76 18.24 64.46-.88M-2.11 78.44c17.4-18.09 32.7-33.55 72.25-79.5M.79 80.14C21.59 55.05 41.66 30.5 68.11.01M-1.37 84.3C20.31 61.82 41.28 39.82 73.86.63M.12 84.57C24.06 56.05 49.8 29.13 74.44.29M.6 90.56C23.82 62.62 47.04 32.31 77.96-.17M.62 91.1C23.56 63.95 50.22 34.54 79.75.73M-2.03 97.21C29.13 67.37 53.54 32.82 83.76 1.27M.58 98.21C20.4 74.78 38.86 51.51 85.73.33M-.57 101.72C32.88 64.36 65.44 28.91 88.46-1.81M1.01 103.68C33.42 65.44 66.29 27.41 90.17.36M-1.84 109.34C37.54 67.1 72.12 23.87 94.4-1.68M-.28 110.75C34.42 69.42 71.28 27.44 96.25.31M.5 115.79C42.2 69.57 79.95 24.46 99.77 1.9M-.12 114.94C39.45 70.6 78.11 27.46 101.28-.05M.65 121.32C28.67 90.51 54.97 58.88 107.91-.35M.81 122.01C29.31 87.98 59.73 54.12 105.95-.72M1.28 129.4C42.3 78.65 83.55 33.17 110.01-1.17M.52 128.71C28.99 97.59 55.19 64.43 111.05.57M-.43 133.02C39.38 87.58 78.75 38 117.75 1.91M-.2 133.04C28.41 102.41 53.41 71.47 116.1 1.07M1.22 140.92c37.7-46 74.12-87.54 120.09-140.06M.18 140.53C33.31 101.92 65.15 64.65 121.39-.72M1.05 144.32C28.39 114 57.46 80.38 127.38-.56M.62 146.92C42.85 95.11 87.02 43.95 125.96 1.22M1.59 151.12C51.35 93.35 103.02 35.76 131.87-.12M.13 152.24C49.34 96.25 97.84 40.85 132.28-.78M-1.3 159.73C43.34 109.44 86.38 62.55 138.16.82M.45 159.38C46.81 104.37 95.56 50.1 136.89-.35M.95 163.58C30.55 129.19 60.11 97.35 143.52-.25M.32 164.8C32.8 126.38 67.03 86.94 143.52-.69M2.86 166.33C58.59 103.55 110.37 40.99 148.44 1.88M3.99 166.51C49.07 115.87 94.51 62.22 148.52 1.03M8.98 168.91C60.52 104.81 114.38 44.8 154.65.25M8.53 166.56C63.78 104.19 120.56 38.72 153.35.48M15.01 167.43C42.77 133.34 72.79 96.86 160.02-.81M14.45 167.11C68.52 104.72 122.47 42.33 159.16.93M18.78 166.18c36.17-39.89 72.43-77.5 144.9-164.91M19.46 167.94C65.2 112.14 112.42 59.67 165.2.22M22.9 167.75C56.92 131.39 90.53 90.98 167.81-.44M24.55 166.92C54.99 132.46 87.4 96.39 168.75.29M29.53 168.66C62.5 127.53 97.16 85.9 175.89-.76M28.71 167.71C79.69 107.58 132.18 48.2 175.55-.56M35.26 167.19c30.4-36.07 59.59-69.1 145.31-167.77M34.23 166.86C86.55 107.5 139.04 48.36 180.71.03M39.64 165.89C91.8 106.09 143.41 48.89 186.2.97M39.68 166.77c56.86-64.45 112.33-128 146.4-167.71M46.37 166.38C95.25 107.6 147.25 50.3 189.76-1.33M44.51 166.89C88.29 117.32 132.83 66.12 191.53-.67M50.93 168.11C106.2 105.92 159.8 42.34 196.45-.56M50.58 167.77C97.5 114.18 143.46 59.7 196.74 0M55.91 167.18c36-43 75.13-84.37 144.76-166.53M54.93 168.12C106.76 109.33 159.36 48.15 201.15.85M61.78 168.32c43.3-49.7 86.49-99.06 146.7-170.33M61.36 166.45c38.44-43.24 77.9-88.03 146.1-166.73M65.07 166.76c44.23-51.3 88.88-99.23 146.61-168.42M66.5 167.06C100.54 129.37 132.91 90.94 211.24.31M70.57 166.39C119.86 115.14 165 61.23 217.21-.02M71.97 167.17C120.7 111.19 168.66 53.73 218.21-.85M75.69 168.49c40.86-49.05 86.26-98.39 145.49-169.94M77.43 168.07c31.03-37.35 61.24-73.3 144.32-167.71M82.6 165.69c34.74-35.67 67.61-74.89 145.34-167.31M82.35 167.41c34.52-37.19 66.67-75.27 146.56-168.22M86.13 168.78c33.84-38.57 63.96-72.75 148.32-167.62M87.68 166.9c36.19-39 70.36-78.79 144.95-166.71M92.79 166.1C125.33 130.92 156.32 93.33 238.38.75M92.45 166.35c36.3-40.11 72.76-83.08 146.42-166.55M98.25 167.55C140.6 122.2 177.98 76.92 242.97-.83M98.91 167.91C155.32 102.53 211.62 36.52 243.83.72M102.97 167.51c43.38-48.91 85.67-97.15 145.26-165.48m-144.28 164.6C148.78 115.77 192.86 64.22 249.33.38M110.41 168.12c35.4-44.16 72.55-85.33 145.06-168.75M109.36 166.84C164.12 102.62 219.64 38.95 255.28-.58M114.99 166.36c32.78-38.77 66.05-75.38 143.67-166.97M115.05 167.46C160.36 115.17 205.07 63.68 259.6.87M121 166.95c48.9-58.92 99.64-116.69 142.44-168.76M118.95 168.06C166.36 113.25 213.66 59.22 265.21.65M123.75 166C156.84 128.05 192.3 89.58 271.53-.36M125.71 166.28c53.23-60.93 107-121.44 143.9-165.81m-141.2 166.91C180.23 107.36 231.8 46.84 275.61-1.01M129.37 167.31C176.97 113.69 222.38 60.53 275.29.15M134.57 166.32c44.73-46.88 85.79-96.2 147.17-167.09M135.88 167.48C190.96 104.82 245.16 41.85 281.04.1M141.37 165.84c40.05-43.8 78.77-88.73 145.55-167.64M140.56 167.22C178.28 122.52 217.92 77.18 287.2.56M145.81 167.21c30.5-32.98 61.03-67.74 145.33-165.71M145.49 166.78c34.5-40.5 70.35-80.26 146.62-166.11M151.35 165.68c41.4-45.18 81.8-95.53 144.38-166.51M150.75 167.01C191.6 121.54 233.59 73.14 297.42-.65M155.86 168.57C210.48 105.15 261.06 44.7 301.55-.58M156.23 166.84c41.72-48.58 83.15-95.75 146.54-167.2M163.65 166.8c52.28-64.91 111.46-126.84 143.7-168.46M161.59 167.57c38.81-45 79.38-91.61 146.04-168.4M165.9 167.58C219.34 106.4 272.27 47.46 311.38-.19m-144 167.78C226.28 99.7 283.87 33.31 312.95-.34M173.2 165.62C227.57 103.56 282.21 37.72 316.69-.95M173.05 168.1C223.09 111.63 272.2 53.85 317.77-.8m-138.7 166.89c53.62-64.93 111.91-130.37 143.36-167M176.75 168.45C218.54 116.64 263.13 67.16 322.61-.07M181.82 165.51c38.9-38.36 75.13-82.12 147.23-164.31M183.33 167.79C240.27 102.3 297.67 36.09 329.53.36M189.64 168.19C225.59 124.46 262.46 82.23 333.1.62M188.8 167.64c41.05-45.51 81.39-93.47 144.62-168.02M194.8 166.34c57.65-64.7 115.5-129.82 144.56-165.12M194.12 167.57C244.11 113.15 292.46 56.97 339.38.11M199.46 166.87c47-53.13 96.47-108.41 145.77-166.04M198.3 167.8c37.33-44.04 73.68-86.72 147.03-168.13m-141.7 168.35c30.44-35.84 61.51-70.91 145.16-168.26M205.36 166.61C244.15 121.15 283.12 75.85 350.08.13M210.34 168.92c34.77-37.84 64.78-77.82 143.39-169.3M208.66 168.11c49.09-56.32 97.17-111.2 146.16-168.86M213.58 166.97c42.45-46.4 81.58-92.87 146.91-168.32M215.26 167.56c46.76-51.55 90.1-103.28 144.16-167.74M220.69 167.34C266.48 112.99 316.13 57.59 367.36.32M219.82 167.77c31.9-35.4 61.23-70.76 145.48-168.49M226.5 166.55c28.96-35.78 58.74-70.49 145.68-164.54M225.5 167.89C278.17 107.42 329.28 46.09 370.16.87M232.32 168.92C263.84 127.5 299.26 90.59 377.58-.61M229.99 167.71C259.3 132.17 289.15 98.49 376.71.69m-139.4 165.96C293.2 102.1 346.39 36.63 382.25-.65M236.02 166.79C284.8 112.92 331.76 59.67 380.51.72M240.17 166.65C291.93 112.07 340.05 58.12 386.23.16M240.86 167.1C274.38 130.59 305.2 94.7 387.28-.78M247.84 167.16c29.21-31.52 61.07-65.68 144.69-166.22M246.78 166.9C291.6 115.35 336.15 63.18 392.14.3M252.98 167.32c28.56-35.1 60.58-73.55 145.62-168.24M252.36 166.86C304.96 109.39 356.12 49.62 396.94-.78M256.48 167.97c38.07-44.13 76.09-87.4 144.92-168.23M257.72 167.41c31.9-37.66 63.93-74.9 145.56-166.89M262.22 167.38c40.77-49.83 85.26-95.84 147.4-167.9m-146.9 168.44C310.01 113.93 356.39 61.27 409.11-.11M268.52 165.52C317.84 109.57 369.99 51.15 414.16-.88m-145.38 168.4C322.72 103.84 378.25 42.58 413.87.58M273.19 166.71C322.54 110.44 374.55 54.54 417.66 1.26M273.61 167.73c32.61-38.29 64.55-75.82 144.92-167.3M278.21 167.37C317.42 124.29 355 82.36 422.27-1.03M277.53 167.16c39.03-42.02 77.48-85.85 146.32-167.49m-139.59 169C337.23 107.52 387.47 47.35 428.02.87M283.24 167.22C338.23 104.04 394.12 41.78 430.35.02M288.73 168.43C344.23 105.49 402.31 39.4 434.47-.83m-145.8 168.31C345.62 101.61 403.01 34.27 434.9.42M293.81 166.23c50.97-56.43 99.58-114.2 145.26-168.05M295.02 167.3c39.69-46.33 79.12-92.16 144.31-167.72m-138.1 166.34C345.89 114.78 393.7 62.03 445.7-.38M299.78 168.41c40.17-47.35 82.58-94.98 145.45-168.1M303.67 166.19c40.7-46.11 82.73-92.9 142.89-163.16M305.45 167.16c31.98-38.1 65.44-75.24 142.51-164.11M310.67 166.6c37.24-41.28 73.73-83.8 136.41-158.09M310.81 167.42c29.4-37.97 62.4-73.76 138.52-158.86M315.7 168.52c49.04-59.46 98.08-115.99 131.38-154.1M316.19 167.74c45.3-52.82 90.83-105.4 131.27-153.84M322.53 166.88c22.57-31.17 51.71-60.89 125.29-145.54M319.81 167.11c46.81-50.58 90.24-100.69 129.58-147.38M324.56 165.84c29.52-30.98 54.33-58.22 122.17-139.19M327.29 166.33c40.18-45.2 80.55-92.92 122.03-138.68M331 166.78c37.39-45.39 78.99-90.6 118.34-131.98M330.49 166.72c39.35-43.47 75.83-87.64 117.19-132.92M336.17 165.42c43.1-47.81 87.19-100.51 111.66-125.65M336.58 167.79c33.79-38.34 65.9-75.23 111.15-128.08M342.27 166.02c26-30.02 54.84-62.68 104.63-122.72M342.87 167.29c31.17-36.22 61.31-70.3 104.68-122.92m-98.91 122.92c30.91-37.11 61.76-71.11 99.72-117.67M348.04 167.24c31.99-38.64 66.28-75.98 100.5-116.19m-94.06 117.43c33.48-39.88 68.66-78.92 95.46-113.02M352.9 167.9c31.6-37.93 64.67-75.99 95.38-110.65m-88.16 110.07c29.35-35.43 58.27-73.02 89.68-102.5m-92.18 102.94c31.91-38.25 65.54-74.38 91.4-104.28m-87.27 102.57c23.93-20.49 44.22-42.48 86.85-94.89m-86.09 96.43c32.51-37.54 63.12-73.45 85.3-98.09m-79.1 95.89c23.8-27.47 50.07-55.89 78.86-89.65m-78.33 90.66c20.75-24.64 44.3-50.3 79.19-89.84m-74.23 90.03c19.25-23.32 44-46.88 74.81-84.32m-75.38 85.17c21.4-26.47 45.45-52.36 74.44-85.26m-67.53 83.19c26.56-29.62 53.1-58.11 66.6-78.36m-68.28 79.21c14.81-14.87 29.31-30.85 69.18-78.11m-62.09 77.87c17.59-19.56 35.43-41.79 62.68-72.56m-64.41 73.08c15.89-16.8 31.24-34.21 64.14-71.38m-58.61 72.01c21.45-25.46 43.55-49.27 56.9-68.63m-56.26 67.79c13.17-13.53 25.88-29.75 57.41-67.1m-52.66 68.9c11.43-16.36 24.27-31.83 51.77-61.11m-52.72 60.87c16.4-18.48 30.79-35.78 53.73-61.99m-46.13 61.46c9.42-14 21.12-27.54 46.43-57.23m-47.08 58.33c11.29-14.56 23.82-30.16 48.5-57.56m-45.76 57.94c14.94-20.64 30.2-34.84 45.42-49.22m-43.8 46.95c14.63-16.25 30.19-33.02 42.52-48.31m-35.91 50.06c7.4-10.4 16.59-19.43 37.2-41.86m-38.98 41.76c9.42-9.27 16.94-20.29 38.51-43.25m-30.54 43.06c12.32-15.39 22.09-28.8 31.63-36.9m-33.86 36.52c10.01-12.68 21.36-24.48 32.54-38.35m-26.44 37.4c8.24-7.43 16.12-18.59 27.19-28.83m-28.09 29.53c6.24-5.78 11.9-13.13 27.38-30.39m-20.12 28.56c6.22-6.58 16.27-17.61 18.41-24.15m-19.08 26.79c6.11-8.98 14.63-18.84 21.77-26.11m-19.53 24.27c6.43-1.35 11.83-5.98 19.75-17.35m-17.97 18.06c5.22-4.45 10.93-11.93 16.48-18.25m-11.47 16.87c4.58-1.12 6.68-5.9 12.57-10.57m-12.5 12.14c3.7-3.09 6.68-7.4 11.36-12.68m-5.93 12.8c1.6-2.04 3.64-2.58 6.34-7.08m-6.31 7.59c1.62-1.76 3.32-3.97 5.86-6.81" transform="translate(51.207 205.21)"/><path fill="none" stroke="#1864ab" d="M.52.83C106.18.08 211.95.57 446.17.97M.06-.49c95.71-1.2 191.67-.97 445.72.29m-1.38-1.07c1.92 68.9.52 134.28 2.7 165.52M446.29.29c-1.32 33.63-1.6 66.46-.17 165.27m-.93-.62c-110.1-1.71-221.67-1.95-444.64.44m445.22-.26c-123.22 1.35-246.03 1.11-445.36-.35m.4-2.03C-.78 115.52-1.15 67.5 1.63.14m-2 165.07C-1.12 117.23-.38 68.34-.98.61" transform="translate(51.207 205.21)"/></g><text x="5.5" dominant-baseline="text-before-edge" font-family="Virgil, Segoe UI Emoji" font-size="16" style="white-space:pre" text-anchor="middle" transform="translate(59.616 394.834)">6</text><text x="20.5" dominant-baseline="text-before-edge" font-family="Virgil, Segoe UI Emoji" font-size="16" style="white-space:pre" text-anchor="middle" transform="translate(39.347 415.48)">n + n</text><text x="1.5" dominant-baseline="text-before-edge" font-family="Virgil, Segoe UI Emoji" font-size="16" style="white-space:pre" text-anchor="middle" transform="translate(48.036 420.448)">i</text><text x="8.566" dominant-baseline="text-before-edge" font-family="Virgil, Segoe UI Emoji" font-size="15.228" style="white-space:pre" text-anchor="middle" transform="translate(81.656 419.965)">i+1</text><path fill="none" stroke="#000" stroke-linecap="round" stroke-width="2" d="M0 0c9.36-.1 46.81-.48 56.18-.58M0 0c9.36-.1 46.81-.48 56.18-.58" transform="translate(39.638 415.667)"/><path fill="none" stroke="#000" stroke-linecap="round" stroke-width="2" d="M0 0c1.62-1.14 3.24-2.29 4.44-3.14M0 0c1.22-.86 2.43-1.72 4.44-3.14m0 0c2.36 7.99 4.71 15.97 7.32 24.83M4.44-3.14c2.33 7.89 4.65 15.78 7.32 24.83m0 0c-.44-11.95-.89-23.91-1.57-42.33m1.57 42.33-1.57-42.33m0 0h66.12m-66.12 0h66.12" transform="translate(21.205 414.869)"/><text x="5.5" dominant-baseline="text-before-edge" font-family="Virgil, Segoe UI Emoji" font-size="16" style="white-space:pre" text-anchor="middle" transform="translate(494.268 392.57)">6</text><text x="20.5" dominant-baseline="text-before-edge" font-family="Virgil, Segoe UI Emoji" font-size="16" style="white-space:pre" text-anchor="middle" transform="translate(474 413.216)">n + n</text><text x="1.5" dominant-baseline="text-before-edge" font-family="Virgil, Segoe UI Emoji" font-size="16" style="white-space:pre" text-anchor="middle" transform="translate(482.688 418.183)">i</text><text x="8.566" dominant-baseline="text-before-edge" font-family="Virgil, Segoe UI Emoji" font-size="15.228" style="white-space:pre" text-anchor="middle" transform="translate(516.308 417.7)">i+1</text><path fill="none" stroke="#000" stroke-linecap="round" stroke-width="2" d="M0 0c9.36-.1 46.81-.48 56.18-.58M0 0c9.36-.1 46.81-.48 56.18-.58" transform="translate(474.29 413.402)"/><path fill="none" stroke="#000" stroke-linecap="round" stroke-width="2" d="M0 0c1.22-.86 2.44-1.72 4.44-3.14M0 0c1.11-.78 2.22-1.57 4.44-3.14m0 0 7.32 24.83M4.44-3.14c2.29 7.77 4.58 15.54 7.32 24.83m0 0c-.59-15.82-1.17-31.64-1.57-42.33m1.57 42.33c-.6-16.2-1.2-32.4-1.57-42.33m0 0h66.12m-66.12 0h66.12" transform="translate(455.857 412.604)"/><path fill="none" stroke="#000" stroke-linecap="round" stroke-width="2" d="M0 0c1.76-.08 3.53-.16 7.14-.32M0 0c2.7-.12 5.4-.25 7.14-.32" transform="translate(10 416.24)"/></svg>