<svg xmlns="http://www.w3.org/2000/svg" width="1064" height="1048.723" viewBox="0 0 532 524.362"><defs><style>@font-face {
        font-family: &quot;Virgil&quot;;
        src: url(&quot;/assets/woff2/Virgil.woff2&quot;);
      }
      @font-face {
        font-family: &quot;Cascadia&quot;;
        src: url(&quot;/assets/woff2/Cascadia.woff2&quot;);
      }</style></defs><g fill-rule="evenodd" stroke-linecap="round"><path fill="none" stroke="#7950f2" stroke-width=".5" d="M180.91-238.92s0 0 0 0m0 0s0 0 0 0m-19.29 30.3c5.82-9.15 14.78-18.31 34.22-39.23m-35.39 37.75c8.22-8.2 15.15-16.38 33.09-37.3m-39.23 48.32c15.79-15.08 27.74-29.11 52.27-54.55m-51.22 54.47c12.56-12.1 23.06-24.69 48.4-55.75M-14.73 4.42s0 0 0 0m0 0s0 0 0 0m164.25-189.71c11.34-12.69 26.16-29.91 61.75-66.83m-63.32 69.27c16.68-20.72 34.07-40.8 61.56-70.38M-8.63 3.62c.67-1.41 2.33-1.9 3.48-4.15m-3.27 3.61C-7.25 1.93-6 .34-5.33-.48m.04.19c.82-.75 1.92-1.84 2.41-3.14M-5.09-.3c.69-1.18 1.33-1.94 2.5-3.27m142.13-164.87c23.95-27.87 49.08-55.39 74.53-82.7m-74.12 84.47c26.66-31.96 54.3-62.91 73.64-83.42M-2.14 1.98c.3-.59.85-.79 1.34-1.52m-1.28 1.65C-1.64 1.54-1.2.95-.76.69M.44-.63c1.69-2.03 3.1-3.42 4.69-7M.73-1.19c1.65-1.66 2.52-3.32 5.36-6.04M134.08-154.6c32.41-35.68 64.44-72.8 82.32-92.27m-81.43 92.26c24.6-28.1 48.31-56.88 80.69-94.21M5.13.82c2.39-4.34 5.37-7.13 9.54-10.9M5.09-.1c3.12-3.88 7.27-8.21 9.06-11.09m113.14-129.37c30.54-36.76 64.52-74.63 93.43-106.03m-92.47 104.73c25.58-28.85 49.1-56.35 91.48-104.05M10.21-2.6c3.92-.63 9.57-7.56 14.79-14.02M10.97-.55c3.7-5.4 7.01-7.93 13.1-15.6m96.84-111.39c27.56-31.64 51.45-62.48 101.82-115.92M122.58-128.83c34.58-39.32 66.04-76.26 99.34-114.61M15.54 1.02c3.7-4.39 7.14-10.88 17.85-19.39M16.27.04c5.19-6.81 12.18-13.9 15.49-19.08m85.2-97.29c35.67-37.2 69.86-78.7 108.25-125.99M116.52-116.14c33.93-38.78 65.22-75.55 108.68-124.34M19.28.17c7.52-5.79 14.37-12.54 22.2-26.45M21.11-.65c3.94-5.76 8.99-9.65 21.95-23.84m67.04-78.55c45.43-52.4 90.73-103.86 118.04-133.24M110.89-104.84c36.58-38.9 70.71-77.84 115.55-131.75M28.12-1.09c8.66-12.57 19.47-21.53 23.04-29.49M26.97-.8c8.19-9.02 16.23-18.44 26.77-30.12m49.83-56.13c38.23-46.21 77.18-87.89 127.85-146.25M102.73-88.45c28.04-29.76 55.06-60.62 126.32-145.85M31.41.03C41.89-8.81 48.92-19.13 72.62-46.3M32.59-.04c11.27-17.04 25.78-31.59 39.02-46.75m18.77-21.53c53.1-58.57 107.6-122.7 141.17-160.75M88.78-66.48c29.56-32.83 58.3-66.34 142.91-163.43M37.58-.33c60.04-72.73 122.54-142.63 195.92-227.2M36.75-.72c48.95-53.39 95.56-107.42 196.81-226.22M42.66.1c55.72-65.25 113.13-131.05 192.67-222.3M41.87.31c41.22-46.47 81.83-91.66 194-223.31M47.22-2.07c74.77-85.62 150.16-170.51 191.37-216.75M47.7-.45c69.51-81.95 140.16-163.39 191.43-220.03M52.74 1.19c39.8-48.41 80.62-96.76 186.52-217.25M52.94-.68c52.12-58.27 101.4-116.08 186.95-215.7M58.66-.68c42.28-47.13 82.15-97.25 184.11-210.62M58.55-1.4c56.72-64.99 114.19-131.25 183.87-211.73M62.83 1.11c44.6-54.3 91.39-106.7 180.87-209.1M63.29.42c63.95-74.7 127.84-149.09 180.89-208.55M69.59.18c40.07-43.59 77.75-85.52 177.05-205.63M70.01-.52c49.14-58.12 98.78-116.04 177.19-204.75M75.03 1.16c41.32-46.46 78.61-92.6 173.34-201.22M73.47-1.13C142.18-77 208.94-153.66 249.08-201.41M80.49.82c60.54-71.68 119.08-138.83 171.01-199.07M79.98.07c55.23-65.09 112.21-129.78 170.06-196.36M84.04-1.68c47.82-52.41 94.52-106.53 167.99-190.91M84.29.3c63.19-71.96 124.63-141.62 168.64-193.31M91.09-.38c42.66-51.16 89.32-104.16 161.36-188.9M89.19-.76c49.75-56.42 100.77-113.19 164.42-188.55M96.07 1.17c41.11-54.02 88.11-103.82 159.11-185M95.14.29c44.12-51.76 87.71-102.25 161.2-184.37M99.48.9c39.88-44.78 76.94-87.97 159.45-182.78M100.71.05c49.19-58.96 99.39-116.37 156.26-180.91M106.58.89C137.81-39 168.01-76.2 257.47-176.7M105.54.2c57.96-68.83 116.94-137.97 152.37-175.94M111.63-1.3c48.02-53.94 92.95-107.21 147.21-168.75M111.1.14c43.12-50.42 88.15-101.44 149.23-172.24M116.25.31C173.7-66.82 231.3-133.62 261.01-165.95M116.9-.85c49.04-54.36 96.27-107.71 144.05-167.02M120.54.85c58.78-66.38 116.08-129.24 143.68-165.75M121.18.67c56.86-64.34 112.1-129.2 141.46-164.47M127.45 1.89c33.15-41.53 68.14-82.09 139.09-162.65M126.74-.16c33.77-36.92 66.14-73.35 137.75-159.27M133.38-1.57c24.81-30.32 55.93-66.13 133.6-154.57M132.92-.42c52.46-61.18 105.72-121.34 133.31-154.59M136.18 1.08c48.45-54.24 94.24-106.75 132.04-150.11M138.29.47c49.66-59.41 99.37-115.61 130.46-151.48M143.96.44c37.97-44.25 75.45-86.77 123.87-145.3M142.19.44c37.59-42.51 74.74-85.78 128.1-145.83M150 .91c40.51-51.2 85.61-100.72 119.34-142.98M147.23.71c45.41-51.18 89.16-103.14 123.99-141.9M153.13-1.94c27.43-27.58 51.43-55.43 119.45-134.41M153.41-.34c42.08-48.58 84.62-96.32 118.75-137.42M160.2-1.12c30.17-35.25 61.94-68.47 116.45-132.48M158.09.63c37.32-42.51 73.53-83.3 116.33-134.78M162.98-1.87c39.05-41.68 76.98-86.29 112.59-125.69M164.51-.27c23.63-26.91 48.37-54.29 112.71-129.09M168.51-1.28c22.65-24.43 47-51.38 110.04-124.91M169.62-.35c28.97-34.87 61.65-70.93 109.87-124.87M175.36.83c29.75-34.55 61.73-71.69 103.65-123.15M173.95.2C215.7-47.17 257-96.14 280.48-121.63M179.24-1.44c25.07-25.43 44.64-51.89 102.85-114.28M180.78.43c26.5-30.13 52.73-61.39 102.04-117.62M186.68.54c25.39-31.84 57.26-65.33 99.02-112.33M185.38.63c17.77-24.42 39.88-46.41 97.79-115.1M191.25-.99c22.24-27.9 50.25-55.99 93.55-106.89M190.76.94c32.97-40.7 67.16-78.75 95.23-109.78M195.93 2.3c36.04-43.18 71.69-81.91 90.39-108.5M195.66 1.14c36.72-41.22 71.93-84.04 90.43-105.15M201.97-.91c18.99-22.53 39.21-45.79 86.17-98.27M200.96.43c18.3-20.7 36.27-42.17 88.16-102.34M207.31-1.14c18.65-23.72 41.31-50.09 85.43-95.21M205.58-.66c31.41-33.59 60.27-69.03 85.27-97.47M211.39.25c25.01-30.98 51.45-58.57 84.07-95.44M211-.57c30.9-36.21 62.65-70.4 81.9-94.8M217.58-.58c28.92-36.25 62.57-70.28 76.55-87.98M217.11 1.17c23.58-25.79 45.76-52.58 78.93-90.54M221.39-.84c19.87-21.61 40.72-43.85 77.96-84.44M222.07.49c28.85-32.1 57.38-65.4 75.86-86.61M228.1 1.58c20.91-29.92 46.17-52.8 74.06-84.85M227.46.82c15.59-19.29 30.42-37.05 72.95-84.34M230.42.65c24.37-26.64 47.31-50.9 73.87-78.81M231.54 1.19c15.92-16.95 31.72-34.68 71.76-81.77M236.74-.6c23.26-25.67 49.38-53.68 68.38-75.59M237.03.76c15.89-17.84 31.67-34.55 67.93-77.6M241.48 2.25C257.4-19.57 275-38.1 305.32-71.81M243.04.66c17.63-18.5 34.15-37.52 64.36-73.26M249.98-.62c11.45-18.03 27.26-35 60.5-68.73m-61 69.12c23.59-25.56 45.09-53.03 60.07-68.83M252.83-.84c23.69-23.12 43.18-48.26 57.88-67.73M253.05.55c23.88-26.46 44.64-50.9 59.38-67.07M258.82.46c10.69-14.81 23.7-27.6 58.14-63.57M259.65.87c12.25-13.75 24.14-28.08 55.3-64.23m-49.7 64.41c12.48-16.12 27.39-33.55 52.71-60.11M264.3-.21c21.51-21.81 40.46-47.25 52.22-60.94M270.2 2.75c10.82-15.66 24.05-29.02 50.31-60.62M268.97.15c15.83-16.76 29.63-34.57 51.83-58.31M274.12.01c15.64-17.09 30.35-32.76 50.33-56.73M275.73.6c8.77-12.36 21.13-24.24 48.59-56.85M281.57.56c15.1-16.36 30.07-36.06 43.39-53.68M280.04 1.7c17.35-20.2 33.82-40.02 46.25-53.79M285.36-1.45c14.9-13.48 30.98-31.8 42.14-48.36M286.48.47c15.04-18.25 30.21-34.35 42.6-51.03m-40.1 49.44c18.28-15.47 33.51-37.69 43.09-48.02M290.72.17c9.63-10.9 21.48-24.77 43.43-47.92M295.46 1.64c15.33-18.95 29.31-33.75 38.8-45.29M295.93.17c13.63-17.02 27.83-33.67 40.62-46.22M301.72 2.41c7.73-10.52 15.51-23 39.08-44.67M300.75 1.71c15.83-17.29 29.44-32.4 39.31-44.65M307.47.68c5.82-8.45 16.09-21.37 35.06-41.54M307.68-.24c12.36-14.59 26.73-30.64 34.08-39.89M313.6.24c10.38-13.36 22.73-25.01 33.1-36.9M311.07.78c13.49-15.82 26.85-29.59 34.78-39.25M319.01 1.52c5.85-8.23 11.27-17.28 30.9-36.91M317.52.58c7.5-8.74 15.6-17.57 32.68-36.29M323.03 1.96c6.39-12.56 16.15-20.95 30.11-37.53M321.85.11c7.26-6.17 14.01-14.2 31.04-35.46M325.6 1.18c8.81-10.97 18.78-18.77 29.69-34.17m-28.46 35c9.79-12.16 20.84-23.38 30.51-35.66M332.96 1.54c8.61-10.13 19.29-23.56 28.54-32.06M332.48.7c10.01-11.53 19.16-21.82 27.7-32.73M339.29.86c5.26-8.36 12.3-14.49 24.16-29.35M337.18.44c10.33-10.98 19.89-21.74 27.97-30.47M342.91 1.43c8.39-9.05 15-16.82 24.73-28.53M343.56-.15c7.57-8.05 15.58-16.78 25.31-28.07m-20.16 30.7c8.75-9.45 16.22-19.7 23.67-27.48M348.37 1.79c9.74-12.17 18.77-22.04 23.12-27.2M352.97.5c9.19-8.33 15.5-15.62 22.39-25.96M354.94 1.13c5.56-6.92 11.67-14.49 20.78-24.45M357.75 1.63c6.06-6.7 9.42-12.33 20.9-24.6M359.09.55c7.77-8.1 12.78-14.82 20.38-22.34M363.78 2.04c4.15-7.74 8.13-11.83 21.21-23.64M365.63.39c4.87-6.57 11.41-13.22 18.02-20.1M368.83.32c4.59-1.86 10.63-8.89 17.22-21.73M370.24.44c5.52-4.84 9.24-11.49 17.79-20.38M375.9 2.56c1.66-6.39 6.54-9.06 15.54-19.61M375.27.52c5.86-7.08 11.94-14.69 16.55-19.02M378.93-.98c3.9-2.39 9.24-4.94 17.34-14.9M380.95.51c3.35-5.38 8.71-9.95 13.79-15.8M384.4.74c6.09-3.12 8.64-10.06 13.78-13.38M384.63.44c6.09-4.89 10.63-11.41 15-13.69M391.56.66c2.6-3.84 6.27-8.97 10.74-13.2M390.61 1.02c4.57-4.39 7.54-8.51 12.35-13.13M395.21 1.8c4.36-3.4 5.91-6.48 10.84-11.81m-10.2 11.52c4.47-4.17 8.73-9 11.35-12.68m-5.94 13.09c2.69-3.79 7.15-8.46 9.33-11.57m-8.26 11c1.86-3.77 5.08-6.97 8.23-10.4M406.63.11c2.31-2.51 4.73-3.45 8.04-7.99m-7.98 8.93c1.94-1.83 3.63-4.69 7.74-8.38M412.15.63c2.44-2.69 4.18-4.45 6.12-5.73M412.63.94c1.58-1.43 2.74-3.24 4.82-6.2m.33 6.74c1.54-1.64 1.93-3.74 4.9-6.02m-4.96 5.9c.92-1.08 1.53-2.11 4.52-5.71m.17 5.8c1.25-1.53 1.71-1.74 3.22-3.44m-3.13 3.25c1.28-1.26 2.29-2.68 3.41-3.76m2.03 3.54c.62-.37.77-.82 1.47-1.32m-1.44 1.44c.6-.52 1.07-1.09 1.38-1.66" transform="translate(50.488 389)"/><path fill="none" stroke="#5f3dc4" d="M.41.75c-2.22-.1-26.84 8.78-13.05-.89C1.15-9.8 55.5-24.06 83.16-57.22c27.65-33.17 49.93-108.96 70.15-141.91 20.22-32.95 35.63-54.92 51.17-55.79 15.54-.87 28.39 25.72 42.08 50.58 13.68 24.87 25.5 72.25 40.03 98.59 14.53 26.35 25.46 42.8 47.16 59.49 21.7 16.69 74.66 32.81 83.02 40.66 8.37 7.86 37.62 5.8-32.81 6.45C313.53 1.5 59.45-1.03-5.8-1.7M-.84.1c-1.9-.46-23.48 8.06-9.59-1.79C3.46-11.55 55.25-25.75 82.5-59.01c27.25-33.25 50.5-109.58 70.59-142.21 20.09-32.64 34.11-52.89 49.95-53.61 15.83-.73 31.02 24.08 45.06 49.25 14.05 25.17 24.56 75.37 39.2 101.78 14.64 26.42 26.82 40.55 48.64 56.72 21.83 16.16 74.23 32.27 82.3 40.26C426.31 1.17 454.92.4 384.38.86 313.84 1.31 60.04-3.26-4.98-4.08" transform="translate(50.488 389)"/></g><path fill="none" fill-opacity=".9" stroke="#343a40" stroke-linecap="round" stroke-opacity=".9" stroke-width="4" d="M-.69.78c164.17-1.86 326.72-2.54 479.63-2.8M-.25-.31c153.87-.78 308.26-1.18 479.46-.95" transform="translate(14.527 391.803)"/><path fill="none" fill-opacity=".9" stroke="#343a40" stroke-linecap="round" stroke-opacity=".9" stroke-width="4" d="M1.38.26C-.4-93.73-1.06-185.09-2.03-276.93M-.54-.59c-.67-73.33-.79-147.07-.13-276.31" transform="translate(255.625 390.653)"/><path fill="none" fill-opacity=".3" stroke="#000" stroke-dasharray="1.5 7" stroke-linecap="round" stroke-opacity=".3" stroke-width="1.5" d="M.26 1.36C-2.46 101.7-.86 200.39 1.38 276.85" transform="translate(475.64 114.109)"/><path fill="none" fill-opacity=".3" stroke="#000" stroke-dasharray="1.5 7" stroke-linecap="round" stroke-opacity=".3" stroke-width="1.5" d="M1.36-1.14c1.92 62.35.28 123.74-.82 278.65" transform="translate(420.488 114.006)"/><path fill="none" fill-opacity=".3" stroke="#000" stroke-dasharray="1.5 7" stroke-linecap="round" stroke-opacity=".3" stroke-width="1.5" d="M-1.14 1.14C.85 107.35 1.51 215.67 1.21 276.46" transform="translate(364.981 114.034)"/><path fill="none" fill-opacity=".3" stroke="#000" stroke-dasharray="1.5 7" stroke-linecap="round" stroke-opacity=".3" stroke-width="1.5" d="M1.14.08c.35 88.17.91 175.91-.99 276.19" transform="translate(309.738 114.215)"/><path fill="none" fill-opacity=".3" stroke="#000" stroke-dasharray="1.5 7" stroke-linecap="round" stroke-opacity=".3" stroke-width="1.5" d="M.08-.74c-.92 107.98-.69 215.35-.12 276.91" transform="translate(199.02 114.052)"/><path fill="none" fill-opacity=".3" stroke="#000" stroke-dasharray="1.5 7" stroke-linecap="round" stroke-opacity=".3" stroke-width="1.5" d="M-.74.33c2.05 62.55 1.9 124.02.61 275.74" transform="translate(143.913 114.153)"/><path fill="none" fill-opacity=".3" stroke="#000" stroke-dasharray="1.5 7" stroke-linecap="round" stroke-opacity=".3" stroke-width="1.5" d="M.33-.5C.66 102.73-.2 206.07-.24 277.74" transform="translate(88.436 114.007)"/><path fill="none" fill-opacity=".3" stroke="#000" stroke-dasharray="1.5 7" stroke-linecap="round" stroke-opacity=".3" stroke-width="1.5" d="M-.5.16c-1.1 83.35-1.07 167.76 1.94 276.35" transform="translate(33.195 113.487)"/><path fill="none" fill-opacity=".3" stroke="#000" stroke-dasharray="1.5 7" stroke-linecap="round" stroke-opacity=".3" stroke-width="1.5" d="M.09-.51c119.38.81 239.35 2 475.71 2.3" transform="translate(14.43 334.611)"/><path fill="none" fill-opacity=".3" stroke="#000" stroke-dasharray="1.5 7" stroke-linecap="round" stroke-opacity=".3" stroke-width="1.5" d="M-.5-.61C153.35-.93 308.25-.68 479.73.72" transform="translate(14.454 279.992)"/><path fill="none" fill-opacity=".3" stroke="#000" stroke-dasharray="1.5 7" stroke-linecap="round" stroke-opacity=".3" stroke-width="1.5" d="M-.61-.67C127.33 1.43 255.63 1.85 479.8.42" transform="translate(14.407 224.582)"/><path fill="none" fill-opacity=".3" stroke="#000" stroke-dasharray="1.5 7" stroke-linecap="round" stroke-opacity=".3" stroke-width="1.5" d="M-.67-.72C148.87 1 297.94 2.18 479.5-.54" transform="translate(14.45 169.114)"/><path fill="none" fill-opacity=".3" stroke="#000" stroke-dasharray="1.5 7" stroke-linecap="round" stroke-opacity=".3" stroke-width="1.5" d="M-.72.22c116.25 2.01 233.43 1.79 479.26-.85" transform="translate(14.336 113.841)"/><path fill="none" fill-opacity=".9" stroke="#343a40" stroke-linecap="round" stroke-opacity=".9" stroke-width="2" d="M.58-1.26C1.57-.8.67-6.77-3-13.11M-.44.84C-.53-1.93-1-5.73-1.26-10.85" transform="translate(255.182 401.955)"/><path fill="none" fill-opacity=".9" stroke="#343a40" stroke-linecap="round" stroke-opacity=".9" stroke-width="2" d="M-1.26 1.68c3.02-3.17-.6-8.54-1.64-14.8M.84-.39C.48-3.32-1-5.49-.63-12.17" transform="translate(310.512 401.955)"/><path fill="none" fill-opacity=".9" stroke="#343a40" stroke-linecap="round" stroke-opacity=".9" stroke-width="2" d="M1.68 1.85C.74-3.99-2.35-6.63-2.91-12.88M-.39.7c-.42-4.21-.19-6.15-1.56-12.84" transform="translate(365.84 401.955)"/><path fill="none" fill-opacity=".9" stroke="#343a40" stroke-linecap="round" stroke-opacity=".9" stroke-width="2" d="M1.85 1.07C-1.77-5.46-2.33-9.1-2.66-12.27M.7-.57C-.98-3.01-.2-6.71-1.92-11.54" transform="translate(421.17 401.955)"/><path fill="none" fill-opacity=".9" stroke="#343a40" stroke-linecap="round" stroke-opacity=".9" stroke-width="2" d="M1.07-1.49c-3.29-2.95-3.51-5.52-3.13-10.86M-.57-.48c.18-3.16-.98-8.72-.75-11.38" transform="translate(476.5 401.955)"/><path fill="none" fill-opacity=".9" stroke="#343a40" stroke-linecap="round" stroke-opacity=".9" stroke-width="2" d="M-1.49-1.74c-.81-4.18-1.04-7.6-.65-8.06M-.48 0c.63-3.76-.99-6.19-1.17-10.97" transform="translate(199.853 401.955)"/><path fill="none" fill-opacity=".9" stroke="#343a40" stroke-linecap="round" stroke-opacity=".9" stroke-width="2" d="M-1.74-1.64c-.5-4.15-.12-7.98 2.16-10.61M0 .62c-1.04-5.43-.86-9.3-.76-11.39" transform="translate(144.523 401.955)"/><path fill="none" fill-opacity=".9" stroke="#343a40" stroke-linecap="round" stroke-opacity=".9" stroke-width="2" d="M-1.64-1.65c-.05-3.14.04-4.64-.39-8.42M.62-.7C-.88-2.94-.92-5.26-.55-10.6" transform="translate(89.194 401.955)"/><path fill="none" fill-opacity=".9" stroke="#343a40" stroke-linecap="round" stroke-opacity=".9" stroke-width="2" d="M-1.65-1.41C-.92-3.6 1.26-6.2.15-12.6M-.7-.67c.31-2.67.55-4.54.32-10.83" transform="translate(33.865 401.955)"/><text x="11.5" dominant-baseline="text-before-edge" font-family="Virgil, Segoe UI Emoji" font-size="14.755" style="white-space:pre" text-anchor="middle" transform="translate(25.507 408.286)">-4σ</text><text x="8" dominant-baseline="text-before-edge" font-family="Virgil, Segoe UI Emoji" font-size="14.755" style="white-space:pre" text-anchor="middle" transform="translate(470.928 408.643)">4σ</text><text x="8.5" dominant-baseline="text-before-edge" font-family="Virgil, Segoe UI Emoji" font-size="14.755" style="white-space:pre" text-anchor="middle" transform="translate(415.813 408.643)">3σ</text><text x="8.5" dominant-baseline="text-before-edge" font-family="Virgil, Segoe UI Emoji" font-size="14.755" style="white-space:pre" text-anchor="middle" transform="translate(360.127 408.643)">2σ</text><text x="3" dominant-baseline="text-before-edge" font-family="Virgil, Segoe UI Emoji" font-size="14.755" style="white-space:pre" text-anchor="middle" transform="translate(310.654 408.08)">σ</text><text x="5.072" dominant-baseline="text-before-edge" font-family="Virgil, Segoe UI Emoji" font-size="14.755" style="white-space:pre" text-anchor="middle" transform="translate(253.253 408.643)">0</text><text x="8.5" dominant-baseline="text-before-edge" font-family="Virgil, Segoe UI Emoji" font-size="14.755" style="white-space:pre" text-anchor="middle" transform="translate(194.496 408.643)">-1σ</text><text x="12" dominant-baseline="text-before-edge" font-family="Virgil, Segoe UI Emoji" font-size="14.755" style="white-space:pre" text-anchor="middle" transform="translate(135.666 408.643)">-2σ</text><text x="11.5" dominant-baseline="text-before-edge" font-family="Virgil, Segoe UI Emoji" font-size="14.755" style="white-space:pre" text-anchor="middle" transform="translate(80.837 408.286)">-3σ</text><text x="256" dominant-baseline="text-before-edge" font-family="Virgil, Segoe UI Emoji" font-size="24.691" style="white-space:pre" text-anchor="middle" transform="translate(10 10)">Kaiming Initialization - Normal Distribution</text><text x="76" dominant-baseline="text-before-edge" font-family="Virgil, Segoe UI Emoji" font-size="22.94" style="white-space:pre" text-anchor="middle" transform="translate(152.213 59.748)">μ = 0 , σ =  </text><path fill="none" stroke="#000" stroke-linecap="round" stroke-width="2" d="M-.72-.69c35.81-.13 179.55.28 215.58.56M1.1 1.56c35.64-.02 177.14.06 212.78-.36" transform="translate(148.696 97.23)"/><path fill="none" stroke="#5f3dc4" stroke-linecap="round" d="M-.69-.07c18.53.13 93.6.04 112.55.12M1.15-1.15c18.28-.17 90.97-.6 109.55-.65" transform="translate(204.193 450.85)"/><path fill="none" stroke="#5f3dc4" stroke-linecap="round" d="M-.07-.4c.21 1.86.43 9.22.59 10.91M-1.56-1.66C-1.4-.08-.52 6.65-.16 8.77" transform="translate(316.245 445.616)"/><path fill="none" stroke="#5f3dc4" stroke-linecap="round" d="M-.4.52C-.17 2.31.67 9.05.73 10.69M1.58-.26C1.79 1.22.56 7.61.16 9.04" transform="translate(203.047 445.15)"/><path fill="none" stroke="#5f3dc4" stroke-linecap="round" d="M.52.73C37.35.79 184.23.04 220.91-.03M-.67.07c36.76.3 184.31 1.13 221.11 1.42" transform="translate(143.727 477.731)"/><path fill="none" stroke="#5f3dc4" stroke-linecap="round" d="M.73.91C.79 2.55.04 9-.03 10.36M-.35.34C-.41 1.58-1.01 6.93-1 8.55" transform="translate(143.42 471.703)"/><path fill="none" stroke="#5f3dc4" stroke-linecap="round" d="M.91-.03C.92 1.53.85 8.62.58 10.11m-.66-11.2c-.14 1.12-.3 7.44.02 9.25" transform="translate(364.227 473.1)"/><path fill="none" stroke="#5f3dc4" stroke-linecap="round" d="M-.03.58C55.95.24 280.7-1.02 336.6-1.16m-338.11 1c55.79-.28 280.78-.05 337.33.17" transform="translate(86.432 505.568)"/><path fill="none" stroke="#5f3dc4" stroke-linecap="round" d="M.58.33C.31 1.81-.63 7.24-.7 8.88m.13-9.43c.04 1.62 2.2 9.06 2.22 10.5" transform="translate(86.587 499.188)"/><path fill="none" stroke="#5f3dc4" stroke-linecap="round" d="M.33-.7C.18.86-.91 8.09-.9 9.96m-.06-8.41c.23 1.73 2.17 8.87 2.3 10.04" transform="translate(424.32 501.517)"/><text x="25.602" fill="#5f3dc4" dominant-baseline="text-before-edge" font-family="Virgil, Segoe UI Emoji" font-size="15.172" style="white-space:pre" text-anchor="middle" transform="translate(234.742 432.198)">68.2%</text><text x="23.5" fill="#5f3dc4" dominant-baseline="text-before-edge" font-family="Virgil, Segoe UI Emoji" font-size="15.172" style="white-space:pre" text-anchor="middle" transform="translate(235.913 459.683)">95.4%</text><text x="22.5" fill="#5f3dc4" dominant-baseline="text-before-edge" font-family="Virgil, Segoe UI Emoji" font-size="15.172" style="white-space:pre" text-anchor="middle" transform="translate(236.913 488.099)">99.7%</text><text x="9.5" fill="#5f3dc4" dominant-baseline="text-before-edge" font-family="Virgil, Segoe UI Emoji" font-size="16" style="white-space:pre" text-anchor="middle" transform="translate(321.652 441.256)">1σ </text><text x="13.5" fill="#5f3dc4" dominant-baseline="text-before-edge" font-family="Virgil, Segoe UI Emoji" font-size="16" style="white-space:pre" text-anchor="middle" transform="translate(370.292 466.877)">2σ </text><text x="13" fill="#5f3dc4" dominant-baseline="text-before-edge" font-family="Virgil, Segoe UI Emoji" font-size="16" style="white-space:pre" text-anchor="middle" transform="translate(429.022 494.362)">3σ </text><text x="6" dominant-baseline="text-before-edge" font-family="Virgil, Segoe UI Emoji" font-size="16" style="white-space:pre" text-anchor="middle" transform="translate(324.735 48.15)">2</text><text x="4" dominant-baseline="text-before-edge" font-family="Virgil, Segoe UI Emoji" font-size="16" style="white-space:pre" text-anchor="middle" transform="translate(325.593 67.65)">n</text><text x="1.5" dominant-baseline="text-before-edge" font-family="Virgil, Segoe UI Emoji" font-size="16" style="white-space:pre" text-anchor="middle" transform="translate(334.235 73.764)">i</text><path fill="none" stroke="#000" stroke-linecap="round" stroke-width="2" d="M0 0c5.29-.14 26.43-.68 31.72-.81M0 0c5.29-.14 26.43-.68 31.72-.81" transform="translate(314.807 69.45)"/><path fill="none" stroke="#000" stroke-linecap="round" stroke-width="2" d="M0 0c1.65-1.16 3.29-2.33 4.44-3.14M0 0c.94-.66 1.88-1.33 4.44-3.14m0 0c2.9 9.84 5.8 19.68 7.32 24.83M4.44-3.14c1.54 5.23 3.08 10.45 7.32 24.83m0 0c-.46-12.5-.93-25-1.57-42.33m1.57 42.33C11.3 9.35 10.85-3 10.19-20.64m0 0h66.12m-66.12 0h66.12" transform="translate(286.359 69.034)"/></svg>