<svg xmlns="http://www.w3.org/2000/svg" width="1078.947" height="902.759" viewBox="0 0 539.473 451.379"><defs><style>@font-face {
        font-family: &quot;Virgil&quot;;
        src: url(&quot;/assets/woff2/Virgil.woff2&quot;);
      }
      @font-face {
        font-family: &quot;Cascadia&quot;;
        src: url(&quot;/assets/woff2/Cascadia.woff2&quot;);
      }</style></defs><path fill="none" fill-opacity=".9" stroke="#343a40" stroke-linecap="round" stroke-opacity=".9" stroke-width="4" d="M-.34-.48c170.85-.24 342.3-1.18 479.78-.95M-.41-.08C158.41-1.9 317.62-3.04 479.28-1.41" transform="translate(33.663 371.35)"/><path fill="none" fill-opacity=".9" stroke="#343a40" stroke-linecap="round" stroke-opacity=".9" stroke-width="4" d="M-.86-1.04c.62-109.95-.55-219.12-.11-275.74M-.14-.45c-1.45-73.31-2.89-147.36-.81-276.24" transform="translate(274.76 370.2)"/><path fill="none" fill-opacity=".3" stroke="#000" stroke-dasharray="1.5 7" stroke-linecap="round" stroke-opacity=".3" stroke-width="1.5" d="M-1.04 1.01C-.91 93.06.83 185.73 1.53 276.86" transform="translate(494.775 93.655)"/><path fill="none" fill-opacity=".3" stroke="#000" stroke-dasharray="1.5 7" stroke-linecap="round" stroke-opacity=".3" stroke-width="1.5" d="M1.01-.42C-.56 73.33-.32 145.2.55 278.52" transform="translate(439.623 93.552)"/><path fill="none" fill-opacity=".3" stroke="#000" stroke-dasharray="1.5 7" stroke-linecap="round" stroke-opacity=".3" stroke-width="1.5" d="M-.42.35c.2 67.78-.02 134.78 2.63 275.56" transform="translate(384.117 93.58)"/><path fill="none" fill-opacity=".3" stroke="#000" stroke-dasharray="1.5 7" stroke-linecap="round" stroke-opacity=".3" stroke-width="1.5" d="M.35.97c1.61 64.09 1.04 129.34-.74 276.1" transform="translate(328.874 93.762)"/><path fill="none" fill-opacity=".3" stroke="#000" stroke-dasharray="1.5 7" stroke-linecap="round" stroke-opacity=".3" stroke-width="1.5" d="M.97.32c-.69 100.49.37 200.86-.21 276.12" transform="translate(218.155 93.599)"/><path fill="none" fill-opacity=".3" stroke="#000" stroke-dasharray="1.5 7" stroke-linecap="round" stroke-opacity=".3" stroke-width="1.5" d="M.32.48C.28 76.76-.38 150.92.14 278.09" transform="translate(163.048 93.7)"/><path fill="none" fill-opacity=".3" stroke="#000" stroke-dasharray="1.5 7" stroke-linecap="round" stroke-opacity=".3" stroke-width="1.5" d="M.48-.5c2.36 88.59 1.25 178.66 1.3 278.86" transform="translate(107.571 93.553)"/><path fill="none" fill-opacity=".3" stroke="#000" stroke-dasharray="1.5 7" stroke-linecap="round" stroke-opacity=".3" stroke-width="1.5" d="M-.5 1.16c-.12 99.12.79 200.7 2.55 274.75" transform="translate(52.33 93.034)"/><path fill="none" fill-opacity=".3" stroke="#000" stroke-dasharray="1.5 7" stroke-linecap="round" stroke-opacity=".3" stroke-width="1.5" d="M.66-.82C152.57.52 305.89 1.98 475.45 1.94" transform="translate(33.566 314.158)"/><path fill="none" fill-opacity=".3" stroke="#000" stroke-dasharray="1.5 7" stroke-linecap="round" stroke-opacity=".3" stroke-width="1.5" d="M-.81-.16c159.03-.99 318.85-2.21 480.69.57" transform="translate(33.59 259.54)"/><path fill="none" fill-opacity=".3" stroke="#000" stroke-dasharray="1.5 7" stroke-linecap="round" stroke-opacity=".3" stroke-width="1.5" d="M-.16-.51C128.71 2.52 255.78 2.74 479.48.66" transform="translate(33.543 204.13)"/><path fill="none" fill-opacity=".3" stroke="#000" stroke-dasharray="1.5 7" stroke-linecap="round" stroke-opacity=".3" stroke-width="1.5" d="M-.51.41C180.41-.42 360.48.79 479.74.26" transform="translate(33.586 148.66)"/><path fill="none" fill-opacity=".3" stroke="#000" stroke-dasharray="1.5 7" stroke-linecap="round" stroke-opacity=".3" stroke-width="1.5" d="M.41.56c97.74 1.46 197.9 1.32 478.93-.12" transform="translate(33.471 93.388)"/><path fill="none" fill-opacity=".9" stroke="#343a40" stroke-linecap="round" stroke-opacity=".9" stroke-width="2" d="M1.5-2.17c.36-.02-.37-3.63-1.65-8.82M-.93-.76C.1-4.49-1.19-7.7-1.41-12.62" transform="translate(274.317 381.502)"/><path fill="none" fill-opacity=".9" stroke="#343a40" stroke-linecap="round" stroke-opacity=".9" stroke-width="2" d="M-2.17 2.08C.61-1.05-.07-4.4-.78-10.39M-.76.55c-.23-4.41.15-7.8-1.65-11.96" transform="translate(329.647 381.502)"/><path fill="none" fill-opacity=".9" stroke="#343a40" stroke-linecap="round" stroke-opacity=".9" stroke-width="2" d="M2.08 1.03C1.12-3.37.09-7.52-.18-11.28M.55-.52C-.54-3.61-.81-8.84-1.2-11.12" transform="translate(384.976 381.502)"/><path fill="none" fill-opacity=".9" stroke="#343a40" stroke-linecap="round" stroke-opacity=".9" stroke-width="2" d="M1.03 1.7C.4-3.06-.22-7.27-1.06-10.67M-.52-.3c.64-2.36-1.03-4.67-.39-11.14" transform="translate(440.306 381.502)"/><path fill="none" fill-opacity=".9" stroke="#343a40" stroke-linecap="round" stroke-opacity=".9" stroke-width="2" d="M1.7.64C.64-1.88.36-4.52-.46-13.33M-.3.25c-.26-4.1-.34-5.28-.93-11.17" transform="translate(495.635 381.502)"/><path fill="none" fill-opacity=".9" stroke="#343a40" stroke-linecap="round" stroke-opacity=".9" stroke-width="2" d="M.64 1.11c-.76-4.48-1.53-9.24-3.75-14.1M.25-.16c-1.73-3.78-.67-7.8-.95-12.19" transform="translate(218.988 381.502)"/><path fill="none" fill-opacity=".9" stroke="#343a40" stroke-linecap="round" stroke-opacity=".9" stroke-width="2" d="M1.11.48C.48-3.75-.24-9.75-2.78-10.36m2.62 9.21C-.2-2.57-.55-5.29-2.13-11.26" transform="translate(163.659 381.502)"/><path fill="none" fill-opacity=".9" stroke="#343a40" stroke-linecap="round" stroke-opacity=".9" stroke-width="2" d="M.48 1.08c-.82-4.56-3.34-11.16-.63-13.59m-1 12.57c1.11-3.18.97-7.22.1-12.53" transform="translate(108.33 381.502)"/><path fill="none" fill-opacity=".9" stroke="#343a40" stroke-linecap="round" stroke-opacity=".9" stroke-width="2" d="M1.08.19c-.8-5.8-3.53-6.6-3.38-12.26M.06.35c-.41-3.51-1.71-7.54-2.32-12.27" transform="translate(53 381.502)"/><text x="5.072" dominant-baseline="text-before-edge" font-family="Virgil, Segoe UI Emoji" font-size="14.755" style="white-space:pre" text-anchor="middle" transform="translate(272.388 388.19)">0</text><text x="250" dominant-baseline="text-before-edge" font-family="Virgil, Segoe UI Emoji" font-size="23.761" style="white-space:pre" text-anchor="middle" transform="translate(28.707 10)">Kaiming Initialization - Uniform Distribution</text><text x="32" dominant-baseline="text-before-edge" font-family="Virgil, Segoe UI Emoji" font-size="22.94" style="white-space:pre" text-anchor="middle" transform="translate(238.92 40.366)">μ = 0</text><path fill="none" stroke="#000" stroke-linecap="round" stroke-width="2" d="M-.97-.79C13.7-1.17 73.42-1.8 88.12-1.84M.73 1.41c14.55-.26 72.48-1.83 86.74-2" transform="translate(225.747 77.237)"/><g stroke-linecap="round"><path fill="none" stroke="#4c6ef5" stroke-width=".5" d="M0 0s0 0 0 0m0 0s0 0 0 0m-.93 6.44C2.24 3.94 4.12 1.12 4.59.95M-.17 6.16C.79 5.3 2.05 3.36 5.25.5M.22 12.21c2.85-2.84 6.94-8.1 8.83-13.74M-.2 12.46C3.58 7.66 8.31 2.63 10.74.64M-1.5 19.3C3.73 15.61 8.97 8.16 13.76 1.33M-.41 18.56c2.62-3.7 7.1-6.78 15.18-19.08M-.07 23.57C7.76 14.9 16.15 4.74 22.92 1.74M.89 23.09C5.08 17.45 11.05 12.36 22.24.08M.7 31.87c6.57-5.98 11-14.18 26.47-32.83M.1 29.67C9.32 19.81 20 8.47 25.29-.62M.47 35.72c8.21-8.07 16.58-16.87 29.5-34.08M.09 37.62C11.02 24.92 20.13 12.86 32.42-.69M.24 42.86C9.17 33.52 15.2 25.62 35.82-.15M-.27 42.21C9.34 30.67 19.69 19.92 37.85-.03M-1.83 50.68C13.76 35.29 22.7 20.77 43.29 1.03M.55 49.89C8.07 39.01 17.28 29.23 42.37-.5M2 54.12C8.94 43.74 19.45 33.68 45.6-1.15M.88 54.87c15.8-18.45 30.6-37.28 45.81-53.9M1.62 62.92C15.35 43.04 33.66 20.39 51.67.37M-.81 60.06C12.73 45 25.34 30.1 52.26.31M1.46 65.49C17.7 47.06 34.83 28.86 58.69-.66M.35 67.74C22.14 42.56 43.53 16.27 58.66-.79M.36 74.39c24.77-31.68 51.2-58.3 64.8-75.07m-65 73.35c14.38-15 27.68-29.26 64.22-73.64m-63 78.72C16.93 57.57 34.41 40.23 67.51-1.13M-.94 80.31C14.87 63.3 29.6 44.88 68.21-.3M2.23 85.22C24.71 55.63 49.51 28.18 73.1-1.24M1.24 84.4C28.5 52.61 56.36 21.1 74.1-.4M1.81 91.17c19.99-24.34 38.05-46.75 79-92M-.95 90.94C24.66 64.5 48.04 36.2 78.43.55M-1.35 96.56C24.28 72.76 47.36 41.6 86.11-1.19m-85.97 99C18.73 75.84 39.3 52.05 84.93-.4M.74 104.47C25.92 74.22 51.67 42.52 89.6.21M1.13 102.9C29.33 70.62 57.03 39.09 89.98.04M1.35 109.48C37.36 71.09 73.51 29.12 94.09.8M.18 109.35C35 69.2 71.38 27.63 95.47-.76M-.55 113.61C31.26 77.83 61.89 43.65 101.16-1.82M1.23 116.1C28.42 82.54 58.21 51.61 100.15-.42M.31 123.55C28.14 90.5 60.89 55.39 108.22 1.25M-.7 122.88C23.78 93.73 48.7 64.77 106.45.37M-.15 126.52C40.05 81.4 79.36 37.25 113.06-.53M.72 128.82C37 84.73 74.64 40.13 111.85.73M.5 135.79C27.96 97.75 57.13 63.85 114.3-1.29M-.29 133.64C37.1 90.93 76.59 45.35 117.04.26M1.07 142.07C23.06 109.31 47.72 83.46 123.18-1.28M.04 139.76C43.48 90.6 84.6 41.71 122.57.17M-.86 147.46C33.79 102.69 73.43 62.82 125.41.63M.22 146C26.96 113.24 54.44 81.54 126.47-.48M1.43 152.6C42.82 104.82 80.99 58.96 131.72.68M-.17 151.58C33.33 112.25 67.76 73.21 133.34.66M-.84 158.77c49.18-59.59 99.1-117.58 136.93-157M.51 159.2C50.7 101.31 99.58 45.09 137.2-.24M-.14 163.2C38.9 117.54 78.5 72.87 142.87-1.17M.33 164.46C53.65 105.06 105.55 43.67 144.04.35M4.51 167.98C58.06 101.08 115.14 38.1 149.82.17M2.61 167.66C33.89 130.67 64.54 95 148.22 1.07M7.4 168.11C66.91 102.63 122.43 38.43 155.25-.28M8.05 167.7C43.56 123.72 80.88 81.85 154.07-.61M13.44 165.85C56.53 122.14 94.21 75.67 159.45 1.6M13.85 167.49C69.77 104.41 124.66 41.36 158.08.97M17.87 167.52C54.62 126.23 94.42 83.34 164.55-.57M19.12 168.01C52.26 128.77 85.62 89.25 165.1.56M24.27 165.96C59.73 124.65 95.27 85.04 169.2.73M24.64 167.77C62.41 122.52 100.78 79.76 168.84.09M28.83 168.33C81.85 102.81 137.67 41.56 175.31-.57M28.92 167.02C77.36 114.79 124.18 60.22 175-.1M34.06 168.62C84.4 113.6 130.64 58.24 179.21.22M35.73 167.72C88.63 105.46 140.69 42.88 180.05-.43M39.9 168.55c29.37-35.11 60.66-69.47 145.5-167.14M39.85 167.35c39.24-42.91 76.68-88.24 145.8-167.77M46.43 168.14c37.85-46.75 77.96-94.24 144.3-169.55M44.27 168.29c35.44-39.76 70.39-79.23 147.08-168M51.76 168.98C86 127.31 123.21 83.53 194.68-1.42M50.97 167.85C91.54 118.42 134.96 68.37 196.85.2M55.07 168.88C91.31 128.26 126.53 88.03 200.9-1.13M55.98 168.28C99.46 117.83 144.21 66.35 201.62.16M61.03 168.01C117.96 102.49 175.51 35.84 206.69-1.83M60.57 167.92C116.72 101.46 175.31 35.35 207.2-.14M65.79 167.27c43.76-46.8 83.72-96.55 145.66-167.29M66.48 168.03C101.53 128.29 136.09 88.88 211.58.3M72.36 166.8C126.54 106.69 178.25 43.88 216.58-1.03M72.21 166.66c31.94-35.37 63.74-73.9 146.21-166.39M76.65 167.82c46.11-49.44 90.62-101.96 146.84-169.41m-146.6 168.8C135.52 101.18 193.74 35.58 222.86.61M82.85 167.6c37.67-46.24 78.82-91.06 143.8-167.64M81.77 167.16C139.08 99.2 196.98 33.58 227.58-1.09M85.97 168.3C127.58 120.93 168.06 74.74 232.31.36M87.15 168.25C141.41 103.81 196.93 39.27 233.78.7M94.18 168.49c35.08-40.76 69.56-82.08 142.88-169.18M93.87 167.03C151.99 101.57 208.08 35.69 237.66 1.07M97.48 168.43C155.32 102.21 211.59 39.33 242.96-.75M98.55 166.76C140.06 118.63 181.64 71.67 243.6.73M103.92 168.61C139.22 129.44 171.94 92.33 250.2.06M103.7 167.9c37-46.11 74.7-89.49 145.24-167.52m-140.7 167.71C163.95 106.27 215.58 43.98 254.67-1.8M109.5 167.98C141.88 130.21 174.12 93.46 255.1.55M114.24 166.44C169.93 101.33 226.08 38.69 258.06-.97M115.23 167.61C158.85 115.5 203.76 62.96 259.41-.23M120.74 169.08c46.94-58.12 95.72-112.91 145.32-167.7M119.76 166.9c33.33-38.07 66.35-74.96 145.4-166.34M126.67 168.43c35.06-45.49 73.69-89.99 144.17-169M124.69 166.29C157.08 131.62 187.27 97.82 269.98.68M130.82 166.5C177.79 111.56 223.5 59.26 276.86-1.55M129.64 168.16C176.97 111.77 225.42 55.15 275.9-.87M136.94 166.49c36.27-40.93 74.24-86.08 143.01-167.07M135.37 167.24c42.88-49.43 85.52-98.6 145.82-167.76M139.71 167.71C193.76 105.07 248.72 44.33 286.18.88M140.83 167.84C184.08 116.33 227.62 65.52 286.96.35M147.08 167.46C194.15 109.52 241.6 56.62 290.9.86M146.29 167.35c41.04-46.26 80.72-90.91 144.39-166.9m-138.3 165.99c34.61-35.49 66.9-72.27 145.3-167.72M152.1 166.5C196.81 116.63 240.9 65.63 296.33-.61M156.74 167.11C204.31 115.05 250.54 62.23 300.77.57M156.61 166.71C202.13 115.53 246.77 64.55 302.66-.67M161.92 168.71C199.88 123.9 238.76 78.43 307.49.34M161.87 166.53C196.13 128.4 229.06 88.82 308.16.58M167.8 166.46C222.14 104.62 280.42 39.3 313.81-.96M167.47 168.4c46.9-54.02 94.22-109.08 145.74-168.63M172.03 166.91C224.58 104.63 281.44 42.48 319.77-.36M172.54 167.85C226.47 104.04 280.1 42.23 318.06-.68M178.24 167.08c54.07-64.56 110.9-127.53 144.17-168.41M176.92 167.78C224.61 114.45 271.21 62.03 323.28.37M184.94 165.71c30.22-32.2 59.86-68.75 142.75-167.26M182.75 167.06C234.27 109.89 284.57 52.8 329.48.19M186.97 166.92C233.53 113.49 278.69 61.5 333.04-1.4M188.92 168.19C224.45 126.51 259.9 84.15 334.31.69M192.75 166.5C252.83 99.4 309.41 32.73 339.33-2.05M193.35 166.9C249.87 105.25 303.32 42.29 339.08-1.16M198.07 165.96c36.72-40.63 74.52-84.94 145.69-166.09M199.51 166.72C250.7 108.72 299.7 50.44 344 .42M203.34 165.7c50.01-57.02 99.01-114.12 147.81-164.59m-146.27 165.7C234.1 134.1 262.41 100 348.99.84M208.12 168.7C245.13 129.75 277.54 92.26 356.33.27M209.17 167.94C264.47 103.71 318.58 41.04 355.7.25M214.49 166.81c53.24-58.46 103.87-116.5 144.73-165.73M214.93 167.2C271.46 103 327.37 38.95 359.97.58M221.69 168.59C264.37 115.54 309.38 63.23 364.13-.5M220.2 167.45C251.19 132.38 282.06 98 365.57-.74M225.94 168.35C278.59 103.01 332.58 43.21 370.84 1.2M225.97 166.86C283.28 101.11 339.35 36.3 370.01.41M232.39 167.05c49.4-60.35 101.84-122 145.64-166.14M230.65 166.6c35.56-40.17 70.61-80.47 146.51-167.39M237.67 165.56c32.28-36.83 66.87-77.54 143.59-165.61M235.78 167.31C280.96 115.88 324.47 66.13 381.33-.07m-139.5 168.34c41.91-51.16 84.99-98.98 144.89-168.88M242.16 168.15C294.87 108.32 346.57 46.92 386.8.31M248.17 165.97C303.31 101.91 362.44 35.59 392 .31M247 166.74C293.27 112.91 339.69 59.45 391.91.99M251 167.13C305.15 103.19 358.64 40.15 396.38.4M252.11 166.8C282.29 132.59 312.52 98.22 398.24.24m-142.05 166.7c31.48-39.45 63.56-72.95 146.08-165.81M257.61 167.76C293.22 124.89 330.74 81.77 403.3-.05M262.01 168.21C309.69 112.66 360.96 54.66 408.26.93M263.18 167.26C304.01 120.98 345.11 72.96 408 .31M269.35 167.73c38.72-48.18 78.24-95.34 144.72-168.88M268.7 166.22C301.31 127.57 333.32 90.58 412.81.66m-139.94 166.1C309.6 124.52 348.02 78.04 420.4-1.83M273.81 167.92C313.2 122.81 351.88 78.2 418.3-.67M277.57 168.55c38.18-47.97 79.6-90.45 146.04-168.92M277.8 168.32C333.57 103.51 388.3 40.19 424.75-.29M282.73 167.74c50.51-56.37 96.21-111.4 146.63-169.59M284.27 166.86C325.3 120.69 367.18 72.64 429.28-.3M288.55 169.27C328.61 123.39 370.71 77.46 433.42.28M289.23 167.77C341.63 105.34 394.46 43.38 434.04-.54M293.55 166.79c34.22-38.11 66.36-73.9 145.29-166.64M294.06 167.86C330.02 127.73 363.99 88.05 439.9-.4M297.89 168.76C344.64 115.94 391.11 64.32 443.64.4M298.97 168.43C336.67 124.9 374.75 81.85 444.32.21M304.94 165.77c48.4-54.78 99.66-111.41 143.5-164.27M304.5 167.51c42.13-47.83 83.63-95.95 143.39-165.42M310.74 167.03C365.55 106.95 419.23 41.96 450.08 8.99M310.22 168.37c30.74-37.35 63.07-73.27 137.55-160.71m-131.86 160c31.01-35.22 58.32-66.2 132.56-154.62M316.16 166.38c48.92-53.3 97.42-109.01 132.71-152.13M322.29 167.81c31.93-36.89 62.01-72.93 128.29-146.2m-128.94 146.8C355.4 126.2 393.13 85.2 447.77 19.47m-121.2 148.32c30.93-34.5 57.4-68.02 121.1-142.19M326.16 166.48C356.3 131.78 388 96.02 447.64 26.43M332.55 165.98c27.61-27.93 52.78-59.12 114.38-133.74M331.05 167.38c36.53-43.99 75.78-86.15 116.62-135.17M336.23 165.63c42.14-48.23 86.99-94.3 111.2-126.01M336.11 167.08c34.64-41.12 68.88-79.81 113.06-127.9M342.38 168.15c37.98-44.89 75.04-89.43 107.58-124.27M342.99 167.56c29.52-33.35 59.21-68.63 104.35-122.38M349.6 168.26c24-29.38 48-56.48 97.86-119.07M348.03 166.7c33.93-40.86 70.71-82.82 100.34-115.63m-97.5 116.14c36.8-39.38 67.93-74.41 96.72-108.29m-93.97 108.32c35.93-43.15 72.83-85.56 94.26-110.53m-89.24 111.24c16.8-23.07 38.24-42.86 88.46-102.37M359 166.6c31.33-35.89 64.02-75.03 89.02-102.01M361.37 168.3c29.64-30.4 55.31-61.62 88.34-98.08m-86.03 97.65c24.96-29.78 50.46-59.15 85.48-97.88m-80.56 98.19c25.42-29.64 52.3-62.76 81.32-92.21m-81.72 91.69c32.82-35.97 63.26-71.79 80.29-91.51m-72.98 90.6c19.59-23.41 40.15-47.44 73.94-86.89m-75.91 87.18c28.58-33.16 57.17-65.84 74.64-86.17m-68.19 84.78c13.31-15.03 30-32.86 69.81-79.58m-69.87 81.34c17.75-18.95 33.78-39.25 68.85-79.89m-65.57 78.61c23.25-24.2 41.49-48.33 65.4-72.25m-64.42 73.57c14.67-15.46 26.41-30.87 63.17-73.87m-56.72 74.7c17.09-22.94 34.43-39.86 56.92-69.25m-56.97 67.98c11.52-13.75 24.77-27.75 57.58-67.13m-51.51 68.33c18.55-22.79 37.16-44.34 53.53-62.93m-55.99 62.71c15.47-18.22 29.67-34.6 54.03-61.25m-47.27 59.23c9.75-10.08 20.63-26.01 47.35-55.75m-47.27 56.82c14.87-16.2 28.61-32.95 47.5-55.47M404.36 167c12.26-11.49 20.47-20.43 44.18-50.44m-41.77 50.1c13.18-15.28 25.82-28.87 41.66-47.81m-37.78 50.71c11.82-14.17 22-27.47 36.12-43.57m-36.54 41.44c10.28-11.28 18.96-20.96 38.49-43.66m-31.68 42.93c7.38-11.26 19.42-20.8 32.9-36.04m-33.24 36.93c9.93-12.7 18.72-24.17 32.69-37.25m-28.7 39.05c10.59-12.4 18.87-20.57 27.24-30.76m-25.72 28.39c7.39-8.97 15.97-18.56 25.92-30.42m-22.36 31.15c7.96-8.66 17.21-16.44 24.17-25.99m-22.54 26.32c7.46-9.56 13.75-15.86 21.23-24.85m-14.61 23.01c2.45-.88 6.54-7.46 15.06-17.31m-17.24 18.63c7.06-7.18 11.99-14.79 15.98-19.03m-11.6 19.95c3.84-3.64 6.97-9.32 10.81-14.27m-9.17 13.27c2.94-3.82 5.63-7.49 10.29-12.48m-6.29 11.89c3.27-1.64 4.94-2.99 6.66-5.98m-5.66 6.56c.9-1.54 2.24-2.97 5.51-6.87" transform="translate(51.207 205.21)"/><path fill="none" stroke="#1864ab" d="M.47-.44c148.4 2.09 297.65.9 445.29.74M.09-.42c134.44 2.23 269.74 2.45 446.06 0m-1.42-.11c4.06 57.19 2.61 114.85 1.63 165.98M445.01-.97c1.06 42.24 1.11 81.76.14 166.22m1.07-1.03c-102.3.25-204.41.16-446.45.86m445.84.14c-177.04-1.46-354.09-1.51-445.67-.86m-.49 2.08C-.36 113.1 1.22 60.88.19-.47m.23 165.84C1.19 129.18.98 94.27-.44.22" transform="translate(51.207 205.21)"/></g><text x="5.5" dominant-baseline="text-before-edge" font-family="Virgil, Segoe UI Emoji" font-size="16" style="white-space:pre" text-anchor="middle" transform="translate(56.122 396.93)">6</text><text x="4" dominant-baseline="text-before-edge" font-family="Virgil, Segoe UI Emoji" font-size="16" style="white-space:pre" text-anchor="middle" transform="translate(55.847 415.248)">n</text><text x="1.5" dominant-baseline="text-before-edge" font-family="Virgil, Segoe UI Emoji" font-size="16" style="white-space:pre" text-anchor="middle" transform="translate(66.204 421.38)">i</text><path fill="none" stroke="#000" stroke-linecap="round" stroke-width="2" d="M0 0c6.92-.06 34.59-.29 41.5-.35M0 0c6.92-.06 34.59-.29 41.5-.35" transform="translate(39.638 415.667)"/><path fill="none" stroke="#000" stroke-linecap="round" stroke-width="2" d="M0 0c1.43-1.01 2.85-2.02 4.44-3.14M0 0c1.47-1.04 2.94-2.07 4.44-3.14m0 0C6.72 4.6 9 12.34 11.76 21.69M4.44-3.14c2.9 9.84 5.8 19.67 7.32 24.83m0 0c-.59-16.01-1.19-32.02-1.57-42.33m1.57 42.33c-.58-15.53-1.15-31.06-1.57-42.33m0 0c15.45.06 30.89.12 56.57.23m-56.57-.23c13.05.05 26.09.1 56.57.23" transform="translate(20.972 414.869)"/><path fill="none" stroke="#000" stroke-linecap="round" stroke-width="2" d="M0 0c1.6-.07 3.2-.15 7.14-.32M0 0c2.61-.12 5.21-.24 7.14-.32" transform="translate(10 416.24)"/><text x="5.5" dominant-baseline="text-before-edge" font-family="Virgil, Segoe UI Emoji" font-size="16" style="white-space:pre" text-anchor="middle" transform="translate(497.866 391.756)">6</text><text x="4" dominant-baseline="text-before-edge" font-family="Virgil, Segoe UI Emoji" font-size="16" style="white-space:pre" text-anchor="middle" transform="translate(497.591 410.074)">n</text><text x="1.5" dominant-baseline="text-before-edge" font-family="Virgil, Segoe UI Emoji" font-size="16" style="white-space:pre" text-anchor="middle" transform="translate(507.948 416.205)">i</text><path fill="none" stroke="#000" stroke-linecap="round" stroke-width="2" d="M0 0c6.92-.06 34.59-.29 41.5-.35M0 0c6.92-.06 34.59-.29 41.5-.35" transform="translate(481.382 410.493)"/><path fill="none" stroke="#000" stroke-linecap="round" stroke-width="2" d="M0 0c1.28-.9 2.56-1.81 4.44-3.14M0 0c1.24-.87 2.47-1.75 4.44-3.14m0 0c2.16 7.33 4.32 14.65 7.32 24.83M4.44-3.14c1.62 5.48 3.23 10.96 7.32 24.83m0 0-1.57-42.33m1.57 42.33-1.57-42.33m0 0c14.11.05 28.21.11 56.57.23m-56.57-.23c22.39.09 44.77.18 56.57.23" transform="translate(462.716 409.695)"/></svg>