<svg xmlns="http://www.w3.org/2000/svg" width="2129.854" height="829.753" viewBox="0 0 1064.927 414.877"><defs><style>@font-face {
        font-family: &quot;Virgil&quot;;
        src: url(&quot;/assets/woff2/Virgil.woff2&quot;);
      }
      @font-face {
        font-family: &quot;Cascadia&quot;;
        src: url(&quot;/assets/woff2/Cascadia.woff2&quot;);
      }</style></defs><g fill-rule="evenodd" stroke-linecap="round"><path fill="none" stroke="#7950f2" stroke-width=".5" d="M180.91-238.92s0 0 0 0m0 0s0 0 0 0m-19.89 29.33c13.25-15.29 25.96-28.29 32.39-39.36m-32.97 39.55c12.3-14.76 23.16-28.19 33.52-37.99m-38.06 49.06c10.43-13.62 23.62-25.12 46.77-57.71m-45.91 58.1c17.49-20.65 35.17-42.25 48.04-55.47M-14.73 4.42s0 0 0 0m0 0s0 0 0 0m164.61-188c21.36-22.79 43.72-50.33 60.36-68.64m-61.78 69.2c24.28-28.72 47.27-54.58 60.36-70.89M-8.26 2.87c.88-.7.69-.86 3.24-2.91m-3.35 3.41C-7.22 1.78-5.72.18-5.35-.52m.09-.16c.78-.39 1.57-1.29 2.85-2.66M-5.34-.36c.94-.9 1.82-1.77 2.72-3.16m141.45-163.17c24.06-25.64 46.66-52.03 72.99-84.53m-71.28 83.48c14.33-17.93 31.52-36.44 72.77-82.73M-2.32 2.12c.76-.41 1.18-.77 1.44-1.31m-1.17 1.33c.49-.51.96-1.2 1.33-1.43m.67-.89c2.87-3.65 4.79-5.25 6.17-6.89M.37-.98c1.14-1.64 2.25-3.03 5.17-6.26m130.7-146.21c23.82-28.43 45.73-55.92 77.8-95.39m-80.62 93.7c19.72-22.03 39.6-44.29 81.6-94.02M4.22.74c2.89-2.9 7.58-6.97 10.87-10.63M5.14-.34c2.85-1.97 4.27-4.84 9.63-10.3M127.7-141.6c34.25-40.45 68.16-80.44 92.85-104.67m-90.91 104.58c34.97-41.73 70.58-82.5 89.49-105.22M9.57-.91c6.91-5.7 7.7-7.65 12.16-15.34M10.89-.65c5.66-4.49 8.8-9.72 13.36-15.37m100.38-113.26c37.76-44.45 79.1-91.69 97.24-114.79m-98.72 114.95c20.8-24.08 41.82-48.83 98.83-114.95M16.04.52c3.74-5.64 9.59-12.64 16.67-21.3M16.27-.4c3.84-4.61 5.81-6.78 16.16-19.24m83.98-98.2c29.05-31.1 58.32-67.24 107.36-121.16M116.49-117.47c24.47-28.5 49.5-57.05 107.57-123.39M22.86.93c5.06-5.31 9.63-12.31 19-25.56M20.77.03c6.41-6.16 11.51-14.66 22.29-24.29m68.49-81.7c27.04-24.85 49.72-55.6 117.2-133.21M111.93-104.99c26.89-28.85 55.08-60.79 114.84-132.19M25.59 1.09C32.17-7.84 40-12.7 54.93-32.25M26.2-.68C35.93-11.3 46.15-22.96 52.06-31.4m51.66-56.25c31.52-38.09 67.94-76.81 125.03-144.88M104.49-89.08c46.41-54.42 92.44-107.72 125.54-145.06M31.96-.58c9.91-10.76 22.9-24.87 40.71-46.36M31.61.44c14.52-18.76 30.2-34.91 39.25-46.79m19.92-21.26c52.51-59.1 103.47-122.56 141.02-162.11M90.13-66.85c32.85-35.06 64.19-72.79 141.81-163.03M36.7.39C98.18-68.03 158.3-139.8 233.74-227.2M37.01-1.37c71.31-79.52 141.34-161.14 197.19-225.99M42.56.56c63.52-77.09 128.76-151.66 194.7-222.38M42.11.37c68.39-80.51 139.24-160.55 193.56-222.63M47.01-.2c69.2-80.33 138.03-156.58 193.21-219.18M48.07-1.08c62.58-70.09 122.64-140.56 190.18-218.5M51.51-1.73c47.6-49.33 89.54-97.97 188.44-213.25M52.55-.06c71.75-81.16 141.52-161.41 188.68-216.51M57.35-.31c42.74-50.03 85.22-99.6 185.28-212.99M58.34-1.01c48.03-52.76 95.43-106.54 184.95-212.34M63.21-1.51c72.91-80.78 146.67-164.4 181.57-208.14M64-.45c41.18-49.29 84.15-97.57 180.83-208.65M68.86-1.06c69.62-77.52 139.28-158.78 179.26-205.57M68.68-1.42c47.01-51 94.79-105.71 178.05-204.48M72.89-.99c47.09-50.37 90.35-103.03 176.85-200.13M73.48.25c61.28-71.26 122.15-140.33 175.89-200.67M78.99 1.43c46.77-51.55 91.55-104.72 170.63-198M79.54.53c42.63-51.45 84.15-99.46 170.21-197.5M84.33-.62c47.27-53.54 94.57-105.79 168.64-192.27M84.78.35c47-54.97 94.8-110.43 167.97-193.14M88.69-1.24c61.95-68.34 121.99-138.99 166.06-186.58M89.52-.85c39.18-41.4 75.35-84.6 163.58-187.36M95.93-.56c39.12-45.01 76.14-88.52 161.29-185.29M95.18-.7c45.49-50.02 90.67-101.77 160.7-183.73M100.36-1.28c60.27-68.59 118.37-139.74 156.61-178.06M100.18-.14c30.9-36.97 62.73-72.92 157.33-180.04M105.17 1.05c51.48-60.6 105.37-120.06 153.92-177.61M105.68.35c46.46-54.21 92.92-106.56 152.04-175.5M112.26-1.78c35.89-40.78 74.33-83.74 147.45-170.54M111.56-.77c45.58-49.72 90.07-101.32 147.86-170.61M117.19-.33c42.24-48.27 84.17-99.11 143.26-165.47M117.12-.27c55.68-64.28 110.94-127.72 143.91-167.64M122.58-1.38c40.23-47.77 79.35-92.5 141.84-163.4M122.13-.32c33.71-39.24 67.72-78.09 140.71-163.47M125.51.29c36.65-41.37 72.02-82.78 141.15-159.92M126.85-.13c42.08-51.45 87-101.87 137.45-158.06M131.2.85c38.75-45.67 80.69-92.07 136.81-156.22M133.07.33c34.87-40.92 68.47-80.48 133.14-156.12M136.88-.92c37.09-39.82 70.56-81.83 132.49-148M137.34.75c45.5-54.19 91.83-105.13 130.58-149.88M141.64-.06c24.49-31.34 50.44-61 128.39-143.93M142.14-.71c49.97-54.67 98-110.16 128.3-144.4M148.6.65c29.57-35.26 62.11-69.74 121.56-142.43M148.02-.6c34.49-38.17 66.59-76.38 123.76-140.61M152.64 1.13c33.61-40.06 63.14-77.53 120.24-137.95M153.95.38c42.81-47.78 83.4-94.48 118.38-138.29M158.99 1.24c41.82-46.69 83.75-94.41 114.73-136.42M158.69-.55c39.96-45.28 78.73-90.72 117-132.51M162.34-.24c30.7-34.93 65.28-74.34 114.17-127.15M163.57-1.29c33.53-36.46 67.51-75.49 113.62-128.62M169.62-.47c27.89-27.15 51.3-59.74 110.36-123.68M169.81-.89c37.55-44.17 78.4-89.84 108.26-126M174.46-.81c34.14-34.78 64.48-72.62 104.65-121.45M174.56.15c27.5-34.26 58.52-68.51 106.85-122.8M179.18-1.43c24.87-24.2 48.24-53.39 103.79-114.61M179.57.13c39.44-47.98 80.57-94.86 102-117.73M186.78 1.95c15.55-24.98 36.79-47.34 97.25-117.26M184.65 1.35c33.04-42.12 69.12-81.5 99.48-114.25M189.44-.15c27.16-32.39 55.19-63.01 95.34-108.89M190.86.83c25.17-29.16 50.67-57.6 95.17-111.12M197.22.2c24.29-25.74 45.76-53.44 87.77-105.75M194.77 1.28c23.94-28.69 47.27-55.87 92.72-106.63M199.25 1.25c28.13-33.14 54.53-65.02 91.7-100.46M200.26-.94c22.61-22.67 43.01-45.7 88.56-99.34M204.43-1.23c29.82-32.62 63.23-70.64 85.03-95.36m-82.7 97.77c31.49-36.23 62.73-73.62 84.23-98.36M210.58-.96c32.08-35.41 66.28-73.29 83.83-91.72M211.06-.78c28.89-31.41 55.47-60.98 82.77-93.56M217.16 1.92c22.3-25.95 42.57-51.05 79.57-91.5M217.62.35c25.48-31.94 53.41-63.6 76.93-90.36M221.81-1.32c24.19-27 51.65-57.19 75.12-85.1M221.62.01c19.33-20.12 36.36-39.27 76.27-86.44M228.27-.72c18.08-23.5 40.99-49.21 72.87-83.09M226.58 1.13c21.1-23.91 39.23-45.91 74.16-84.52M232.41 1.75c16.86-20.2 32.1-38.59 69.22-83.52M232.92.41c28.14-31.89 55.29-62.27 69.36-80.63M236.7-.09c15.43-17.48 30.84-32.68 67.44-75.82M238.06-.07c18.54-23.83 39.12-47.01 67.81-77.03M244.95.52c11.36-14.26 25.64-31.02 60.81-72.91M243.72 1.22c18.03-20.29 34.75-41.9 62.83-75.3M249.48-1.74c14.93-14.91 27.52-32.77 61.45-67.09m-62.24 69c13.89-15.54 27.4-32.78 60.92-69.29m-55.83 70c17.49-19.39 29.45-35.44 59.55-66.16M254.12 1.03c19.75-23.5 38.62-46.17 57.96-68.12M259.73.2c19.81-23.51 39.35-46.14 56.76-66.09M258.3-.65c18.94-19.49 36.83-41.46 57.68-63.97M262.3 1.17c15.41-17.54 32.46-37.39 54.79-59.98M263.93-.02c14.08-16.76 30.83-32.81 53.2-60.02m-49.1 61.78a899.874 899.874 0 0 0 53.5-60.22M268.27.75c16.93-16.58 32.82-35.42 52.12-59.49M273.05 2.1c12.25-16.25 26.42-28.3 50.18-57.28M275.66.73c15.79-20.35 33.72-39.9 46.84-55.63M279.01.07c11.92-10.1 17.72-20.75 46.21-51.17M279.14 1.44c15.22-18.17 31.63-36.69 48.15-53.99M285.63.81c12.62-18.11 28.75-33.1 43.76-51.24M285.53-.47c11.54-13.43 24.04-26.57 43-49.38M291.4.01c7.33-9.33 19.16-23.98 41.72-49.11M289.71-.19c9.42-10.86 19.4-21.11 43.44-47.67M294.75.83c10.84-12.41 20.58-21.39 41.83-47.52M296.43 1.15c11.86-14.27 23.49-28.34 39.66-47.7m-33.36 47.6c5.22-10.33 15.64-19.58 35.88-44.94M300.6 1.52c10.33-12.95 21.12-25.29 38.23-44.91M308.22 2.09c10.98-16.22 24.59-30.93 35.77-40.53M307.01-.09c12.24-12.55 22.86-27.58 35.25-41.23M310.59.09c9.59-7.02 16.33-14.94 33.51-38.86M312.67 1.3c6.28-8.52 12-16.53 33.22-38.88M316.92-1.05c9.88-8.96 19.14-20.29 31.21-35.46M316.58.67c8.8-10.13 17.99-19.46 32.06-36.89M322.66 1.43c13.11-12.88 25.19-27.34 31.77-35.54M321.97-.08c8.19-7.31 13.47-14.46 30.9-34.78M328.18 2.93c9.34-12.77 18.12-25.11 30.17-37.49M327.5.61c5.69-7.23 14.44-16.4 30.22-33.1M334.74-1.21c4.33-8.21 10.75-14.47 26.19-29.39M332.75 1.19c9.45-11.47 17.68-21.96 27.69-32.98M338.41 1.66c7.33-8.21 13.12-18.08 25.01-30.02M338.83 1.19c7.49-9.65 14.83-18.62 25.69-30.03m-19.83 30.1c4.86-5.35 11.85-15.57 23.27-30.34M344.47.96c4.67-8.47 12.99-15.26 24.44-28.91M347.12 1.47c10.29-11.45 17.16-18.86 25.71-26.48m-23.5 26.67c5.02-6.95 9.17-11.94 23.59-27.33M354.5-.63c6.64-3.68 11.83-12.9 21.86-24.29M354.77.16c6.13-8.8 14.64-17.21 21.9-23.49M357.58 2.33c7.26-8.84 15.02-16.07 22.63-24.29M359.14 1.08c6.14-5.11 11.75-12.03 20.88-24.15M364.23-.95c8.26-5.36 15.9-15.02 17.78-18.43M364.54-.28c3.88-3.03 8.86-7.45 19.23-20.36M370.15.63c4.72-4.5 11.56-12.78 15.76-18.88M370.1.06c7.48-7.07 12.39-14.79 17.68-19.19M373.38.39c3.94-3.24 7.07-6.31 18.54-19.7M374.16.42c6.11-3.85 10.62-10.96 16.81-18.47M380.29-.85c4.25-3.47 9.87-7.21 13.46-13.66M380.76 1.74c4.48-6.3 7.46-9.97 13.95-16.58M385.52.61c1.97-2.71 5.99-5.49 14.66-13.48M385.23.79c4.29-4.88 8.65-9.85 13.53-14.71m-6.35 14.98c2.7-1.61 2.73-6.01 9.92-14.02m-11 13.79c2.9-4.46 7.13-8.79 10.9-13.97M394.7.73c5.15-2.97 6.64-6 11.94-13.19M395.68.78c2.82-3.34 6.26-6.59 11.24-11.81M402.3.3c1.28-3.46 3.13-4.08 7.45-9.61M402.46.65c1.82-1.95 2.51-4.28 7.67-9.05M407.61.5c1.27-1.19 1.92-4.55 6.16-8.46m-6.96 9.16a55.75 55.75 0 0 1 7.48-8.68m-2.39 8.73c2.33-2.29 3.31-3.64 6.45-6.27m-6.16 6.18c1.58-2.6 3.74-4.26 5.79-6.17M416.88.6c2.32-1.18 3.2-1.95 4.79-4.05M417.24.96c1.28-1.33 3.05-3.22 4.63-5.32m.26 5.51c1.32-1.52 2.51-2.14 3.68-3.81m-3.24 4.39c.9-1.37 2.02-3.07 3.37-3.92m2.09 3.17c.42-.31.59-.67 1.15-1.34m-1.04 1.46c.49-.47.79-1.17 1.25-1.48" transform="translate(46.907 366.79)"/><path fill="none" stroke="#5f3dc4" d="M.38.54C-1.9.17-26.35 8.43-12.54-1.27c13.82-9.69 68.04-23.2 95.8-56.39 27.75-33.19 50.34-110.1 70.72-142.74 20.39-32.63 36.2-52.31 51.59-53.09 15.4-.79 27.51 23.72 40.8 48.38 13.29 24.66 24.15 73.08 38.94 99.58 14.79 26.49 27.82 42.69 49.8 59.41 21.98 16.72 73.95 33.36 82.06 40.9 8.12 7.54 37.11 3.71-33.38 4.36C313.3-.21 59.33-1.04-5.75-1.3M-.88-.23c-2.01-.25-23.32 10.38-9.39.48C3.65-9.66 55.25-26.38 82.65-59.67c27.4-33.29 51.13-107.66 71.47-139.82 20.34-32.17 34.97-52.56 50.59-53.16 15.62-.61 29.67 24.68 43.11 49.55 13.44 24.86 23.1 73.59 37.52 99.63 14.42 26.04 26.76 40.39 49.01 56.6 22.25 16.2 76.2 33.1 84.49 40.62 8.3 7.52 36.52 4.04-34.71 4.5-71.24.46-327.32-1.53-392.69-1.73" transform="translate(46.907 366.79)"/></g><path fill="none" fill-opacity=".9" stroke="#343a40" stroke-linecap="round" stroke-opacity=".9" stroke-width="4" d="M-.62-.04c182.28-1.05 363.35-2.39 480.35-.95M-.17.19C146.27 1.3 293.35.73 478.59-1.24" transform="translate(10.946 369.593)"/><path fill="none" fill-opacity=".9" stroke="#343a40" stroke-linecap="round" stroke-opacity=".9" stroke-width="4" d="M-.07.39c-.51-92.6-2.23-182.77-.12-277.56M.33-.5c1.09-55.27.68-112.45-.97-276.15" transform="translate(252.044 368.443)"/><path fill="none" fill-opacity=".3" stroke="#000" stroke-dasharray="1.5 7" stroke-linecap="round" stroke-opacity=".3" stroke-width="1.5" d="M.39.81c-1.82 94.33.29 191.55.75 275.04" transform="translate(472.058 91.899)"/><path fill="none" fill-opacity=".3" stroke="#000" stroke-dasharray="1.5 7" stroke-linecap="round" stroke-opacity=".3" stroke-width="1.5" d="M.81-.27c-1.15 65.2.67 127.26-1.26 276.13" transform="translate(416.906 91.796)"/><path fill="none" fill-opacity=".3" stroke="#000" stroke-dasharray="1.5 7" stroke-linecap="round" stroke-opacity=".3" stroke-width="1.5" d="M-.27-.49c2.6 83.6 1.52 163.02-.17 277.22" transform="translate(361.4 91.825)"/><path fill="none" fill-opacity=".3" stroke="#000" stroke-dasharray="1.5 7" stroke-linecap="round" stroke-opacity=".3" stroke-width="1.5" d="M-.49 1.49C2.56 90.29.3 178.9.43 278.01" transform="translate(306.157 92.006)"/><path fill="none" fill-opacity=".3" stroke="#000" stroke-dasharray="1.5 7" stroke-linecap="round" stroke-opacity=".3" stroke-width="1.5" d="M1.49 1.1c-1.4 95.11-2.62 193.7.22 275.25" transform="translate(195.439 91.843)"/><path fill="none" fill-opacity=".3" stroke="#000" stroke-dasharray="1.5 7" stroke-linecap="round" stroke-opacity=".3" stroke-width="1.5" d="M1.1.09C-1.88 76.85-.71 157.35.04 276.58" transform="translate(140.332 91.944)"/><path fill="none" fill-opacity=".3" stroke="#000" stroke-dasharray="1.5 7" stroke-linecap="round" stroke-opacity=".3" stroke-width="1.5" d="M.09-1.5c.76 75.28 3.19 149.3.18 279.73" transform="translate(84.855 91.797)"/><path fill="none" fill-opacity=".3" stroke="#000" stroke-dasharray="1.5 7" stroke-linecap="round" stroke-opacity=".3" stroke-width="1.5" d="M-1.5-1.49C1.32 110.6 1.35 219.1 1.92 276.3" transform="translate(29.613 91.277)"/><path fill="none" fill-opacity=".3" stroke="#000" stroke-dasharray="1.5 7" stroke-linecap="round" stroke-opacity=".3" stroke-width="1.5" d="M-.85-.35c177.99 2.24 353.93 3.74 476.53.89" transform="translate(10.849 312.402)"/><path fill="none" fill-opacity=".3" stroke="#000" stroke-dasharray="1.5 7" stroke-linecap="round" stroke-opacity=".3" stroke-width="1.5" d="M-.35.37c146.39 1.21 294.06 1.06 478.84.39" transform="translate(10.873 257.783)"/><path fill="none" fill-opacity=".3" stroke="#000" stroke-dasharray="1.5 7" stroke-linecap="round" stroke-opacity=".3" stroke-width="1.5" d="M.37-.57C96.68 1.33 193.64.24 479.83.71" transform="translate(10.826 202.373)"/><path fill="none" fill-opacity=".3" stroke="#000" stroke-dasharray="1.5 7" stroke-linecap="round" stroke-opacity=".3" stroke-width="1.5" d="M-.57-.44c98.51-1.04 194.86.29 480.36.52" transform="translate(10.87 146.904)"/><path fill="none" fill-opacity=".3" stroke="#000" stroke-dasharray="1.5 7" stroke-linecap="round" stroke-opacity=".3" stroke-width="1.5" d="M-.44.49c124.32.27 250.14 1.57 479.59-.6" transform="translate(10.755 91.632)"/><path fill="none" fill-opacity=".9" stroke="#343a40" stroke-linecap="round" stroke-opacity=".9" stroke-width="2" d="M1.31-1.58c-3.2-.41-.19-6.15-2.93-9.85M-.68.84c-.57-4.62-.27-7.43-.38-12.36" transform="translate(251.601 379.745)"/><path fill="none" fill-opacity=".9" stroke="#343a40" stroke-linecap="round" stroke-opacity=".9" stroke-width="2" d="M-1.58-1.61c3.35.76 1.25-4.12.37-9.27M.84-.85C-.22-3.56.33-6.62-1.31-11.8" transform="translate(306.93 379.745)"/><path fill="none" fill-opacity=".9" stroke="#343a40" stroke-linecap="round" stroke-opacity=".9" stroke-width="2" d="M-1.61 1.95c3-4.69.49-7.65.94-13.51M-.85-.03c.56-1.6.62-5.1-.74-10.56" transform="translate(362.26 379.745)"/><path fill="none" fill-opacity=".9" stroke="#343a40" stroke-linecap="round" stroke-opacity=".9" stroke-width="2" d="M1.95 1.83c-2.1-6.3-2.64-9.44-3.29-15.1M-.03-.14c.45-2.45-.8-5.75-.34-11.53" transform="translate(417.59 379.745)"/><path fill="none" fill-opacity=".9" stroke="#343a40" stroke-linecap="round" stroke-opacity=".9" stroke-width="2" d="M1.83.14C-.49-2.59.17-5.37-3.06-12.82M-.14.89c.03-5.22-.96-8.55-1.32-13.17" transform="translate(472.919 379.745)"/><path fill="none" fill-opacity=".9" stroke="#343a40" stroke-linecap="round" stroke-opacity=".9" stroke-width="2" d="M.14-.36c-.58-1.67-1-6.71-2.75-9.43M.89.19C-.33-2.94.32-5.4-2.07-11.85" transform="translate(196.272 379.745)"/><path fill="none" fill-opacity=".9" stroke="#343a40" stroke-linecap="round" stroke-opacity=".9" stroke-width="2" d="M-.36.05c.28-4.55-2.59-10.23.78-13.22M.19-.05C-.68-2.51-.92-7.62-1.64-11.62" transform="translate(140.942 379.745)"/><path fill="none" fill-opacity=".9" stroke="#343a40" stroke-linecap="round" stroke-opacity=".9" stroke-width="2" d="M.05.59c-.63-6.75-2.37-7.62-3-12.12m2.9 11.2c.4-3.17-1.66-6.65-1.36-11.9" transform="translate(85.613 379.745)"/><path fill="none" fill-opacity=".9" stroke="#343a40" stroke-linecap="round" stroke-opacity=".9" stroke-width="2" d="M.59-.09c-2.74-4.77.35-8.63-1.9-11.67M-.33.89c-.39-6.03-1.04-9.7-1.69-13" transform="translate(30.283 379.745)"/><text x="7.838" dominant-baseline="text-before-edge" font-family="Virgil, Segoe UI Emoji" font-size="14.755" style="white-space:pre" text-anchor="middle" transform="translate(25.588 386.433)">-4</text><text x="4.611" dominant-baseline="text-before-edge" font-family="Virgil, Segoe UI Emoji" font-size="14.755" style="white-space:pre" text-anchor="middle" transform="translate(471.45 386.433)">4</text><text x="5.072" dominant-baseline="text-before-edge" font-family="Virgil, Segoe UI Emoji" font-size="14.755" style="white-space:pre" text-anchor="middle" transform="translate(415.66 386.433)">3</text><text x="5.533" dominant-baseline="text-before-edge" font-family="Virgil, Segoe UI Emoji" font-size="14.755" style="white-space:pre" text-anchor="middle" transform="translate(359.87 386.433)">2</text><text x="1.844" dominant-baseline="text-before-edge" font-family="Virgil, Segoe UI Emoji" font-size="14.755" style="white-space:pre" text-anchor="middle" transform="translate(308.229 386.433)">1</text><text x="5.072" dominant-baseline="text-before-edge" font-family="Virgil, Segoe UI Emoji" font-size="14.755" style="white-space:pre" text-anchor="middle" transform="translate(249.672 386.433)">0</text><text x="5.072" dominant-baseline="text-before-edge" font-family="Virgil, Segoe UI Emoji" font-size="14.755" style="white-space:pre" text-anchor="middle" transform="translate(194.343 386.433)">-1</text><text x="8.299" dominant-baseline="text-before-edge" font-family="Virgil, Segoe UI Emoji" font-size="14.755" style="white-space:pre" text-anchor="middle" transform="translate(135.786 386.433)">-2</text><text x="7.838" dominant-baseline="text-before-edge" font-family="Virgil, Segoe UI Emoji" font-size="14.755" style="white-space:pre" text-anchor="middle" transform="translate(80.917 386.433)">-3</text><text x="115" dominant-baseline="text-before-edge" font-family="Virgil, Segoe UI Emoji" font-size="24.691" style="white-space:pre" text-anchor="middle" transform="translate(135.461 10)">Normal Distribution</text><g stroke-linecap="round"><path fill="none" stroke="#4c6ef5" stroke-width=".5" d="M0 0s0 0 0 0m0 0s0 0 0 0m-.06 6.36C1.98 4.54 3.25 2.52 4.28.47M-.44 6.5C1.35 5.03 2.43 3.58 4.89.47M.42 11.54C5.02 7.73 7.97 4.57 10.62.55M-.6 11.94C2.04 8.2 5.69 6.38 11.31-.32M-1.03 18.79c4.7-5.65 7.86-9.26 17.75-17.24M.8 17.88C6.6 10.45 12.63 3.58 16.41.78M-1.21 22.34C6.33 18.22 14.68 7.23 20.74-1.34M-.73 24.49C6.76 15.54 14.95 8.34 22.2.07M-.04 29.38C9.71 16.68 19.78 5.74 26.15.44M.36 30.86C6.75 21.05 14.42 12.98 26.9.28M-2.22 36.45C8.13 27.99 12.73 19.93 33.84 1.33M.52 36.96c6.47-7.12 11.3-15.47 31.12-37.94M.91 42.61C10.34 31.49 22.87 18.08 34.88.88M-.61 41.86C13.08 28.85 24.71 12.64 36.93-.25m-37.65 49C7.87 38.14 19.8 27.31 43.61.78M-.58 48.98C11.11 35.18 23.26 22.09 42.47-.3M.63 55.41C15.34 35.48 32.97 15.78 46.4-.08M.99 54.72C12.13 40.48 23.84 26.78 47.4.86M-.78 61.87C11.54 48.18 22.47 36.64 54.8-.52M.67 61.53C20.85 35.72 42.94 12.35 54.09-.07M.35 67.9C12.62 50.58 27.56 37.59 58.26 1.97M.35 66.55C12.91 51.37 26.36 35.99 58.42-.69M.3 73.12C12.4 55.26 29.11 42.12 65.29.3M.81 72.87C23.67 46.58 47.52 20.01 63.58-.95M.37 78.32C23.61 53.45 44.94 28.56 68.14.86M.28 79.76C23.48 52.84 46.41 24.28 68.31-.16m-67 85.37C17.82 66.96 37.15 45.69 76.02.54M.59 84.32C22.83 56.67 47 30.07 74.73-1.04M-1.89 89.57c19.17-17.1 36.5-36.96 81.66-87.73M.38 91.56C18.5 69.69 38.61 48.04 78.59-.74M-1.53 97C21.61 70.79 48.55 42.44 85.05-2.11M-.69 98C30.13 62.35 60.58 28.4 85.04-.88M.76 104.24C22.34 83.4 38.39 61.26 89.02-.45M.57 103.97C36.16 62.42 71.78 21.51 90.97-.58M-1.95 110.5C38.71 66.1 73.92 23.9 97.53.44M.45 110.81C30.1 73.27 61.46 39.39 94.71-.48M-1.42 115.28C30.46 80.9 57.3 48.51 101.81.04M-.52 115.55C26.72 85.1 53.86 54.13 100.37.21M-1.52 121.41C20.62 96.89 47.54 68.34 107.68.7M.7 121.95C24.23 94.39 47.84 65.66 105.63-.31M-1.72 128.84C31.35 98.35 56.09 62.97 112.19-1.23M-1.2 129.15C36.43 86.64 71.97 44.91 111.94.56M-1.1 134.04c29.34-33.61 59.6-67.7 117.29-131.7M-.36 134.92C28.21 102.68 56.38 70.2 115.75.48M-.38 139.2c25.12-28.19 55.2-60.28 120.67-140.6M.88 139.91C30.23 106.79 58.97 71.04 122-.54M.58 144.13C27.91 117.72 53.11 87.44 126.8-.85M.03 145.28C34.25 107.7 68.45 70.79 126.7.02M1.35 151.41C51.54 95.09 103.34 35.85 134.13-.19M-.17 152.74C42.84 104.08 85.43 55.62 133.02.84M.16 157.74C51.36 99.91 99.08 41.72 136.49 1.47M.14 158.43C52.44 99.97 106.03 38 136.9 1.13M-1.22 163.82C48.81 104.79 98.59 51.18 144.41-1.71M.91 164.5C29.76 130.01 59.02 96.51 142.94-.8M2 165.88C49.16 112.73 97.14 60.29 147.58-.06M2.92 167.5C32.36 131.97 60.31 99.05 148.74-.08M6.68 166.58c39.25-45 77.1-86.55 146.89-167.95M7.65 168.21C42.25 126.95 76.24 88.45 153.48-.85M12.43 166.67C70.34 100.6 126.39 37.19 158.01-1.28M13.76 166.8C60.78 112.87 108.87 59.22 158.23.19M18.7 166.96c42.75-47.95 82.39-94.71 146.77-165.75M18.14 167.16C55.92 124.25 94.84 81.01 163.89-.08M25.63 166.15c54.69-63.6 112.1-125.76 144.61-167.56M25.08 166.14C63.02 122.8 101.02 79.6 169.83.02M28.72 166.11C72.09 119.64 116.61 70.61 173.71.79M29.37 168.16C61.44 130.78 93.23 95.06 175.32 0M36.17 166.71c40.39-47.46 80.04-93.37 142.82-167.72M34.97 166.2C83.67 110.69 130.96 54.3 179.9-.25M39.34 167.66C97.29 100.25 153.93 35.39 184.07-1.52M39.84 166.83C94.16 103.73 150.37 39.68 186.52-.4M46.7 167.54C92.57 112.1 140.48 57.44 190.29-.29M45.34 168.45C97.83 110.39 147.92 52.04 191.51-.69M50.67 168.72C80.38 131.95 108.76 97.31 195.5.07M51.25 167.04C90.31 120.42 131.93 72.86 196.41-.14M54.99 166.76c54.42-59.7 105.83-120.01 147.5-167.6M55.09 167.82C105.68 112.49 154.77 54.98 201.39.8M62 168.45C112.93 108.67 167.66 48.39 205.29.49M60.7 167.94C91.54 131.79 121.95 96.72 206.68.23M65.58 167.71c34.72-42.4 69.15-80 145.84-168.16m-145.8 168.9C97.89 130.92 131.23 94.6 211.22.8M73.62 166.36C104.79 127.3 139.58 90.28 217.76-.68M71.99 166.58c44.85-50.5 89.94-102.83 145.49-167.24M76.82 167.28C111.79 129.3 144.23 88.05 222.5 1.73m-145.05 166C126.14 110.36 174.63 53.92 223.26-.22M81.53 167.51C138.09 101.3 194.68 35.89 228.63-.92M82.57 167.37C122.76 120.09 163.92 73.48 228.24-.7M88.87 168.74c37.55-47.18 78.15-94.59 142.85-168.75M86.94 168.25c48.58-56.13 97.39-110.11 145.69-168.7M93.06 166.93C142.69 109.48 194.26 54.1 236.52.83M93.13 167.44C134.43 120.28 174.16 74.4 237.94.45M98.53 166.24c40.48-42.69 80.78-88.09 146.12-165.21M97.57 168.36C132.25 127.81 165.54 90.22 243.69.69M104.41 168.66c30.81-35.28 60.12-71.61 142.88-169.31M103.2 167.83C161.16 101.63 218.21 36.17 248.55.87M107.86 167.21C163.7 104.12 220.3 40.34 254 1.58M108.63 168.14C166.23 104.08 223.18 39.25 253.62-.11m-137.46 166.8c32.75-39.52 70.33-79.82 141.82-166.82M113.81 167.48C144.38 132.06 173.75 96.5 260.25.11M118.97 166.48C168.65 111.14 218.05 54.62 265.5.43M119.62 166.86C173.15 106.23 224.79 46.69 265.39-.45M124.64 167.49c41.32-47.48 83.86-98.47 146.93-168.1M124.87 167.5C159.7 129.02 192.51 90.53 269.74.46M128.92 168.75C183.77 103.87 238.61 43.13 275.49.16M129.34 167.31C187.75 100.3 246.06 33.6 276.55-.11M134.06 167.5C186.01 111.74 235.44 52.51 280.75-.39M136 166.92c32.46-39.54 65.76-78.29 144.8-167M141.72 166.1c35.11-42.07 72.11-84.47 144.67-167.56M140.22 167.96C193.42 105.68 248.16 42.84 286.97-.07M147.84 168.69c27.65-36.5 59-70.12 142.53-166.98M145.75 166.94c50-57.61 99.46-111.99 145.59-166.95M152.85 167.36c33.68-38.55 66.47-75.3 145.3-166.75M150.54 167.34c35.26-39.7 68.76-77.9 145.74-167.35M156.52 166.47c56.21-65.82 116.04-133.07 145.4-165.3M157.56 166.64c47.06-53.1 94.75-107.11 143.61-167.03M161.3 168.78C206.51 111.82 256.46 60 306.47-.37m-144.23 167C213.01 106.17 265.59 47.19 308.13-.85M166.48 166.01C206.6 124.33 242.97 77.2 311.8-.14M166.19 168.08C215.63 111.44 264.71 54.81 312.88-.49M171.35 166.09c35.36-37.39 67.19-75.16 147-166.48m-145.27 167.4c32.84-37.37 65.11-76.63 145.98-167.45M176.65 167.09c41.1-45.98 80.18-89.93 146.72-166.2M176.76 167.2c52.46-61.07 105-120.33 147.27-167.63M183.89 166.58C215.27 133.4 245.13 99.09 329.64-.29M182.73 167.15C227.18 115.28 274.53 62.94 329.64.36M186.65 166.94c47.11-49.32 89.77-99.77 148.27-167.02M187.83 167.83c48.44-56.38 95.63-113.21 145.4-168.09M194.71 166.69C250.76 102.46 307.51 38.73 340.62-.54m-146.97 168C223.37 134.05 254.78 99.11 340.18.32M197.71 169.28C251.47 107.18 305.28 44.36 344.8.75M198.38 167.51c39.1-44.91 78.83-89 146.09-166.67M203.13 167.52C246.7 119.47 287.74 72.6 350.11 1.2M205 167.54c41.39-49.01 84.67-98.28 144.23-166.36M210.29 166.11c39.65-47.87 79.69-92.44 146.33-166.35M209.7 167.7C253.87 115.83 299.11 64.18 355.82.31M213.76 166.18c36.47-40.26 75.96-85.36 146.06-164.26m-144.56 165.1C254.31 123.39 293.23 78.58 360.5.25M218.86 167.03C278.27 100.12 334.19 35.62 367.19 1.44M219.4 167.71c39.85-44.04 78.23-88.98 146.18-167.79M224.35 167.94c35.22-42.58 71.42-83.53 147.86-168.46M226.53 166.46c31.08-36.6 65.04-74.23 144.63-165.37m-140.2 165.38C268.25 119.89 308.08 75.51 375.1-.59M230.86 167.37c43.78-50.45 88.85-102.26 145.65-167.6m-138.57 167.4c40.46-45.63 80.81-92.81 143-165.45m-144.16 164.7C292.38 103.61 347.81 39.06 382.22.87M241.21 166.09c29.22-34.42 61.73-68.86 144.72-167.21M242.01 167.81c36.46-42.5 71.74-84.34 144.35-168.67M247.25 166.37c50.62-53.18 97.96-111.79 145.49-165.09M247.6 166.67C295 111.75 342.09 56.1 391.85.75M250.41 166.21C295.09 119.05 341 66.86 396.73 1.06M251.42 167.19c39.13-42.95 76.3-84.83 145.98-168.12M257.2 167.54c39.04-44.09 77.13-89.96 144.21-166.04M258.17 167.01C312.56 102.44 368.7 37.34 403.16-.29M263.7 167.46C316.94 107.35 369.06 45.07 408.06 1.51M262.55 166.73C316.1 106.37 369.92 43.74 408.61-.24M269.35 166.95C311.69 118.49 356.32 69.41 413.86.91m-146.01 165.5c39.61-45.16 79.21-90.74 145.1-165.7M271.68 165.68C313.46 119.4 354.31 72.02 418.85-1.3M272.58 168.13C327.08 106.15 380.94 44.97 418.26-.24m-138.79 168.3c45.6-53.16 90.92-107.69 144.6-166.24M278.1 168.1c28.44-35.34 59.26-69.01 146.56-168.73M283.12 167.4C341.87 103.01 396.18 38.56 428.1-.77M283.62 167.51C323.45 120.82 364.35 75.36 430.01.23M288.85 166.36c31.01-32.24 59.23-65.44 146.77-164.63m-146.55 165.3c30.52-35.58 62.8-71.56 144.65-166.59M295.66 167.41c40.7-48.7 79.96-92.8 144.42-168.58M294.91 166.65c43.96-49.11 86.3-98.04 144.99-167.74M298.62 165.98c41.82-46.31 86.23-93.12 147.5-167.48M299.98 167.38c34-39.55 70.05-79.28 145.67-167.74M304.44 167.77c39.01-43.49 76.17-88.09 145.17-163.39M305.45 166.93c37.43-43.54 78.48-89.45 143-164.28m-137.8 165.43C346 125.12 384.3 85.5 448.65 7.22M310.92 168.3c27.98-34.83 57.33-67.16 138.09-159.93m-134.9 157.26C352.53 125.2 390.25 82 447.17 14.86M316.61 166.74c26.82-32.42 55.08-65.3 131.02-152.29M321.83 166.2c37.98-47.94 80.93-92.47 126.48-145.96m-127.05 146.9C367.1 114.53 411.63 61.2 448.38 19.5M327.16 165.44c44.1-49.84 87.79-100.4 119.64-139.82M325.83 167.66c44.27-52.44 88.24-102.25 122.13-141.07m-115.82 139.4c46.48-53.29 90-103.57 116.23-132.53M332.24 167.67c38.42-45.39 75.62-91.06 115.53-134.05M337.7 167.4c40.4-51.8 86.09-98.58 112.71-129.84M336.82 168.04c36.44-44.34 74.06-86.8 111.12-129.32M340.11 169.09c36.39-40.64 67.22-80.61 107.66-124.73M342.63 168.12c30.74-36.99 62.24-73.73 105.15-123.68m-99.52 122.91c34.13-42.59 67.59-80.03 99.04-114.58m-99.98 114.86c40.96-44.98 81.44-92.1 100.62-116.18m-95.67 115c25-26.97 48.04-57.86 94.28-107.22m-93.23 108.46c35.25-44.67 73.6-86.53 94.34-111.18m-90.97 111.18c23.29-26.38 43.06-49.92 91.61-102.19m-90.6 101.25c33.7-38.46 67.33-76.54 91.24-102.55m-83.71 104.24c23.81-27.38 48.41-59.24 85.29-100.44m-88.13 99.61c24.45-27.34 50.05-55.36 86.65-98.47m-79.13 98.09c16.29-19.93 32.44-38.15 76.42-90.11M368 167.3c27.43-28.92 51.79-59.09 80.11-92.11m-72.37 91.63c15.8-20.3 33.15-38.43 72.82-83.8m-74.45 85.14c16.82-20.25 33.01-40.45 74.13-85.96m-70.3 85.01c27.2-29.86 53.62-64.11 72.48-80.5m-71.42 81c19.7-23.73 40.1-45.3 68.83-80.77m-65.23 81.83c26.27-31.01 51.66-55.81 67.42-74.96m-66.04 73.88c14.25-14.89 26.54-30.99 64.65-73.84m-56.75 71.4c14.57-16.36 28.17-37.08 58.48-67.3m-59.22 68.01c18.28-23.16 39.45-45.69 58.22-65.7m-52.65 66.62c10.64-11.99 20.15-23.23 52.57-60.86m-53.6 61.53c20.57-23.87 40.74-47.31 52.56-60.98m-46.94 59.58c12.81-17.15 29.88-34.9 48.72-56.17m-49.07 57.34c16.06-18.49 32.66-38.01 48.2-55.31m-42.05 57.12c9.25-15.17 20.34-26.68 40.77-49.17m-41.77 47.22c10.11-12.44 20.39-24.89 42.76-48.58m-38.06 50.23c12.14-18.2 26.39-34.76 37.92-44.78m-38.12 44.3c14.2-15.24 27.7-31.44 36.61-43.5m-32.36 44.07c7.42-10.39 14.77-18.56 32.2-39.31m-30.7 37.43c8.33-9.16 17.24-18.53 31.27-37.04m-25.5 38.89c5.64-10.34 15.05-18.92 27.72-30.29m-28.83 29.84c7.52-9.13 14.57-16.35 27.69-31.2m-21.55 29.81c7.35-8.08 10.29-14.63 22.03-25.7m-22.46 26.31c5.52-6.45 10.02-11.79 22.63-25.28m-18.59 23.22c4.78-4.12 11.32-11.31 16.13-17.9m-15.44 20.04c6.89-7.25 11.73-12.87 17.59-18.82m-10.07 17.09c2.52-.52 2.2-3.14 8.33-9.61m-9.59 10.31c3.98-4.65 8.1-8.83 11.09-11.98m-5.85 13.28c1.83-3.39 3.11-5.5 5.42-7.57m-6.04 6.83c2.05-1.02 3.58-3.35 6.67-6.45" transform="translate(594.005 201.635)"/><path fill="none" stroke="#1864ab" d="M.17-.19C128.66 1.18 257.14.96 445.26.2M-.46.02C142.7 1.72 285.3 1.85 445.53-.2m.89 1.4c-.96 31.58-.14 65.26-1.44 164.3m.5-165.71c-1.32 53.45-2.23 107.06.58 165.77m-1.06-1.8c-134.45.39-270.28.8-445.62.3m445.96 1.04c-143.84-.9-289.31-.68-445.53-.49m1.73-.45C.25 119.33-1.38 71.46-1.97 1.05M-.5 163.84C1.11 124.82.54 84.41.04.92" transform="translate(594.005 201.635)"/></g><path fill="none" fill-opacity=".9" stroke="#343a40" stroke-linecap="round" stroke-opacity=".9" stroke-width="4" d="M-.35.83c108.1-1.04 215.06-2.58 480.04-3.15M-.43-.4c134.35-1.79 268.12-2 478.92-1.5" transform="translate(575.232 369.593)"/><path fill="none" fill-opacity=".9" stroke="#343a40" stroke-linecap="round" stroke-opacity=".9" stroke-width="4" d="M1.47 1.09C.18-83.2-2.31-166.5-2.55-277.57M-.7-.22c-1.29-66.34-1.17-132.23-1.1-277.6" transform="translate(816.33 368.443)"/><path fill="none" fill-opacity=".3" stroke="#000" stroke-dasharray="1.5 7" stroke-linecap="round" stroke-opacity=".3" stroke-width="1.5" d="M1.09.99c-.84 86.48.15 174.93-.35 275.4" transform="translate(1036.344 91.899)"/><path fill="none" fill-opacity=".3" stroke="#000" stroke-dasharray="1.5 7" stroke-linecap="round" stroke-opacity=".3" stroke-width="1.5" d="M.99.76c.2 72.85.33 143.31-.91 277.99" transform="translate(981.192 91.796)"/><path fill="none" fill-opacity=".3" stroke="#000" stroke-dasharray="1.5 7" stroke-linecap="round" stroke-opacity=".3" stroke-width="1.5" d="M.76-1.12c2.58 109.5 1.26 219.45 1.69 276.94" transform="translate(925.686 91.825)"/><path fill="none" fill-opacity=".3" stroke="#000" stroke-dasharray="1.5 7" stroke-linecap="round" stroke-opacity=".3" stroke-width="1.5" d="M-1.12 1.42c1.61 100.99 2.3 205.42.63 274.53" transform="translate(870.443 92.006)"/><path fill="none" fill-opacity=".3" stroke="#000" stroke-dasharray="1.5 7" stroke-linecap="round" stroke-opacity=".3" stroke-width="1.5" d="M1.42-1.27c-.29 101.29 1.8 201.68-1.78 278.19" transform="translate(759.724 91.843)"/><path fill="none" fill-opacity=".3" stroke="#000" stroke-dasharray="1.5 7" stroke-linecap="round" stroke-opacity=".3" stroke-width="1.5" d="M-1.27-.31c-.88 98.66-1.08 192.8 1.89 278.18" transform="translate(704.617 91.944)"/><path fill="none" fill-opacity=".3" stroke="#000" stroke-dasharray="1.5 7" stroke-linecap="round" stroke-opacity=".3" stroke-width="1.5" d="M-.31-.96c3.92 62.55 1.35 126.77 1.87 276.94" transform="translate(649.14 91.797)"/><path fill="none" fill-opacity=".3" stroke="#000" stroke-dasharray="1.5 7" stroke-linecap="round" stroke-opacity=".3" stroke-width="1.5" d="M-.96 1.4c-1.92 105.98-.41 216.69.63 277.33" transform="translate(593.899 91.277)"/><path fill="none" fill-opacity=".3" stroke="#000" stroke-dasharray="1.5 7" stroke-linecap="round" stroke-opacity=".3" stroke-width="1.5" d="M.8-.88C102.97 1.31 207.84 1.02 477.06.34" transform="translate(575.135 312.402)"/><path fill="none" fill-opacity=".3" stroke="#000" stroke-dasharray="1.5 7" stroke-linecap="round" stroke-opacity=".3" stroke-width="1.5" d="M-.87-.79c134.72-.8 268.28-.31 479.16.23" transform="translate(575.158 257.783)"/><path fill="none" fill-opacity=".3" stroke="#000" stroke-dasharray="1.5 7" stroke-linecap="round" stroke-opacity=".3" stroke-width="1.5" d="M-.79-.24C114.1 1.3 228.39 1.28 478.52-.61" transform="translate(575.112 202.373)"/><path fill="none" fill-opacity=".3" stroke="#000" stroke-dasharray="1.5 7" stroke-linecap="round" stroke-opacity=".3" stroke-width="1.5" d="M-.24.29c186.65 2.39 373.81 1.05 478.71-.54" transform="translate(575.155 146.904)"/><path fill="none" fill-opacity=".3" stroke="#000" stroke-dasharray="1.5 7" stroke-linecap="round" stroke-opacity=".3" stroke-width="1.5" d="M.29-.78c96.48.56 191.13.74 478.54.37" transform="translate(575.04 91.632)"/><path fill="none" fill-opacity=".9" stroke="#343a40" stroke-linecap="round" stroke-opacity=".9" stroke-width="2" d="M-2.06 2.05c-.27-5.97-.07-7.55-.34-14.7M.97 1.1C-.52-2.07.26-5.96-2.23-11.14" transform="translate(818.484 379.745)"/><path fill="none" fill-opacity=".9" stroke="#343a40" stroke-linecap="round" stroke-opacity=".9" stroke-width="2" d="M2.05-2.13c-4-2.68-3.53-5.28-4.48-11.42M1.1-.05C.01-3.47-1.97-9.93-.93-12.03" transform="translate(871.216 379.745)"/><path fill="none" fill-opacity=".9" stroke="#343a40" stroke-linecap="round" stroke-opacity=".9" stroke-width="2" d="M-2.13-1.53c.25-3 .35-7.27-1.21-7.83M-.05.35c.56-4.16-1.71-5.41-1.77-11.5" transform="translate(926.545 379.745)"/><path fill="none" fill-opacity=".9" stroke="#343a40" stroke-linecap="round" stroke-opacity=".9" stroke-width="2" d="M-1.53-1.67c.34-1.92-.38-5.27 2.38-11.28M.35 1C-1.83-5.38-.85-9.37-.94-10.54" transform="translate(981.875 379.745)"/><path fill="none" fill-opacity=".9" stroke="#343a40" stroke-linecap="round" stroke-opacity=".9" stroke-width="2" d="M-1.67-.72c.25-4.93-1.18-6.11-1.06-8.82M1-1.13c-2.46-3.07-2.54-7.61-1.33-9.7" transform="translate(1037.204 379.745)"/><path fill="none" fill-opacity=".9" stroke="#343a40" stroke-linecap="round" stroke-opacity=".9" stroke-width="2" d="M-.72-1.15c-.56-3.33 2.46-5.11 1.4-8.12M-1.13-.98c1.02-2.95.64-4.85.52-10.28" transform="translate(760.557 379.745)"/><path fill="none" fill-opacity=".9" stroke="#343a40" stroke-linecap="round" stroke-opacity=".9" stroke-width="2" d="M-1.15-1.18c-1.06.6-.75-2.25 2.09-10.39M-.98.33c-.2-3.83.88-7.29-.07-12.38" transform="translate(705.228 379.745)"/><path fill="none" fill-opacity=".9" stroke="#343a40" stroke-linecap="round" stroke-opacity=".9" stroke-width="2" d="M-1.18-2.08c3.07-2.02 2.61-.96-.18-8.69M.33-.56C.06-3.52-.1-8.68-1.84-11.29" transform="translate(649.898 379.745)"/><path fill="none" fill-opacity=".9" stroke="#343a40" stroke-linecap="round" stroke-opacity=".9" stroke-width="2" d="M-2.08 2.11C-1.7-1.16 1.64-6.28-.55-9.48M-.56.32c1.43-1.99.45-5.53-.52-11.03" transform="translate(594.569 379.745)"/><text x="7.838" dominant-baseline="text-before-edge" font-family="Virgil, Segoe UI Emoji" font-size="14.755" style="white-space:pre" text-anchor="middle" transform="translate(589.873 386.433)">-4</text><text x="4.611" dominant-baseline="text-before-edge" font-family="Virgil, Segoe UI Emoji" font-size="14.755" style="white-space:pre" text-anchor="middle" transform="translate(1035.736 386.433)">4</text><text x="5.072" dominant-baseline="text-before-edge" font-family="Virgil, Segoe UI Emoji" font-size="14.755" style="white-space:pre" text-anchor="middle" transform="translate(979.946 386.433)">3</text><text x="5.533" dominant-baseline="text-before-edge" font-family="Virgil, Segoe UI Emoji" font-size="14.755" style="white-space:pre" text-anchor="middle" transform="translate(924.155 386.433)">2</text><text x="1.844" dominant-baseline="text-before-edge" font-family="Virgil, Segoe UI Emoji" font-size="14.755" style="white-space:pre" text-anchor="middle" transform="translate(872.514 386.433)">1</text><text x="5.072" dominant-baseline="text-before-edge" font-family="Virgil, Segoe UI Emoji" font-size="14.755" style="white-space:pre" text-anchor="middle" transform="translate(813.958 386.433)">0</text><text x="5.072" dominant-baseline="text-before-edge" font-family="Virgil, Segoe UI Emoji" font-size="14.755" style="white-space:pre" text-anchor="middle" transform="translate(758.628 386.433)">-1</text><text x="8.299" dominant-baseline="text-before-edge" font-family="Virgil, Segoe UI Emoji" font-size="14.755" style="white-space:pre" text-anchor="middle" transform="translate(700.071 386.433)">-2</text><text x="7.838" dominant-baseline="text-before-edge" font-family="Virgil, Segoe UI Emoji" font-size="14.755" style="white-space:pre" text-anchor="middle" transform="translate(645.203 386.433)">-3</text><text x="119" dominant-baseline="text-before-edge" font-family="Virgil, Segoe UI Emoji" font-size="24.691" style="white-space:pre" text-anchor="middle" transform="translate(696.64 10)">Uniform Distribution</text><text x="32" dominant-baseline="text-before-edge" font-family="Virgil, Segoe UI Emoji" font-size="22.94" style="white-space:pre" text-anchor="middle" transform="translate(784.79 38.47)">μ = 0</text><path fill="none" stroke="#000" stroke-linecap="round" stroke-width="2" d="M-.58.33c13.5-.1 67.3-.27 80.61-.58M1.31-.54c13.52-.48 65.4-1.49 78.28-1.49" transform="translate(772.657 74.407)"/><text x="32" dominant-baseline="text-before-edge" font-family="Virgil, Segoe UI Emoji" font-size="22.94" style="white-space:pre" text-anchor="middle" transform="translate(223.692 41.063)">μ = 0</text><path fill="none" stroke="#000" stroke-linecap="round" stroke-width="2" d="M.01-.41c13.38-.01 67.16.16 80.21.07M-1.44-1.68c13.33-.33 67.61-.81 81.31-.48" transform="translate(211.56 77)"/></svg>