<svg xmlns="http://www.w3.org/2000/svg" width="1001.265" height="1004.304" viewBox="0 0 500.633 502.152"><defs><style>@font-face {
        font-family: &quot;Virgil&quot;;
        src: url(&quot;/assets/woff2/Virgil.woff2&quot;);
      }
      @font-face {
        font-family: &quot;Cascadia&quot;;
        src: url(&quot;/assets/woff2/Cascadia.woff2&quot;);
      }</style></defs><g fill-rule="evenodd" stroke-linecap="round"><path fill="none" stroke="#7950f2" stroke-width=".5" d="M180.91-238.92s0 0 0 0m0 0s0 0 0 0m-21.48 28.55c13.55-15.66 27.41-30.22 35.55-37.19m-33.43 37.58c6.3-9.06 13.61-17.74 31.93-38.28m-38.69 49.45c18.76-20.02 33.87-35.47 51.02-55.74m-49.83 56.21c17.91-20.81 36.05-41.07 48.79-55M-14.73 4.42s0 0 0 0m0 0s0 0 0 0m162.76-186.09c18.06-21.11 31.32-37.54 63.13-70.17m-62.21 68.7c18.57-24.39 40.4-46.94 60.58-70.27M-8.74 2.84c1.59-1 2.36-1.77 3.77-2.98m-3.25 3.43c.61-1.31 1.8-2.16 2.84-3.55m.22-.27c.81-1.5 2.26-2.36 2.85-3.38M-5.17-.36c.68-.86 1.57-1.75 2.47-3.03m142.64-163.52c16.59-20.51 32.18-36.63 70.98-84.87m-70.6 84.41c24.16-29.08 50.45-59.14 72.33-84.17M-2.2 1.97c.49-.17.87-.72 1.3-1.43m-1.27 1.5c.45-.47.95-1.1 1.4-1.48M.46-.84C2.5-2.8 4.77-5.46 6.13-6.35M.3-1.29C2.76-3.5 4.21-5.94 5.59-7.13m130.38-149.55c28.48-33.66 55.75-65.13 78.11-93.74m-80.37 96.43c16.94-21.59 35.1-40.92 82.27-94.64M5.91-1.55c1.81-.55 6.04-4.07 7.83-9.5M5.85-.21c1.93-3.37 4.95-6.44 9.2-10.38m114.31-132.35c32.45-37.87 61.77-72.67 90.77-102.69M128.8-142.97c22.88-25.39 46.04-53.46 91.53-102.92M11-2.53c4.04-2.91 8.39-5.13 11.14-13.79M11.03.01c5.3-5.87 10.49-12.65 12.82-15.64m97.66-115.25c21.17-22.15 40.78-45.36 100.39-112.98m-98.25 113.88c21.67-26.39 47.12-54.39 99.35-113.37M14.83-.78c6.63-4.19 9.46-8.67 18.46-17.27M16.05-1.54c3.68-3.18 8.98-8.91 15.58-18.58m86.27-98.16c31.78-32.63 59.74-68.53 106.09-121.01M118-117.53c39.92-46.64 81.59-93.12 105.96-123.3M22.58.84c7.94-11.81 15.77-19.19 19.5-27.25M21.82.43c6.36-9.98 15-17.59 21.14-25.96m68.4-79.46c28.18-33.63 62.67-71 115.57-132.2M112.47-105.22c37.53-44.13 76.39-89.28 115.22-132.01M26.54 1.23c4.74-8.94 14.24-17.12 27.62-30.32M26.97-1.04c5.49-6.19 12.02-12.41 25.57-28.9m49.53-58.95c38.39-40.4 74.49-79.13 127.87-143.46M102.58-89.73c33.35-33.93 63.71-68.96 127.3-143.31M32.36-.65c13.55-16.09 30.43-34.99 38.07-44.73M31.96-1.06c10.19-9.4 18.21-21.26 39.8-45.01m18.92-21.26c27.52-30.49 57.28-65.64 140.89-162.65M89.94-66.36c43.94-49.93 88.03-99.79 142.07-164.65M36.08.42C85.31-53.7 131.44-107.21 235.3-228.13M37.65-.25c57.52-66.16 115.02-132.55 196-227.23M43.56-.67c59.4-65.88 116.84-133.97 191.84-220.95M41.65-.09c72.58-86.26 146.52-170.92 193.74-222.48M46.66-.54c46.31-54.16 93.16-108.85 192.76-219.4M48.13-.45c45.3-53.17 92.92-108.39 190.65-219.22M54.49-1.14c47.14-52.49 91.52-104.72 186.52-215.49M52.4-.93c37.97-43 75.84-87.32 188.95-214.72M59.72-1.98c72.34-82.61 146.09-168.62 183.6-210.54M59.33-.07c65.11-74.44 130.24-149.97 182.95-213.05M62.49-.83c45.49-53.5 91.89-105.71 181.97-206.76M64.08-.29c66.29-76.45 132.47-153.55 180.74-208.32M69.33-.69c61.45-71.46 124.83-143.2 176.49-205.04M69.09-.61c36.51-44.87 74.14-88.63 177.38-205.23M74.76-1.64c62.64-70.57 125.48-141.81 174.52-198.45M73.86 0c58.87-66.43 116.96-133.3 174.78-200.81M80.62-.61c40.55-44.79 79.92-94.29 171.09-197.47M79.08-.06c68.76-77.48 136.33-155.02 170.91-196.67M84.04.57c65.05-71.79 128.57-146.3 166.89-194.6M84.18.13c39.17-45.66 78.26-91.53 168.58-193.66M90.82-.48c50.05-56.71 99.71-114.21 161.48-189.31M89.72-.46c37.79-42.58 75.99-86.65 163.69-188.42M96.74.14c43.99-50.82 89.78-104.32 158.44-186.32M95.1-.82c42.01-49.16 83.44-97 159.97-184.21M100.95 1.55c37.79-42.7 75.52-87.8 157.6-182.07M100.95-.25C134.78-40.9 172.05-83.14 257.37-181M107.43.78c40.37-48.23 80.17-94.55 152.18-177.55M105.72.07c41.56-46.26 82.63-92.7 152.81-175.59M112.25 1.3c35.77-42.97 71.19-82.34 146.72-174.15M111.58-.56c35.18-42.81 73.93-86.7 149.3-171.48M118.21-.66c38.51-47.23 80.09-95.58 144.8-166.28M117.5-.34C172.4-64.46 227-128.76 261.35-167.88M121.97-.86c54.39-61.99 109-126.28 143.18-160.84M121.89.57c47.46-53.92 94.34-107.67 142.02-163.18M128.37-.07c37.12-45.81 74.33-90.78 136.53-157.5M126.82-.62c56.05-62.48 110.78-126.6 137.82-158.96M133.66.59c33.16-36.95 66.79-75.93 133.73-154.3M132.08-.36C166-40.32 201.7-81.65 266.87-155.76M136.67.91c51.25-57.46 101.19-116.42 131.13-152.86M138.02.93c45.96-54.66 94.09-107.99 129.71-151.02M143.24-1.54C178-38.41 208.3-76.91 271.1-145.47M142.12-.23c27.6-31.74 54.88-61.92 127.05-144.86M148.57-1.55c38.12-42.42 79.1-88.26 123.71-141.14M148.76-.39c23.25-27.13 48.51-55.81 123.1-141.01M153.02-1.92c45.94-45.35 87.32-95.82 120.74-134.02M154.09.4c36.77-43.32 74.65-85.75 119.08-137.16M160.15-.46c40.62-52.26 84.44-101.83 115.76-133.26M158.16.14c35.4-40.27 70.41-80.37 115.79-133.94M165.14-1.11c40.33-47.34 79.06-91.25 111.05-128.65M163.69.42c29.17-31.69 57.08-64.34 112.32-128.92M168.59-1.09c23.9-26.23 50.79-55.77 108.34-123.88M170.15.02c32.77-38.07 67.37-78.11 107.99-125.36M172.29-1.27c40.74-43.51 76.63-86.3 109.51-120.24M173.88 1.16C203.51-34.98 235.05-70.42 281-122.78M180.36-1.05c35.76-41.12 72.94-82.09 102.56-115.39M179.51-.61c37.19-40.26 74.22-83.56 102.94-117.55M184.42-1.18c34.91-40.8 71.69-79.96 100.89-110.67M185.44 1.34c25.45-30.72 52.2-60.21 98.91-114.51M191.27 1.77c20.1-26.37 38.45-45.71 95.46-110.48M189.87-.94c22.31-23.39 42.09-47.3 94.83-108.07M196.82.37c17.28-23.76 35.71-44.6 91.27-103.62M194.99-.41c33.01-36.62 64.82-72.36 91.39-103.67M202.43 1.14c16.08-23.9 34.27-43.47 85.46-101.02M201.68.49c31.61-34.94 61.46-70.13 88.22-100.71M204.77 1.49c23.91-26.66 44.81-52.08 86.66-98.99M205.68-.56c26.86-30.73 53.35-61.08 85.23-97.74M212.25-1.47c17-16.65 33.47-35.97 82.29-94.45M212.28-.21c21.73-23.93 40.95-46.08 81.95-93.77M214.85 1.99c28.58-36.24 59.68-65.94 81.85-92.68M216.5.11c20.87-24.45 41.91-49.5 78.85-90M219.83-.16C249.66-34 282.02-66.58 298.84-85.3M221.15.51c23.86-26.5 47.84-54.05 77.28-87.56M228.93-.62c15.19-18.84 34.02-35.68 69.57-83.11M228.26.44c22.43-27.31 44.77-54.76 71.62-83.25M231.51.42c22.55-27 45.75-51.38 72.06-79.03M232.6.55c27.59-30.73 54.63-60.71 69.75-80.86M236.24.85c19.42-22.11 39.09-41.72 70.55-76.44M237.65.94c20.76-24.06 40.64-47.14 67.91-77.05M245.01 1.55c11.82-17.12 23.46-33.26 63.83-76.01M243.83.76c22.36-27.39 46.47-55.45 63.89-73.46M249.28-.75c24.16-26.49 46.49-52.25 60.21-69.54M249.18-.24c15.45-17.54 31.36-35.81 59.78-70.67M251.99-.56c15.9-11.69 25.19-25.21 58.73-65.98M253.52-.12c13.57-14.8 29.45-33.02 59.26-66.18M259.89 1.17c17.4-21.19 35.35-42.11 56.6-66.11M259.2.75c20.41-22.21 38.99-44.82 54.94-65.18M265.44 2c13.94-15.45 24.88-34.51 51.82-61.61M265.2 1.31c13.18-16.1 27.82-32.84 53.07-61.55M270.54-.4c15.66-22.54 36.35-44.65 51.15-59.04M269.26.12c18.45-19.45 35.52-40.23 51.44-57.88M275.67.83c13.16-15.38 26.98-29.28 47.51-56.81M275.25 1.11c15.14-19.97 31.47-38.31 48.85-56.38M281.02-1.04c11.27-14.11 24.74-24.81 44.58-50.48M280.72 1.49c15.84-18.71 30.9-37.92 45.65-54.28M286.27-.8c14.2-18.6 32.73-34.49 43.54-50.72M284.89-.02c9.51-11.31 19.26-21.24 44.49-49.71M292.42-.36c8.01-8.64 18.65-20 40.98-46.09M290.82.42c10.73-13.13 20.33-25.1 42.28-48.48M294.17.08c11.39-12.98 20.92-21.02 41-46m-39 47.22c14.99-18.25 28.44-35.05 40.22-47.08M301.82-1.05c12.74-15.96 28.45-28.49 36.43-43.27M301.29 1.36c10.21-13.49 22.32-25.29 37.07-45.24M305.61 2.13c16.51-16.23 26.3-32.98 36.95-41.06M306 1.09c10.13-12.09 19.73-23.81 35.25-40.8M313.62-.11c6.31-9.47 17.63-20.43 30.99-35.69M311.71.39c9.52-11.68 20.16-22.95 32.72-38.61M316.14-.31c7.46-8.01 16.73-17.53 33.78-36.07M318.13.03c9.13-12.44 21.1-24.91 31.1-35.92M323.53-.86c5.28-6.35 14.89-19.42 28.03-32.51M321.49 1.28c6.76-7.75 15.38-17.41 32.25-35.15M325.95-.46c10.35-8.39 17.27-16.58 29.25-34.16M326.51.2c10.39-10.99 22.15-24.05 29.66-33.46M334.55-.93c8.18-9.09 14.87-16.21 24.35-31.6M333.91 1.45c6.13-9.15 12.08-16.33 27.08-33.16M338.54 1.9c7.48-11.35 13.43-18.82 26.43-31.76M337.87.1c7.45-6.43 14.17-14.99 27.17-28.74M345.02-.24c7.85-11.24 16.27-18.89 22.66-29.41M344.07-.04c5.58-5.28 12.59-12.86 23.56-28.42M348.74.91c9.15-8.1 15.73-20.32 25.05-26.25M347.84 1.13c5.88-5.05 9.66-11.53 23.49-27.06M352.57-1.05c6.2-3.71 12.57-13.43 25.06-21.33M354.92 1.54c6.31-9.45 13.57-15.71 20.44-26.72M357.34 1.69c8.17-6.95 9.78-9.97 24.21-26.06M359.56.58c4.77-5.25 8.2-10.29 20.84-23.69M366.17.07c5.65-8.97 12.41-14.47 17.59-19M365.26.58c5.65-5.64 9.94-11.71 17.42-21.13M370.44 1c3.54-4.7 10.78-14.62 15.63-20.58M368.97.43c4.11-4.82 9.12-9.85 19.11-19.95M373.43 1c5.32-6.4 11.95-9.52 16.98-16.84M375.08 1.87c5.2-8.33 11.86-14.32 15.85-20.45M379.49-.69c5.36-3.63 12.71-12.06 14.39-14.21M380.91 1.3c5.22-6.78 10.57-12.12 14.49-17.13m-8.17 18.88c-.49-3.56 4.47-10.59 10.03-18.76M386.17 1.6c3.14-6.72 9.7-11.96 12.15-15.95M389.4.79c5-3.49 10.42-9.98 12.18-12.5M391.04.48c4.33-3.47 7.14-6.81 12.77-12.63M397.48-.18c.24-.66 2.63-2.89 10.17-11.94M396.2 1.73c3.35-4.59 8.17-9.56 10.38-12.96M401.7 1.1c2.32-3.38 4.88-5.56 8.32-10.9m-8.21 11.26c2.86-3.33 4.93-5.51 8.5-10.87M407.11.77c2.73-1.85 4.04-4.46 6.15-6.86m-6.15 7.55c2-3.26 3.96-4.8 6.64-8.67M412.32.57c2.32-1.3 4.05-3.36 5.33-5.29M412.51.45c1.4-1.42 3.02-3.18 4.96-5.38m-.04 6.32c.44-1.42 2.15-2.27 4.48-5.72m-4.41 5.67c.96-1.57 1.71-2.89 4.73-5.56M422 1.57c1.11-1.5 2.32-2.05 3.86-4.3m-3.31 4.09c1.19-1.11 2.34-2.5 2.93-3.77m2.66 3.53c.19-.38.52-.95 1.1-1.34m-1.1 1.24c.39-.4.97-1.15 1.24-1.49" transform="translate(46.882 366.79)"/><path fill="none" stroke="#5f3dc4" d="M-.28 0c-2.07-.21-26.07 8.13-12.16-1.65 13.9-9.79 67.68-23.81 95.58-57.04 27.9-33.24 51.65-109.9 71.82-142.37 20.17-32.46 33.91-52.02 49.2-52.41 15.29-.39 28.81 25.47 42.55 50.07 13.75 24.6 25.4 71.38 39.93 97.53 14.53 26.14 25.38 42.76 47.25 59.36 21.86 16.6 75.69 32.6 83.96 40.24 8.27 7.64 36.47 4.88-34.36 5.61-70.82.72-325.75-.89-390.6-1.25m8.88.86c-1.68 0-25.35 10.12-11.9.7 13.45-9.42 64.98-23.88 92.6-57.24 27.62-33.36 52.51-110.4 73.14-142.91 20.62-32.5 35.76-51.51 50.6-52.12 14.85-.61 24.95 23.69 38.47 48.46 13.53 24.77 27.45 73.44 42.7 100.17 15.24 26.72 27.29 43.56 48.76 60.19 21.48 16.63 72.15 32.55 80.07 39.61 7.93 7.06 38 2.16-32.54 2.74C313.14-.88 58.05-.4-6.98-.75" transform="translate(46.882 366.79)"/></g><path fill="none" fill-opacity=".9" stroke="#343a40" stroke-linecap="round" stroke-opacity=".9" stroke-width="4" d="M-.55-.32c128.2-.4 256.14-1.29 479.26-.65M-.3-.26c160.14-.55 320.69-1.52 478.96-1.47" transform="translate(10.92 369.593)"/><path fill="none" fill-opacity=".9" stroke="#343a40" stroke-linecap="round" stroke-opacity=".9" stroke-width="4" d="M-.57.24c-.31-75.87-1.48-153.79.41-276.97M-.46-.75c-.25-95.18-1.46-191.04-1.05-276.29" transform="translate(252.018 368.443)"/><path fill="none" fill-opacity=".3" stroke="#000" stroke-dasharray="1.5 7" stroke-linecap="round" stroke-opacity=".3" stroke-width="1.5" d="M.24-.52c-.3 82.37-1.29 168.02 1.34 278.57" transform="translate(472.033 91.899)"/><path fill="none" fill-opacity=".3" stroke="#000" stroke-dasharray="1.5 7" stroke-linecap="round" stroke-opacity=".3" stroke-width="1.5" d="M-.52.98C-1.87 65.33.83 131.86 1.74 277.58" transform="translate(416.881 91.796)"/><path fill="none" fill-opacity=".3" stroke="#000" stroke-dasharray="1.5 7" stroke-linecap="round" stroke-opacity=".3" stroke-width="1.5" d="M.98-1.34c-.7 75.48.44 148.07.29 277.64" transform="translate(361.375 91.825)"/><path fill="none" fill-opacity=".3" stroke="#000" stroke-dasharray="1.5 7" stroke-linecap="round" stroke-opacity=".3" stroke-width="1.5" d="M-1.34-.33C.73 88.02.63 175.2-.01 276.44" transform="translate(306.132 92.006)"/><path fill="none" fill-opacity=".3" stroke="#000" stroke-dasharray="1.5 7" stroke-linecap="round" stroke-opacity=".3" stroke-width="1.5" d="M-.33 1.12c2.5 73.4 2.47 145.47.46 274.74" transform="translate(195.413 91.843)"/><path fill="none" fill-opacity=".3" stroke="#000" stroke-dasharray="1.5 7" stroke-linecap="round" stroke-opacity=".3" stroke-width="1.5" d="M1.12.53C-.78 101.09-2.15 200.81-.45 277.45" transform="translate(140.307 91.944)"/><path fill="none" fill-opacity=".3" stroke="#000" stroke-dasharray="1.5 7" stroke-linecap="round" stroke-opacity=".3" stroke-width="1.5" d="M.53.7c-.54 57.4-1.46 116.12.61 276.18" transform="translate(84.83 91.797)"/><path fill="none" fill-opacity=".3" stroke="#000" stroke-dasharray="1.5 7" stroke-linecap="round" stroke-opacity=".3" stroke-width="1.5" d="M.7.22C.79 76.36.64 154.64.57 275.92" transform="translate(29.588 91.277)"/><path fill="none" fill-opacity=".3" stroke="#000" stroke-dasharray="1.5 7" stroke-linecap="round" stroke-opacity=".3" stroke-width="1.5" d="M.13-.6C177.05-1.37 355.2-.36 475.46.68" transform="translate(10.824 312.402)"/><path fill="none" fill-opacity=".3" stroke="#000" stroke-dasharray="1.5 7" stroke-linecap="round" stroke-opacity=".3" stroke-width="1.5" d="M-.6-.52c160.09.28 320.99-.58 479.23.29" transform="translate(10.847 257.783)"/><path fill="none" fill-opacity=".3" stroke="#000" stroke-dasharray="1.5 7" stroke-linecap="round" stroke-opacity=".3" stroke-width="1.5" d="M-.52-.84C165.39 1.17 329.87.98 478.85.27" transform="translate(10.8 202.373)"/><path fill="none" fill-opacity=".3" stroke="#000" stroke-dasharray="1.5 7" stroke-linecap="round" stroke-opacity=".3" stroke-width="1.5" d="M-.84.05C150.41.43 300.9 1 479.35.83" transform="translate(10.844 146.904)"/><path fill="none" fill-opacity=".3" stroke="#000" stroke-dasharray="1.5 7" stroke-linecap="round" stroke-opacity=".3" stroke-width="1.5" d="M.05-.27C110.08 1.56 221.52 2.28 479.9-.4" transform="translate(10.73 91.632)"/><path fill="none" fill-opacity=".9" stroke="#343a40" stroke-linecap="round" stroke-opacity=".9" stroke-width="2" d="M-.71-2.15c-.6-1.28.99-1.23-1.65-7.91M-.44.71c-.87-4.62.65-6.87.12-11.88" transform="translate(251.576 379.745)"/><path fill="none" fill-opacity=".9" stroke="#343a40" stroke-linecap="round" stroke-opacity=".9" stroke-width="2" d="M-2.15-1.23c1.21-.45 3.76-4.54 2.3-10.98M.71-.76C-1.36-3.42-1.02-8.08-.95-11.31" transform="translate(306.905 379.745)"/><path fill="none" fill-opacity=".9" stroke="#343a40" stroke-linecap="round" stroke-opacity=".9" stroke-width="2" d="M-1.23-.67c1.57-.73-.58-4.97-.76-8.67m1.23 8.5c1.55-2.71 1-5.95-.33-9.65" transform="translate(362.234 379.745)"/><path fill="none" fill-opacity=".9" stroke="#343a40" stroke-linecap="round" stroke-opacity=".9" stroke-width="2" d="M-.67.66C2.01-4.21.94-6.92.88-11.24M-.84 1.09c.36-3.18.34-6.95.57-12.21" transform="translate(417.564 379.745)"/><path fill="none" fill-opacity=".9" stroke="#343a40" stroke-linecap="round" stroke-opacity=".9" stroke-width="2" d="M.66 2.14c-1.91-3.11-1.8-4.76-1.69-14.49M1.09-.01C.63-3.86-.59-7.33-.91-12.1" transform="translate(472.893 379.745)"/><path fill="none" fill-opacity=".9" stroke="#343a40" stroke-linecap="round" stroke-opacity=".9" stroke-width="2" d="M2.14-1.11c-.98-2.45-.56-4.32-4.27-8.94M-.01.94C.18-2.5.56-5-1.89-11.36" transform="translate(196.246 379.745)"/><path fill="none" fill-opacity=".9" stroke="#343a40" stroke-linecap="round" stroke-opacity=".9" stroke-width="2" d="M-1.11 1.41c-.03-2.36.59-8.48 1.28-14.4M.94.3C-.34-1.62-.44-5.84-1.14-11" transform="translate(140.917 379.745)"/><path fill="none" fill-opacity=".9" stroke="#343a40" stroke-linecap="round" stroke-opacity=".9" stroke-width="2" d="M1.41-.74c.1-2.81-3.33-5.39-4.18-12.41M.3.16C.49-4.16-1.62-8.92-.78-12.48" transform="translate(85.587 379.745)"/><path fill="none" fill-opacity=".9" stroke="#343a40" stroke-linecap="round" stroke-opacity=".9" stroke-width="2" d="M-.74 2.13c.58-7.5 1.29-12.64-2.2-11.41M.16.98c-.38-5.03-.98-7.36-2.43-12.01" transform="translate(30.258 379.745)"/><text x="7.838" dominant-baseline="text-before-edge" font-family="Virgil, Segoe UI Emoji" font-size="14.755" style="white-space:pre" text-anchor="middle" transform="translate(25.563 386.433)">-4</text><text x="4.611" dominant-baseline="text-before-edge" font-family="Virgil, Segoe UI Emoji" font-size="14.755" style="white-space:pre" text-anchor="middle" transform="translate(471.425 386.433)">4</text><text x="5.072" dominant-baseline="text-before-edge" font-family="Virgil, Segoe UI Emoji" font-size="14.755" style="white-space:pre" text-anchor="middle" transform="translate(415.635 386.433)">3</text><text x="5.533" dominant-baseline="text-before-edge" font-family="Virgil, Segoe UI Emoji" font-size="14.755" style="white-space:pre" text-anchor="middle" transform="translate(359.844 386.433)">2</text><text x="1.844" dominant-baseline="text-before-edge" font-family="Virgil, Segoe UI Emoji" font-size="14.755" style="white-space:pre" text-anchor="middle" transform="translate(308.203 386.433)">1</text><text x="5.072" dominant-baseline="text-before-edge" font-family="Virgil, Segoe UI Emoji" font-size="14.755" style="white-space:pre" text-anchor="middle" transform="translate(249.647 386.433)">0</text><text x="5.072" dominant-baseline="text-before-edge" font-family="Virgil, Segoe UI Emoji" font-size="14.755" style="white-space:pre" text-anchor="middle" transform="translate(194.317 386.433)">-1</text><text x="8.299" dominant-baseline="text-before-edge" font-family="Virgil, Segoe UI Emoji" font-size="14.755" style="white-space:pre" text-anchor="middle" transform="translate(135.76 386.433)">-2</text><text x="7.838" dominant-baseline="text-before-edge" font-family="Virgil, Segoe UI Emoji" font-size="14.755" style="white-space:pre" text-anchor="middle" transform="translate(80.892 386.433)">-3</text><text x="177.228" dominant-baseline="text-before-edge" font-family="Virgil, Segoe UI Emoji" font-size="24.691" style="white-space:pre" text-anchor="middle" transform="translate(74.1 10)">Standard Normal Distribution</text><text x="79.5" dominant-baseline="text-before-edge" font-family="Virgil, Segoe UI Emoji" font-size="22.94" style="white-space:pre" text-anchor="middle" transform="translate(172.979 38.47)">μ = 0 , σ = 1 </text><path fill="none" stroke="#000" stroke-linecap="round" stroke-width="2" d="M.17 1.02c29.9-.3 150.19-2.3 180.18-2.54M-1.2.51C28.49.32 149.49.17 179.59-.32" transform="translate(156.917 71.193)"/><path fill="none" stroke="#5f3dc4" stroke-linecap="round" d="M.6.19C19.09.16 93.38.78 112.12.53M-.55-.76c18.23-.4 92.77-.36 111.64-.31" transform="translate(200.586 428.64)"/><path fill="none" stroke="#5f3dc4" stroke-linecap="round" d="M.22.39c-.06 1.74.33 8.1.47 9.57M-1.13-.45c-.25 2.01.9 10.27 1.24 12.04" transform="translate(312.639 423.407)"/><path fill="none" stroke="#5f3dc4" stroke-linecap="round" d="M.93-.14C.89 1.37-.87 7.98-.87 9.45m.83-10.7C.35.39 1.27 9.04 1.39 10.81" transform="translate(199.44 422.94)"/><path fill="none" stroke="#5f3dc4" stroke-linecap="round" d="M-.59-.16C36.04-.21 182.2-.62 218.87-.52M1.3-1.29C38.37-1.15 184.81.81 220.98.75" transform="translate(140.12 455.521)"/><path fill="none" stroke="#5f3dc4" stroke-linecap="round" d="M.58-.86C.41.87.41 7.33.12 9.27m-.7-7.96c-.41 1.97-.47 7.95-.19 9.23" transform="translate(139.813 449.494)"/><path fill="none" stroke="#5f3dc4" stroke-linecap="round" d="M.48-.1C.4 1.66-.41 7.81-.68 9.44M-.72-1.2c.32 2.03 2.08 9.97 2.39 12" transform="translate(360.62 450.891)"/><path fill="none" stroke="#5f3dc4" stroke-linecap="round" d="M.59-.28C56.7-.45 281.31-1.46 337.38-1.59M-.56-1.48c55.98-.01 281.38.6 337.57.84" transform="translate(82.826 483.358)"/><path fill="none" stroke="#5f3dc4" stroke-linecap="round" d="M.01.55c-.17 1.44.26 7.48.17 8.98M-1.45-.2c-.41 1.53.8 9.31.77 11.14" transform="translate(82.98 476.978)"/><path fill="none" stroke="#5f3dc4" stroke-linecap="round" d="M-1.06-.86c0 1.75.13 10.16.2 11.78M.58 1.3c.46 1.41 1.2 6.7.82 8.1" transform="translate(420.713 479.307)"/><text x="25.602" fill="#5f3dc4" dominant-baseline="text-before-edge" font-family="Virgil, Segoe UI Emoji" font-size="15.172" style="white-space:pre" text-anchor="middle" transform="translate(231.136 409.988)">68.2%</text><text x="23.5" fill="#5f3dc4" dominant-baseline="text-before-edge" font-family="Virgil, Segoe UI Emoji" font-size="15.172" style="white-space:pre" text-anchor="middle" transform="translate(232.306 437.473)">95.4%</text><text x="22.5" fill="#5f3dc4" dominant-baseline="text-before-edge" font-family="Virgil, Segoe UI Emoji" font-size="15.172" style="white-space:pre" text-anchor="middle" transform="translate(233.306 465.889)">99.7%</text><text x="9.5" fill="#5f3dc4" dominant-baseline="text-before-edge" font-family="Virgil, Segoe UI Emoji" font-size="16" style="white-space:pre" text-anchor="middle" transform="translate(318.045 419.046)">1σ </text><text x="13.5" fill="#5f3dc4" dominant-baseline="text-before-edge" font-family="Virgil, Segoe UI Emoji" font-size="16" style="white-space:pre" text-anchor="middle" transform="translate(366.685 444.667)">2σ </text><text x="13" fill="#5f3dc4" dominant-baseline="text-before-edge" font-family="Virgil, Segoe UI Emoji" font-size="16" style="white-space:pre" text-anchor="middle" transform="translate(425.415 472.152)">3σ </text></svg>