<svg xmlns="http://www.w3.org/2000/svg" width="992.357" height="298.446" viewBox="0 0 496.178 149.223"><defs><style>@font-face {
        font-family: &quot;Virgil&quot;;
        src: url(&quot;/assets/woff2/Virgil.woff2&quot;);
      }
      @font-face {
        font-family: &quot;Cascadia&quot;;
        src: url(&quot;/assets/woff2/Cascadia.woff2&quot;);
      }</style></defs><g stroke-linecap="round"><path fill="#ced4da" stroke-width="0" d="M39.07-.67c7.16-1.2 16.56 2.04 23.57 5.27 7 3.24 14.33 8.1 18.46 14.13 4.13 6.03 6.77 14.96 6.3 22.07-.46 7.1-4.26 14.93-9.09 20.58-4.83 5.64-12.46 10.92-19.86 13.29-7.4 2.36-17.1 2.5-24.53.9-7.43-1.61-14.48-5.83-20.07-10.54C8.26 60.31 2.36 53.97.37 47.27c-1.98-6.7-1.13-15.84 1.58-22.45 2.7-6.61 7.18-13.22 14.65-17.2C24.06 3.63 40.64 1.83 46.74.9c6.11-.93 6.65.5 6.48 1.13m-19.93-.39c6.95-1.7 17.54.09 24.85 2.2 7.31 2.11 14.49 5.03 19.02 10.45 4.52 5.42 7.27 15.21 8.13 22.07.86 6.86.71 12.94-2.98 19.07-3.69 6.14-11.84 14.09-19.16 17.72-7.31 3.63-16.9 4.73-24.73 4.05-7.84-.68-16.28-3.62-22.26-8.13-5.98-4.5-11.11-12.26-13.64-18.89C-.01 43.55-.92 36.07.98 29.27 2.89 22.48 8.26 14.29 13.96 9.4c5.7-4.89 17.58-8.29 21.22-9.46 3.64-1.17.8 1.49.63 2.42" transform="translate(10 62.835)"/><path fill="none" stroke="#000" stroke-width="2" d="M40.34.45c7.3-1.01 17.65 1.49 24.47 4.7 6.82 3.2 12.95 8.47 16.45 14.53 3.49 6.07 5.17 15.01 4.52 21.85-.65 6.85-3.76 13.78-8.43 19.22-4.67 5.43-12.23 10.8-19.57 13.39s-16.85 3.7-24.48 2.16c-7.63-1.53-15.73-6.31-21.3-11.36C6.43 59.88 1.52 52.71-.12 45.98c-1.64-6.73-.84-15.1 2.27-21.4 3.12-6.29 9.28-12.35 16.42-16.36C25.71 4.2 40.1 1.74 44.97.49c4.87-1.25 2.93-.35 2.82.24M36.03.87C43.73-.84 55.17-.18 62.41 2.4c7.25 2.59 12.86 8 17.1 14 4.24 6 8.36 14.8 8.32 22.02-.03 7.21-3.97 15.77-8.51 21.26-4.54 5.48-11.73 8.89-18.73 11.67-7 2.78-15.49 5.9-23.27 5-7.78-.9-17.71-5.64-23.4-10.39-5.69-4.75-8.67-11.51-10.73-18.09-2.06-6.58-3.57-15.21-1.63-21.39 1.94-6.17 7.59-11.17 13.29-15.67 5.7-4.49 17.36-9.76 20.91-11.29 3.54-1.54.16 1.11.38 2.09" transform="translate(10 62.835)"/></g><g stroke-linecap="round"><path fill="#ced4da" stroke-width="0" d="M50.14 1.03c7.34.38 15.86 4.61 21.55 8.98 5.68 4.37 10.44 10.85 12.56 17.22 2.12 6.38 2.21 14.33.17 21.03-2.05 6.7-6.71 14.47-12.46 19.19-5.76 4.72-14.44 8.34-22.08 9.13-7.65.79-16.68-1.45-23.79-4.41-7.12-2.96-14.4-7.72-18.91-13.37C2.67 53.16-.94 45.31-.97 38.3-1 31.29 2.46 22.49 7 16.75c4.53-5.73 10.58-10.3 19.24-12.86C34.9 1.33 52.23 1 58.96 1.4c6.72.41 8.09 4.13 7.64 4.93m-6.67-2.42C67.01 6.23 76 12.23 80.66 17.79c4.65 5.57 7.06 12.54 7.18 19.51.12 6.98-2.21 16.52-6.44 22.33-4.24 5.81-11.7 9.86-18.96 12.52-7.25 2.67-16.86 4.47-24.59 3.45-7.73-1.02-15.62-5.33-21.77-9.57C9.93 61.8 3.28 56.5.96 50.21c-2.32-6.3-1.14-15.24 1.2-21.96C4.5 21.54 9.33 14.31 14.99 9.92c5.67-4.39 13.46-6.88 21.15-8.01 7.7-1.12 21.14.88 25.01 1.25 3.87.38-1.26.29-1.78 1.01" transform="translate(114.583 62.835)"/><path fill="none" stroke="#000" stroke-width="2" d="M49.07 1.18c7.16.65 15.83 4.29 21.72 8.71 5.89 4.43 11.26 11.45 13.62 17.84 2.37 6.39 2.69 14.01.58 20.51-2.11 6.51-7.43 14.06-13.22 18.52-5.79 4.46-13.87 7.31-21.53 8.25-7.67.94-17.33 0-24.44-2.59-7.11-2.59-13.76-7.35-18.21-12.93C3.13 53.91-.7 46.07-.93 38.97c-.24-7.1 2.67-16.25 7.11-22.08 4.43-5.83 11.98-10.13 19.49-12.91C33.18 1.2 46.89.52 51.23.23c4.35-.29.54 1.23.51 2.01M47.47.39c7.06.08 15.27 4.6 21.52 8.77 6.26 4.16 13.24 9.75 16.02 16.23 2.77 6.48 2.71 15.8.62 22.66-2.09 6.86-7.55 14.01-13.19 18.51-5.64 4.5-13.29 7.46-20.63 8.49-7.35 1.04-16.15.38-23.44-2.28-7.29-2.65-15.48-8.34-20.32-13.62C3.2 53.87-.09 47.66-.7 41.1c-.61-6.56 1.26-15.31 5.09-21.32 3.82-6 10.54-11.66 17.85-14.7 7.32-3.05 21.74-2.91 26.05-3.56 4.31-.65-.08-.69-.18-.35" transform="translate(114.583 62.835)"/></g><g stroke-linecap="round"><path fill="#ced4da" stroke-width="0" d="M56.82 1.75c7.02 1.37 14.05 6.91 19.15 12.24 5.1 5.32 10.45 13.05 11.46 19.73 1.01 6.68-1.77 14.08-5.41 20.36-3.64 6.28-9.78 13.77-16.43 17.33-6.65 3.57-15.62 4.3-23.47 4.08-7.85-.22-17.21-1.75-23.63-5.39-6.43-3.63-11.91-10.01-14.93-16.42C.54 47.27-1.04 38.47.35 31.65c1.38-6.81 6.35-13.93 11.53-18.86 5.17-4.92 11.48-8.87 19.51-10.67 8.04-1.8 23.36-.74 28.69-.14 5.32.59 3.6 3 3.26 3.71m-4.21-3.04c7.08 2.02 16.85 9.48 21.36 15.07 4.51 5.58 5.56 11.47 5.72 18.44.16 6.97-.81 17.46-4.78 23.37-3.98 5.9-11.87 9.38-19.05 12.07-7.19 2.69-16.12 4.89-24.07 4.08-7.95-.81-17.46-4.5-23.62-8.94C8.52 62.29 3.58 55.66 1.33 49c-2.25-6.66-2.17-15.88-.14-22.24 2.02-6.37 6.37-11.82 12.3-15.96 5.94-4.14 15.59-7.63 23.3-8.88C44.5.67 56 2.92 59.75 3.3c3.74.38-.08.13-.48.9" transform="translate(217.23 62.835)"/><path fill="none" stroke="#000" stroke-width="2" d="M35.03-.05c7.02-1.71 15.96.5 23.23 3.16 7.27 2.65 15.63 7.27 20.4 12.75 4.77 5.49 7.87 13.17 8.23 20.16.36 6.98-2.22 15.78-6.05 21.75-3.82 5.96-9.94 10.92-16.9 14.02-6.96 3.1-16.93 5.06-24.88 4.6-7.94-.46-16.75-3.26-22.79-7.35-6.04-4.09-10.79-10.48-13.43-17.17C.21 45.18-1.1 35.66.46 28.91c1.57-6.75 4.77-12.84 11.77-17.53 7-4.7 23.54-8.87 30.22-10.63 6.69-1.77 9.82-.55 9.88.04M26.07 3.32C32.7.52 44.1-.46 51.94.77c7.84 1.24 15.41 4.99 21.15 9.94 5.75 4.95 11.67 13.14 13.34 19.78 1.68 6.63-.46 13.88-3.31 20-2.85 6.13-7.96 12.29-13.77 16.75-5.8 4.46-13.36 9.22-21.07 10-7.71.78-18.27-1.97-25.18-5.3-6.9-3.33-12.48-8.91-16.26-14.68C3.07 51.5.08 44.1.46 37.35c.38-6.75 4.05-14.96 8.68-20.58 4.63-5.62 15.76-10.65 19.1-13.13 3.35-2.48.73-2.23.96-1.76" transform="translate(217.23 62.835)"/></g><g stroke-linecap="round"><path fill="#ced4da" stroke-width="0" d="M59.34 2.33c7.14 1.82 15.23 6.91 19.68 12.63 4.46 5.73 6.63 14.66 7.03 21.73.4 7.06-.91 14.73-4.62 20.66-3.72 5.92-10.63 11.57-17.68 14.88-7.04 3.32-16.8 5.64-24.6 4.99-7.81-.66-15.98-4.56-22.23-8.92S4.42 57.46 1.65 51.07c-2.76-6.4-3.27-14.53-1.31-21.14 1.97-6.62 7.46-13.54 13.11-18.55C19.11 6.38 25.69.84 34.25-.1c8.55-.93 24.55 4.16 30.53 5.89 5.98 1.72 5.43 4.12 5.34 4.49M38.58-.28c6.95-1.02 15.28 1.65 22.27 4.74 6.98 3.1 15.39 8.07 19.64 13.84 4.26 5.76 5.92 13.69 5.87 20.75-.05 7.06-1.66 15.95-6.16 21.59-4.5 5.64-13.41 9.9-20.84 12.25-7.43 2.36-16.39 2.78-23.74 1.88-7.35-.89-14.63-2.8-20.34-7.26C9.56 63.06 3.33 54.83 1.31 48.04-.71 41.26.72 33.13 3.18 26.78c2.46-6.34 6.93-12.55 12.91-16.82C22.08 5.69 35.28 2.5 39.1 1.18c3.82-1.33-.24.6-.08.84" transform="translate(399.446 62.835)"/><path fill="none" stroke="#000" stroke-width="2" d="M56.82 1.44c7.47 1.32 15.85 6.69 20.78 11.95 4.93 5.25 8.11 12.52 8.81 19.57.7 7.05-1.02 16.33-4.61 22.72-3.59 6.39-10.19 12.07-16.92 15.61-6.74 3.54-15.93 5.72-23.49 5.61-7.56-.11-15.63-2.31-21.87-6.26C13.29 66.7 7.04 59.79 3.97 53.25.89 46.71-.22 38.1 1.08 31.41c1.29-6.69 5.41-13.32 10.66-18.29C17 8.14 24.2 3.12 32.61 1.57c8.4-1.56 24.02 1.51 29.55 2.21 5.53.71 3.99 1.65 3.64 2.04M35.27 1.15c7.42-1.47 17.23.01 24.66 2.27 7.43 2.26 15.36 5.81 19.92 11.27 4.56 5.46 7.46 14.37 7.44 21.49-.03 7.12-3.65 15.43-7.6 21.24-3.94 5.81-9.58 10.34-16.07 13.61-6.5 3.27-15.31 6.67-22.92 6.01-7.6-.66-16.6-5.63-22.73-9.96-6.13-4.33-11.11-9.85-14.04-16.03C.99 44.87-1.39 36.57.35 30c1.74-6.57 8.35-13.34 14.02-18.39C20.03 6.57 30.82 1.23 34.35-.27c3.52-1.51.86 1.86 1.16 2.84" transform="translate(399.446 62.835)"/></g><text x="29.229" dominant-baseline="text-before-edge" font-family="Virgil, Segoe UI Emoji" font-size="24.614" style="white-space:pre" text-anchor="middle" transform="translate(326.904 80.553)">. . . </text><text x="4.668" dominant-baseline="text-before-edge" font-family="Virgil, Segoe UI Emoji" font-size="37.345" style="white-space:pre" text-anchor="middle" transform="translate(47.504 78.961)">1</text><text x="4.668" dominant-baseline="text-before-edge" font-family="Virgil, Segoe UI Emoji" font-size="37.345" style="white-space:pre" text-anchor="middle" transform="translate(150.947 79.757)">1</text><text x="4.668" dominant-baseline="text-before-edge" font-family="Virgil, Segoe UI Emoji" font-size="37.345" style="white-space:pre" text-anchor="middle" transform="translate(255.184 77.37)">1</text><text x="5.199" dominant-baseline="text-before-edge" font-family="Virgil, Segoe UI Emoji" font-size="37.345" style="white-space:pre" text-anchor="middle" transform="translate(438.463 77.37)">1</text><text x="163.81" dominant-baseline="text-before-edge" font-family="Virgil, Segoe UI Emoji" font-size="22.89" style="white-space:pre" text-anchor="middle" transform="translate(87.29 10)">1 input sample, 250 features</text></svg>