<svg xmlns="http://www.w3.org/2000/svg" width="687.55" height="904.775" viewBox="0 0 343.775 452.387"><defs><style>@font-face {
        font-family: &quot;Virgil&quot;;
        src: url(&quot;/assets/woff2/Virgil.woff2&quot;);
      }
      @font-face {
        font-family: &quot;Cascadia&quot;;
        src: url(&quot;/assets/woff2/Cascadia.woff2&quot;);
      }</style></defs><text x="3.176" dominant-baseline="text-before-edge" font-family="Virgil, Segoe UI Emoji" font-size="23.181" style="white-space:pre" text-anchor="middle" transform="translate(46.379 273.23)">.</text><text x="3.176" y="27.6" dominant-baseline="text-before-edge" font-family="Virgil, Segoe UI Emoji" font-size="23.181" style="white-space:pre" text-anchor="middle" transform="translate(46.379 273.23)">.</text><text x="3.176" y="55.2" dominant-baseline="text-before-edge" font-family="Virgil, Segoe UI Emoji" font-size="23.181" style="white-space:pre" text-anchor="middle" transform="translate(46.379 273.23)">.</text><g stroke-linecap="round"><path fill="#ced4da" stroke-width="0" d="M81.68 35.97c0 1.88-.17 3.77-.5 5.63-.33 1.85-.84 3.7-1.5 5.49-.66 1.78-1.48 3.54-2.45 5.21a36.36 36.36 0 0 1-3.35 4.81 36.586 36.586 0 0 1-4.16 4.29 40.034 40.034 0 0 1-4.87 3.67c-1.73 1.1-3.57 2.1-5.47 2.95-1.9.85-3.89 1.58-5.92 2.16a46.59 46.59 0 0 1-6.23 1.32c-2.1.29-4.26.44-6.39.44s-4.28-.15-6.39-.44c-2.1-.3-4.2-.74-6.23-1.32-2.03-.58-4.02-1.31-5.92-2.16-1.9-.85-3.74-1.85-5.46-2.95a39.38 39.38 0 0 1-4.88-3.67c-1.5-1.32-2.91-2.77-4.16-4.29a36.36 36.36 0 0 1-3.35-4.81c-.97-1.67-1.79-3.43-2.45-5.21C1.34 45.3.84 43.45.5 41.6c-.33-1.86-.5-3.75-.5-5.63s.17-3.77.5-5.63c.34-1.85.84-3.7 1.5-5.49.66-1.78 1.48-3.54 2.45-5.21.97-1.67 2.1-3.3 3.35-4.81 1.25-1.52 2.66-2.97 4.16-4.29a39.38 39.38 0 0 1 4.88-3.67c1.72-1.1 3.56-2.1 5.46-2.95 1.9-.85 3.89-1.58 5.92-2.16 2.03-.58 4.13-1.02 6.23-1.32C36.56.15 38.71 0 40.84 0s4.29.15 6.39.44c2.1.3 4.21.74 6.23 1.32 2.03.58 4.02 1.31 5.92 2.16 1.9.85 3.74 1.85 5.47 2.95 1.72 1.1 3.36 2.34 4.87 3.67 1.51 1.32 2.91 2.77 4.16 4.29 1.25 1.51 2.38 3.14 3.35 4.81.97 1.67 1.79 3.43 2.45 5.21.66 1.79 1.17 3.64 1.5 5.49.33 1.86.42 4.69.5 5.63.09.94.09-.94 0 0" transform="translate(10 10)"/><path fill="none" stroke="#000" stroke-width="2" d="M81.68 35.97c0 1.88-.17 3.77-.5 5.63-.33 1.85-.84 3.7-1.5 5.49-.66 1.78-1.48 3.54-2.45 5.21a36.36 36.36 0 0 1-3.35 4.81 36.586 36.586 0 0 1-4.16 4.29 40.034 40.034 0 0 1-4.87 3.67c-1.73 1.1-3.57 2.1-5.47 2.95-1.9.85-3.89 1.58-5.92 2.16a46.59 46.59 0 0 1-6.23 1.32c-2.1.29-4.26.44-6.39.44s-4.28-.15-6.39-.44c-2.1-.3-4.2-.74-6.23-1.32-2.03-.58-4.02-1.31-5.92-2.16-1.9-.85-3.74-1.85-5.46-2.95a39.38 39.38 0 0 1-4.88-3.67c-1.5-1.32-2.91-2.77-4.16-4.29a36.36 36.36 0 0 1-3.35-4.81c-.97-1.67-1.79-3.43-2.45-5.21C1.34 45.3.84 43.45.5 41.6c-.33-1.86-.5-3.75-.5-5.63s.17-3.77.5-5.63c.34-1.85.84-3.7 1.5-5.49.66-1.78 1.48-3.54 2.45-5.21.97-1.67 2.1-3.3 3.35-4.81 1.25-1.52 2.66-2.97 4.16-4.29a39.38 39.38 0 0 1 4.88-3.67c1.72-1.1 3.56-2.1 5.46-2.95 1.9-.85 3.89-1.58 5.92-2.16 2.03-.58 4.13-1.02 6.23-1.32C36.56.15 38.71 0 40.84 0s4.29.15 6.39.44c2.1.3 4.21.74 6.23 1.32 2.03.58 4.02 1.31 5.92 2.16 1.9.85 3.74 1.85 5.47 2.95 1.72 1.1 3.36 2.34 4.87 3.67 1.51 1.32 2.91 2.77 4.16 4.29 1.25 1.51 2.38 3.14 3.35 4.81.97 1.67 1.79 3.43 2.45 5.21.66 1.79 1.17 3.64 1.5 5.49.33 1.86.42 4.69.5 5.63.09.94.09-.94 0 0" transform="translate(10 10)"/></g><text x="4.766" dominant-baseline="text-before-edge" font-family="Virgil, Segoe UI Emoji" font-size="35.17" style="white-space:pre" text-anchor="middle" transform="translate(44.951 25.187)">1</text><g stroke-linecap="round"><path fill="#ced4da" stroke-width="0" d="M81.68 35.97c0 1.88-.17 3.77-.5 5.63-.33 1.85-.84 3.7-1.5 5.49-.66 1.78-1.48 3.54-2.45 5.21a36.36 36.36 0 0 1-3.35 4.81 36.586 36.586 0 0 1-4.16 4.29 40.034 40.034 0 0 1-4.87 3.67c-1.73 1.1-3.57 2.1-5.47 2.95-1.9.85-3.89 1.58-5.92 2.16a46.59 46.59 0 0 1-6.23 1.32c-2.1.29-4.26.44-6.39.44s-4.28-.15-6.39-.44c-2.1-.3-4.2-.74-6.23-1.32-2.03-.58-4.02-1.31-5.92-2.16-1.9-.85-3.74-1.85-5.46-2.95a39.38 39.38 0 0 1-4.88-3.67c-1.5-1.32-2.91-2.77-4.16-4.29a36.36 36.36 0 0 1-3.35-4.81c-.97-1.67-1.79-3.43-2.45-5.21C1.34 45.3.84 43.45.5 41.6c-.33-1.86-.5-3.75-.5-5.63s.17-3.77.5-5.63c.34-1.85.84-3.7 1.5-5.49.66-1.78 1.48-3.54 2.45-5.21.97-1.67 2.1-3.3 3.35-4.81 1.25-1.52 2.66-2.97 4.16-4.29a39.38 39.38 0 0 1 4.88-3.67c1.72-1.1 3.56-2.1 5.46-2.95 1.9-.85 3.89-1.58 5.92-2.16 2.03-.58 4.13-1.02 6.23-1.32C36.56.15 38.71 0 40.84 0s4.29.15 6.39.44c2.1.3 4.21.74 6.23 1.32 2.03.58 4.02 1.31 5.92 2.16 1.9.85 3.74 1.85 5.47 2.95 1.72 1.1 3.36 2.34 4.87 3.67 1.51 1.32 2.91 2.77 4.16 4.29 1.25 1.51 2.38 3.14 3.35 4.81.97 1.67 1.79 3.43 2.45 5.21.66 1.79 1.17 3.64 1.5 5.49.33 1.86.42 4.69.5 5.63.09.94.09-.94 0 0" transform="translate(10 102.173)"/><path fill="none" stroke="#000" stroke-width="2" d="M81.68 35.97c0 1.88-.17 3.77-.5 5.63-.33 1.85-.84 3.7-1.5 5.49-.66 1.78-1.48 3.54-2.45 5.21a36.36 36.36 0 0 1-3.35 4.81 36.586 36.586 0 0 1-4.16 4.29 40.034 40.034 0 0 1-4.87 3.67c-1.73 1.1-3.57 2.1-5.47 2.95-1.9.85-3.89 1.58-5.92 2.16a46.59 46.59 0 0 1-6.23 1.32c-2.1.29-4.26.44-6.39.44s-4.28-.15-6.39-.44c-2.1-.3-4.2-.74-6.23-1.32-2.03-.58-4.02-1.31-5.92-2.16-1.9-.85-3.74-1.85-5.46-2.95a39.38 39.38 0 0 1-4.88-3.67c-1.5-1.32-2.91-2.77-4.16-4.29a36.36 36.36 0 0 1-3.35-4.81c-.97-1.67-1.79-3.43-2.45-5.21C1.34 45.3.84 43.45.5 41.6c-.33-1.86-.5-3.75-.5-5.63s.17-3.77.5-5.63c.34-1.85.84-3.7 1.5-5.49.66-1.78 1.48-3.54 2.45-5.21.97-1.67 2.1-3.3 3.35-4.81 1.25-1.52 2.66-2.97 4.16-4.29a39.38 39.38 0 0 1 4.88-3.67c1.72-1.1 3.56-2.1 5.46-2.95 1.9-.85 3.89-1.58 5.92-2.16 2.03-.58 4.13-1.02 6.23-1.32C36.56.15 38.71 0 40.84 0s4.29.15 6.39.44c2.1.3 4.21.74 6.23 1.32 2.03.58 4.02 1.31 5.92 2.16 1.9.85 3.74 1.85 5.47 2.95 1.72 1.1 3.36 2.34 4.87 3.67 1.51 1.32 2.91 2.77 4.16 4.29 1.25 1.51 2.38 3.14 3.35 4.81.97 1.67 1.79 3.43 2.45 5.21.66 1.79 1.17 3.64 1.5 5.49.33 1.86.42 4.69.5 5.63.09.94.09-.94 0 0" transform="translate(10 102.173)"/></g><text x="4.766" dominant-baseline="text-before-edge" font-family="Virgil, Segoe UI Emoji" font-size="35.17" style="white-space:pre" text-anchor="middle" transform="translate(43.877 118.11)">1</text><g stroke-linecap="round"><path fill="#ced4da" stroke-width="0" d="M81.68 35.97c0 1.88-.17 3.77-.5 5.63-.33 1.85-.84 3.7-1.5 5.49-.66 1.78-1.48 3.54-2.45 5.21a36.36 36.36 0 0 1-3.35 4.81 36.586 36.586 0 0 1-4.16 4.29 40.034 40.034 0 0 1-4.87 3.67c-1.73 1.1-3.57 2.1-5.47 2.95-1.9.85-3.89 1.58-5.92 2.16a46.59 46.59 0 0 1-6.23 1.32c-2.1.29-4.26.44-6.39.44s-4.28-.15-6.39-.44c-2.1-.3-4.2-.74-6.23-1.32-2.03-.58-4.02-1.31-5.92-2.16-1.9-.85-3.74-1.85-5.46-2.95a39.38 39.38 0 0 1-4.88-3.67c-1.5-1.32-2.91-2.77-4.16-4.29a36.36 36.36 0 0 1-3.35-4.81c-.97-1.67-1.79-3.43-2.45-5.21C1.34 45.3.84 43.45.5 41.6c-.33-1.86-.5-3.75-.5-5.63s.17-3.77.5-5.63c.34-1.85.84-3.7 1.5-5.49.66-1.78 1.48-3.54 2.45-5.21.97-1.67 2.1-3.3 3.35-4.81 1.25-1.52 2.66-2.97 4.16-4.29a39.38 39.38 0 0 1 4.88-3.67c1.72-1.1 3.56-2.1 5.46-2.95 1.9-.85 3.89-1.58 5.92-2.16 2.03-.58 4.13-1.02 6.23-1.32C36.56.15 38.71 0 40.84 0s4.29.15 6.39.44c2.1.3 4.21.74 6.23 1.32 2.03.58 4.02 1.31 5.92 2.16 1.9.85 3.74 1.85 5.47 2.95 1.72 1.1 3.36 2.34 4.87 3.67 1.51 1.32 2.91 2.77 4.16 4.29 1.25 1.51 2.38 3.14 3.35 4.81.97 1.67 1.79 3.43 2.45 5.21.66 1.79 1.17 3.64 1.5 5.49.33 1.86.42 4.69.5 5.63.09.94.09-.94 0 0" transform="translate(10 193.596)"/><path fill="none" stroke="#000" stroke-width="2" d="M81.68 35.97c0 1.88-.17 3.77-.5 5.63-.33 1.85-.84 3.7-1.5 5.49-.66 1.78-1.48 3.54-2.45 5.21a36.36 36.36 0 0 1-3.35 4.81 36.586 36.586 0 0 1-4.16 4.29 40.034 40.034 0 0 1-4.87 3.67c-1.73 1.1-3.57 2.1-5.47 2.95-1.9.85-3.89 1.58-5.92 2.16a46.59 46.59 0 0 1-6.23 1.32c-2.1.29-4.26.44-6.39.44s-4.28-.15-6.39-.44c-2.1-.3-4.2-.74-6.23-1.32-2.03-.58-4.02-1.31-5.92-2.16-1.9-.85-3.74-1.85-5.46-2.95a39.38 39.38 0 0 1-4.88-3.67c-1.5-1.32-2.91-2.77-4.16-4.29a36.36 36.36 0 0 1-3.35-4.81c-.97-1.67-1.79-3.43-2.45-5.21C1.34 45.3.84 43.45.5 41.6c-.33-1.86-.5-3.75-.5-5.63s.17-3.77.5-5.63c.34-1.85.84-3.7 1.5-5.49.66-1.78 1.48-3.54 2.45-5.21.97-1.67 2.1-3.3 3.35-4.81 1.25-1.52 2.66-2.97 4.16-4.29a39.38 39.38 0 0 1 4.88-3.67c1.72-1.1 3.56-2.1 5.46-2.95 1.9-.85 3.89-1.58 5.92-2.16 2.03-.58 4.13-1.02 6.23-1.32C36.56.15 38.71 0 40.84 0s4.29.15 6.39.44c2.1.3 4.21.74 6.23 1.32 2.03.58 4.02 1.31 5.92 2.16 1.9.85 3.74 1.85 5.47 2.95 1.72 1.1 3.36 2.34 4.87 3.67 1.51 1.32 2.91 2.77 4.16 4.29 1.25 1.51 2.38 3.14 3.35 4.81.97 1.67 1.79 3.43 2.45 5.21.66 1.79 1.17 3.64 1.5 5.49.33 1.86.42 4.69.5 5.63.09.94.09-.94 0 0" transform="translate(10 193.596)"/></g><text x="4.766" dominant-baseline="text-before-edge" font-family="Virgil, Segoe UI Emoji" font-size="35.17" style="white-space:pre" text-anchor="middle" transform="translate(45.376 207.284)">1</text><g stroke-linecap="round"><path fill="#ced4da" stroke-width="0" d="M81.68 35.97c0 1.88-.17 3.77-.5 5.63-.33 1.85-.84 3.7-1.5 5.49-.66 1.78-1.48 3.54-2.45 5.21a36.36 36.36 0 0 1-3.35 4.81 36.586 36.586 0 0 1-4.16 4.29 40.034 40.034 0 0 1-4.87 3.67c-1.73 1.1-3.57 2.1-5.47 2.95-1.9.85-3.89 1.58-5.92 2.16a46.59 46.59 0 0 1-6.23 1.32c-2.1.29-4.26.44-6.39.44s-4.28-.15-6.39-.44c-2.1-.3-4.2-.74-6.23-1.32-2.03-.58-4.02-1.31-5.92-2.16-1.9-.85-3.74-1.85-5.46-2.95a39.38 39.38 0 0 1-4.88-3.67c-1.5-1.32-2.91-2.77-4.16-4.29a36.36 36.36 0 0 1-3.35-4.81c-.97-1.67-1.79-3.43-2.45-5.21C1.34 45.3.84 43.45.5 41.6c-.33-1.86-.5-3.75-.5-5.63s.17-3.77.5-5.63c.34-1.85.84-3.7 1.5-5.49.66-1.78 1.48-3.54 2.45-5.21.97-1.67 2.1-3.3 3.35-4.81 1.25-1.52 2.66-2.97 4.16-4.29a39.38 39.38 0 0 1 4.88-3.67c1.72-1.1 3.56-2.1 5.46-2.95 1.9-.85 3.89-1.58 5.92-2.16 2.03-.58 4.13-1.02 6.23-1.32C36.56.15 38.71 0 40.84 0s4.29.15 6.39.44c2.1.3 4.21.74 6.23 1.32 2.03.58 4.02 1.31 5.92 2.16 1.9.85 3.74 1.85 5.47 2.95 1.72 1.1 3.36 2.34 4.87 3.67 1.51 1.32 2.91 2.77 4.16 4.29 1.25 1.51 2.38 3.14 3.35 4.81.97 1.67 1.79 3.43 2.45 5.21.66 1.79 1.17 3.64 1.5 5.49.33 1.86.42 4.69.5 5.63.09.94.09-.94 0 0" transform="translate(10 370.448)"/><path fill="none" stroke="#000" stroke-width="2" d="M81.68 35.97c0 1.88-.17 3.77-.5 5.63-.33 1.85-.84 3.7-1.5 5.49-.66 1.78-1.48 3.54-2.45 5.21a36.36 36.36 0 0 1-3.35 4.81 36.586 36.586 0 0 1-4.16 4.29 40.034 40.034 0 0 1-4.87 3.67c-1.73 1.1-3.57 2.1-5.47 2.95-1.9.85-3.89 1.58-5.92 2.16a46.59 46.59 0 0 1-6.23 1.32c-2.1.29-4.26.44-6.39.44s-4.28-.15-6.39-.44c-2.1-.3-4.2-.74-6.23-1.32-2.03-.58-4.02-1.31-5.92-2.16-1.9-.85-3.74-1.85-5.46-2.95a39.38 39.38 0 0 1-4.88-3.67c-1.5-1.32-2.91-2.77-4.16-4.29a36.36 36.36 0 0 1-3.35-4.81c-.97-1.67-1.79-3.43-2.45-5.21C1.34 45.3.84 43.45.5 41.6c-.33-1.86-.5-3.75-.5-5.63s.17-3.77.5-5.63c.34-1.85.84-3.7 1.5-5.49.66-1.78 1.48-3.54 2.45-5.21.97-1.67 2.1-3.3 3.35-4.81 1.25-1.52 2.66-2.97 4.16-4.29a39.38 39.38 0 0 1 4.88-3.67c1.72-1.1 3.56-2.1 5.46-2.95 1.9-.85 3.89-1.58 5.92-2.16 2.03-.58 4.13-1.02 6.23-1.32C36.56.15 38.71 0 40.84 0s4.29.15 6.39.44c2.1.3 4.21.74 6.23 1.32 2.03.58 4.02 1.31 5.92 2.16 1.9.85 3.74 1.85 5.47 2.95 1.72 1.1 3.36 2.34 4.87 3.67 1.51 1.32 2.91 2.77 4.16 4.29 1.25 1.51 2.38 3.14 3.35 4.81.97 1.67 1.79 3.43 2.45 5.21.66 1.79 1.17 3.64 1.5 5.49.33 1.86.42 4.69.5 5.63.09.94.09-.94 0 0" transform="translate(10 370.448)"/></g><text x="4.766" dominant-baseline="text-before-edge" font-family="Virgil, Segoe UI Emoji" font-size="35.17" style="white-space:pre" text-anchor="middle" transform="translate(46.875 384.136)">1</text><path fill="none" stroke="#000" stroke-linecap="round" stroke-width="2" d="M0 0c27.06 29.33 135.29 146.65 162.35 175.98M0 0c27.06 29.33 135.29 146.65 162.35 175.98" transform="translate(90.794 50.6)"/><path fill="none" stroke="#000" stroke-linecap="round" stroke-width="2" d="M0 0c26.98 14.61 134.88 73.07 161.85 87.68M0 0c26.98 14.61 134.88 73.07 161.85 87.68" transform="translate(90.471 139.91)"/><path fill="none" stroke="#000" stroke-linecap="round" stroke-width="2" d="m0 0 161.6-.66M0 0l161.6-.66" transform="translate(90.705 228.689)"/><path fill="none" stroke="#000" stroke-linecap="round" stroke-width="2" d="M0 0c26.97-29.56 134.85-147.79 161.83-177.34M0 0c26.97-29.56 134.85-147.79 161.83-177.34" transform="translate(91.153 405.45)"/><text x="16.72" dominant-baseline="text-before-edge" font-family="Virgil, Segoe UI Emoji" font-size="14.267" style="white-space:pre" text-anchor="middle" transform="rotate(47.673 -41.141 253.421)">0.58</text><text x="15.558" dominant-baseline="text-before-edge" font-family="Virgil, Segoe UI Emoji" font-size="14.267" style="white-space:pre" text-anchor="middle" transform="rotate(22.686 -310.914 456.156)">-0.17</text><text x="13.818" dominant-baseline="text-before-edge" font-family="Virgil, Segoe UI Emoji" font-size="14.267" style="white-space:pre" text-anchor="middle" transform="rotate(1.963 -6079.93 4386.635)">1.23</text><text x="15.764" dominant-baseline="text-before-edge" font-family="Virgil, Segoe UI Emoji" font-size="14.267" style="white-space:pre" text-anchor="middle" transform="rotate(-49.981 414.267 -3.143)">0.96</text><g stroke-linecap="round"><path fill="#12b886" stroke-width="0" d="M81.68 35.97c0 1.88-.17 3.77-.5 5.63-.33 1.85-.84 3.7-1.5 5.49-.66 1.78-1.48 3.54-2.45 5.21a36.36 36.36 0 0 1-3.35 4.81 36.586 36.586 0 0 1-4.16 4.29 40.034 40.034 0 0 1-4.87 3.67c-1.73 1.1-3.57 2.1-5.47 2.95-1.9.85-3.89 1.58-5.92 2.16a46.59 46.59 0 0 1-6.23 1.32c-2.1.29-4.26.44-6.39.44s-4.28-.15-6.39-.44c-2.1-.3-4.2-.74-6.23-1.32-2.03-.58-4.02-1.31-5.92-2.16-1.9-.85-3.74-1.85-5.46-2.95a39.38 39.38 0 0 1-4.88-3.67c-1.5-1.32-2.91-2.77-4.16-4.29a36.36 36.36 0 0 1-3.35-4.81c-.97-1.67-1.79-3.43-2.45-5.21C1.34 45.3.84 43.45.5 41.6c-.33-1.86-.5-3.75-.5-5.63s.17-3.77.5-5.63c.34-1.85.84-3.7 1.5-5.49.66-1.78 1.48-3.54 2.45-5.21.97-1.67 2.1-3.3 3.35-4.81 1.25-1.52 2.66-2.97 4.16-4.29a39.38 39.38 0 0 1 4.88-3.67c1.72-1.1 3.56-2.1 5.46-2.95 1.9-.85 3.89-1.58 5.92-2.16 2.03-.58 4.13-1.02 6.23-1.32C36.56.15 38.71 0 40.84 0s4.29.15 6.39.44c2.1.3 4.21.74 6.23 1.32 2.03.58 4.02 1.31 5.92 2.16 1.9.85 3.74 1.85 5.47 2.95 1.72 1.1 3.36 2.34 4.87 3.67 1.51 1.32 2.91 2.77 4.16 4.29 1.25 1.51 2.38 3.14 3.35 4.81.97 1.67 1.79 3.43 2.45 5.21.66 1.79 1.17 3.64 1.5 5.49.33 1.86.42 4.69.5 5.63.09.94.09-.94 0 0" transform="translate(252.093 190.224)"/><path fill="none" stroke="#000" stroke-width="2" d="M81.68 35.97c0 1.88-.17 3.77-.5 5.63-.33 1.85-.84 3.7-1.5 5.49-.66 1.78-1.48 3.54-2.45 5.21a36.36 36.36 0 0 1-3.35 4.81 36.586 36.586 0 0 1-4.16 4.29 40.034 40.034 0 0 1-4.87 3.67c-1.73 1.1-3.57 2.1-5.47 2.95-1.9.85-3.89 1.58-5.92 2.16a46.59 46.59 0 0 1-6.23 1.32c-2.1.29-4.26.44-6.39.44s-4.28-.15-6.39-.44c-2.1-.3-4.2-.74-6.23-1.32-2.03-.58-4.02-1.31-5.92-2.16-1.9-.85-3.74-1.85-5.46-2.95a39.38 39.38 0 0 1-4.88-3.67c-1.5-1.32-2.91-2.77-4.16-4.29a36.36 36.36 0 0 1-3.35-4.81c-.97-1.67-1.79-3.43-2.45-5.21C1.34 45.3.84 43.45.5 41.6c-.33-1.86-.5-3.75-.5-5.63s.17-3.77.5-5.63c.34-1.85.84-3.7 1.5-5.49.66-1.78 1.48-3.54 2.45-5.21.97-1.67 2.1-3.3 3.35-4.81 1.25-1.52 2.66-2.97 4.16-4.29a39.38 39.38 0 0 1 4.88-3.67c1.72-1.1 3.56-2.1 5.46-2.95 1.9-.85 3.89-1.58 5.92-2.16 2.03-.58 4.13-1.02 6.23-1.32C36.56.15 38.71 0 40.84 0s4.29.15 6.39.44c2.1.3 4.21.74 6.23 1.32 2.03.58 4.02 1.31 5.92 2.16 1.9.85 3.74 1.85 5.47 2.95 1.72 1.1 3.36 2.34 4.87 3.67 1.51 1.32 2.91 2.77 4.16 4.29 1.25 1.51 2.38 3.14 3.35 4.81.97 1.67 1.79 3.43 2.45 5.21.66 1.79 1.17 3.64 1.5 5.49.33 1.86.42 4.69.5 5.63.09.94.09-.94 0 0" transform="translate(252.093 190.224)"/></g><text x="10.419" dominant-baseline="text-before-edge" font-family="Virgil, Segoe UI Emoji" font-size="36.433" style="white-space:pre" text-anchor="middle" transform="translate(283.64 200.014)">z</text></svg>