<svg xmlns="http://www.w3.org/2000/svg" width="1001.195" height="1004.515" viewBox="0 0 500.597 502.258"><defs><style>@font-face {
        font-family: &quot;Virgil&quot;;
        src: url(&quot;/assets/woff2/Virgil.woff2&quot;);
      }
      @font-face {
        font-family: &quot;Cascadia&quot;;
        src: url(&quot;/assets/woff2/Cascadia.woff2&quot;);
      }</style></defs><g fill-rule="evenodd" stroke-linecap="round"><path fill="none" stroke="#7950f2" stroke-width=".5" d="M-26.15 5.1s0 0 0 0m0 0s0 0 0 0m2.98 1.27c1.94-1.72 3.98-2.99 7.71-7.03m-6.64 7.13c1.68-2.79 4.38-5.01 6.1-6.97m2.05 4.87C-12.46 1.7-9.62-2.96-4.76-6.2M-15.4 5.87c2.03-4.29 4.82-7.5 10.97-13.77M-8.82 3.2C-7.73 1.63-5.86-.04-5.1-1m-3.35 3.95c.5-.6 1.36-1.45 3.4-3.32m.76.34c2.73-5.86 6.31-8.31 9.53-12.6M-5.72-.18c2.81-3.46 4.69-6.44 11.61-14.51m-7.52 16c.13-.35.28-.47.75-.79m-.69.77c.21-.24.32-.46.6-.83m2.89.06c4.82-7.48 8.06-15.17 17.44-22.4M1.23-2.01c2.35-3.54 7-7.85 15.97-20.17M4.61-.56c10.53-9.32 17.98-19.15 26.09-26M6.25-1c4.96-6.89 10-12.54 22.65-27.66M12.92-1.75c11.31-14.42 21.73-27.13 26.71-32.11M10.49-.23c8.16-11.07 16.9-20.78 29.24-34.51M17.15.39c10.34-12.17 20.51-23.95 32.54-40.83M15.88.15c9.97-11.27 18.84-22.12 34.71-42.52M19.56-.06C36.97-18.79 54.02-37.2 61.1-48.1M20.55-.24C35.51-18.25 49.7-34.17 62.72-48.48M25.93-.63c17.53-17.71 29.7-33.67 49.09-57.96M27.61-.94c10.63-12.25 22.98-27.45 48.55-56.41M31.2 1.22c15-21.32 33.04-38.78 64.5-72.68M30.85-.6c19.66-23.1 39.73-43.47 64.17-72.56M37.57-1.77c26.56-27.75 51.26-56.17 73.42-87.46M38.13-1.5c21.32-25.57 44.23-52.01 73.98-85.31M40.87.85c26.69-31.78 54.41-60.79 92.02-104.72M41.77.26c31.13-35.45 60.02-69.01 88.96-103.34M49.33-1.37c22.64-28.25 48.7-55.48 102.61-119.43M48.57-.45c31.22-37.01 63.84-74.98 102.6-119.79M53.92-.32C86.3-40.93 120.59-78 162.91-126.36M52.27-.02c42.81-48.66 83.97-95.1 109.27-126.18M59.15.09c32.74-38 64.11-74.39 112.13-133.45m-111.8 132c40.2-45.95 82.05-95.25 112.96-130.36M65.38-.6c45.45-49.87 91.12-103 116.51-135.81M64.22-.01c36.93-42.69 76.6-86.46 116.54-136.39M66.96-1.27c48.21-48.81 90-100.17 123.34-135.32M69.17-.73c32.59-36.94 65.51-76.02 120-138.27M73.89.53c34.55-39.72 66.72-77.27 119.21-138.26M73.45-1.4c46.37-51.61 90.96-104.35 122.18-138.96M79.32-1.77C112.16-37.88 145.04-75 200.08-142.25M79.34 0c40.15-45.74 80.37-92.9 122.31-140.92M83.78.44c34.75-39.78 69.45-78.66 124.72-140.37M84.66-.09c31.43-35.55 63.53-71.06 123.16-142.04M91.46.4c49.17-55.49 92.73-110.18 119.21-142.91M90.15-.01c34.57-41.27 70.55-82.31 121.28-140.72M95.03-.64C133.82-44.92 171.65-87.7 216.1-141.5M94.52-1.13c31.9-34.45 61.39-68.05 123.34-140.04M99.95.12c42.02-50.3 86.71-96.4 123.24-141.81M99.84-1.04c25.15-27.4 48.94-55.05 122.52-137.8M104.62-.89c30.7-37.74 64.39-75.05 121.98-136.16M105.92.99c40.82-48.7 83.02-95.64 120.76-139.58M111.99.13c32.87-38.87 63.86-77.33 119.71-138.87M111.05-1.01c25.6-29.33 50.05-56.86 118.48-135.35M115.14 2.07c32.52-38.32 63.76-74.28 118.81-136.49M115.69.38c35.46-38.18 69.38-77.95 117.57-135.6M123.44 1.02c24.62-34.71 55.24-66.75 111.83-132.09M121.86-.55c33.6-41.92 69.36-81.03 114.42-131.24M124.88 1.76c40.37-49.05 82.88-95.04 115.93-133.06M127.57-.8c37.97-44.88 78.97-90.6 113.48-130.47M132.85-.81c28.92-36.2 58.62-71.32 109.76-126.63M132.79.06c23.97-30.11 48.58-57.53 111.08-129.14M136.46 1.77c27.69-31.12 53.9-66.45 110.67-126.08M137.91-.28c35.64-43.37 74.61-87.56 109.65-126.12M142.72 1.67c35.24-45.07 75.08-86.29 106.05-125.72M143.08.62c32.42-39.13 64.38-75.5 108.08-125.2M146.12-1.47c43.82-45.5 82.79-95.79 108.75-119.99M147.95.02c40.65-46.3 80.91-90.65 106.11-121.19M152.21 1.07c30.82-38.39 63.3-76.46 106.25-121.57M152.4.99c27.66-29.74 52.25-58.13 104.54-121.06M157.78-.68c25.77-29.78 53.75-61.82 100.87-116.24M158.88-1c33.27-39.26 67.24-79.72 100.39-115.81M163.16 2.07c30.46-33.56 57.95-66.53 101.56-116.1M163.86.63c35.4-41.69 71.49-82.75 99.73-114.62M169.02.27c28.75-32.22 60.18-67.98 98.07-112.54M168.81-.6c21.45-23.4 42.78-47.78 96.84-110.9M172.71.5c37.57-43.23 77.1-88.48 96.84-109.05M173.64.56c30.39-34.46 59.95-69.51 95.09-110.03M181.05.35c33.46-40.98 69.17-81 89.73-105.1M179.74.8c32.9-39.65 67.4-77.97 92.66-106.35M186.66 1.97c19.07-26.55 39.08-48.74 89.31-104.34M185.36 1.13c35.14-40.92 71.17-83.46 90.87-104.18M188.11.13c29.67-30.02 57.06-61.17 90.2-103.13M189.98 1.34c18.99-21.4 37.77-41.96 88.51-103.57m-85 102.21c34.37-38.55 71.75-78.03 89.14-98.95M195.04 1.04c18.62-21.33 35.05-41.48 86.86-99.49M202.05.75c25.35-32.74 52.92-64.65 80.2-97.82M199.7-.27c34.16-36.1 66.44-74.53 83.96-94.43M206.3 1.86c30.82-36.26 59.51-69.05 78.9-94.07M206.13.29c15.95-21.84 34.73-42.67 79.69-93.08M210.4 2.46c22.53-24.19 43.26-50.71 77.42-93.87M210.03.78c18.63-18.89 35.87-39.12 80-90.85M216.88-1.23C238-22.9 256.19-45.58 292.97-87.38M216.52-.78c15.52-18.49 32.01-36.53 75.42-85.87M221.02-.39c25.76-27.28 51.83-58.58 73.9-85.98M220.69 1.37c26.61-30.65 53.75-63.34 74.49-85.23M224.99.49c14.71-15.07 32.13-31.46 73.93-83.17M226.84.26c14.1-16.47 27.99-33.71 72.33-82.76M231.43-.62c22.77-24.11 48.5-52.16 71.34-78.62M232.3.21c15.59-16.62 29.38-33.91 69.47-80.22M239.04 2.36c13.83-18.45 24.95-35.35 64.65-79.79M238.12-.1c22.67-24.36 44.69-52.14 66.24-75.89M242.77-.19c17.6-20.81 37.97-44.85 63.79-72.48M243.43.83c19.25-24.52 40.93-47.89 63.78-75.21M246.1-.15c21.27-19.91 40.32-42.16 65.42-72.26M248.85.2c11.41-13.7 24.44-28.25 60.37-71.4M253.88-.23c19.61-25.52 45.92-53.04 60.27-67.52M253.54.6c19.54-22.98 38.39-45.1 59.78-69.35M256.59-.5c24.05-22.13 45.11-47.62 59.78-66.75M258.59.83c18.62-21.06 37.19-44.16 56.86-65.95M263.22.98c23.56-24.6 43.21-51.62 57.48-63.2M264.04-.3c13.81-13.93 27.25-28.85 55.97-63.79M269.55 1.69c13.54-16.14 31.26-36.8 53.6-63.97M268.32.77c14.82-16.42 27.01-32.16 54.62-61.19M274.29 2.76c12.22-19.47 25.99-33.34 52.46-63.22M274.59.92c18.28-22.58 38.25-44.27 51.74-58.44M278.7 2.67c13.3-15.49 25.65-30.43 52.42-60.14m-51.66 58.8c12.09-14.89 25.52-30.26 50.77-58.78M284.17.99c10.57-11.71 24.15-24.57 47.92-53.01m-47.34 53.6c10.51-12.41 20.3-22.94 48.6-55.43M290.4.51c13.86-14.11 24.7-30.29 46.79-52.43M290.82 1.13c12.15-13.43 23.2-28.28 43.94-51.83M293.67 2.7c20.1-21.35 37.52-42.68 47.55-51.06M295.01 1.13c13.73-15.95 28.14-32.08 43.59-50.42M301.68 1.13c14.26-19.35 33.03-35.97 42.22-49.33M301.65 1.15c11.54-14.42 23.18-30.44 40.21-47.28M307.87.96c13.56-15.58 27.48-30.8 39.43-44.04M306.48 1.06c9.76-12.53 19.76-22.87 38.55-45.79M309.56 1.05c10.79-12.16 22.83-24.54 39.92-42.77M311.98.44c8.66-11.4 19.66-24.17 37.85-42.01M317.54 1.72c9.04-9.36 14.91-18.06 35.2-42.67M317.15.7c8.17-10.32 17.79-21.06 35.5-40.46M319.69 2.38c9.85-10.17 19.54-21.01 36.78-40.21M322.21 2.1c12.04-16.18 26.15-30.32 33.32-40.91M329.1 1.75c8.08-15.69 19.6-27.77 31.61-38.15M326.95.23c11.47-12.23 20.59-24.17 31.98-36.32M332.41-.69c8.49-7.78 17.39-18.88 29.32-33.1M332.19.85c7.64-10.24 18.43-19.28 31.22-35.4m-24.8 37.24c7.4-9.7 14.76-19.29 29.66-34.44M338.74 1.62c11.01-12.65 21.21-26.71 28.32-34.53m-23.7 34.06c7.33-8.38 14.51-16.48 29.08-31.65M342.87.95c10.29-10.5 19.97-21.32 27.65-32.11M349.8.99c8.24-10.9 12.78-19.17 25.42-30.23M349.29 1.7c7.43-10.74 14.85-18.79 24.4-29.47m-20.83 30.8c10.28-11.17 15.12-20.57 25.25-27.8m-25.5 26.79c11.08-12.25 20.41-22.24 24.88-27.95M359.4 2.74c7.31-11.96 14.17-21.6 21.23-26.75M357.64 1.85c7.03-7.15 13.05-11.99 22.89-26.55M363.86-.06c6.59-5.53 10.11-11.35 20.06-22.51M364.18 1.98c8.26-10.38 14.34-18.01 20.7-25.3M369.77 2.56c7.82-10.62 14.49-18.64 18.48-23.91M368.71 2.06c7.68-9.04 14.5-17.51 20.02-22.42M375.97.71c6.42-5.36 12.36-12.76 16.7-21.74M373.78 2.11c4.27-6.36 8.3-11.11 18.38-22.08M378.93 2.22c8.65-8.12 11.81-13.27 17.55-20.94M380.4 2.36c4.28-5.59 9.53-11.69 15.44-19.46M383.49 2.01c4.95-7.1 8.51-9.81 15.37-16.44M386.05 1.98c3.45-6.01 8.37-10.81 14.69-17.67m-11.5 17.26c3.96-5.1 7.26-7.16 15.13-13.29M391.16.89c2.68-2.36 6.21-5.87 11.69-14.83m-6.31 16.92c1.94-5.47 6.73-9.14 10.12-15.14m-10.39 13.5c3.33-3.51 6.21-9.33 10.68-13.73m-7.5 15.2c2.03-3.9 5.66-6.01 10.37-11.2M399.15 3.1c4.09-4.05 6.98-8.83 11.97-12.71m-5.48 11.5c1.39-2.5 3.65-3.21 9.71-10.56m-9.63 11.18c3.19-4.37 6.9-8.02 9.12-10.11m-3.68 10.21c1.51-1.93 1.8-3.78 7.31-8.59m-8.32 8.84c3.09-3.37 6-6.3 7.71-8.52m-1.78 8.24c1.13-.49 3.1-3.81 5.92-5.26m-7.07 6.38c1.46-2.15 2.71-3.43 6.37-7.06m-.57 6.79c1.74-1.4 3.73-4.19 3.78-5.29m-4.19 5.23c.71-.55 2.04-1.82 4.55-4.98m.03 5.51c1.53-.68 1.65-1.64 2.65-2.71m-2.43 2.67c1.02-.87 2.27-2.1 2.8-2.86m2.39 3.19c.82-.71 1.43-1.15 1.91-2.26m-1.86 2.37c.57-.8 1.3-1.47 1.96-2.13" transform="translate(46.674 366.226)"/><path fill="none" stroke="#5f3dc4" d="M-.66.03c-3.66.39-34.6 12.19-22.12 2.44s68.31-40.57 97-60.93c28.69-20.36 53.51-46.98 75.13-61.22 21.62-14.23 37.09-23.85 54.58-24.18 17.49-.33 32.23 9.74 50.36 22.18 18.12 12.45 41.35 38.57 58.4 52.51 17.04 13.94 24.79 19.55 43.86 31.16C375.62-26.41 422.43-5.83 427.1.46c4.68 6.28 29.9-.51-42.52-.76S57.83-.57-7.41-1.07M1.2-1c-3.66.56-36.41 14.27-24.42 4.83 11.98-9.43 67.58-41.01 96.31-61.42 28.73-20.4 54-46.68 76.07-60.99 22.07-14.32 38.66-24.75 56.35-24.89 17.7-.15 31.83 11.88 49.81 24.01 17.98 12.14 40.83 35.34 58.06 48.8 17.24 13.45 26.64 20.22 45.37 31.93C377.48-27.02 421.33-6.71 425.76-.4c4.43 6.3 31.77-.05-40.43-.5C313.14-1.35 58.18-3.17-7.42-3.11" transform="translate(46.674 366.226)"/></g><path fill="none" fill-opacity=".9" stroke="#343a40" stroke-linecap="round" stroke-opacity=".9" stroke-width="4" d="M.69-.24c147.26-.93 295.61-.83 477.36-1.37M-.1-.3c114.83-.04 230.44-.66 478.89-1.54" transform="translate(10.714 369.03)"/><path fill="none" fill-opacity=".9" stroke="#343a40" stroke-linecap="round" stroke-opacity=".9" stroke-width="4" d="M-.43-.9C-1.46-69-.71-137.37-1.3-278.19M-.53-.46C-.09-64.79-.81-131.03-1.7-276.5" transform="translate(251.811 367.88)"/><path fill="none" fill-opacity=".3" stroke="#000" stroke-dasharray="1.5 7" stroke-linecap="round" stroke-opacity=".3" stroke-width="1.5" d="M-.9-1.09C.96 83.92.86 167.89.12 276.37" transform="translate(471.825 91.335)"/><path fill="none" fill-opacity=".3" stroke="#000" stroke-dasharray="1.5 7" stroke-linecap="round" stroke-opacity=".3" stroke-width="1.5" d="M-1.09-1.07C-.22 103.87.2 209.78.06 277.49" transform="translate(416.674 91.232)"/><path fill="none" fill-opacity=".3" stroke="#000" stroke-dasharray="1.5 7" stroke-linecap="round" stroke-opacity=".3" stroke-width="1.5" d="M-1.07-.03c-1.37 75.55-.52 150.09 2.25 277.02" transform="translate(361.167 91.26)"/><path fill="none" fill-opacity=".3" stroke="#000" stroke-dasharray="1.5 7" stroke-linecap="round" stroke-opacity=".3" stroke-width="1.5" d="M-.03-1.49C-1.26 66.18-1.99 134.34.69 276.3" transform="translate(305.924 91.442)"/><path fill="none" fill-opacity=".3" stroke="#000" stroke-dasharray="1.5 7" stroke-linecap="round" stroke-opacity=".3" stroke-width="1.5" d="M-1.49-.01c-.67 62.71.63 127.02 1.48 276.45" transform="translate(195.206 91.279)"/><path fill="none" fill-opacity=".3" stroke="#000" stroke-dasharray="1.5 7" stroke-linecap="round" stroke-opacity=".3" stroke-width="1.5" d="M-.01-.92c-.77 65.11.1 127.97.15 279.08" transform="translate(140.1 91.38)"/><path fill="none" fill-opacity=".3" stroke="#000" stroke-dasharray="1.5 7" stroke-linecap="round" stroke-opacity=".3" stroke-width="1.5" d="M-.92-.99c-.69 83.37-1.57 165.56 2.77 279.63" transform="translate(84.622 91.233)"/><path fill="none" fill-opacity=".3" stroke="#000" stroke-dasharray="1.5 7" stroke-linecap="round" stroke-opacity=".3" stroke-width="1.5" d="M-.99.13c.83 55.32.5 113.67 3.32 277.18" transform="translate(29.38 90.713)"/><path fill="none" fill-opacity=".3" stroke="#000" stroke-dasharray="1.5 7" stroke-linecap="round" stroke-opacity=".3" stroke-width="1.5" d="M.08-.21C142.04 1.17 285.74 2.76 476.26.95" transform="translate(10.616 311.838)"/><path fill="none" fill-opacity=".3" stroke="#000" stroke-dasharray="1.5 7" stroke-linecap="round" stroke-opacity=".3" stroke-width="1.5" d="M-.2-.59c114.72.87 230.99.4 479.1.15" transform="translate(10.64 257.219)"/><path fill="none" fill-opacity=".3" stroke="#000" stroke-dasharray="1.5 7" stroke-linecap="round" stroke-opacity=".3" stroke-width="1.5" d="M-.59-.51C113.51 1.22 226.08.3 478.63.88" transform="translate(10.593 201.809)"/><path fill="none" fill-opacity=".3" stroke="#000" stroke-dasharray="1.5 7" stroke-linecap="round" stroke-opacity=".3" stroke-width="1.5" d="M-.51.45c149.08.96 295.99.52 480.47-.47" transform="translate(10.637 146.34)"/><path fill="none" fill-opacity=".3" stroke="#000" stroke-dasharray="1.5 7" stroke-linecap="round" stroke-opacity=".3" stroke-width="1.5" d="M.45.72c132.08.31 264.18 1.38 478.61-1.44" transform="translate(10.522 91.068)"/><path fill="none" fill-opacity=".9" stroke="#343a40" stroke-linecap="round" stroke-opacity=".9" stroke-width="2" d="M1.92-.06C-.69-3.88 1.84-5.4-3.21-10.95M-.85-.37c.98-4.67-1.08-7.12-.62-11.4" transform="translate(251.368 379.181)"/><path fill="none" fill-opacity=".9" stroke="#343a40" stroke-linecap="round" stroke-opacity=".9" stroke-width="2" d="M-.06-.53c-1.59.08-.76-6.94-.68-9.5M-.37.71c-1.04-5.68.21-9.03-1.18-12.28" transform="translate(306.698 379.181)"/><path fill="none" fill-opacity=".9" stroke="#343a40" stroke-linecap="round" stroke-opacity=".9" stroke-width="2" d="M-.53-1.23c2.19-2.91-2.5-6.33.71-9.03M.71-.89c-1.86-2.15-1.59-7.1-2.07-10.82" transform="translate(362.027 379.181)"/><path fill="none" fill-opacity=".9" stroke="#343a40" stroke-linecap="round" stroke-opacity=".9" stroke-width="2" d="M-1.23 2.29c.65-8.65.79-9.65 1.19-12.96M-.89-.9c1.49-1.89.1-4.37-.6-11.24" transform="translate(417.356 379.181)"/><path fill="none" fill-opacity=".9" stroke="#343a40" stroke-linecap="round" stroke-opacity=".9" stroke-width="2" d="M2.29-.1C-2.28-2.91.74-5.62-.45-13.18M-.9.81c.21-4.2-.02-7.22-1.03-11.22" transform="translate(472.686 379.181)"/><path fill="none" fill-opacity=".9" stroke="#343a40" stroke-linecap="round" stroke-opacity=".9" stroke-width="2" d="M-.1-1.96c.39.25.74-3.56-2.86-10.25m3.77 12C-.57-4.26-.97-8.98-.2-12.25" transform="translate(196.039 379.181)"/><path fill="none" fill-opacity=".9" stroke="#343a40" stroke-linecap="round" stroke-opacity=".9" stroke-width="2" d="M-1.96.52C.9-1.62-.04-7.37-1.99-10.06M-.21-.3c.01-2.48-.84-3.74-1.82-11.57" transform="translate(140.71 379.181)"/><path fill="none" fill-opacity=".9" stroke="#343a40" stroke-linecap="round" stroke-opacity=".9" stroke-width="2" d="M.52 1.44C.72-3.8-2.7-9.91.16-13.25M-.3-.1c-.38-3.12.64-5.77-1.36-12.11" transform="translate(85.38 379.181)"/><path fill="none" fill-opacity=".9" stroke="#343a40" stroke-linecap="round" stroke-opacity=".9" stroke-width="2" d="M1.44 1.21c-.81-6.3-2.72-6.58-4.47-14.49M-.1-.24c-1-2.95-1.57-8.66-1.9-11.4" transform="translate(30.05 379.181)"/><text x="12.5" dominant-baseline="text-before-edge" font-family="Virgil, Segoe UI Emoji" font-size="14.755" style="white-space:pre" text-anchor="middle" transform="translate(20.694 385.87)">-64</text><text x="9.5" dominant-baseline="text-before-edge" font-family="Virgil, Segoe UI Emoji" font-size="14.755" style="white-space:pre" text-anchor="middle" transform="translate(466.329 385.87)">64</text><text x="10" dominant-baseline="text-before-edge" font-family="Virgil, Segoe UI Emoji" font-size="14.755" style="white-space:pre" text-anchor="middle" transform="translate(410.5 385.87)">48</text><text x="10" dominant-baseline="text-before-edge" font-family="Virgil, Segoe UI Emoji" font-size="14.755" style="white-space:pre" text-anchor="middle" transform="translate(355.17 385.87)">32</text><text x="7" dominant-baseline="text-before-edge" font-family="Virgil, Segoe UI Emoji" font-size="14.755" style="white-space:pre" text-anchor="middle" transform="translate(302.84 385.306)">16</text><text x="5.072" dominant-baseline="text-before-edge" font-family="Virgil, Segoe UI Emoji" font-size="14.755" style="white-space:pre" text-anchor="middle" transform="translate(249.44 385.87)">0</text><text x="9.5" dominant-baseline="text-before-edge" font-family="Virgil, Segoe UI Emoji" font-size="14.755" style="white-space:pre" text-anchor="middle" transform="translate(189.682 385.87)">-16</text><text x="13.5" dominant-baseline="text-before-edge" font-family="Virgil, Segoe UI Emoji" font-size="14.755" style="white-space:pre" text-anchor="middle" transform="translate(130.352 385.87)">-32</text><text x="13.5" dominant-baseline="text-before-edge" font-family="Virgil, Segoe UI Emoji" font-size="14.755" style="white-space:pre" text-anchor="middle" transform="translate(75.023 385.87)">-48</text><text x="115" dominant-baseline="text-before-edge" font-family="Virgil, Segoe UI Emoji" font-size="24.691" style="white-space:pre" text-anchor="middle" transform="translate(132.738 10)">Normal Distribution</text><text x="98" dominant-baseline="text-before-edge" font-family="Virgil, Segoe UI Emoji" font-size="22.94" style="white-space:pre" text-anchor="middle" transform="translate(154.272 37.906)">μ = 0 , σ = 15.8 </text><path fill="none" stroke="#000" stroke-linecap="round" stroke-width="2" d="M-.11-.25c29.92.09 149.52.66 179.4.49M-1.62-1.42c30.33-.19 152.71-.09 183.26.12" transform="translate(156.71 70.629)"/><path fill="none" stroke="#5f3dc4" stroke-linecap="round" d="M-.25-.7c18.95-.19 94.93-.48 113.62-.57M1.82 1.55C20.73 1.5 94.82.15 113-.16" transform="translate(200.379 428.745)"/><path fill="none" stroke="#5f3dc4" stroke-linecap="round" d="M-.7 1.1c-.12 1.6-.1 6.85-.11 8.26M1.13.63c.28 1.79.25 8.35.35 10.05" transform="translate(312.431 423.512)"/><path fill="none" stroke="#5f3dc4" stroke-linecap="round" d="M1.1-.81C1.07.81-.21 7.12-.42 9.01m.64-7.63c-.2 1.82-1.6 7.57-1.81 8.77" transform="translate(199.233 423.046)"/><path fill="none" stroke="#5f3dc4" stroke-linecap="round" d="M-.81-.42c36.66-.21 183.11.06 220.04.24M.97-1.69c37.1.49 184 2.9 220.57 2.96" transform="translate(139.913 455.627)"/><path fill="none" stroke="#5f3dc4" stroke-linecap="round" d="M-.42-.77c-.21 1.89.06 9.69.24 11.3m1.74-9.09C1.08 3.06-1 7.41-1.22 8.79" transform="translate(139.605 449.6)"/><path fill="none" stroke="#5f3dc4" stroke-linecap="round" d="M-.77-.18C-.51 1.63.76 8.62.74 10.43m.29-11.75C1.26.18.1 6.96.19 8.65" transform="translate(360.413 450.997)"/><path fill="none" stroke="#5f3dc4" stroke-linecap="round" d="M-.18.74C56.05.65 280.7-.98 336.92-1.36M-1.73.09c56.16.09 281.61-.23 338.04-.38" transform="translate(82.618 483.464)"/><path fill="none" stroke="#5f3dc4" stroke-linecap="round" d="M.74.65C.72 2.45-.59 9.28-.89 10.66M-.33-.06C.1 1.43 1.09 7.35 1.35 9" transform="translate(82.773 477.084)"/><path fill="none" stroke="#5f3dc4" stroke-linecap="round" d="M.65-.89c.17 1.33.48 7.96.23 9.62M-.47 1.26c.11 1.38.51 6.99.86 8.45" transform="translate(420.506 479.413)"/><text x="25.602" fill="#5f3dc4" dominant-baseline="text-before-edge" font-family="Virgil, Segoe UI Emoji" font-size="15.172" style="white-space:pre" text-anchor="middle" transform="translate(230.928 410.094)">68.2%</text><text x="23.5" fill="#5f3dc4" dominant-baseline="text-before-edge" font-family="Virgil, Segoe UI Emoji" font-size="15.172" style="white-space:pre" text-anchor="middle" transform="translate(232.1 437.579)">95.4%</text><text x="22.5" fill="#5f3dc4" dominant-baseline="text-before-edge" font-family="Virgil, Segoe UI Emoji" font-size="15.172" style="white-space:pre" text-anchor="middle" transform="translate(233.1 465.995)">99.7%</text><text x="9.5" fill="#5f3dc4" dominant-baseline="text-before-edge" font-family="Virgil, Segoe UI Emoji" font-size="16" style="white-space:pre" text-anchor="middle" transform="translate(317.838 419.152)">1σ </text><text x="13.5" fill="#5f3dc4" dominant-baseline="text-before-edge" font-family="Virgil, Segoe UI Emoji" font-size="16" style="white-space:pre" text-anchor="middle" transform="translate(366.478 444.773)">2σ </text><text x="13" fill="#5f3dc4" dominant-baseline="text-before-edge" font-family="Virgil, Segoe UI Emoji" font-size="16" style="white-space:pre" text-anchor="middle" transform="translate(425.208 472.258)">3σ </text></svg>