<svg xmlns="http://www.w3.org/2000/svg" width="1076.801" height="771.139" viewBox="0 0 538.4 385.57"><defs><style>@font-face {
        font-family: &quot;Virgil&quot;;
        src: url(&quot;/assets/woff2/Virgil.woff2&quot;);
      }
      @font-face {
        font-family: &quot;Cascadia&quot;;
        src: url(&quot;/assets/woff2/Cascadia.woff2&quot;);
      }</style></defs><path fill="none" fill-opacity=".9" stroke="#343a40" stroke-linecap="round" stroke-opacity=".9" stroke-width="4" d="M-.58-.12c105.83-1.12 211.19-1.07 490.14.8M.39-.02c181.96-.52 363.46-.56 490.15.04" transform="translate(18.09 309.667)"/><path fill="none" fill-opacity=".9" stroke="#343a40" stroke-linecap="round" stroke-opacity=".9" stroke-width="4" d="M-.21-.45C-1.98-82.74-2.13-165.1.26-309.62M-.03.48c-.85-67.8-1.12-133.49-.84-311.72" transform="translate(262.922 375.09)"/><path fill="none" fill-opacity=".9" stroke="#343a40" stroke-linecap="round" stroke-opacity=".9" stroke-width="2" d="M-.5-1.2c.06-2.55-.05-2.77 2.45-8.17M.54-.3c-1.01-2.63.51-4.76-.4-8.47" transform="translate(311.867 317.414)"/><path fill="none" fill-opacity=".9" stroke="#343a40" stroke-linecap="round" stroke-opacity=".9" stroke-width="2" d="M-1.2-.81c.3-2.22 2.9-1.72.64-6.89M-.3-.57c.24-1.91.98-6.42.34-7.12" transform="rotate(-91.714 233.846 -21.065)"/><path fill="none" fill-opacity=".9" stroke="#343a40" stroke-linecap="round" stroke-opacity=".9" stroke-width="2" d="M-.81-1.11c-.11.15 2.47-4.81 1.91-5.38M-.57-.38C.82-2.32-.3-5.49 1.12-8.63" transform="rotate(-91.714 210.945 -44.964)"/><path fill="none" fill-opacity=".9" stroke="#343a40" stroke-linecap="round" stroke-opacity=".9" stroke-width="2" d="M-1.11-1.2c2.76.21.29-2.79 3.43-6.88M-.38.69c.77-4.28.27-6.24.56-8.99" transform="rotate(-91.714 185.465 -70.242)"/><path fill="none" fill-opacity=".9" stroke="#343a40" stroke-linecap="round" stroke-opacity=".9" stroke-width="2" d="M-1.2 1.31C1.41-3.16.74-2.08.73-6.93M.69.04C-.34-2.86.85-4.83.51-8.44" transform="rotate(-91.714 162.408 -94.37)"/><path fill="none" fill-opacity=".9" stroke="#343a40" stroke-linecap="round" stroke-opacity=".9" stroke-width="2" d="M1.31 1.15c-2.37-2.83.72-5.2.57-9.75M.04-.66C-.5-1.53-.18-3.97.37-8.3" transform="rotate(-91.714 305.805 53.377)"/><path fill="none" fill-opacity=".9" stroke="#343a40" stroke-linecap="round" stroke-opacity=".9" stroke-width="2" d="M1.15-1.37C.61-.35.42-2.64.21-9.16m-.87 8.4C.38-2.65-.03-4.49.51-7.82" transform="rotate(-91.714 258.254 4.993)"/><path fill="none" fill-opacity=".9" stroke="#343a40" stroke-linecap="round" stroke-opacity=".9" stroke-width="2" d="M-1.51.33C1.75-2.09 1.47-4.66-.33-9.68M-.84.35c.5-4.07 1.08-7.48 1.99-9.76" transform="translate(360.726 319.591)"/><path fill="none" fill-opacity=".9" stroke="#343a40" stroke-linecap="round" stroke-opacity=".9" stroke-width="2" d="M.32 1.62C0-2.11-.37-7.77-.3-7.11M.34-.67c-.36-2.4-.2-4.35-.38-7.06" transform="translate(409.815 317.394)"/><path fill="none" fill-opacity=".9" stroke="#343a40" stroke-linecap="round" stroke-opacity=".9" stroke-width="2" d="M1.65-.08c-.38-3.81-2.84-7.22-.28-8.56M-.68-.32c.35-1.9 1-4.03 1.42-7.85" transform="translate(459.16 319.955)"/><path fill="none" fill-opacity=".9" stroke="#343a40" stroke-linecap="round" stroke-opacity=".9" stroke-width="2" d="M-.09 1.37c-.94-4.99-1.39-3.97-.92-13.22m.63 11.3c-.3-1.31-.81-2.62-.08-10.13" transform="translate(509.2 319.652)"/><path fill="none" fill-opacity=".9" stroke="#343a40" stroke-linecap="round" stroke-opacity=".9" stroke-width="2" d="M1.11-.61C-1.55-3.4.82-5.16-2.04-9.79M-.45-.3c.54-3.02.94-4.76-.65-7.3" transform="translate(19.94 318.774)"/><path fill="none" fill-opacity=".9" stroke="#343a40" stroke-linecap="round" stroke-opacity=".9" stroke-width="2" d="M-.62-1.21c.3-.66 1.65-6.81.2-6.5M-.31.2c.1-1.21 1.44-4.34 2.14-9.24" transform="translate(63.988 317.867)"/><path fill="none" fill-opacity=".9" stroke="#343a40" stroke-linecap="round" stroke-opacity=".9" stroke-width="2" d="M-1.09-.72c2.14-1.46-.59-5.25 1.15-8.1M.18-.49c.52-1.03-.77-2.95-1.32-7.8" transform="translate(114.81 317.115)"/><path fill="none" fill-opacity=".9" stroke="#343a40" stroke-linecap="round" stroke-opacity=".9" stroke-width="2" d="M-.85 1.55c1.11-6.34-.58-7.46-.27-11.23M-.58.9C.71-2.67.89-5.14-.49-8.38" transform="translate(163.624 318.072)"/><path fill="none" fill-opacity=".9" stroke="#343a40" stroke-linecap="round" stroke-opacity=".9" stroke-width="2" d="M1.24.07C-1.23-3.26.37-4.91-1.09-7.97M.72.46C-.54-1.35-.89-4.41-.04-7.25" transform="translate(213.148 317.6)"/><path fill="none" fill-opacity=".3" stroke="#000" stroke-dasharray="1.5 7" stroke-linecap="round" stroke-opacity=".3" stroke-width="1.5" d="M.04-.69c111.25-.73 223.46-1.37 489.69.38" transform="translate(18.384 65.046)"/><path fill="none" fill-opacity=".3" stroke="#000" stroke-dasharray="1.5 7" stroke-linecap="round" stroke-opacity=".3" stroke-width="1.5" d="M-.69-.79c125.01.04 248.38.24 490.57.99" transform="translate(18.273 113.771)"/><path fill="none" fill-opacity=".3" stroke="#000" stroke-dasharray="1.5 7" stroke-linecap="round" stroke-opacity=".3" stroke-width="1.5" d="M-.79.33C188.43 1.38 377.7 1.38 490.38-.53" transform="translate(17.961 359.055)"/><path fill="none" fill-opacity=".3" stroke="#000" stroke-dasharray="1.5 7" stroke-linecap="round" stroke-opacity=".3" stroke-width="1.5" d="M.33-.65C149.26 1.48 298.82 2.13 489.65.83" transform="translate(18.448 162.807)"/><path fill="none" fill-opacity=".3" stroke="#000" stroke-dasharray="1.5 7" stroke-linecap="round" stroke-opacity=".3" stroke-width="1.5" d="M-.65-.31c106.84-.79 214.13-1.02 491.66.84" transform="translate(17.96 211.796)"/><path fill="none" fill-opacity=".3" stroke="#000" stroke-dasharray="1.5 7" stroke-linecap="round" stroke-opacity=".3" stroke-width="1.5" d="M-.31-.45c100.64 2.23 201.04 2.86 491.02.03" transform="translate(17.868 260.876)"/><path fill="none" fill-opacity=".3" stroke="#000" stroke-dasharray="1.5 7" stroke-linecap="round" stroke-opacity=".3" stroke-width="1.5" d="M-.8-.54C-1.04 98.84.4 200.52.16 295.44" transform="translate(66.236 65.652)"/><path fill="none" fill-opacity=".3" stroke="#000" stroke-dasharray="1.5 7" stroke-linecap="round" stroke-opacity=".3" stroke-width="1.5" d="M-.54.35C-1.92 66.82-.2 129.94.37 292.7" transform="translate(18.067 65.952)"/><path fill="none" fill-opacity=".3" stroke="#000" stroke-dasharray="1.5 7" stroke-linecap="round" stroke-opacity=".3" stroke-width="1.5" d="M.35-.95c.18 79.35-1.8 156.98-.61 293.99" transform="translate(311.455 65.355)"/><path fill="none" fill-opacity=".3" stroke="#000" stroke-dasharray="1.5 7" stroke-linecap="round" stroke-opacity=".3" stroke-width="1.5" d="M-.95 1.48c.94 70.17.96 142.14-.97 293.94" transform="translate(361.69 64.005)"/><path fill="none" fill-opacity=".3" stroke="#000" stroke-dasharray="1.5 7" stroke-linecap="round" stroke-opacity=".3" stroke-width="1.5" d="M1.48.95C-.48 78.59-1.15 153.64.1 293.98" transform="translate(459.15 64.8)"/><path fill="none" fill-opacity=".3" stroke="#000" stroke-dasharray="1.5 7" stroke-linecap="round" stroke-opacity=".3" stroke-width="1.5" d="M.95-.75C.03 94.12-2.08 191.63.79 295.78" transform="translate(114.843 64.06)"/><path fill="none" fill-opacity=".3" stroke="#000" stroke-dasharray="1.5 7" stroke-linecap="round" stroke-opacity=".3" stroke-width="1.5" d="M-.75 1.13c1.92 67.14 4.3 137.83 2.92 294.12" transform="translate(408.998 64.086)"/><path fill="none" fill-opacity=".3" stroke="#000" stroke-dasharray="1.5 7" stroke-linecap="round" stroke-opacity=".3" stroke-width="1.5" d="M1.13-1.17c-.56 119.78 1.03 237.74.83 296.82" transform="translate(212.356 64.21)"/><path fill="none" fill-opacity=".3" stroke="#000" stroke-dasharray="1.5 7" stroke-linecap="round" stroke-opacity=".3" stroke-width="1.5" d="M-1.17-1.27c1.45 108.23 2.2 216.29 3.42 296.46" transform="translate(507.048 64.28)"/><path fill="none" fill-opacity=".3" stroke="#000" stroke-dasharray="1.5 7" stroke-linecap="round" stroke-opacity=".3" stroke-width="1.5" d="M-1.27 1.05c3.04 73.86 4.25 147.16 3.06 294.01" transform="translate(163.323 64.376)"/><text x="4.493" dominant-baseline="text-before-edge" font-family="Virgil, Segoe UI Emoji" font-size="13.072" style="white-space:pre" text-anchor="middle" transform="translate(355.724 324.73)">2</text><text x="4.493" dominant-baseline="text-before-edge" font-family="Virgil, Segoe UI Emoji" font-size="13.072" style="white-space:pre" text-anchor="middle" transform="translate(404.742 324.73)">3</text><text x="1.634" dominant-baseline="text-before-edge" font-family="Virgil, Segoe UI Emoji" font-size="13.072" style="white-space:pre" text-anchor="middle" transform="translate(309.439 324.332)">1</text><text x="4.085" dominant-baseline="text-before-edge" font-family="Virgil, Segoe UI Emoji" font-size="13.072" style="white-space:pre" text-anchor="middle" transform="translate(455.57 324.73)">4</text><text x="4.085" dominant-baseline="text-before-edge" font-family="Virgil, Segoe UI Emoji" font-size="13.072" style="white-space:pre" text-anchor="middle" transform="translate(506.738 324.73)">5</text><text x="7.901" dominant-baseline="text-before-edge" font-family="Virgil, Segoe UI Emoji" font-size="13.072" style="white-space:pre" text-anchor="middle" transform="translate(227.97 55.974)">1.0</text><text x="11.193" dominant-baseline="text-before-edge" font-family="Virgil, Segoe UI Emoji" font-size="13.072" style="white-space:pre" text-anchor="middle" transform="translate(224.527 108.17)">0.8</text><text x="10.535" dominant-baseline="text-before-edge" font-family="Virgil, Segoe UI Emoji" font-size="13.072" style="white-space:pre" text-anchor="middle" transform="translate(224.679 156.885)">0.6</text><text x="10.535" dominant-baseline="text-before-edge" font-family="Virgil, Segoe UI Emoji" font-size="13.072" style="white-space:pre" text-anchor="middle" transform="translate(225.337 202.575)">0.4</text><text x="10.864" dominant-baseline="text-before-edge" font-family="Virgil, Segoe UI Emoji" font-size="13.072" style="white-space:pre" text-anchor="middle" transform="translate(225.462 251.442)">0.2</text><text x="13.498" fill="#343a40" dominant-baseline="text-before-edge" font-family="Virgil, Segoe UI Emoji" font-size="13.072" style="white-space:pre" text-anchor="middle" transform="translate(221.057 353.788)">-0.2</text><text x="7.353" fill="#343a40" dominant-baseline="text-before-edge" font-family="Virgil, Segoe UI Emoji" font-size="13.072" style="white-space:pre" text-anchor="middle" transform="translate(153.525 324.531)">-2</text><text x="6.944" fill="#343a40" dominant-baseline="text-before-edge" font-family="Virgil, Segoe UI Emoji" font-size="13.072" style="white-space:pre" text-anchor="middle" transform="translate(104.848 324.73)">-3</text><text x="4.493" fill="#343a40" dominant-baseline="text-before-edge" font-family="Virgil, Segoe UI Emoji" font-size="13.072" style="white-space:pre" text-anchor="middle" transform="translate(204.539 324.93)">-1</text><text x="6.944" fill="#343a40" dominant-baseline="text-before-edge" font-family="Virgil, Segoe UI Emoji" font-size="13.072" style="white-space:pre" text-anchor="middle" transform="translate(54.847 324.73)">-4</text><text x="6.536" fill="#343a40" dominant-baseline="text-before-edge" font-family="Virgil, Segoe UI Emoji" font-size="13.072" style="white-space:pre" text-anchor="middle" transform="translate(10 324.73)">-5</text><text x="121.151" dominant-baseline="text-before-edge" font-family="Virgil, Segoe UI Emoji" font-size="18.436" style="white-space:pre" text-anchor="middle" transform="translate(143.765 10)">Sigmoid Activation Function</text><text x="4.609" dominant-baseline="text-before-edge" font-family="Virgil, Segoe UI Emoji" font-size="18.436" style="white-space:pre" text-anchor="middle" transform="translate(258.115 37.05)">Y</text><text x="5.597" dominant-baseline="text-before-edge" font-family="Virgil, Segoe UI Emoji" font-size="18.436" style="white-space:pre" text-anchor="middle" transform="translate(517.207 297.788)">X</text><path fill="none" stroke="#0b7285" stroke-linecap="round" stroke-width="4" d="M1.03.2c11.63-.65 43.68.8 68.08-5.9 24.41-6.7 48.31-15.35 78.37-34.3 30.05-18.96 67.91-52.74 101.95-79.43 34.04-26.69 71.87-62.05 102.3-80.7 30.44-18.66 56.49-24.72 80.33-31.25 23.83-6.53 52.73-6.41 62.69-7.95M-1.85-2.17C9.4-3.41 41.71-3.53 66.5-9.57c24.78-6.04 49.74-9.63 80.38-28.84 30.65-19.21 69.93-59.41 103.48-86.41 33.56-27 68.33-57.62 97.87-75.59 29.54-17.96 54.59-25.3 79.36-32.19 24.78-6.89 57.73-7.69 69.3-9.14" transform="translate(13.62 307.409)"/></svg>