<svg xmlns="http://www.w3.org/2000/svg" width="1075.694" height="775.655" viewBox="0 0 537.847 387.827"><defs><style>@font-face {
        font-family: &quot;Virgil&quot;;
        src: url(&quot;/assets/woff2/Virgil.woff2&quot;);
      }
      @font-face {
        font-family: &quot;Cascadia&quot;;
        src: url(&quot;/assets/woff2/Cascadia.woff2&quot;);
      }</style></defs><path fill="none" fill-opacity=".9" stroke="#343a40" stroke-linecap="round" stroke-opacity=".9" stroke-width="4" d="M.76.29C191.88.05 384.04-.42 488.02-.08M.4-.14c101.01.62 201.94.6 487.95.01" transform="translate(18.317 312.422)"/><path fill="none" fill-opacity=".9" stroke="#343a40" stroke-linecap="round" stroke-opacity=".9" stroke-width="4" d="M.5-.7c-.69-76.44-1.72-152.89-1.54-310.32M-.24.35c.48-103.58.13-207.17-.88-310.16" transform="translate(262.119 377.478)"/><path fill="none" fill-opacity=".9" stroke="#343a40" stroke-linecap="round" stroke-opacity=".9" stroke-width="2" d="M-.78-.07c-.13-3.28-.14-4.81.09-7.38M.39.06c-.44-2.27-.72-4.73.28-8.7" transform="translate(310.937 319.904)"/><path fill="none" fill-opacity=".9" stroke="#343a40" stroke-linecap="round" stroke-opacity=".9" stroke-width="2" d="M-.07-1.01c-.66-3.34.48-6.7 1.4-7.33M.06-.12c.32-3.68.39-6.35.09-7.1" transform="rotate(-91.714 234.824 -19.28)"/><path fill="none" fill-opacity=".9" stroke="#343a40" stroke-linecap="round" stroke-opacity=".9" stroke-width="2" d="M-.98-1.25C.05-3.49.94-4.36 2.35-8.53M.01-.62c.01-2.29-.12-4.19.75-7.59" transform="rotate(-91.714 211.993 -43.107)"/><path fill="none" fill-opacity=".9" stroke="#343a40" stroke-linecap="round" stroke-opacity=".9" stroke-width="2" d="M-.15-1.49c.97-.75 2.18-2.83 1.73-6.38M-.24-.13c-.19-1.38.66-4.65.61-7.76" transform="rotate(-91.714 187.437 -65.844)"/><path fill="none" fill-opacity=".9" stroke="#343a40" stroke-linecap="round" stroke-opacity=".9" stroke-width="2" d="M.53-.35c1.21-1.96.62-3.07.04-7.62M-.65.76C.19-2-.02-3.46 1.47-7.31" transform="rotate(-91.714 163.606 -92.36)"/><path fill="none" fill-opacity=".9" stroke="#343a40" stroke-linecap="round" stroke-opacity=".9" stroke-width="2" d="M-.35 1.55C-.16-1.54.73-4.87.81-9.23M.76-.04c-.75-2.52-.21-3.58.72-8.48" transform="rotate(-91.714 306.561 54.932)"/><path fill="none" fill-opacity=".9" stroke="#343a40" stroke-linecap="round" stroke-opacity=".9" stroke-width="2" d="M1.55-.55c-.65-.98-1.5-2.74-2-7.92m.41 8.24C-.07-2.19 1.25-3.87.27-7.8" transform="rotate(-91.714 256.84 4.31)"/><path fill="none" fill-opacity=".9" stroke="#343a40" stroke-linecap="round" stroke-opacity=".9" stroke-width="2" d="M-.25.02c-.96-2.9.37-6.15 2.87-8.92M.74.75c-.98-2.94-.09-5.43.61-8.82" transform="translate(359.646 322.075)"/><path fill="none" fill-opacity=".9" stroke="#343a40" stroke-linecap="round" stroke-opacity=".9" stroke-width="2" d="M-1.33-.52C-.1-4.02 1.96-5.34.01-9.47M-.57.19C.06-2.57.57-4.62.52-9.41" transform="translate(408.584 319.884)"/><path fill="none" fill-opacity=".9" stroke="#343a40" stroke-linecap="round" stroke-opacity=".9" stroke-width="2" d="M-.29-1.41C1.74-2.7-.44-6.16.07-7.25M.05.11C.47-2.61.03-7.55.51-8.23" transform="translate(457.776 322.438)"/><path fill="none" fill-opacity=".9" stroke="#343a40" stroke-linecap="round" stroke-opacity=".9" stroke-width="2" d="M1.93-.1C-.85-3.83-.34-3.78.61-11.49M.47.85C-.36-4.28.02-5.98-.27-9.63" transform="translate(507.663 322.135)"/><path fill="none" fill-opacity=".9" stroke="#343a40" stroke-linecap="round" stroke-opacity=".9" stroke-width="2" d="M-.08-.47c-.85-1.66 1.2-2.78-1.7-7.36M.69.01c-1.73-1.9-.68-4.33-.97-8.84" transform="translate(19.91 321.26)"/><path fill="none" fill-opacity=".9" stroke="#343a40" stroke-linecap="round" stroke-opacity=".9" stroke-width="2" d="M-.89.19c2.77-2.06.71-6.39 2.16-8.33M-.84.62C.73-2.2 1.09-6.42 1.17-8.94" transform="translate(63.821 320.356)"/><path fill="none" fill-opacity=".9" stroke="#343a40" stroke-linecap="round" stroke-opacity=".9" stroke-width="2" d="M1.27 1.28c-2.35-3-1.4-5.22-1.1-7.61M.41.63c-.05-3.5-.6-5.74-.86-8.8" transform="translate(114.486 319.606)"/><path fill="none" fill-opacity=".9" stroke="#343a40" stroke-linecap="round" stroke-opacity=".9" stroke-width="2" d="M-1.2.41C.03-2.58.86-4.1.31-10.77M.44-.68c-.45-3.31-.23-6.7.61-8.35" transform="translate(163.151 320.56)"/><path fill="none" fill-opacity=".9" stroke="#343a40" stroke-linecap="round" stroke-opacity=".9" stroke-width="2" d="M.18.66c.86-2.31-1.9-2.95.05-6.65M-.5.08c-.11-1.97.19-4.39-.55-6.61" transform="translate(212.523 320.09)"/><path fill="none" fill-opacity=".3" stroke="#000" stroke-dasharray="1.5 7" stroke-linecap="round" stroke-opacity=".3" stroke-width="1.5" d="M.39.7C157.67-1.08 315.93.2 489.36.41" transform="translate(17.936 67.94)"/><path fill="none" fill-opacity=".3" stroke="#000" stroke-dasharray="1.5 7" stroke-linecap="round" stroke-opacity=".3" stroke-width="1.5" d="M.01-.83c153.29-.43 306.05-.47 488.03.82" transform="translate(18.374 116.967)"/><path fill="none" fill-opacity=".3" stroke="#000" stroke-dasharray="1.5 7" stroke-linecap="round" stroke-opacity=".3" stroke-width="1.5" d="M-.83.62C169.64.66 338.78-.66 488.66-.59" transform="translate(18.015 361.163)"/><path fill="none" fill-opacity=".3" stroke="#000" stroke-dasharray="1.5 7" stroke-linecap="round" stroke-opacity=".3" stroke-width="1.5" d="M.62.45C188.18 2.44 374.34 2.01 488.09.09" transform="translate(18.447 165.714)"/><path fill="none" fill-opacity=".3" stroke="#000" stroke-dasharray="1.5 7" stroke-linecap="round" stroke-opacity=".3" stroke-width="1.5" d="M.69.41c96.85-1.53 195.08-1.42 487.37.3" transform="translate(18.468 214.54)"/><path fill="none" fill-opacity=".3" stroke="#000" stroke-dasharray="1.5 7" stroke-linecap="round" stroke-opacity=".3" stroke-width="1.5" d="M-.64-.01c173.1-.9 346.11-.28 489.27.82" transform="translate(18.053 263.386)"/><path fill="none" fill-opacity=".3" stroke="#000" stroke-dasharray="1.5 7" stroke-linecap="round" stroke-opacity=".3" stroke-width="1.5" d="M-1.04.17c-1.4 103.53-.06 206.12.92 294.56" transform="translate(66.249 67.491)"/><path fill="none" fill-opacity=".3" stroke="#000" stroke-dasharray="1.5 7" stroke-linecap="round" stroke-opacity=".3" stroke-width="1.5" d="M-.04-.54c.41 102.72 1.99 203.18-1.72 294.37" transform="translate(18.348 68.069)"/><path fill="none" fill-opacity=".3" stroke="#000" stroke-dasharray="1.5 7" stroke-linecap="round" stroke-opacity=".3" stroke-width="1.5" d="M.17-1.09C1.44 65.65 1.8 130.4 2.23 293.42" transform="translate(309.723 67.894)"/><path fill="none" fill-opacity=".3" stroke="#000" stroke-dasharray="1.5 7" stroke-linecap="round" stroke-opacity=".3" stroke-width="1.5" d="M.1.58c-.18 90.84-1.31 181.18-1.59 292.98" transform="translate(360.578 67.81)"/><path fill="none" fill-opacity=".3" stroke="#000" stroke-dasharray="1.5 7" stroke-linecap="round" stroke-opacity=".3" stroke-width="1.5" d="M.11-.02c-1.88 69.56-2.45 140.21-1.34 292.81" transform="translate(458.54 68.229)"/><path fill="none" fill-opacity=".3" stroke="#000" stroke-dasharray="1.5 7" stroke-linecap="round" stroke-opacity=".3" stroke-width="1.5" d="M-1.09 1.27c-.24 87.69-.93 175.11 2.01 293.14" transform="translate(114.605 67.588)"/><path fill="none" fill-opacity=".3" stroke="#000" stroke-dasharray="1.5 7" stroke-linecap="round" stroke-opacity=".3" stroke-width="1.5" d="M1.27-.07c.57 66.51.62 135.01.43 293.65" transform="translate(408.042 67.788)"/><path fill="none" fill-opacity=".3" stroke="#000" stroke-dasharray="1.5 7" stroke-linecap="round" stroke-opacity=".3" stroke-width="1.5" d="M-.07 1.43C-2.29 92.65-.9 183.66 1.2 294.71" transform="translate(212.127 67.497)"/><path fill="none" fill-opacity=".3" stroke="#000" stroke-dasharray="1.5 7" stroke-linecap="round" stroke-opacity=".3" stroke-width="1.5" d="M1.43-1.03c1.96 67.55 1.85 134.14.78 295.01" transform="translate(505.138 67.72)"/><path fill="none" fill-opacity=".3" stroke="#000" stroke-dasharray="1.5 7" stroke-linecap="round" stroke-opacity=".3" stroke-width="1.5" d="M-1.03 1.32C.26 114.07.69 227.43 1.48 294.06" transform="translate(163.233 67.697)"/><text x="4.48" dominant-baseline="text-before-edge" font-family="Virgil, Segoe UI Emoji" font-size="13.031" style="white-space:pre" text-anchor="middle" transform="translate(354.659 327.198)">2</text><text x="4.48" dominant-baseline="text-before-edge" font-family="Virgil, Segoe UI Emoji" font-size="13.031" style="white-space:pre" text-anchor="middle" transform="translate(403.526 327.198)">3</text><text x="1.629" dominant-baseline="text-before-edge" font-family="Virgil, Segoe UI Emoji" font-size="13.031" style="white-space:pre" text-anchor="middle" transform="translate(308.516 326.801)">1</text><text x="4.072" dominant-baseline="text-before-edge" font-family="Virgil, Segoe UI Emoji" font-size="13.031" style="white-space:pre" text-anchor="middle" transform="translate(454.197 327.198)">4</text><text x="4.072" dominant-baseline="text-before-edge" font-family="Virgil, Segoe UI Emoji" font-size="13.031" style="white-space:pre" text-anchor="middle" transform="translate(505.208 327.198)">5</text><text x="4.072" dominant-baseline="text-before-edge" font-family="Virgil, Segoe UI Emoji" font-size="13.031" style="white-space:pre" text-anchor="middle" transform="translate(233.73 59.27)">5</text><text x="4.072" dominant-baseline="text-before-edge" font-family="Virgil, Segoe UI Emoji" font-size="13.031" style="white-space:pre" text-anchor="middle" transform="translate(233.579 111.304)">4</text><text x="4.48" dominant-baseline="text-before-edge" font-family="Virgil, Segoe UI Emoji" font-size="13.031" style="white-space:pre" text-anchor="middle" transform="translate(233.322 159.87)">3</text><text x="4.48" dominant-baseline="text-before-edge" font-family="Virgil, Segoe UI Emoji" font-size="13.031" style="white-space:pre" text-anchor="middle" transform="translate(233.322 205.419)">2</text><text x="1.629" dominant-baseline="text-before-edge" font-family="Virgil, Segoe UI Emoji" font-size="13.031" style="white-space:pre" text-anchor="middle" transform="translate(236.625 254.136)">1</text><text x="4.48" fill="#343a40" dominant-baseline="text-before-edge" font-family="Virgil, Segoe UI Emoji" font-size="13.031" style="white-space:pre" text-anchor="middle" transform="translate(233.322 356.166)">-1</text><text x="7.33" fill="#343a40" dominant-baseline="text-before-edge" font-family="Virgil, Segoe UI Emoji" font-size="13.031" style="white-space:pre" text-anchor="middle" transform="translate(153.083 327)">-2</text><text x="6.923" fill="#343a40" dominant-baseline="text-before-edge" font-family="Virgil, Segoe UI Emoji" font-size="13.031" style="white-space:pre" text-anchor="middle" transform="translate(104.556 327.198)">-3</text><text x="4.48" fill="#343a40" dominant-baseline="text-before-edge" font-family="Virgil, Segoe UI Emoji" font-size="13.031" style="white-space:pre" text-anchor="middle" transform="translate(203.94 327.397)">-1</text><text x="6.923" fill="#343a40" dominant-baseline="text-before-edge" font-family="Virgil, Segoe UI Emoji" font-size="13.031" style="white-space:pre" text-anchor="middle" transform="translate(54.709 327.198)">-4</text><text x="6.516" fill="#343a40" dominant-baseline="text-before-edge" font-family="Virgil, Segoe UI Emoji" font-size="13.031" style="white-space:pre" text-anchor="middle" transform="translate(10 327.198)">-5</text><path fill="none" stroke="#e67700" stroke-linecap="round" stroke-width="4" d="M1.28-1.69c72.19.09 141.73-3.53 244.9.64M1.36-.17C53.69 4.38 110.03 3.44 243.2.75m-.09 2.16c80.2-83.67 157.13-158.72 247.28-246.59M243.5 1.16c92.09-92.05 184.19-185.87 243.57-244.61" transform="translate(16.05 312.635)"/><text x="126.072" dominant-baseline="text-before-edge" font-family="Virgil, Segoe UI Emoji" font-size="20.577" style="white-space:pre" text-anchor="middle" transform="translate(135.26 10)">ReLu Activation Function</text><text x="4.595" dominant-baseline="text-before-edge" font-family="Virgil, Segoe UI Emoji" font-size="18.379" style="white-space:pre" text-anchor="middle" transform="translate(256.425 41.664)">Y</text><text x="5.579" dominant-baseline="text-before-edge" font-family="Virgil, Segoe UI Emoji" font-size="18.379" style="white-space:pre" text-anchor="middle" transform="translate(516.688 300.943)">X</text></svg>